<svg width="41" height="25" viewBox="0 0 41 25" fill="none" xmlns="http://www.w3.org/2000/svg">
<path d="M12.27 0C13.4111 0 14.4665 0.0892855 15.4308 0.353571C16.3058 0.514365 17.141 0.844339 17.8897 1.325C18.5932 1.76607 19.12 2.38571 19.47 3.18035C19.8218 3.97499 19.9968 4.9482 19.9968 6.00713C19.9968 7.24463 19.7343 8.30356 19.12 9.0982C18.5932 9.89462 17.7147 10.6 16.6611 11.1303C18.154 11.5732 19.295 12.3678 19.9968 13.4268C20.7004 14.4875 21.1397 15.8125 21.1397 17.3143C21.1397 18.5518 20.8754 19.6107 20.4361 20.4946C19.9968 21.3785 19.295 22.1732 18.504 22.7035C17.6447 23.272 16.6948 23.6899 15.695 23.9392C14.6415 24.2053 13.5879 24.3821 12.5343 24.3821H0.764709V0H12.27ZM11.5665 9.89284C12.5325 9.89284 13.3236 9.62855 13.9379 9.18748C14.5522 8.74641 14.8165 7.94999 14.8165 6.97856C14.8165 6.4482 14.7272 5.91785 14.5522 5.56606C14.3772 5.21249 14.1129 4.94642 13.7629 4.68213C13.4111 4.50535 13.0593 4.32856 12.62 4.24106C12.1808 4.15178 11.7433 4.15178 11.2147 4.15178H6.12184V9.89462H11.5683L11.5665 9.89284ZM11.8308 20.3178C12.3575 20.3178 12.8843 20.2285 13.3236 20.141C13.7671 20.0567 14.1866 19.8756 14.5522 19.6107C14.91 19.3522 15.2094 19.0212 15.4308 18.6392C15.6058 18.1982 15.7825 17.6678 15.7825 17.05C15.7825 15.8125 15.4308 14.9285 14.729 14.3107C14.0254 13.7803 13.0593 13.516 11.9183 13.516H6.12184V20.3196L11.8308 20.3178ZM28.7807 20.2285C29.4825 20.9357 30.5361 21.2892 31.9414 21.2892C32.9075 21.2892 33.7861 21.025 34.4879 20.5839C35.1914 20.0535 35.6307 19.5232 35.8057 18.9928H40.1093C39.4057 21.1125 38.3521 22.6142 36.9486 23.5857C35.5414 24.4696 33.8736 25 31.8539 25C30.5617 25.0039 29.2804 24.764 28.0772 24.2928C26.9945 23.8866 26.029 23.2192 25.2665 22.35C24.4509 21.5367 23.8481 20.5352 23.5111 19.4339C23.0718 18.2857 22.895 17.05 22.895 15.6357C22.895 14.3107 23.0718 13.075 23.5111 11.925C23.9334 10.818 24.5584 9.79942 25.354 8.92141C26.145 8.12677 27.1111 7.42142 28.1647 6.97856C29.3373 6.50724 30.5901 6.26712 31.8539 6.27142C33.3468 6.27142 34.6646 6.53749 35.8057 7.15534C36.9486 7.7732 37.8254 8.48034 38.5289 9.54105C39.2466 10.5599 39.7814 11.6959 40.1093 12.8982C40.2843 14.1339 40.3718 15.3714 40.2843 16.7839H27.5504C27.5504 18.1982 28.0772 19.5232 28.7807 20.2303V20.2285ZM34.3129 10.9536C33.6986 10.3357 32.7325 9.98212 31.5897 9.98212C30.9196 9.97208 30.2569 10.1234 29.6575 10.4232C29.1307 10.6893 28.7807 11.0428 28.4289 11.3964C28.1057 11.7379 27.8918 12.1682 27.8147 12.6321C27.7254 13.075 27.6379 13.4268 27.6379 13.7803H35.5414C35.3664 12.4553 34.9271 11.5732 34.3129 10.9536ZM26.5843 1.67857H36.42V4.06428H26.5861V1.67857H26.5843Z" fill="white"/>
</svg>
