<svg width="27" height="25" viewBox="0 0 27 25" fill="none" xmlns="http://www.w3.org/2000/svg">
<path d="M13.5997 0C11.9174 0 10.2516 0.331349 8.6974 0.975129C7.14318 1.61891 5.73098 2.56251 4.54143 3.75206C2.13902 6.15447 0.789368 9.41282 0.789368 12.8103C0.789368 18.4725 4.46593 23.2764 9.55164 24.9802C10.1922 25.0826 10.3971 24.6855 10.3971 24.3396V22.1747C6.84866 22.9433 6.09285 20.4581 6.09285 20.4581C5.50357 18.9721 4.6709 18.575 4.6709 18.575C3.50516 17.7807 4.76057 17.8064 4.76057 17.8064C6.0416 17.896 6.72055 19.1258 6.72055 19.1258C7.83505 21.073 9.71817 20.4965 10.4484 20.1891C10.5637 19.3564 10.8967 18.7928 11.2554 18.4725C8.41152 18.1522 5.42671 17.0506 5.42671 12.1698C5.42671 10.7479 5.9135 9.60775 6.74617 8.69822C6.61807 8.37796 6.16971 7.04569 6.87428 5.31629C6.87428 5.31629 7.95034 4.97041 10.3971 6.62294C11.4091 6.34112 12.5108 6.2002 13.5997 6.2002C14.6886 6.2002 15.7903 6.34112 16.8023 6.62294C19.2491 4.97041 20.3251 5.31629 20.3251 5.31629C21.0297 7.04569 20.5813 8.37796 20.4532 8.69822C21.2859 9.60775 21.7727 10.7479 21.7727 12.1698C21.7727 17.0634 18.7751 18.1394 15.9184 18.4597C16.3795 18.8568 16.8023 19.6382 16.8023 20.8296V24.3396C16.8023 24.6855 17.0072 25.0955 17.6606 24.9802C22.7463 23.2636 26.41 18.4725 26.41 12.8103C26.41 11.1281 26.0787 9.46225 25.4349 7.90803C24.7911 6.35381 23.8475 4.94161 22.658 3.75206C21.4684 2.56251 20.0562 1.61891 18.502 0.975129C16.9478 0.331349 15.282 0 13.5997 0Z" fill="white"/>
</svg>
