<svg width="26" height="25" viewBox="0 0 26 25" fill="none" xmlns="http://www.w3.org/2000/svg">
<path d="M7.5686 0H18.0686C22.0686 0 25.3186 3.25 25.3186 7.25V17.75C25.3186 19.6728 24.5548 21.5169 23.1951 22.8765C21.8355 24.2362 19.9914 25 18.0686 25H7.5686C3.5686 25 0.318604 21.75 0.318604 17.75V7.25C0.318604 5.32718 1.08244 3.48311 2.44208 2.12348C3.80172 0.763837 5.64578 0 7.5686 0ZM7.3186 2.5C6.12513 2.5 4.98054 2.97411 4.13662 3.81802C3.29271 4.66193 2.8186 5.80653 2.8186 7V18C2.8186 20.4875 4.8311 22.5 7.3186 22.5H18.3186C19.5121 22.5 20.6567 22.0259 21.5006 21.182C22.3445 20.3381 22.8186 19.1935 22.8186 18V7C22.8186 4.5125 20.8061 2.5 18.3186 2.5H7.3186ZM19.3811 4.375C19.7955 4.375 20.1929 4.53962 20.486 4.83265C20.779 5.12567 20.9436 5.5231 20.9436 5.9375C20.9436 6.3519 20.779 6.74933 20.486 7.04235C20.1929 7.33538 19.7955 7.5 19.3811 7.5C18.9667 7.5 18.5693 7.33538 18.2762 7.04235C17.9832 6.74933 17.8186 6.3519 17.8186 5.9375C17.8186 5.5231 17.9832 5.12567 18.2762 4.83265C18.5693 4.53962 18.9667 4.375 19.3811 4.375ZM12.8186 6.25C14.4762 6.25 16.0659 6.90848 17.238 8.08058C18.4101 9.25268 19.0686 10.8424 19.0686 12.5C19.0686 14.1576 18.4101 15.7473 17.238 16.9194C16.0659 18.0915 14.4762 18.75 12.8186 18.75C11.161 18.75 9.57129 18.0915 8.39919 16.9194C7.22708 15.7473 6.5686 14.1576 6.5686 12.5C6.5686 10.8424 7.22708 9.25268 8.39919 8.08058C9.57129 6.90848 11.161 6.25 12.8186 6.25ZM12.8186 8.75C11.824 8.75 10.8702 9.14509 10.167 9.84835C9.46369 10.5516 9.0686 11.5054 9.0686 12.5C9.0686 13.4946 9.46369 14.4484 10.167 15.1517C10.8702 15.8549 11.824 16.25 12.8186 16.25C13.8132 16.25 14.767 15.8549 15.4703 15.1517C16.1735 14.4484 16.5686 13.4946 16.5686 12.5C16.5686 11.5054 16.1735 10.5516 15.4703 9.84835C14.767 9.14509 13.8132 8.75 12.8186 8.75Z" fill="white"/>
</svg>
