<svg width="27" height="25" viewBox="0 0 27 25" fill="none" xmlns="http://www.w3.org/2000/svg">
<path d="M5.87385 2.77901C5.87348 3.51568 5.58049 4.22204 5.05932 4.74268C4.53816 5.26333 3.83151 5.55562 3.09484 5.55525C2.35817 5.55488 1.65181 5.26188 1.13117 4.74072C0.610524 4.21955 0.318236 3.51291 0.318604 2.77624C0.318972 2.03956 0.611967 1.33321 1.13313 0.812565C1.6543 0.29192 2.36094 -0.000367988 3.09762 3.47705e-07C3.83429 0.000368683 4.54064 0.293363 5.06129 0.814529C5.58193 1.3357 5.87422 2.04234 5.87385 2.77901ZM5.95718 7.61208H0.401932V25H5.95718V7.61208ZM14.7345 7.61208H9.207V25H14.6789V15.8755C14.6789 10.7925 21.3035 10.3203 21.3035 15.8755V25H26.7894V13.9867C26.7894 5.41776 16.9843 5.73718 14.6789 9.94528L14.7345 7.61208Z" fill="white"/>
</svg>
