<svg width="101" height="32" viewBox="0 0 101 32" fill="none" xmlns="http://www.w3.org/2000/svg">
<path d="M0.308105 8.8261V8.16361H2.20314V8.8261C2.20314 9.68888 2.68075 10.3668 3.79004 10.3668C4.89933 10.3668 5.36153 9.7351 5.36153 8.74906V0.737538H7.3336V8.85691C7.3336 10.8444 5.94699 12.2002 3.80544 12.2002C1.49443 12.2002 0.308105 10.7674 0.308105 8.8261Z" fill="white"/>
<path d="M15.0641 1.19974L13.5542 3.47994H12.1676L13.3231 1.19974H15.0641ZM12.8763 12.2002C10.6115 12.2002 9.02461 10.5517 9.02461 8.19442C9.02461 5.80637 10.5807 4.15784 12.8147 4.15784C15.0949 4.15784 16.5431 5.68311 16.5431 8.05576V8.62581L10.8118 8.64122C10.9505 9.98161 11.6592 10.6595 12.9071 10.6595C13.9394 10.6595 14.6173 10.2589 14.833 9.53481H16.5739C16.2504 11.1987 14.8638 12.2002 12.8763 12.2002ZM12.8301 5.69852C11.7208 5.69852 11.0429 6.29939 10.858 7.43949H14.6789C14.6789 6.39183 13.9548 5.69852 12.8301 5.69852Z" fill="white"/>
<path d="M22.8235 4.35813V6.0991H22.1302C20.7744 6.0991 19.9271 6.82322 19.9271 8.30227V11.9999H18.0474V4.40435H19.8192L19.9271 5.51364C20.2506 4.75871 20.9747 4.25028 21.9916 4.25028C22.2535 4.25028 22.5154 4.2811 22.8235 4.35813Z" fill="white"/>
<path d="M29.4327 1.19974L27.9228 3.47994H26.5362L27.6917 1.19974H29.4327ZM27.2449 12.2002C24.9801 12.2002 23.3932 10.5517 23.3932 8.19442C23.3932 5.80637 24.9493 4.15784 27.1833 4.15784C29.4635 4.15784 30.9117 5.68311 30.9117 8.05576V8.62581L25.1804 8.64122C25.3191 9.98161 26.0278 10.6595 27.2757 10.6595C28.308 10.6595 28.9859 10.2589 29.2016 9.53481H30.9426C30.619 11.1987 29.2324 12.2002 27.2449 12.2002ZM27.1987 5.69852C26.0894 5.69852 25.4115 6.29939 25.2266 7.43949H29.0475C29.0475 6.39183 28.3234 5.69852 27.1987 5.69852Z" fill="white"/>
<path d="M34.2957 11.9999H32.4161V4.38894H34.1416L34.2957 5.28254C34.6809 4.65086 35.4512 4.15784 36.5451 4.15784C37.7006 4.15784 38.5018 4.72789 38.9023 5.60608C39.2875 4.72789 40.1811 4.15784 41.3366 4.15784C43.1854 4.15784 44.2023 5.26713 44.2023 7.0235V11.9999H42.338V7.51652C42.338 6.42264 41.7526 5.85259 40.859 5.85259C39.95 5.85259 39.2567 6.43805 39.2567 7.686V11.9999H37.3771V7.50111C37.3771 6.43805 36.807 5.868 35.9134 5.868C35.0198 5.868 34.2957 6.45345 34.2957 7.686V11.9999Z" fill="white"/>
<path d="M45.2345 15.528V13.9566H46.3592C47.0987 13.9566 47.5609 13.7871 47.8845 12.8935L48.1002 12.3234L45.0342 4.38894H47.0217L48.9784 9.93539L51.0429 4.38894H52.9841L49.2557 13.6946C48.6856 15.1121 47.8845 15.6975 46.6365 15.6975C46.1127 15.6975 45.6505 15.6359 45.2345 15.528Z" fill="white"/>
<path d="M58.4817 11.9999V0.737538H62.9651C65.1836 0.737538 66.5394 1.89305 66.5394 3.77267C66.5394 5.02062 65.9848 5.91422 64.9217 6.36101C66.1081 6.74618 66.7089 7.63977 66.7089 8.94935C66.7089 10.8752 65.3685 11.9999 63.0421 11.9999H58.4817ZM62.7956 2.4785H60.4538V5.54445H62.8418C63.9203 5.54445 64.5212 4.9744 64.5212 3.97296C64.5212 3.00233 63.9049 2.4785 62.7956 2.4785ZM62.9651 7.20839H60.4538V10.2589H62.9651C64.0744 10.2589 64.6906 9.71969 64.6906 8.70284C64.6906 7.74762 64.059 7.20839 62.9651 7.20839Z" fill="white"/>
<path d="M73.8325 1.19974L72.3226 3.47994H70.936L72.0915 1.19974H73.8325ZM71.6447 12.2002C69.3799 12.2002 67.7931 10.5517 67.7931 8.19442C67.7931 5.80637 69.3491 4.15784 71.5831 4.15784C73.8633 4.15784 75.3116 5.68311 75.3116 8.05576V8.62581L69.5802 8.64122C69.7189 9.98161 70.4276 10.6595 71.6756 10.6595C72.7078 10.6595 73.3857 10.2589 73.6014 9.53481H75.3424C75.0188 11.1987 73.6322 12.2002 71.6447 12.2002ZM71.5985 5.69852C70.4892 5.69852 69.8113 6.29939 69.6265 7.43949H73.4473C73.4473 6.39183 72.7232 5.69852 71.5985 5.69852Z" fill="white"/>
<path d="M82.4122 11.9999H76.2649V10.4592L80.0549 5.96044H76.2649V4.38894H82.4122V5.94503L78.5605 10.4284H82.4122V11.9999Z" fill="white"/>
<path d="M84.8874 2.86367C84.2403 2.86367 83.7318 2.35525 83.7318 1.72357C83.7318 1.09189 84.2403 0.598877 84.8874 0.598877C85.5036 0.598877 86.012 1.09189 86.012 1.72357C86.012 2.35525 85.5036 2.86367 84.8874 2.86367ZM83.9475 11.9999V4.38894H85.8272V11.9999H83.9475Z" fill="white"/>
<path d="M90.0339 12.2002C88.4162 12.2002 87.4302 11.2604 87.4302 9.82754C87.4302 8.42552 88.447 7.54733 90.2496 7.40867L92.5298 7.2392V7.06972C92.5298 6.03747 91.9136 5.62149 90.9583 5.62149C89.8491 5.62149 89.2328 6.08369 89.2328 6.88484H87.6305C87.6305 5.23632 88.9863 4.15784 91.0508 4.15784C93.0999 4.15784 94.3632 5.26713 94.3632 7.37786V11.9999H92.7147L92.5761 10.8752C92.2525 11.6609 91.2203 12.2002 90.0339 12.2002ZM90.6502 10.7828C91.8057 10.7828 92.5452 10.0895 92.5452 8.91854V8.51796L90.9583 8.64122C89.7874 8.74906 89.3406 9.13423 89.3406 9.7505C89.3406 10.4438 89.8028 10.7828 90.6502 10.7828Z" fill="white"/>
<path d="M98.6928 11.9999H96.8132V5.96044H95.3495V4.38894H96.8132V2.0163H98.6928V4.38894H100.172V5.96044H98.6928V11.9999Z" fill="white"/>
<path d="M5.03997 27.8603H2.22597V31.5424H1.21797V21.5184H5.03997C6.97197 21.5184 8.18997 22.7783 8.18997 24.6684C8.18997 26.4884 6.95797 27.8603 5.03997 27.8603ZM4.89997 22.4284H2.22597V26.9503H4.84397C6.29997 26.9503 7.13997 26.0264 7.13997 24.6544C7.13997 23.2684 6.28597 22.4284 4.89997 22.4284Z" fill="white"/>
<path d="M8.8308 28.1544C8.8308 26.0824 10.2868 24.5844 12.2748 24.5844C14.2628 24.5844 15.7188 26.0824 15.7188 28.1544C15.7188 30.2124 14.2628 31.7104 12.2748 31.7104C10.2868 31.7104 8.8308 30.2124 8.8308 28.1544ZM9.8108 28.1404C9.8108 29.7364 10.8188 30.8424 12.2748 30.8424C13.7168 30.8424 14.7388 29.7364 14.7388 28.1404C14.7388 26.5724 13.7168 25.4524 12.2748 25.4524C10.8188 25.4524 9.8108 26.5724 9.8108 28.1404Z" fill="white"/>
<path d="M20.8058 24.6824V25.5504H20.2738C19.0278 25.5504 18.2298 26.3904 18.2298 27.6784V31.5424H17.2638V24.7663H18.1738L18.2438 25.8164C18.5098 25.0884 19.2238 24.6124 20.1758 24.6124C20.3858 24.6124 20.5678 24.6264 20.8058 24.6824Z" fill="white"/>
<path d="M23.9174 31.5424H22.9654V25.5784H21.6074V24.7663H22.9654V22.6243H23.9174V24.7663H25.2754V25.5784H23.9174V31.5424Z" fill="white"/>
<path d="M25.832 24.7663H26.868V23.4503C26.868 21.9243 27.708 21.3363 28.744 21.3363C28.982 21.3363 29.262 21.3503 29.486 21.3923V22.2183H28.912C28.058 22.2183 27.834 22.6523 27.834 23.4503V24.7663H29.43V25.5784H27.834V31.5424H26.868V25.5784H25.832V24.7663Z" fill="white"/>
<path d="M30.0632 28.1544C30.0632 26.0824 31.5192 24.5844 33.5072 24.5844C35.4952 24.5844 36.9512 26.0824 36.9512 28.1544C36.9512 30.2124 35.4952 31.7104 33.5072 31.7104C31.5192 31.7104 30.0632 30.2124 30.0632 28.1544ZM31.0432 28.1404C31.0432 29.7364 32.0512 30.8424 33.5072 30.8424C34.9492 30.8424 35.9712 29.7364 35.9712 28.1404C35.9712 26.5724 34.9492 25.4524 33.5072 25.4524C32.0512 25.4524 31.0432 26.5724 31.0432 28.1404Z" fill="white"/>
<path d="M39.5042 31.5424H38.5382V21.3363H39.5042V31.5424Z" fill="white"/>
<path d="M42.0348 22.9044C41.6428 22.9044 41.3208 22.5823 41.3208 22.1903C41.3208 21.7983 41.6428 21.4623 42.0348 21.4623C42.4268 21.4623 42.7628 21.7983 42.7628 22.1903C42.7628 22.5823 42.4268 22.9044 42.0348 22.9044ZM41.5588 31.5424V24.7663H42.5247V31.5424H41.5588Z" fill="white"/>
<path d="M44.0632 28.1544C44.0632 26.0824 45.5192 24.5844 47.5072 24.5844C49.4952 24.5844 50.9512 26.0824 50.9512 28.1544C50.9512 30.2124 49.4952 31.7104 47.5072 31.7104C45.5192 31.7104 44.0632 30.2124 44.0632 28.1544ZM45.0432 28.1404C45.0432 29.7364 46.0512 30.8424 47.5072 30.8424C48.9492 30.8424 49.9712 29.7364 49.9712 28.1404C49.9712 26.5724 48.9492 25.4524 47.5072 25.4524C46.0512 25.4524 45.0432 26.5724 45.0432 28.1404Z" fill="white"/>
</svg>
