<svg width="31" height="25" viewBox="0 0 31 25" fill="none" xmlns="http://www.w3.org/2000/svg">
<path d="M30.7647 2.94118C29.6324 3.45588 28.4118 3.79412 27.1471 3.95588C28.4412 3.17647 29.4412 1.94118 29.9118 0.455882C28.6912 1.19118 27.3382 1.70588 25.9118 2C24.75 0.735294 23.1177 0 21.2647 0C17.8088 0 14.9853 2.82353 14.9853 6.30882C14.9853 6.80882 15.0441 7.29412 15.1471 7.75C9.91177 7.48529 5.25 4.97059 2.14706 1.16176C1.60294 2.08824 1.29412 3.17647 1.29412 4.32353C1.29412 6.51471 2.39706 8.45588 4.10294 9.55882C3.05882 9.55882 2.08824 9.26471 1.23529 8.82353V8.86765C1.23529 11.9265 3.41177 14.4853 6.29412 15.0588C5.36872 15.3121 4.3972 15.3473 3.45588 15.1618C3.8553 16.4154 4.63756 17.5124 5.69267 18.2984C6.74779 19.0845 8.02272 19.5201 9.33824 19.5441C7.10828 21.3095 4.34411 22.2637 1.5 22.25C1 22.25 0.5 22.2206 0 22.1618C2.79412 23.9559 6.11765 25 9.67647 25C21.2647 25 27.6324 15.3824 27.6324 7.04412C27.6324 6.76471 27.6324 6.5 27.6177 6.22059C28.8529 5.33823 29.9118 4.22059 30.7647 2.94118Z" fill="white"/>
</svg>
