<svg width="21" height="13" viewBox="0 0 21 13" fill="none" xmlns="http://www.w3.org/2000/svg">
<path d="M18.07 0.640564H13V2.05056H18.09L18.07 0.640564ZM17 10.3406C16.6154 10.5954 16.1612 10.7247 15.7 10.7106C15.3947 10.7424 15.0862 10.7109 14.7937 10.6179C14.5011 10.525 14.2309 10.3727 14 10.1706C13.573 9.68644 13.3507 9.05542 13.38 8.41056H20C20.0477 7.73911 19.9904 7.06433 19.83 6.41056C19.6749 5.78859 19.4034 5.20159 19.03 4.68056C18.6541 4.17517 18.1686 3.76148 17.61 3.47056C16.9884 3.16411 16.3029 3.00986 15.61 3.02056C14.9583 3.01579 14.3123 3.1416 13.71 3.39056C13.1585 3.62306 12.6588 3.963 12.24 4.39056C11.8224 4.82668 11.499 5.34408 11.29 5.91056C11.0657 6.52212 10.9539 7.16921 10.96 7.82056C10.9497 8.48117 11.0581 9.13826 11.28 9.76056C11.4685 10.3241 11.7677 10.8443 12.16 11.2906C12.5659 11.7287 13.0648 12.0704 13.62 12.2906C14.2391 12.5264 14.8976 12.6419 15.56 12.6306C16.4894 12.6595 17.407 12.4162 18.2 11.9306C19.0009 11.3614 19.5775 10.5301 19.83 9.58056H17.62C17.5017 9.8947 17.284 10.1616 17 10.3406V10.3406ZM13.57 6.22056C13.6478 5.97125 13.777 5.741 13.9493 5.54465C14.1215 5.3483 14.3329 5.19021 14.57 5.08056C14.884 4.93925 15.2258 4.87087 15.57 4.88056C15.8186 4.85933 16.0689 4.89213 16.3036 4.97671C16.5384 5.06129 16.7521 5.19564 16.93 5.37056C17.2698 5.7865 17.4878 6.28835 17.56 6.82056H13.41C13.4262 6.61735 13.463 6.41631 13.52 6.22056H13.57ZM8.28 5.74056C8.78896 5.52863 9.23121 5.18312 9.56 4.74056C9.86222 4.27057 10.0124 3.7189 9.99 3.16056C10.0096 2.6514 9.91031 2.14468 9.7 1.68056C9.52331 1.27848 9.23968 0.93259 8.88 0.680564C8.49865 0.418537 8.06561 0.241227 7.61 0.160564C7.07082 0.0474776 6.52087 -0.00617592 5.97 0.000564356H0V12.5806H6.1C6.65669 12.581 7.21116 12.5104 7.75 12.3706C8.26074 12.2384 8.74462 12.0185 9.18 11.7206C9.60174 11.4283 9.94515 11.0368 10.18 10.5806C10.4399 10.0704 10.5672 9.50291 10.55 8.93056C10.5689 8.2213 10.37 7.52328 9.98 6.93056C9.56059 6.33449 8.93852 5.91148 8.23 5.74056H8.28ZM2.77 2.15056H5.36C5.59795 2.15027 5.83548 2.17034 6.07 2.21056C6.28595 2.24257 6.49334 2.31736 6.68 2.43056C6.86035 2.53258 7.00648 2.68567 7.1 2.87056C7.21582 3.09228 7.27102 3.34066 7.26 3.59056C7.27863 3.8058 7.24572 4.02238 7.16399 4.22237C7.08225 4.42235 6.95405 4.59999 6.79 4.74056C6.43212 4.9866 6.00388 5.10945 5.57 5.09056H2.77V2.15056ZM7.61 9.59056C7.50726 9.79437 7.35189 9.967 7.16 10.0906C6.9603 10.2148 6.74027 10.3028 6.51 10.3506C6.25406 10.4079 5.99224 10.4347 5.73 10.4306H2.73V6.98056H5.73C6.24482 6.95802 6.75322 7.10178 7.18 7.39056C7.37281 7.5636 7.52217 7.7796 7.61599 8.02108C7.7098 8.26257 7.74543 8.52275 7.72 8.78056C7.74704 9.05545 7.70936 9.33285 7.61 9.59056V9.59056Z" fill="white" fill-opacity="0.8"/>
</svg>
