<svg width="20" height="20" viewBox="0 0 20 20" fill="none" xmlns="http://www.w3.org/2000/svg">
<path fill-rule="evenodd" clip-rule="evenodd" d="M19.6212 2.20777C19.7413 2.08782 19.8366 1.9454 19.9016 1.78863C19.9667 1.63185 20.0002 1.46381 20.0003 1.29407C20.0004 1.12434 19.9671 0.956252 19.9022 0.799401C19.8374 0.642549 19.7423 0.500008 19.6223 0.379916C19.5024 0.259824 19.36 0.164533 19.2032 0.099483C19.0464 0.0344332 18.8784 0.000898767 18.7086 0.000794446C18.5389 0.000690124 18.3708 0.0340179 18.214 0.098875C18.0571 0.163732 17.9146 0.258848 17.7945 0.378792L10 8.17327L2.20777 0.378792C1.96523 0.136256 1.63628 -2.55554e-09 1.29328 0C0.95028 2.55554e-09 0.621329 0.136256 0.378792 0.378792C0.136256 0.621329 2.55554e-09 0.95028 0 1.29328C-2.55554e-09 1.63628 0.136256 1.96523 0.378792 2.20777L8.17327 10L0.378792 17.7922C0.2587 17.9123 0.163438 18.0549 0.0984448 18.2118C0.0334515 18.3687 0 18.5369 0 18.7067C0 18.8766 0.0334515 19.0447 0.0984448 19.2016C0.163438 19.3585 0.2587 19.5011 0.378792 19.6212C0.621329 19.8637 0.95028 20 1.29328 20C1.46311 20 1.63129 19.9665 1.7882 19.9016C1.9451 19.8366 2.08767 19.7413 2.20777 19.6212L10 11.8267L17.7945 19.6212C18.037 19.8634 18.3659 19.9994 18.7086 19.9992C19.0514 19.999 19.3801 19.8626 19.6223 19.6201C19.8646 19.3775 20.0005 19.0487 20.0003 18.7059C20.0001 18.3631 19.8637 18.0345 19.6212 17.7922L11.8267 10L19.6212 2.20777Z" fill="white"/>
</svg>
