<svg width="21" height="20" viewBox="0 0 21 20" fill="none" xmlns="http://www.w3.org/2000/svg">
<path d="M10.7071 0C9.36128 0 8.02863 0.265079 6.78526 0.780103C5.54188 1.29513 4.41212 2.05001 3.46048 3.00165C1.53856 4.92357 0.458832 7.53026 0.458832 10.2483C0.458832 14.778 3.40008 18.6211 7.46865 19.9841C7.98106 20.0661 8.14503 19.7484 8.14503 19.4717V17.7398C5.30626 18.3547 4.70161 16.3665 4.70161 16.3665C4.23019 15.1777 3.56406 14.86 3.56406 14.86C2.63146 14.2246 3.63579 14.2451 3.63579 14.2451C4.66062 14.3168 5.20378 15.3007 5.20378 15.3007C6.09538 16.8584 7.60187 16.3972 8.18603 16.1513C8.27826 15.4851 8.54471 15.0342 8.83167 14.778C6.55655 14.5218 4.1687 13.6404 4.1687 9.73586C4.1687 8.5983 4.55814 7.6862 5.22428 6.95858C5.12179 6.70237 4.7631 5.63655 5.32676 4.25303C5.32676 4.25303 6.18761 3.97633 8.14503 5.29836C8.95465 5.07289 9.836 4.96016 10.7071 4.96016C11.5782 4.96016 12.4596 5.07289 13.2692 5.29836C15.2266 3.97633 16.0874 4.25303 16.0874 4.25303C16.6511 5.63655 16.2924 6.70237 16.1899 6.95858C16.8561 7.6862 17.2455 8.5983 17.2455 9.73586C17.2455 13.6507 14.8474 14.5115 12.562 14.7678C12.931 15.0855 13.2692 15.7106 13.2692 16.6637V19.4717C13.2692 19.7484 13.4331 20.0764 13.9558 19.9841C18.0244 18.6109 20.9554 14.778 20.9554 10.2483C20.9554 8.90245 20.6903 7.5698 20.1753 6.32643C19.6602 5.08305 18.9054 3.95329 17.9537 3.00165C17.0021 2.05001 15.8723 1.29513 14.6289 0.780103C13.3856 0.265079 12.0529 0 10.7071 0Z" fill="white" fill-opacity="0.8"/>
</svg>
