<svg width="21" height="20" viewBox="0 0 21 20" fill="none" xmlns="http://www.w3.org/2000/svg">
<path d="M6.25883 0H14.6588C17.8588 0 20.4588 2.6 20.4588 5.8V14.2C20.4588 15.7383 19.8478 17.2135 18.7601 18.3012C17.6723 19.3889 16.1971 20 14.6588 20H6.25883C3.05883 20 0.458832 17.4 0.458832 14.2V5.8C0.458832 4.26174 1.0699 2.78649 2.15761 1.69878C3.24532 0.61107 4.72058 0 6.25883 0ZM6.05883 2C5.10405 2 4.18838 2.37928 3.51325 3.05442C2.83812 3.72955 2.45883 4.64522 2.45883 5.6V14.4C2.45883 16.39 4.06883 18 6.05883 18H14.8588C15.8136 18 16.7293 17.6207 17.4044 16.9456C18.0795 16.2705 18.4588 15.3548 18.4588 14.4V5.6C18.4588 3.61 16.8488 2 14.8588 2H6.05883ZM15.7088 3.5C16.0404 3.5 16.3583 3.6317 16.5927 3.86612C16.8271 4.10054 16.9588 4.41848 16.9588 4.75C16.9588 5.08152 16.8271 5.39946 16.5927 5.63388C16.3583 5.8683 16.0404 6 15.7088 6C15.3773 6 15.0594 5.8683 14.8249 5.63388C14.5905 5.39946 14.4588 5.08152 14.4588 4.75C14.4588 4.41848 14.5905 4.10054 14.8249 3.86612C15.0594 3.6317 15.3773 3.5 15.7088 3.5ZM10.4588 5C11.7849 5 13.0567 5.52678 13.9944 6.46447C14.932 7.40215 15.4588 8.67392 15.4588 10C15.4588 11.3261 14.932 12.5979 13.9944 13.5355C13.0567 14.4732 11.7849 15 10.4588 15C9.13275 15 7.86098 14.4732 6.9233 13.5355C5.98562 12.5979 5.45883 11.3261 5.45883 10C5.45883 8.67392 5.98562 7.40215 6.9233 6.46447C7.86098 5.52678 9.13275 5 10.4588 5ZM10.4588 7C9.66318 7 8.90012 7.31607 8.33751 7.87868C7.7749 8.44129 7.45883 9.20435 7.45883 10C7.45883 10.7956 7.7749 11.5587 8.33751 12.1213C8.90012 12.6839 9.66318 13 10.4588 13C11.2545 13 12.0175 12.6839 12.5802 12.1213C13.1428 11.5587 13.4588 10.7956 13.4588 10C13.4588 9.20435 13.1428 8.44129 12.5802 7.87868C12.0175 7.31607 11.2545 7 10.4588 7Z" fill="white" fill-opacity="0.8"/>
</svg>
