<svg width="26" height="20" viewBox="0 0 26 20" fill="none" xmlns="http://www.w3.org/2000/svg">
<path d="M3.33124 20C2.64374 20 2.0554 19.7554 1.56624 19.2663C1.07624 18.7763 0.831238 18.1875 0.831238 17.5V2.5C0.831238 1.8125 1.07624 1.22417 1.56624 0.735C2.0554 0.245 2.64374 0 3.33124 0H23.3312C24.0187 0 24.6075 0.245 25.0975 0.735C25.5867 1.22417 25.8312 1.8125 25.8312 2.5V17.5C25.8312 18.1875 25.5867 18.7763 25.0975 19.2663C24.6075 19.7554 24.0187 20 23.3312 20H3.33124ZM23.3312 5L13.9875 10.8438C13.8833 10.9062 13.7737 10.9529 13.6587 10.9837C13.5446 11.0154 13.4354 11.0312 13.3312 11.0312C13.2271 11.0312 13.1179 11.0154 13.0037 10.9837C12.8887 10.9529 12.7792 10.9062 12.675 10.8438L3.33124 5V17.5H23.3312V5ZM13.3312 8.75L23.3312 2.5H3.33124L13.3312 8.75ZM3.33124 5.3125V3.46875V3.5V3.48375V5.3125Z" fill="white" fill-opacity="0.8"/>
</svg>
