<svg width="375" height="985" viewBox="0 0 375 985" fill="none" xmlns="http://www.w3.org/2000/svg">
<mask id="mask0_472_81" style="mask-type:luminance" maskUnits="userSpaceOnUse" x="-287" y="0" width="905" height="985">
<path d="M-286.067 984.316L617.067 984.315L617.067 0.66925L-286.067 0.669329L-286.067 984.316Z" fill="white"/>
</mask>
<g mask="url(#mask0_472_81)">
<mask id="mask1_472_81" style="mask-type:luminance" maskUnits="userSpaceOnUse" x="-287" y="0" width="905" height="985">
<path d="M-286.067 984.316L617.067 984.315L617.067 0.66925L-286.067 0.669329L-286.067 984.316Z" fill="white"/>
</mask>
<g mask="url(#mask1_472_81)">
<g opacity="0.2">
<mask id="mask2_472_81" style="mask-type:luminance" maskUnits="userSpaceOnUse" x="-292" y="-1" width="915" height="991">
<path d="M-292 989L623 989L623 -0.00012207L-292 -4.20785e-05L-292 989Z" fill="white"/>
</mask>
<g mask="url(#mask2_472_81)">
<mask id="mask3_472_81" style="mask-type:luminance" maskUnits="userSpaceOnUse" x="-292" y="-1" width="915" height="991">
<path d="M-292 989L623 989L623 -0.00012207L-292 -4.20785e-05L-292 989Z" fill="white"/>
</mask>
<g mask="url(#mask3_472_81)">
<path d="M-25.0179 0.715982C-30.1863 37.4366 -38.9541 73.2136 -51.2356 106.193C-59.3639 128.023 -69.4172 148.836 -82.9776 164.175C-98.575 181.749 -117.792 191.038 -136.151 201.813C-168.005 220.424 -199.391 244.73 -221.271 282.314C-247.317 327.046 -256.151 385.991 -264.879 442.869C-272.375 491.736 -279.514 543.608 -275.71 591.766C-272.863 627.877 -262.051 661.232 -259.533 697.022C-255.604 752.836 -270.865 808.281 -285.75 859.009M-16.3491 6.56504C-21.5636 43.3526 -30.3115 79.2233 -42.56 112.31C-50.6159 134.073 -60.5901 154.826 -74.0845 170.125C-89.5699 187.605 -108.661 196.84 -126.909 207.541C-158.763 226.126 -190.169 250.318 -212.147 287.708C-238.2 332.038 -247.139 390.522 -256.046 447.025C-263.759 495.979 -271.05 548.166 -267.589 596.33C-265.011 632.16 -254.411 665.207 -252.084 700.643C-248.451 755.888 -263.772 810.758 -278.697 860.635M-7.68674 12.4074C-12.9408 49.2685 -21.6756 85.2262 -33.8846 118.42C-41.8679 140.116 -51.763 160.816 -65.1849 176.067C-80.5582 193.454 -99.5308 202.636 -117.66 213.256C-149.514 231.814 -180.946 255.886 -203.01 293.096C-229.063 337.017 -238.114 395.046 -247.199 451.167C-255.136 500.209 -262.579 552.703 -259.454 600.881C-257.153 636.423 -246.764 669.169 -244.621 704.257C-241.279 758.939 -256.665 813.22 -271.63 862.262M0.988769 18.2498C-4.31145 55.1778 -13.0265 91.2292 -25.2025 124.537C-33.1133 146.166 -42.9293 166.812 -56.2853 182.017C-71.5465 199.31 -90.3939 208.438 -108.404 218.978C-140.258 237.509 -171.71 261.461 -193.873 298.483C-219.926 342.003 -229.096 399.57 -238.352 455.317C-246.513 504.445 -254.101 557.24 -251.325 605.438C-249.288 640.7 -239.116 673.131 -237.165 707.877C-234.12 761.998 -249.565 815.69 -264.569 863.888M9.65764 24.0922C4.31128 61.0872 -4.38396 97.2322 -16.527 130.647C-24.3587 152.209 -34.1021 172.802 -47.3856 187.96C-62.5348 205.152 -81.2635 214.227 -99.155 224.7C-131.003 243.204 -162.481 267.042 -184.737 303.87C-210.796 346.989 -220.078 404.094 -229.505 459.459C-237.884 508.674 -245.623 561.771 -243.19 609.989C-241.424 644.956 -231.463 677.092 -229.703 711.491C-226.954 765.049 -242.459 818.153 -257.502 865.507M18.3265 29.9345C12.934 67.0031 4.25855 103.235 -7.84494 136.757C-15.6041 158.253 -25.2684 178.785 -38.486 193.902C-53.5297 211.001 -72.1266 220.022 -89.9061 230.415C-121.754 248.893 -153.258 272.61 -175.606 309.257C-201.666 351.974 -211.066 408.618 -220.665 463.608C-229.274 512.917 -237.159 566.302 -235.062 614.546C-233.559 649.226 -223.822 681.061 -222.247 715.111C-219.794 768.101 -235.359 820.622 -250.442 867.14M26.9954 35.7836C21.5568 72.9191 12.8945 109.245 0.830531 142.88C-6.85611 164.309 -16.4413 184.787 -29.593 199.858C-44.5246 216.864 -62.9962 225.831 -80.6636 236.144C-112.511 254.595 -144.036 278.198 -166.476 314.651C-192.529 356.967 -202.061 413.149 -211.831 467.758C-220.665 517.16 -228.687 570.826 -226.94 619.104C-225.695 653.489 -216.182 685.03 -214.797 718.732C-212.642 771.159 -228.265 823.092 -243.382 868.766M35.6643 41.626C30.1795 78.8284 21.537 115.248 9.50604 148.99C1.89192 170.352 -7.6142 190.777 -20.6933 205.801C-35.5129 222.713 -53.8659 231.627 -71.4146 241.866C-103.262 260.29 -134.806 283.78 -157.345 320.039C-183.398 361.953 -193.056 417.679 -202.991 471.9C-212.055 521.39 -220.21 575.343 -218.812 623.655C-217.823 657.738 -208.535 688.991 -207.342 722.346C-205.482 774.204 -221.166 825.554 -236.321 870.393M44.3266 47.4683C38.7957 84.7444 30.1729 121.251 18.1815 155.107C10.6399 176.402 1.21291 196.767 -11.8003 211.751C-26.5078 228.562 -44.7421 237.422 -62.1722 247.588C-94.0196 265.985 -125.584 289.355 -148.215 325.433C-174.268 366.952 -184.058 422.203 -194.15 476.056C-203.439 525.639 -211.739 579.86 -210.684 628.219C-209.952 662.008 -200.894 692.96 -199.886 725.966C-198.317 777.263 -214.066 828.03 -229.261 872.019M52.9955 53.3107C47.4184 90.6537 38.8089 127.254 26.857 161.217C19.3879 182.445 10.04 202.756 -2.90069 217.693C-17.4961 234.411 -35.6051 243.218 -52.9231 253.303C-84.7706 271.674 -116.348 294.929 -139.085 330.813C-165.131 371.931 -175.059 426.721 -185.31 480.192C-194.836 529.862 -203.254 584.357 -202.556 632.763C-202.068 666.251 -193.247 696.915 -192.43 729.573C-191.157 780.301 -206.959 830.487 -222.201 873.638M61.6644 59.1464C56.0478 96.5563 47.4514 133.243 35.5325 167.327C28.1359 188.482 18.8869 208.779 5.99233 223.636C-8.46461 240.3 -26.4814 249.013 -43.6741 259.025C-75.515 277.375 -107.119 300.511 -129.948 336.201C-155.987 376.916 -166.054 431.244 -176.463 484.341C-186.22 534.105 -194.77 588.868 -194.421 637.32C-194.183 670.501 -185.593 700.884 -184.967 733.194C-183.992 783.353 -199.853 832.956 -215.134 875.265M70.3399 64.9888C64.6771 102.472 56.1005 139.246 44.2212 173.437C36.8971 194.525 27.7272 214.769 14.9052 229.579C0.560279 246.149 -17.3313 254.809 -34.4119 264.74C-66.2528 283.064 -97.8762 306.085 -120.804 341.588C-146.844 381.909 -157.049 435.768 -167.61 488.484C-177.604 538.341 -186.272 593.365 -186.279 641.871C-186.286 674.75 -177.933 704.839 -177.498 736.808C-176.819 786.404 -192.74 835.419 -208.06 876.891M79.0154 70.8378C73.3065 108.388 64.7431 145.256 52.9033 179.554C45.6451 200.575 36.5609 220.765 23.8048 235.535C9.57197 252.012 -8.19433 260.611 -25.1629 270.469C-57.0038 288.766 -88.6404 311.673 -111.667 346.982C-137.7 386.908 -148.05 440.299 -158.763 492.633C-168.987 542.584 -177.775 597.862 -178.144 646.428C-178.395 679 -170.279 708.807 -170.029 740.428C-169.64 789.456 -185.626 837.888 -200.987 878.517M87.6975 76.6802C81.9424 114.298 73.3988 151.252 61.5919 185.671C54.4063 206.624 45.4012 226.762 32.7176 241.485C18.5969 257.867 0.962425 266.46 -15.9007 276.191C-47.7152 294.548 -79.3979 317.255 -102.517 352.369C-128.544 391.894 -139.039 444.823 -149.909 496.782C-160.371 546.827 -169.278 602.36 -170.003 650.986C-170.484 683.243 -162.626 712.776 -162.56 744.049C-162.468 792.514 -178.513 840.364 -193.913 880.143M96.3795 82.5225C90.5783 120.207 82.0479 157.255 70.2872 191.781C63.1741 212.661 54.2481 232.751 41.6304 247.427C27.6217 263.716 10.1125 272.256 -6.63852 281.913C-38.453 300.25 -70.1489 322.829 -93.3736 357.763C-119.387 396.893 -130.04 449.354 -141.056 500.931C-151.762 551.07 -160.767 606.85 -161.861 655.543C-162.58 687.492 -154.966 716.738 -155.097 747.669C-155.295 795.566 -171.407 842.834 -186.846 881.776M105.048 88.3716C99.2011 126.129 90.6838 163.265 78.9627 197.904C71.9221 218.717 63.0752 238.754 50.5234 253.383C36.6268 269.579 19.2363 278.065 2.60388 287.641C-29.204 305.958 -60.9262 328.417 -84.2432 363.157C-110.25 401.892 -121.055 453.884 -132.215 505.087C-143.159 555.32 -152.276 611.341 -153.733 660.107C-154.682 691.742 -147.318 720.713 -147.641 751.29C-148.136 798.618 -164.307 845.303 -179.786 883.402M113.717 94.2139C107.824 132.039 99.3263 169.261 87.6382 204.014C80.6635 224.754 71.9023 244.744 59.423 259.326C45.6385 275.428 28.3733 283.86 11.8595 293.357C-19.9484 311.647 -51.6838 333.999 -75.1063 368.538C-101.106 406.878 -112.069 458.395 -123.369 509.223C-134.556 559.549 -143.772 615.818 -145.605 664.652C-146.778 695.971 -139.671 724.661 -140.179 754.897C-140.97 801.656 -157.2 847.759 -172.719 885.022M122.393 100.056C116.46 137.948 107.969 175.264 96.3268 210.124C89.4247 230.797 80.7426 250.733 68.3293 265.269C54.6568 281.277 37.5168 289.656 21.1151 299.078C-10.6862 317.348 -42.4414 339.58 -65.9627 373.932C-91.9496 411.877 -103.077 462.926 -114.515 513.372C-125.946 563.792 -135.255 620.295 -137.463 669.209C-138.861 700.214 -132.011 728.623 -132.71 758.518C-133.791 804.708 -150.087 850.229 -165.645 886.648M131.075 105.899C125.096 143.864 116.618 181.261 105.015 216.241C98.1793 236.84 89.5895 256.73 77.2421 271.218C63.6817 287.133 46.6603 295.458 30.3773 304.8C-1.42402 323.05 -33.1924 345.162 -56.8192 379.319C-82.7929 416.876 -94.0855 467.443 -105.662 517.522C-117.337 568.028 -126.737 624.772 -129.321 673.766C-130.937 704.451 -124.351 732.592 -125.241 762.138C-126.619 807.759 -142.974 852.698 -158.572 888.281M139.75 111.748C133.725 149.78 125.26 187.264 113.698 222.358C106.934 242.89 98.4232 262.726 86.1417 277.168C72.6934 292.988 55.7973 301.26 39.6263 310.522C7.82502 328.745 -23.9565 350.75 -47.6823 384.706C-73.6494 421.869 -85.1068 471.967 -96.8148 521.664C-108.74 572.264 -118.22 629.243 -121.187 678.317C-123.019 708.687 -116.697 736.547 -117.778 765.752C-119.446 810.804 -135.868 855.161 -151.505 889.901M148.426 117.583C142.354 155.683 133.903 193.253 122.386 228.461C115.688 248.92 107.263 268.702 95.0479 283.104C81.7117 298.831 64.9342 307.049 48.8819 316.237C17.0806 334.44 -14.7141 356.324 -38.5453 390.094C-64.4993 426.868 -76.1281 476.484 -87.9745 525.813C-100.15 576.507 -109.709 633.713 -113.058 682.875C-115.102 712.923 -109.057 740.515 -110.322 769.372C-112.287 813.856 -128.768 857.637 -144.444 891.534M157.095 123.433C150.977 161.605 142.546 199.263 131.062 234.585C124.436 254.969 116.091 274.705 103.948 289.06C90.7234 304.693 74.0712 312.858 58.131 321.966C26.3362 340.142 -5.4717 361.919 -29.4084 395.488C-55.3491 431.867 -67.1493 481.008 -79.1276 529.962C-91.5541 580.75 -101.185 638.184 -104.923 687.432C-107.178 717.159 -101.403 744.477 -102.866 772.986C-105.121 816.901 -121.668 860.1 -137.384 893.153M165.757 129.275C159.593 167.515 151.175 205.259 139.731 240.695C133.171 261.013 124.911 280.695 112.841 295.003C99.7285 310.542 83.1949 318.653 67.3734 327.681C35.5786 345.837 3.75756 367.494 -20.2846 400.868C-46.2122 436.859 -58.1838 485.519 -70.2939 534.105C-82.9709 584.987 -92.6748 642.641 -96.8016 691.983C-99.2605 721.389 -93.7559 748.432 -95.4106 776.6C-97.9552 819.939 -114.568 862.563 -130.323 894.773M174.426 135.111C168.216 173.417 159.811 211.249 148.413 246.805C141.926 267.049 133.745 286.684 121.74 300.946C108.74 316.391 92.3319 324.442 76.629 333.403C44.8343 351.533 13 373.082 -11.1411 406.262C-37.0489 441.865 -49.2051 490.05 -61.4404 538.254C-74.3745 589.223 -84.1378 647.104 -88.6601 696.54C-91.3234 725.625 -86.0956 752.394 -87.9415 780.221C-90.7762 822.991 -107.448 865.032 -123.25 896.406M183.108 140.96C176.852 179.333 168.46 217.252 157.101 252.922C150.68 273.092 142.585 292.681 130.646 306.895C117.758 322.247 101.475 330.244 85.8846 339.125C54.0965 357.234 22.249 378.67 -2.00413 411.649C-27.8987 446.864 -40.2395 494.56 -52.5935 542.397C-65.7847 593.459 -75.6007 651.561 -80.5251 701.091C-83.3862 729.848 -78.442 756.349 -80.479 783.835C-83.6037 826.036 -100.342 867.495 -116.183 898.025M191.777 146.795C185.481 185.243 177.089 223.241 165.783 259.025C159.428 279.129 151.419 298.663 139.553 312.831C126.777 328.089 110.612 336.033 95.1402 344.84C63.3521 362.923 31.498 384.251 7.1394 417.03C-18.7354 451.857 -31.2608 499.071 -43.7401 546.539C-57.1884 597.688 -67.057 656.018 -72.3836 705.642C-75.4359 734.077 -70.7817 760.311 -73.0099 787.448C-76.4313 829.074 -93.2286 869.958 -109.109 899.651M200.459 152.638C194.117 191.152 185.738 229.238 174.472 265.142C168.19 285.172 160.259 304.653 148.459 318.781C135.795 333.945 119.756 341.835 104.396 350.562C72.6077 368.625 40.7405 389.839 16.2764 422.424C-9.58526 456.863 -22.2952 503.595 -34.8997 550.688C-48.6052 601.931 -58.52 660.476 -64.2553 710.199C-67.4987 738.314 -63.1346 764.273 -65.554 791.069C-69.2655 832.126 -86.1286 872.427 -102.042 901.278M209.135 158.487C202.747 197.068 194.381 235.241 183.154 271.259C176.938 291.215 169.093 310.649 157.365 324.73C144.813 339.794 128.893 347.638 113.651 356.284C81.8633 374.32 49.9895 395.427 25.4199 427.811C-0.421949 461.868 -13.3297 508.112 -26.0463 554.838C-40.0154 606.168 -49.9632 664.939 -56.1138 714.757C-59.5484 742.543 -55.4744 768.235 -58.0849 794.689C-62.0865 835.171 -79.0155 874.903 -94.9689 902.91M217.817 164.336C211.382 202.99 203.023 241.244 191.849 277.382C185.699 297.265 177.94 316.652 166.278 330.686C153.838 345.657 138.043 353.447 122.914 362.019C91.1321 380.035 59.2451 401.029 34.5635 433.212C8.74137 466.888 -4.35757 512.636 -17.1928 558.994C-31.4256 610.411 -41.3998 669.403 -47.9789 719.321C-51.5981 746.786 -47.8207 772.203 -50.6224 798.317C-54.914 838.229 -71.909 877.379 -87.9019 904.543M226.485 170.185C220.005 208.906 211.659 247.247 200.525 283.499C194.44 303.308 186.767 322.649 175.171 336.636C162.837 351.513 147.167 359.249 132.163 367.741C100.381 385.73 68.4875 406.624 43.7004 438.606C17.8981 471.893 4.60138 517.153 -8.34592 563.143C-22.849 614.647 -32.8429 673.86 -39.844 723.878C-43.6411 751.022 -40.1604 776.165 -43.1599 801.93C-47.7416 841.268 -64.8025 879.842 -80.835 906.17M235.161 176.027C228.635 214.816 220.295 253.243 209.207 289.609C203.188 309.344 195.6 328.638 184.077 342.578C171.855 357.362 156.31 365.038 141.418 373.457C109.637 391.419 77.7431 412.205 52.8373 443.987C27.0548 476.893 13.5603 521.664 0.500952 567.285C-14.2724 618.876 -24.2795 678.31 -31.7091 728.429C-35.6842 755.245 -32.5067 780.12 -35.6974 805.544C-40.5625 844.313 -57.6959 882.305 -73.768 907.789M243.836 181.863C237.264 220.725 228.938 259.226 217.896 295.719C211.943 315.388 204.441 334.628 192.983 348.528C180.873 363.217 165.447 370.84 150.674 379.178C118.892 397.12 86.9921 417.8 61.9809 449.374C36.2181 481.898 22.5259 526.175 9.35447 571.428C-5.6826 623.106 -15.7029 682.768 -23.5675 732.98C-27.7141 759.475 -24.8464 784.075 -28.2283 809.158C-33.3835 847.351 -50.5828 884.768 -66.6944 909.409M252.519 187.699C245.9 226.628 237.58 265.215 226.584 301.822C220.697 321.417 213.281 340.604 201.896 354.464C189.898 369.06 174.597 376.629 159.936 384.894C128.155 402.809 96.2477 423.388 71.1244 454.761C45.388 486.904 31.4849 530.685 18.2079 575.577C2.894 627.342 -7.12633 687.225 -15.426 737.537C-19.744 763.711 -17.1796 788.037 -20.7592 812.779C-26.2045 850.396 -43.4697 887.244 -59.6209 911.042M261.194 193.554C254.529 232.55 246.223 271.225 235.266 307.946C229.445 327.467 222.115 346.607 210.796 360.42C198.91 374.915 183.728 382.438 169.185 390.622C137.41 408.511 105.497 428.982 80.2614 460.155C54.5448 491.923 40.4372 535.196 27.0482 579.726C11.464 631.572 1.45029 691.682 -7.29771 742.095C-11.7805 767.94 -9.53249 791.992 -13.3033 816.399C-19.032 853.448 -36.3698 889.713 -52.5605 912.668M269.863 199.397C263.159 238.466 254.852 277.221 243.949 314.062C238.193 333.504 230.948 352.603 219.702 366.369C207.928 380.771 192.871 388.233 178.441 396.344C146.666 414.213 114.746 434.584 89.4049 465.542C63.7147 496.929 49.3962 539.706 35.9017 583.876C20.0406 635.801 10.0401 696.145 0.843781 746.652C-3.8038 772.177 -1.86566 795.954 -5.83423 820.02C-11.853 856.493 -29.2567 892.183 -45.487 914.301M278.545 205.246C271.794 244.382 263.495 283.218 252.637 320.179C246.948 339.553 239.789 358.6 228.608 372.319C216.946 386.627 202.008 394.035 187.703 402.073C155.928 419.914 124.008 440.185 98.5485 470.943C72.878 501.955 58.3485 544.224 44.7552 588.031C28.6172 640.037 18.6365 700.616 8.98531 751.216C4.17952 776.426 5.79462 799.923 1.63487 823.64C-4.66738 859.538 -22.137 894.652 -38.4134 915.927M287.22 211.088C280.424 250.292 272.131 289.207 261.319 326.296C255.696 345.59 248.622 364.589 237.514 378.268C225.965 392.483 211.152 399.838 196.959 407.795C165.184 425.61 133.264 445.78 107.692 476.33C82.0479 506.968 67.3009 548.728 53.6087 592.174C37.1872 644.26 27.2394 705.073 17.1268 755.767C12.1628 780.656 13.4615 803.878 9.10398 827.254C2.51826 862.576 -15.0239 897.115 -31.3399 917.553M295.903 216.93C289.06 256.208 280.773 295.204 270.015 332.406C264.457 351.626 257.469 370.579 246.427 384.211C234.99 398.325 220.295 405.633 206.221 413.51C174.452 431.298 142.526 451.375 116.836 481.711C91.2178 511.974 76.2533 553.225 62.4622 596.317C45.7572 648.483 35.849 709.53 25.2683 760.318C20.1461 784.885 21.1283 807.833 16.573 830.868C9.70385 865.614 -7.91078 899.578 -24.2663 919.173M304.585 222.773C297.696 262.117 289.416 301.193 278.703 338.523C273.205 357.669 266.31 376.575 255.333 390.16C244.008 404.181 229.439 411.429 215.476 419.238C183.708 437 151.775 456.976 125.979 487.112C100.388 516.999 85.2056 557.742 71.3156 600.472C54.3272 652.712 44.4651 714.007 33.4098 764.882C28.136 789.135 28.7886 811.802 24.0421 834.495C16.8895 868.666 -0.797681 902.054 -17.1928 920.812M313.26 228.629C306.325 268.04 298.052 307.203 287.385 344.646C281.953 363.719 275.143 382.571 264.24 396.117C253.026 410.043 238.576 417.237 224.732 424.967C192.964 442.708 161.037 462.584 135.116 492.506C109.551 522.019 94.1514 562.253 80.1625 604.622C62.8906 656.942 53.0813 718.478 41.5381 769.439C36.1192 793.378 36.4423 815.757 31.4981 838.116C24.0619 871.718 6.30226 904.53 -10.1324 922.439M321.929 234.471C314.948 273.949 306.674 313.192 296.067 350.756C290.701 369.756 283.977 388.561 273.139 402.059C262.031 415.892 247.713 423.033 233.981 430.689C202.213 448.403 170.286 468.186 144.253 497.893C118.714 527.038 103.091 566.757 89.0028 608.771C71.4409 661.165 61.6974 722.955 49.6665 773.997C44.1026 797.621 44.096 819.719 38.954 841.736C31.2344 874.763 13.4022 906.999 -3.07204 924.065M330.598 240.313C323.57 279.865 315.304 319.189 304.743 356.873C299.436 375.799 292.804 394.557 282.039 408.009C271.043 421.741 256.843 428.829 243.237 436.411C211.468 454.099 179.542 473.794 153.39 503.287C127.878 532.057 112.03 571.261 97.8497 612.92C79.9977 665.381 70.3202 727.432 57.8014 778.554C52.0925 801.864 51.7562 823.68 46.4165 845.357C38.4134 877.808 20.5087 909.469 3.99494 925.698M339.273 246.162C332.206 285.781 323.94 325.185 313.425 362.99C308.184 381.842 301.638 400.547 290.939 413.958C280.055 427.597 265.98 434.631 252.486 442.133C220.724 459.794 188.791 479.396 162.527 508.674C137.048 537.076 120.969 575.758 106.697 617.069C88.5479 669.604 78.9561 731.916 65.9363 783.112C60.0889 806.106 59.4165 827.642 53.879 848.971C45.599 880.846 27.6152 911.932 11.0619 927.317M347.942 251.998C340.829 291.683 332.562 331.168 322.107 369.093C316.932 387.872 310.472 406.53 299.845 419.894C289.073 433.44 275.117 440.42 261.741 447.848C229.979 465.482 198.053 484.997 171.664 514.055C146.211 542.089 129.901 580.248 115.543 621.205C97.1047 673.807 87.5986 736.393 74.0712 787.656C68.0854 810.343 67.0834 831.591 61.3415 852.578C52.7781 883.884 34.7217 914.388 18.1289 928.937M356.618 257.84C349.459 297.599 341.198 337.158 330.789 375.21C325.673 393.908 319.305 412.526 308.744 425.844C298.085 439.289 284.254 446.215 270.99 453.57C239.228 471.177 207.302 490.598 180.801 519.449C155.374 547.115 138.834 584.752 124.39 625.361C105.648 678.029 96.2477 740.89 82.2061 792.22C76.0819 814.599 74.7436 835.559 68.804 856.205C59.9637 886.936 41.8282 916.864 25.1958 930.57M365.293 263.69C358.088 303.515 349.828 343.16 339.471 381.327C334.421 399.951 328.139 418.516 317.644 431.793C307.096 445.144 293.384 452.017 280.239 459.292C248.477 476.872 216.557 496.207 189.931 524.836C164.538 552.141 147.76 589.243 133.224 629.504C114.185 682.232 104.89 745.387 90.3279 796.771C84.0717 818.849 82.3907 839.508 76.2533 859.819C67.1361 889.974 48.9216 919.333 32.2562 932.196M373.956 269.532C366.704 309.425 358.444 349.15 348.147 387.443C343.156 405.994 336.966 424.512 326.544 437.743C316.108 451 302.521 457.813 289.488 465.02C257.726 482.574 225.813 501.821 199.068 530.23C173.707 557.173 156.693 593.747 142.071 633.653C122.729 686.448 113.546 749.891 98.4628 801.328C92.0748 823.105 90.0576 843.47 83.7158 863.439C74.3217 893.019 56.0281 921.803 39.3231 933.822M382.631 275.374C375.333 315.334 367.073 355.14 356.829 393.553C351.898 412.024 345.8 430.495 335.443 443.685C325.113 456.842 311.652 463.608 298.737 470.736C266.975 488.263 235.069 507.43 208.198 535.617C182.864 562.193 165.619 598.237 150.911 637.802C131.266 690.658 122.208 754.402 106.591 805.886C100.078 827.361 97.7113 847.431 91.1717 867.06C81.5008 896.071 63.128 924.272 46.3835 935.455M391.3 281.223C383.956 321.257 375.703 361.136 365.504 399.67C360.639 418.067 354.627 436.491 344.343 449.635C334.125 462.698 320.789 469.411 307.993 476.458C276.231 493.958 244.324 513.044 217.342 541.005C192.041 567.218 174.551 602.728 159.765 641.945C139.81 694.854 130.89 758.912 114.733 810.436C108.088 831.611 105.385 851.387 98.6408 870.674C88.693 899.109 70.2477 926.735 53.4571 937.075M399.982 287.066C392.592 327.166 384.338 367.126 374.199 405.787C369.394 424.11 363.474 442.481 353.256 455.584C343.15 468.547 329.932 475.206 317.255 482.179C285.5 499.646 253.6 518.659 226.492 546.392C201.224 572.244 183.497 607.212 168.625 646.094C148.367 699.057 139.586 763.436 122.881 814.994C116.11 835.874 113.065 855.355 106.116 874.288C95.8918 902.154 77.3674 929.198 60.5372 938.694M408.664 292.901C401.235 333.069 392.968 373.109 382.888 411.89C378.148 430.14 372.314 448.464 362.169 461.527C352.175 474.396 339.082 481.002 326.517 487.901C294.756 505.341 262.868 524.274 235.636 551.786C210.4 577.284 192.43 611.709 177.478 650.243C156.904 703.259 148.281 767.974 131.022 819.551C124.133 840.143 120.732 859.317 113.586 877.908C103.091 905.206 84.4805 931.667 67.6108 940.327M417.346 298.75C409.87 338.991 401.604 379.098 391.583 418.014C386.903 436.183 381.154 454.46 371.081 467.477C361.199 480.252 348.226 486.797 335.779 493.623C304.024 511.037 272.137 529.889 244.786 557.173C219.583 582.31 201.369 616.193 186.338 654.386C165.454 707.455 156.989 772.504 139.17 824.102C132.156 844.4 128.412 863.272 121.061 881.522C110.296 908.251 91.6002 934.13 74.6909 941.947M425.949 304.606C418.427 344.914 410.161 385.101 400.193 424.137C395.572 442.233 389.916 460.463 379.908 473.439C370.132 486.115 357.284 492.613 344.956 499.359C313.201 516.745 281.32 535.517 253.844 562.574C228.674 587.356 210.216 620.69 195.106 658.548C173.905 711.665 165.612 777.069 147.22 828.673C140.087 848.69 135.993 867.254 128.438 885.156C117.396 911.316 98.621 936.62 81.6722 943.593M434.625 310.455C427.057 350.83 418.79 391.097 408.875 430.254C404.313 448.27 398.749 466.453 388.815 479.389C379.15 491.97 366.427 498.408 354.212 505.087C322.456 522.44 290.589 541.145 262.987 567.975C237.851 592.402 219.142 625.187 203.953 662.704C182.436 715.861 174.321 781.633 155.354 833.237C148.103 852.966 143.66 871.222 135.901 888.783C124.588 914.374 105.728 939.096 88.7391 945.226M443.294 316.298C435.679 356.746 427.406 397.087 417.557 436.371C413.055 454.313 407.583 472.449 397.714 485.338C388.162 497.819 375.557 504.211 363.467 510.809C331.712 528.135 299.851 546.773 272.124 573.362C247.027 597.434 228.068 629.664 212.8 666.853C190.96 720.057 183.036 786.204 163.489 837.794C156.119 857.242 151.327 875.191 143.363 892.404C131.78 917.426 112.834 941.565 95.8061 946.859M451.969 322.14C444.309 362.655 436.029 403.077 426.239 442.481C421.796 460.349 416.417 478.432 406.62 491.281C397.18 503.668 384.701 509.999 372.723 516.524C340.968 533.824 309.12 552.388 281.268 578.743C256.204 602.46 236.994 634.141 221.653 670.989C199.49 724.233 191.764 790.768 171.631 842.339C164.149 861.512 159.007 879.139 150.832 896.004C138.979 920.464 119.947 944.015 102.88 948.465M460.638 327.982C452.931 368.564 444.652 409.059 434.915 448.598C430.537 466.386 425.244 484.428 415.514 497.23C406.179 509.517 393.825 515.802 381.965 522.253C350.21 539.519 318.369 558.017 290.391 584.143C265.36 607.513 245.9 638.625 230.487 675.145C208.001 728.422 200.479 795.359 179.753 846.903C172.152 865.802 166.66 883.115 158.281 899.631C146.158 923.523 127.04 946.491 109.933 950.105M469.313 333.831C461.561 374.487 453.274 415.056 443.603 454.714C439.285 472.429 434.077 490.418 424.426 503.18C415.204 515.367 402.975 521.597 391.227 527.975C359.472 545.214 327.645 563.645 299.542 589.531C274.55 612.552 254.832 643.102 239.347 679.294C216.531 732.605 209.227 799.956 187.901 851.46C180.188 870.085 174.34 887.083 165.757 903.252C153.37 926.581 134.16 948.96 117.014 951.731M477.982 339.674C470.184 380.396 461.89 421.045 452.279 460.824C448.02 478.465 442.905 496.407 433.319 509.123C424.209 521.216 412.099 527.393 400.47 533.697C368.715 550.903 336.9 569.273 308.665 594.918C283.707 617.591 263.739 647.579 248.181 683.437C225.035 736.774 217.955 804.561 196.022 856.011C188.197 874.368 182.001 891.045 173.206 906.866C160.549 929.639 141.253 951.43 124.067 953.35M486.658 345.516C478.82 386.306 470.513 427.028 460.961 466.941C456.762 484.502 451.738 502.397 442.226 515.072C433.22 527.065 421.242 533.188 409.725 539.419C377.97 556.598 346.162 574.908 317.809 600.312C292.89 622.637 272.665 652.057 257.028 687.593C233.552 740.957 226.703 809.192 204.157 860.575C196.22 878.671 189.667 895.027 180.669 910.493C167.741 932.705 148.36 953.906 131.134 954.99M495.327 351.359C487.442 392.222 479.129 433.018 469.643 473.051C465.503 490.538 460.572 508.38 451.125 521.015C442.232 532.914 430.373 538.984 418.974 545.134C387.219 562.28 355.425 580.536 326.939 605.692C302.053 627.67 281.571 656.52 265.868 691.728C242.057 745.12 235.451 813.809 212.286 865.119C204.23 882.954 197.334 898.982 188.125 914.1C174.934 935.75 155.46 956.362 138.195 956.603M504.002 357.208C496.072 398.138 487.746 439.007 478.325 479.175C474.238 496.581 469.399 514.383 460.025 526.971C451.244 538.769 439.51 544.786 428.23 550.869C396.475 567.988 364.693 586.184 336.083 611.093C311.236 632.729 290.497 661.004 274.721 695.891C250.574 749.302 244.219 818.467 220.427 869.69C212.266 887.264 205.008 902.971 195.594 917.734C182.132 938.828 162.573 958.845 145.268 958.249M512.678 363.05C504.701 404.047 496.368 444.997 487.007 485.285C482.979 502.618 478.233 520.366 468.931 532.914C460.256 544.612 448.646 550.581 437.486 556.584C405.731 573.67 373.962 591.813 345.22 616.48C320.406 637.769 299.41 665.468 283.568 700.034C259.085 753.458 252.98 823.118 228.562 874.241C220.289 891.567 212.681 906.939 203.056 921.348C189.331 941.886 169.686 961.307 152.335 959.869M521.347 368.892C513.324 409.956 504.978 450.98 495.689 491.395C491.721 508.647 487.067 526.349 477.831 538.856C469.267 550.461 457.77 556.337 446.735 562.3C414.953 579.265 383.231 597.448 354.357 621.861C329.583 642.808 308.323 669.932 292.415 704.169C267.589 757.607 261.754 827.776 236.69 878.785C228.305 895.857 220.348 910.901 210.512 924.948C196.523 944.938 176.786 963.757 159.396 961.481M530.022 374.735C521.953 415.872 513.601 456.97 504.371 497.512C500.462 514.691 495.894 532.338 486.737 544.806C478.279 556.31 466.914 562.139 455.99 568.028C424.209 584.966 392.5 603.096 363.494 627.255C338.759 647.867 317.235 674.395 301.262 708.325C276.093 761.777 270.529 832.461 244.825 883.349C236.328 900.173 228.015 914.883 217.975 928.575C203.716 948.017 183.893 966.24 166.462 963.114M538.691 380.584C530.576 421.788 522.21 462.959 513.047 503.628C509.197 520.727 504.721 538.334 495.63 550.755C487.284 562.159 476.038 567.941 465.233 573.75C433.458 590.662 401.755 608.737 372.624 632.649C347.923 652.92 326.142 678.866 310.096 712.475C284.577 765.926 279.297 837.159 252.947 887.906C244.338 904.49 235.675 918.865 225.424 932.196C210.901 951.082 190.986 968.709 173.523 964.747M547.366 386.426C539.205 427.697 530.826 468.942 521.735 509.745C517.938 526.77 513.561 544.324 504.543 556.705C496.309 568.015 485.188 573.737 474.495 579.472C442.72 596.357 411.031 614.386 381.774 638.036C357.112 657.973 335.068 683.323 318.956 716.624C293.088 770.075 288.091 841.863 261.095 892.464C252.374 908.813 243.362 922.84 232.9 935.816C218.113 954.16 198.106 971.179 180.603 966.373M556.035 392.269C547.834 433.614 539.436 474.932 530.411 515.855C526.673 532.807 522.382 550.307 513.436 562.648C505.307 573.857 494.311 579.532 483.744 585.187C451.969 602.045 420.3 620.021 390.904 643.417C366.276 663.019 343.974 687.78 327.796 720.76C301.579 774.211 296.878 846.575 269.223 897.008C260.39 913.116 251.022 926.809 240.356 939.424C225.299 957.218 205.206 973.635 187.663 967.993M564.711 398.111C556.464 439.523 548.052 480.915 539.093 521.965C535.415 538.836 531.195 556.27 522.335 568.59C514.306 579.679 503.448 585.328 492.993 590.909C461.218 607.74 429.562 625.676 400.035 648.811C375.445 668.078 352.88 692.237 336.636 724.909C310.063 778.354 305.666 851.313 277.352 901.565C268.406 917.446 258.689 930.791 247.812 943.044C232.491 960.297 212.305 976.104 194.724 969.619M573.38 403.96C565.087 445.439 556.662 486.904 547.775 528.089C544.149 544.886 540.036 562.266 531.242 574.546C523.318 585.542 512.585 591.137 502.249 596.638C470.474 613.442 438.837 631.331 409.178 654.205C384.629 673.137 361.799 696.701 345.49 729.065C318.56 782.503 314.467 856.064 285.493 906.129C276.435 921.783 266.369 934.779 255.281 946.665C239.69 963.375 219.419 978.574 201.797 971.245M582.055 409.802C573.716 451.355 565.271 492.887 556.457 534.199C552.891 550.916 548.863 568.256 540.141 580.489C532.329 591.384 521.722 596.925 511.498 602.353C479.723 619.131 448.099 636.979 418.309 659.585C393.798 678.19 370.706 701.145 354.33 733.201C327.045 786.618 323.261 860.816 293.622 910.674C284.452 926.099 274.029 938.754 262.737 950.272C246.882 966.447 226.519 981.03 208.858 972.865M590.724 415.645C582.339 457.264 573.881 498.87 565.133 540.309C561.619 556.952 557.69 574.245 549.041 586.439C541.341 597.24 530.853 602.728 520.747 608.082C488.978 624.832 457.368 642.647 427.446 664.986C402.968 683.256 379.612 705.608 363.177 737.363C335.529 790.761 332.068 865.608 301.757 915.244C292.468 930.449 281.703 942.756 270.199 953.906C254.074 969.539 233.625 983.519 215.925 974.505M599.4 421.487C590.968 463.173 582.438 504.833 573.821 546.425C570.347 562.982 566.53 580.235 557.947 592.388C550.359 603.096 539.996 608.53 530.002 613.803C498.234 630.534 466.637 648.302 436.589 670.373C412.151 688.322 388.531 710.059 372.024 741.506C344.013 794.883 340.875 870.393 309.892 919.795C300.491 934.786 289.37 946.738 277.662 957.52C261.267 972.617 240.732 985.982 222.992 976.131M608.068 427.336C599.591 469.096 591.067 510.836 582.497 552.542C579.089 569.025 575.357 586.231 566.847 598.338C559.371 608.952 549.127 614.332 539.258 619.525C507.49 636.229 475.932 654.024 445.726 675.761C421.341 693.428 397.437 714.502 380.871 745.648C352.498 798.999 349.683 875.191 318.026 924.346C308.507 939.122 297.05 950.74 285.124 961.133C268.479 975.729 247.838 988.445 230.059 977.75M237.126 979.377C254.945 990.907 275.658 978.781 292.587 964.747C304.71 954.702 316.523 943.472 326.161 928.897C358.497 880.003 360.982 803.108 389.718 749.791C406.35 718.939 430.498 698.434 454.863 681.141C485.181 659.619 516.739 641.911 548.507 625.234C558.264 620.114 568.383 614.787 575.746 604.267C584.191 592.207 587.837 575.048 591.179 558.639C599.703 516.812 608.22 474.985 616.744 433.158" stroke="url(#paint0_linear_472_81)" stroke-miterlimit="10"/>
</g>
</g>
</g>
</g>
</g>
<defs>
<linearGradient id="paint0_linear_472_81" x1="165.497" y1="983.976" x2="165.497" y2="0.715982" gradientUnits="userSpaceOnUse">
<stop stop-color="white"/>
<stop offset="1" stop-color="white" stop-opacity="0"/>
</linearGradient>
</defs>
</svg>
