<svg width="375" height="812" viewBox="0 0 375 812" fill="none" xmlns="http://www.w3.org/2000/svg">
<g opacity="0.6">
<mask id="mask0_642_801" style="mask-type:luminance" maskUnits="userSpaceOnUse" x="-287" y="-152" width="905" height="971">
<path d="M617.067 -151.382H-286.067V818.34H617.067V-151.382Z" fill="white"/>
</mask>
<g mask="url(#mask0_642_801)">
<mask id="mask1_642_801" style="mask-type:luminance" maskUnits="userSpaceOnUse" x="-287" y="-152" width="905" height="971">
<path d="M617.067 -151.382H-286.067V818.34H617.067V-151.382Z" fill="white"/>
</mask>
<g mask="url(#mask1_642_801)">
<g opacity="0.2">
<mask id="mask2_642_801" style="mask-type:luminance" maskUnits="userSpaceOnUse" x="-292" y="-156" width="915" height="975">
<path d="M623 -156H-292V819H623V-156Z" fill="white"/>
</mask>
<g mask="url(#mask2_642_801)">
<mask id="mask3_642_801" style="mask-type:luminance" maskUnits="userSpaceOnUse" x="-292" y="-156" width="915" height="975">
<path d="M623 -156H-292V819H623V-156Z" fill="white"/>
</mask>
<g mask="url(#mask3_642_801)">
<path d="M356.018 818.294C361.187 782.093 369.954 746.823 382.236 714.31C390.364 692.789 400.417 672.27 413.978 657.149C429.575 639.824 448.792 630.666 467.151 620.044C499.005 601.696 530.391 577.734 552.271 540.682C578.318 496.584 587.151 438.473 595.879 382.4C603.375 334.225 610.514 283.087 606.711 235.611C603.863 200.011 593.051 167.128 590.533 131.845C586.604 76.8211 601.865 22.1603 616.751 -27.8492M347.349 812.528C352.564 776.261 361.312 740.898 373.56 708.28C381.616 686.825 391.59 666.365 405.085 651.283C420.57 634.051 439.661 624.946 457.909 614.397C489.763 596.075 521.169 572.225 543.148 535.364C569.2 491.662 578.14 434.006 587.046 378.303C594.759 330.042 602.05 278.594 598.589 231.112C596.011 195.788 585.411 163.209 583.084 128.275C579.451 73.8126 594.772 19.7192 609.697 -29.4524M338.687 806.768C343.941 770.429 352.676 734.98 364.885 702.256C372.868 680.867 382.763 660.461 396.185 645.425C411.558 628.284 430.531 619.233 448.66 608.762C480.514 590.467 511.946 566.736 534.011 530.053C560.063 486.754 569.115 429.546 578.199 374.219C586.136 325.872 593.579 274.121 590.454 226.625C588.153 191.586 577.764 159.304 575.621 124.713C572.279 70.8041 587.665 17.2913 602.63 -31.0556M330.011 801.008C335.312 764.603 344.027 729.062 356.203 696.226C364.114 674.903 373.929 654.549 387.286 639.56C402.547 622.512 421.394 613.512 439.404 603.121C471.258 584.853 502.71 561.24 524.874 524.742C550.927 481.838 560.096 425.086 569.352 370.129C577.513 321.696 585.101 269.648 582.326 222.132C580.289 187.37 570.117 155.398 568.165 121.143C565.12 67.789 580.566 14.8568 595.57 -32.6588M321.343 795.249C326.689 758.777 335.384 723.144 347.527 690.202C355.359 668.945 365.102 648.644 378.386 633.701C393.535 616.752 412.264 607.806 430.155 597.48C462.003 579.238 493.481 555.738 515.737 519.431C541.796 476.923 551.078 420.626 560.505 366.045C568.884 317.526 576.623 265.181 574.191 217.646C572.424 183.174 562.463 151.492 560.703 117.581C557.954 64.7805 573.459 12.4289 588.503 -34.2554M312.674 789.489C318.066 752.945 326.742 717.226 338.845 684.179C346.604 662.988 356.269 642.746 369.486 627.842C384.53 610.986 403.127 602.092 420.906 591.846C452.754 573.63 484.258 550.249 506.606 514.12C532.666 472.008 542.066 416.166 551.665 361.954C560.274 313.343 568.159 260.715 566.062 213.153C564.559 178.964 554.823 147.58 553.247 114.012C550.795 61.7721 566.359 9.99441 581.442 -35.8652M304.005 783.723C309.443 747.113 318.106 711.301 330.17 678.142C337.856 657.017 347.442 636.828 360.593 621.971C375.525 605.206 393.996 596.365 411.664 586.199C443.511 568.009 475.036 544.74 497.476 508.803C523.529 467.086 533.061 411.7 542.831 357.864C551.665 309.161 559.688 256.255 557.941 208.66C556.695 174.762 547.182 143.668 545.798 110.442C543.642 58.757 559.266 7.55992 574.382 -37.4684M295.336 777.963C300.821 741.287 309.463 705.383 321.494 672.119C329.108 651.059 338.614 630.923 351.694 616.112C366.513 599.44 384.866 590.652 402.415 580.558C434.262 562.395 465.807 539.237 488.346 503.492C514.398 462.171 524.056 407.233 533.991 353.78C543.055 304.991 551.21 251.801 549.812 204.174C548.824 170.572 539.535 139.762 538.342 106.88C536.483 55.7551 552.166 5.13201 567.322 -39.0716M286.674 772.204C292.205 735.455 300.827 699.465 312.819 666.088C320.36 645.095 329.787 625.019 342.801 610.247C357.508 593.674 375.742 584.938 393.172 574.917C425.02 556.78 456.584 533.741 479.215 498.174C505.268 457.243 515.058 402.773 525.151 349.683C534.439 300.801 542.739 247.348 541.684 199.674C540.952 166.363 531.894 135.849 530.886 103.31C529.317 52.74 545.066 2.69092 560.261 -40.6748M278.005 766.444C283.582 729.629 292.191 693.547 304.143 660.065C311.612 639.137 320.96 619.114 333.901 604.388C348.496 587.907 366.605 579.225 383.923 569.282C415.771 551.172 447.348 528.246 470.085 492.87C496.131 452.334 506.059 398.32 516.31 345.605C525.836 296.638 534.255 242.915 533.556 195.194C533.068 162.18 524.247 131.95 523.43 99.7542C522.158 49.7447 537.959 0.269622 553.201 -42.2714M269.336 760.691C274.952 723.81 283.549 687.643 295.468 654.041C302.864 633.186 312.113 613.176 325.008 598.529C339.465 582.102 357.482 573.512 374.674 563.642C406.515 545.551 438.119 522.743 460.948 487.559C486.988 447.419 497.054 393.86 507.463 341.515C517.22 292.456 525.77 238.468 525.421 190.701C525.183 157.991 516.594 128.038 515.967 96.1849C514.992 46.7362 530.853 -2.16488 546.134 -43.8746M260.66 754.931C266.323 717.978 274.9 681.725 286.779 648.018C294.103 627.229 303.273 607.271 316.095 592.671C330.44 576.335 348.332 567.798 365.412 558.007C397.253 539.943 428.876 517.248 451.804 482.248C477.844 442.497 488.049 389.4 498.61 337.431C508.604 288.279 517.273 234.034 517.279 186.215C517.286 153.801 508.933 124.139 508.498 92.6222C507.819 43.7277 523.74 -4.59278 539.06 -45.4778M251.985 749.165C257.694 712.146 266.257 675.8 278.097 641.988C285.355 621.265 294.439 601.36 307.195 586.799C321.428 570.556 339.195 562.078 356.163 552.36C388.004 534.322 419.641 511.739 442.668 476.93C468.701 437.569 479.051 384.934 489.763 333.341C499.988 284.096 508.775 229.601 509.144 181.722C509.395 149.612 501.28 120.226 501.029 89.0529C500.64 40.7192 516.627 -7.02728 531.987 -47.081M243.303 743.405C249.058 706.32 257.601 669.889 269.408 635.957C276.594 615.3 285.599 595.448 298.283 580.934C312.403 564.783 330.038 556.312 346.901 546.719C378.715 528.622 410.398 506.236 433.517 471.619C459.544 432.654 470.039 380.474 480.91 329.25C491.372 279.914 500.278 225.167 501.003 177.229C501.484 145.429 493.626 116.314 493.56 85.4837C493.468 37.7042 509.514 -9.46838 524.913 -48.6843M234.621 737.646C240.422 700.495 248.952 663.971 260.713 629.934C267.826 609.349 276.752 589.544 289.37 575.075C303.379 559.017 320.888 550.598 337.639 541.078C369.453 523.001 401.149 500.74 424.374 466.301C450.387 427.725 461.04 376.007 472.056 325.16C482.762 275.731 491.767 220.74 492.861 172.736C493.58 141.24 485.966 112.408 486.098 81.9144C486.295 34.6957 502.407 -11.9029 517.846 -50.2941M225.952 731.879C231.799 694.656 240.316 658.046 252.038 623.897C259.078 603.379 267.925 583.626 280.477 569.203C294.373 553.237 311.764 544.872 328.396 535.43C360.204 517.373 391.926 495.231 415.243 460.984C441.25 422.797 452.055 371.541 463.216 321.063C474.159 271.541 483.276 216.313 484.733 168.237C485.682 137.05 478.319 108.489 478.642 78.3451C479.136 31.6872 495.307 -14.3374 510.786 -51.8973M217.283 726.12C223.176 688.83 231.674 652.135 243.362 617.873C250.337 597.428 259.098 577.721 271.577 563.345C285.362 547.471 302.627 539.158 319.141 529.796C350.949 511.765 382.684 489.729 406.107 455.679C432.107 417.882 443.07 367.094 454.369 316.985C465.556 267.372 474.772 211.899 476.605 163.757C477.778 132.881 470.672 104.597 471.179 74.789C471.97 28.6919 488.201 -16.7587 503.719 -53.4939M208.607 720.36C214.54 683.005 223.031 646.217 234.673 611.85C241.576 591.47 250.258 571.816 262.671 557.486C276.343 541.705 293.483 533.445 309.885 524.155C341.686 506.144 373.442 484.227 396.963 450.362C422.95 412.953 434.078 362.627 445.515 312.895C456.946 263.189 466.255 207.486 468.463 159.264C469.861 128.698 463.011 100.691 463.71 71.2197C464.791 25.6834 481.088 -19.1932 496.645 -55.0971M199.925 714.6C205.905 677.172 214.382 640.305 225.985 605.82C232.821 585.512 241.411 565.905 253.758 551.621C267.319 535.932 284.34 527.724 300.623 518.514C332.424 500.523 364.193 478.724 387.819 445.05C413.793 408.025 425.086 358.174 436.662 308.804C448.337 259.013 457.738 203.072 460.322 154.771C461.937 124.521 455.351 96.7787 456.241 67.6505C457.619 22.6749 473.974 -21.6277 489.572 -56.7069M191.25 708.834C197.275 671.34 205.74 634.387 217.303 599.79C224.066 579.548 232.577 559.993 244.859 545.756C258.307 530.159 275.203 522.004 291.374 512.873C323.175 494.908 354.957 473.215 378.683 439.739C404.65 403.103 416.107 353.714 427.815 304.72C439.741 254.836 449.22 198.665 452.187 150.285C454.019 120.345 447.697 92.8795 448.779 64.0878C450.446 19.673 466.868 -24.0556 482.505 -58.3035M182.574 703.081C188.646 665.521 197.097 628.482 208.614 593.773C215.312 573.604 223.737 554.102 235.952 539.904C249.289 524.399 266.066 516.298 282.118 507.239C313.92 489.294 345.714 467.72 369.546 434.428C395.5 398.175 407.128 349.261 418.975 300.63C431.151 250.653 440.71 194.258 444.059 145.792C446.102 116.169 440.057 88.9672 441.323 60.5185C443.287 16.6645 459.768 -26.4967 475.445 -59.9133M173.905 697.315C180.023 659.682 188.455 622.558 199.939 587.736C206.564 567.64 214.91 548.183 227.053 534.032C240.277 518.62 256.929 510.571 272.869 501.592C304.664 483.673 336.472 462.204 360.409 429.111C386.349 393.246 398.15 344.801 410.128 296.539C422.554 246.471 432.186 189.85 435.924 141.299C438.178 111.993 432.403 85.0614 433.867 56.9558C436.121 13.6627 452.668 -28.9246 468.384 -61.5099M165.243 691.555C171.407 653.857 179.825 616.646 191.27 581.712C197.829 561.682 206.089 542.279 218.16 528.173C231.272 512.854 247.805 504.857 263.627 495.957C295.422 478.058 327.243 456.708 351.285 423.806C377.212 388.325 389.184 340.354 401.294 292.456C413.971 242.294 423.675 185.456 427.802 136.813C430.261 107.823 424.756 81.1623 426.411 53.3932C428.956 10.6674 445.568 -31.3525 461.324 -63.1065M156.574 685.802C162.784 648.038 171.189 610.742 182.588 575.689C189.074 555.731 197.255 536.374 209.26 522.314C222.26 507.087 238.668 499.15 254.371 490.316C286.166 472.444 318 451.199 342.141 418.489C368.049 383.39 380.205 335.887 392.441 288.365C405.375 238.118 415.138 181.056 419.66 132.32C422.324 103.647 417.096 77.2565 418.942 49.8239C421.776 7.65889 438.448 -33.787 454.25 -64.7163M147.892 680.036C154.148 642.205 162.54 604.824 173.899 569.659C180.32 549.773 188.415 530.462 200.354 516.449C213.242 501.314 229.525 493.43 245.116 484.675C276.904 466.822 308.751 445.69 333.004 413.178C358.899 378.461 371.24 331.441 383.594 284.281C396.785 233.942 406.601 176.662 411.525 127.833C414.386 99.4837 409.442 73.3574 411.479 46.2612C414.604 4.65701 431.342 -36.2149 447.183 -66.3129M139.223 674.283C145.519 636.38 153.911 598.919 165.217 563.642C171.572 543.823 179.581 524.564 191.448 510.597C204.224 495.555 220.388 487.723 235.86 479.041C267.648 461.214 299.502 440.188 323.861 407.873C349.736 373.54 362.261 326.994 374.74 280.197C388.189 229.772 398.057 172.268 403.384 123.347C406.436 95.314 401.782 69.4516 404.01 42.6985C407.432 1.66172 424.229 -38.6428 440.11 -67.9161M130.541 668.523C136.883 630.554 145.262 593.007 156.528 557.611C162.811 537.865 170.741 518.659 182.541 504.732C195.205 489.782 211.244 482.003 226.604 473.4C258.393 455.593 290.26 434.679 314.724 402.556C340.586 368.605 353.296 322.534 365.9 276.107C379.605 225.589 389.52 167.874 395.256 118.854C398.499 91.1378 394.135 65.5459 396.554 39.1292C400.266 -1.34677 417.129 -41.0773 433.043 -69.5193M121.866 662.757C128.254 624.722 136.619 587.089 147.846 551.581C154.063 531.907 161.907 512.748 173.635 498.867C186.187 484.016 202.107 476.283 217.349 467.759C249.137 449.979 281.011 429.17 305.58 397.245C331.422 363.67 344.33 318.08 357.047 272.016C371.016 221.413 380.963 163.473 387.114 114.361C390.549 86.9681 386.475 61.6401 389.085 35.56C393.087 -4.34866 410.016 -43.5184 425.969 -71.1291M113.184 656.99C119.618 618.883 127.977 581.171 139.151 545.544C145.301 525.943 153.061 506.83 164.722 492.995C177.162 478.236 192.957 470.557 208.087 462.105C239.868 444.345 271.755 423.648 296.437 391.92C322.259 358.721 335.358 313.621 348.193 267.919C362.426 217.23 372.4 159.073 378.979 109.862C382.598 82.7853 378.821 57.7277 381.623 31.9841C385.914 -7.36375 402.909 -45.9595 418.902 -72.7389M104.515 651.224C110.995 613.051 119.341 575.253 130.475 539.514C136.56 519.985 144.233 500.919 155.829 487.13C168.164 472.463 183.833 464.837 198.838 456.464C230.619 438.73 262.513 418.132 287.3 386.603C313.102 353.786 326.399 309.167 339.346 263.829C353.849 213.054 363.843 154.679 370.844 105.369C374.641 78.609 371.161 53.822 374.16 28.4214C378.742 -10.359 395.803 -48.3874 411.835 -74.3422M95.8393 645.464C102.366 607.225 110.705 569.342 121.793 533.491C127.812 514.034 135.4 495.014 146.923 481.271C159.145 466.697 174.69 459.13 189.582 450.83C221.364 433.122 253.257 412.63 278.163 381.298C303.945 348.858 317.44 304.72 330.499 259.745C345.273 208.884 355.28 150.291 362.709 100.882C366.685 74.4459 363.507 49.9228 366.698 24.8587C371.563 -13.3609 388.696 -50.8153 404.768 -75.9388M87.1638 639.711C93.7363 601.399 102.062 563.444 113.105 527.467C119.057 508.077 126.559 489.109 138.017 475.406C150.127 460.924 165.553 453.41 180.326 445.189C212.108 427.501 244.008 407.115 269.019 375.987C294.782 343.923 308.474 300.274 321.646 255.661C336.683 204.715 346.703 145.897 354.568 96.396C358.714 70.2763 355.847 46.0237 359.229 21.296C364.384 -16.3562 381.583 -53.2432 397.695 -77.5354M78.4817 633.958C85.1004 595.58 93.4199 557.539 104.416 521.45C110.303 502.132 117.719 483.217 129.104 469.554C141.102 455.165 156.403 447.703 171.064 439.555C202.846 421.893 234.753 401.606 259.876 370.676C285.612 338.988 299.515 295.827 312.792 251.571C328.106 200.538 338.127 141.504 346.426 91.9031C350.744 66.1 348.18 42.1179 351.76 17.7268C357.205 -19.3581 374.47 -55.6843 390.621 -79.1452M69.8062 628.185C76.4711 589.741 84.7774 551.614 95.7338 515.413C101.555 496.168 108.885 477.299 120.204 463.682C132.09 449.392 147.273 441.976 161.815 433.907C193.59 416.272 225.503 396.09 250.739 365.359C276.455 334.04 290.563 291.38 303.952 247.48C319.536 196.369 329.55 137.11 338.298 87.4102C342.781 61.9304 340.533 38.2188 344.304 14.1575C350.032 -22.3666 367.37 -58.1188 383.561 -80.7484M61.1373 622.426C67.8417 583.909 76.148 545.703 87.0517 509.383C92.8068 490.217 100.052 471.388 111.298 457.817C123.072 443.619 138.129 436.263 152.56 428.266C184.334 410.651 216.254 390.568 241.595 360.048C267.286 329.105 281.604 286.933 295.099 243.39C310.96 192.199 320.96 132.709 330.157 82.9172C334.804 57.7541 332.866 34.313 336.835 10.5882C342.853 -25.3685 360.257 -60.5533 376.487 -82.3582M52.4553 616.66C59.2058 578.077 67.5055 539.791 78.3631 503.353C84.0522 484.253 91.2115 465.476 102.392 451.952C114.054 437.846 128.992 430.542 143.297 422.619C175.072 405.03 206.992 385.046 232.452 354.723C258.122 324.15 272.652 282.48 286.245 239.292C302.383 188.023 312.364 128.302 322.015 78.4177C326.821 53.5647 325.206 30.4007 329.365 7.01891C335.668 -28.3704 353.137 -62.9878 369.414 -83.9614M43.7798 610.9C50.5765 572.251 58.8696 533.887 69.681 497.323C75.3042 478.302 82.3778 459.572 93.4858 446.086C105.036 432.073 119.849 424.822 134.042 416.978C165.817 399.415 197.737 379.53 223.308 349.412C248.952 319.209 263.699 278.04 277.392 235.209C293.813 183.86 303.761 123.908 313.873 73.9314C318.837 49.395 317.539 26.5015 321.896 3.45624C328.482 -31.3657 346.024 -65.4157 362.34 -85.5646M35.0977 605.14C41.9405 566.419 50.2271 527.975 60.9857 491.299C66.543 472.351 73.5309 453.667 84.573 440.228C96.0107 426.313 110.705 419.109 124.78 411.344C156.548 393.807 188.474 374.015 214.165 344.108C239.782 314.274 254.747 273.606 268.538 231.125C285.243 179.697 295.151 119.514 305.732 69.445C310.854 45.2254 309.872 22.6023 314.427 -0.106449C321.296 -34.361 338.911 -67.8436 355.267 -87.1612M26.4156 599.38C33.3046 560.593 41.5845 522.07 52.2971 485.269C57.795 466.394 64.6906 447.755 75.6668 434.362C86.9924 420.541 101.561 413.395 115.524 405.696C147.292 388.186 179.225 368.492 205.021 338.784C230.613 309.319 245.795 269.153 259.685 227.028C276.673 175.527 286.535 115.1 297.59 64.9455C302.864 41.0359 302.212 18.69 306.958 -3.68232C314.111 -37.3694 331.798 -70.2847 348.193 -88.7776M17.7401 593.608C24.6753 554.755 32.9486 516.146 43.615 479.232C49.047 460.429 55.8569 441.844 66.7606 428.491C77.9741 414.761 92.4245 407.669 106.268 400.049C138.037 382.558 169.963 362.964 195.884 333.466C221.449 304.371 236.849 264.706 250.838 222.937C268.11 171.357 277.919 110.693 289.462 60.4525C294.881 36.8531 294.558 14.7908 299.502 -7.25159C306.938 -40.3779 324.698 -72.7257 341.133 -90.3808M9.07125 587.848C16.0525 548.929 24.3258 510.241 34.9329 473.209C40.299 454.478 47.0232 435.939 57.861 422.632C68.969 408.995 83.2875 401.955 97.0193 394.408C128.788 376.944 160.714 357.442 186.747 328.155C212.286 299.423 227.91 260.266 241.997 218.847C259.559 167.194 269.303 106.279 281.334 55.9596C286.898 32.6702 286.904 10.8851 292.046 -10.8209C299.766 -43.3798 317.598 -75.1602 334.072 -91.984M0.402338 582.088C7.42974 543.097 15.6965 504.33 26.2574 467.179C31.5642 448.521 38.1961 430.028 48.9613 416.767C59.9573 403.229 74.1572 396.242 87.7637 388.767C119.532 371.329 151.459 351.913 177.61 322.837C203.123 294.474 218.971 255.826 233.151 214.756C251.003 163.038 260.68 101.865 273.199 51.4667C278.908 28.4874 279.244 6.97933 284.584 -14.3902C292.587 -46.3817 310.492 -77.5947 327.005 -93.5938M-8.27313 576.322C-1.20617 537.265 7.06059 498.418 17.5753 461.149C22.8162 442.563 29.3624 424.123 40.0617 410.902C50.9456 397.456 65.0202 390.522 78.5147 383.126C110.276 365.715 142.21 346.391 168.473 317.526C193.953 289.526 210.031 251.392 224.304 210.666C242.452 158.875 252.044 97.445 265.064 46.9737C270.911 24.3045 271.584 3.07358 277.121 -17.9528C285.401 -49.377 303.385 -80.0226 319.938 -95.1904M-16.942 570.569C-9.82893 531.445 -1.56217 492.52 8.89324 455.132C14.0682 436.619 20.5287 418.225 31.1555 405.049C41.9273 391.696 55.8833 384.815 69.2591 377.491C101.021 360.107 132.947 340.868 159.336 312.222C184.789 284.585 201.099 246.965 215.457 206.588C233.896 154.732 243.402 93.0313 256.929 42.494C262.915 20.1283 263.917 -0.818976 269.659 -21.5089C278.222 -52.3723 296.279 -82.4439 312.871 -96.787M-25.6175 564.809C-18.4583 525.613 -10.1981 486.615 0.211175 449.101C5.32681 430.668 11.695 412.313 22.2559 399.184C32.9156 385.93 46.7463 379.101 60.01 371.851C91.7718 354.492 123.698 335.346 150.2 306.904C175.626 279.63 192.166 242.525 206.61 202.491C225.352 150.569 234.753 88.5977 248.794 37.9945C254.918 15.9322 256.257 -4.73134 262.196 -25.0848C271.037 -55.3808 289.172 -84.885 305.804 -98.3968M-34.293 559.043C-27.0876 519.781 -18.8274 480.697 -8.47091 443.071C-3.4212 424.71 2.86129 406.409 13.3563 393.319C23.904 380.157 37.616 373.381 50.761 366.21C82.5228 348.878 114.443 329.818 141.069 301.593C166.463 274.675 183.24 238.098 197.776 198.407C216.815 146.425 226.11 84.1641 240.672 33.5081C246.929 11.7428 248.61 -8.62389 254.747 -28.6475C263.864 -58.3761 282.079 -87.3195 298.744 -100M-42.9553 553.283C-35.7038 513.955 -27.4436 474.792 -17.1464 437.041C-12.156 418.753 -5.96582 400.497 4.45663 387.454C14.8923 374.384 28.479 367.668 41.512 360.562C73.2738 343.257 105.187 324.282 131.932 296.276C157.293 269.714 174.308 233.658 188.929 194.317C208.271 142.269 217.454 79.724 232.538 29.0152C238.925 7.54673 240.943 -12.5296 247.285 -32.2168C256.679 -61.378 274.972 -89.754 291.677 -101.603M-51.6308 547.524C-44.3331 508.13 -36.0729 468.887 -25.8285 431.017C-20.8974 412.808 -14.7995 394.599 -4.443 381.595C5.88716 368.624 19.3487 361.954 32.263 354.928C64.0248 337.649 95.9316 318.753 122.802 290.965C148.136 264.766 165.382 229.231 180.089 190.226C199.734 138.119 208.792 75.2772 224.409 24.5222C230.922 3.35068 233.289 -16.4354 239.829 -35.786C249.5 -64.3864 267.872 -92.1885 284.617 -103.213M-60.2997 541.757C-52.9558 502.291 -44.7023 462.976 -34.504 424.987C-29.6388 406.851 -23.6266 388.688 -13.3426 375.73C-3.12453 362.852 10.2117 356.234 23.0074 349.287C54.7692 332.034 86.6759 313.218 113.658 285.653C138.96 259.811 156.449 224.804 171.236 186.143C191.191 133.982 200.11 70.8305 216.268 20.0359C222.913 -0.838758 225.616 -20.3346 232.359 -39.3487C242.307 -67.3817 260.753 -94.6164 277.543 -104.81M-68.9818 535.998C-61.5918 496.465 -53.3382 457.071 -43.1992 418.957C-38.3934 400.893 -32.4735 382.783 -22.2554 369.865C-12.1494 357.085 1.06818 350.521 13.7452 343.646C45.5004 326.426 77.4006 307.683 104.508 280.342C129.776 254.856 147.503 220.384 162.376 182.052C182.634 129.839 191.415 66.3705 208.12 15.543C214.89 -5.04141 217.936 -24.2469 224.884 -42.9114C235.109 -70.3836 253.633 -97.0443 270.463 -106.406M-77.6638 530.245C-70.2343 490.646 -61.9675 451.173 -51.8879 412.94C-47.148 394.949 -41.3138 376.885 -31.1682 364.006C-21.1743 351.319 -8.08197 344.807 4.48298 338.005C36.2448 320.812 68.1318 302.147 95.3646 275.025C120.6 249.888 138.571 215.95 153.522 177.962C174.097 125.696 182.719 61.8974 199.978 11.05C206.867 -9.25066 210.269 -28.1527 217.415 -46.4807C227.91 -73.3921 246.52 -99.4788 263.39 -108.016M-86.3459 524.478C-78.8702 484.807 -70.6035 445.268 -60.5831 406.903C-55.9026 388.991 -50.1541 370.973 -40.081 358.141C-30.1992 345.546 -17.2255 339.094 -4.77921 332.364C26.976 315.197 58.863 296.612 86.2145 269.714C111.417 244.933 129.631 211.53 144.662 173.878C165.546 121.559 174.011 57.4308 191.83 6.56368C198.844 -13.4467 202.589 -32.0518 209.939 -50.0433C220.704 -76.394 239.4 -101.907 256.309 -109.613M-94.9489 518.706C-87.4271 478.968 -79.1603 439.35 -69.1927 400.867C-64.5715 383.027 -58.9153 365.055 -48.9082 352.262C-39.1318 339.767 -26.2833 333.36 -13.9557 326.71C17.7995 309.57 49.6799 291.064 77.1566 264.39C102.326 239.959 120.785 207.096 135.894 169.774C157.095 117.409 165.388 52.9313 183.781 2.05756C190.914 -17.6757 195.007 -35.9774 202.562 -53.6258C213.604 -79.4157 232.379 -104.361 249.328 -111.236M-103.624 512.939C-96.0564 473.136 -87.7896 433.439 -77.8748 394.836C-73.3129 377.076 -67.749 359.15 -57.8144 346.397C-48.1501 333.994 -35.4269 327.647 -23.2113 321.063C8.54386 303.955 40.4111 285.515 68.0131 259.065C93.1496 234.984 111.859 202.663 127.047 165.677C148.565 113.273 156.68 48.4318 175.646 -2.44198C182.897 -21.8916 187.341 -39.8897 195.1 -57.2017C206.412 -82.4308 225.273 -106.802 242.261 -112.845M-112.293 507.18C-104.679 467.304 -96.4058 427.534 -86.5569 388.806C-82.0543 371.118 -76.5827 353.239 -66.714 340.532C-57.1617 328.228 -44.5572 321.927 -32.4669 315.422C-0.711755 298.341 31.1489 279.966 58.8762 253.754C83.9731 230.023 102.933 198.249 118.2 161.586C140.041 109.136 147.965 43.9256 167.511 -6.93491C174.881 -26.1074 179.674 -43.8021 187.637 -60.771C199.22 -85.4392 218.166 -109.237 235.194 -114.455M-120.969 501.42C-113.308 461.478 -105.029 421.629 -95.2389 382.783C-90.7957 365.167 -85.4164 347.341 -75.6202 334.673C-66.18 322.461 -53.7008 316.22 -41.7225 309.787C-9.96737 292.733 21.8801 274.431 49.7326 248.45C74.7966 225.068 94.0066 193.835 109.347 157.509C131.51 105.019 139.236 39.4261 159.369 -11.4147C166.852 -30.3167 171.994 -47.6946 180.168 -64.3205C192.021 -88.4345 211.053 -111.651 228.121 -116.039M-129.638 495.66C-121.931 455.653 -113.651 415.731 -103.914 376.753C-99.5371 359.216 -94.2435 341.429 -84.5133 328.808C-75.1785 316.695 -62.8245 310.5 -50.965 304.14C-19.2098 287.118 12.6311 268.883 40.6089 243.126C65.6399 220.087 85.1004 189.415 100.513 153.412C123 100.889 130.521 34.9002 151.248 -15.9142C158.849 -34.5457 164.34 -51.6136 172.719 -67.8963C184.842 -91.4496 203.96 -114.092 221.067 -117.655M-138.313 489.894C-130.561 449.814 -122.274 409.82 -112.603 370.722C-108.285 353.259 -103.077 335.524 -93.4261 322.943C-84.2034 310.929 -71.9747 304.786 -60.2272 298.499C-28.472 281.504 3.3557 263.334 31.4587 237.815C56.4502 215.119 76.1678 185.001 91.6531 149.322C114.469 96.7655 121.773 30.3677 143.1 -20.4071C150.813 -38.7681 156.66 -55.5259 165.243 -71.4656C177.63 -94.4647 196.84 -116.527 213.987 -119.258M-146.982 484.134C-139.183 443.988 -130.89 403.915 -121.279 364.699C-117.02 347.308 -111.904 329.62 -102.319 317.084C-93.2085 305.162 -81.0984 299.073 -69.4696 292.858C-37.7144 275.896 -5.8999 257.785 22.335 232.504C47.2935 210.151 67.2616 180.587 82.8195 145.238C105.965 92.6552 113.045 25.8285 134.978 -24.8935C142.803 -42.9906 149 -59.4317 157.794 -75.0283C170.451 -97.4798 189.747 -118.961 206.933 -120.855M-155.658 478.375C-147.819 438.163 -139.513 398.017 -129.961 358.669C-125.761 341.357 -120.738 323.715 -111.225 311.219C-102.22 299.396 -90.242 293.359 -78.7252 287.217C-46.97 270.281 -15.1621 252.23 13.1914 227.186C38.1104 205.177 58.3356 176.174 73.9726 141.141C97.4478 88.5317 104.297 21.263 126.843 -29.393C134.78 -47.2328 141.333 -63.3572 150.331 -78.6042C163.259 -100.501 182.64 -121.403 199.866 -122.471M-164.326 472.615C-156.442 432.33 -148.129 392.112 -138.643 352.645C-134.503 335.406 -129.572 317.817 -120.125 305.36C-111.232 293.63 -99.3723 287.646 -87.9742 281.583C-56.219 264.68 -24.4243 246.682 4.06108 221.882C28.9471 200.215 49.4294 171.773 65.1323 137.063C88.9437 84.4281 95.5492 16.7107 118.715 -33.8727C126.77 -51.4552 133.666 -67.2564 142.875 -82.1603C156.067 -103.503 175.54 -123.824 192.806 -124.061M-173.002 466.849C-165.071 426.498 -156.745 386.207 -147.325 346.608C-143.238 329.448 -138.399 311.899 -129.025 299.489C-120.244 287.857 -108.509 281.926 -97.2298 275.929C-65.4746 259.052 -33.6931 241.113 -5.08245 216.557C19.764 195.227 40.5034 167.353 56.2788 132.96C80.4264 80.3046 86.7814 12.1188 110.573 -38.3789C118.734 -55.7041 125.993 -71.1885 135.406 -85.7427C148.868 -106.538 168.427 -126.272 185.732 -125.684M-181.677 461.089C-173.701 420.673 -165.368 380.302 -156.007 340.585C-151.979 323.497 -147.233 306 -137.931 293.63C-129.255 282.097 -117.646 276.212 -106.485 270.294C-74.7303 253.451 -42.9619 235.565 -14.2194 211.246C10.5941 190.259 31.5906 162.952 47.4319 128.876C71.9158 76.2075 78.0203 7.53352 102.438 -42.8652C110.712 -59.9463 118.319 -75.1009 127.944 -89.3054C141.669 -109.553 161.314 -128.699 178.665 -127.281M-190.346 455.329C-182.323 414.847 -173.978 374.404 -164.689 334.561C-160.72 317.553 -156.066 300.102 -146.83 287.771C-138.267 276.331 -126.77 270.538 -115.734 264.66C-83.9529 247.935 -52.2307 230.01 -23.3563 205.942C1.41757 185.291 22.6778 158.552 38.585 124.798C63.4117 72.117 69.2459 2.94163 94.3099 -47.3449C102.695 -64.1753 110.652 -79.0066 120.488 -92.8549C134.477 -112.562 154.214 -131.114 171.605 -128.871M-199.022 449.57C-190.953 409.015 -182.6 368.499 -173.371 328.531C-169.462 311.595 -164.893 294.197 -155.737 281.906C-147.279 270.565 -135.914 264.818 -124.99 259.013C-93.2085 242.314 -61.4995 224.441 -32.4933 200.624C-7.75894 180.304 13.765 154.151 29.7381 120.701C54.9076 68.0067 60.4715 -1.67667 86.1749 -51.8445C94.6724 -68.4307 102.985 -82.9322 113.025 -96.4308C127.285 -115.597 147.108 -133.562 164.538 -130.481M-207.691 443.804C-199.576 403.182 -191.21 362.594 -182.047 322.501C-178.197 305.644 -173.72 288.286 -164.63 276.041C-156.284 264.799 -145.037 259.098 -134.232 253.372C-102.458 236.7 -70.7551 218.88 -41.6237 195.307C-16.9223 175.323 4.85875 149.744 20.9044 116.611C46.4233 63.9163 51.7038 -6.30815 78.0532 -56.3374C86.6628 -72.6862 95.3251 -86.8577 105.576 -100C120.099 -118.618 140.014 -135.996 157.477 -132.091M-216.366 438.044C-208.205 397.357 -199.826 356.696 -190.735 316.471C-186.938 299.687 -182.561 282.381 -173.542 270.176C-165.309 259.026 -154.187 253.385 -143.495 247.731C-111.72 231.085 -80.0305 213.311 -50.7738 189.996C-26.1119 170.341 -4.06725 145.35 12.0444 112.52C37.9126 59.8258 42.9096 -10.9462 69.9051 -60.8304C78.6267 -76.9482 87.6384 -90.7767 98.1004 -103.569C112.887 -121.653 132.895 -138.431 150.397 -133.694M-225.035 432.284C-216.834 391.524 -208.436 350.791 -199.411 310.447C-195.673 293.736 -191.381 276.483 -182.436 264.317C-174.307 253.266 -163.311 247.671 -152.744 242.096C-120.969 225.477 -89.2993 207.756 -59.9041 184.691C-35.2753 165.367 -12.9735 140.956 3.20407 108.443C29.4217 55.7485 34.122 -15.5909 61.7768 -65.3101C70.6105 -81.1904 79.9782 -94.689 90.6445 -107.125C105.701 -124.668 125.795 -140.852 143.337 -135.29M-233.711 426.525C-225.464 385.699 -217.052 344.893 -208.093 304.424C-204.414 287.791 -200.195 270.604 -191.335 258.458C-183.306 247.526 -172.448 241.958 -161.993 236.456C-130.218 219.863 -98.5615 202.181 -69.0345 179.373C-44.4452 160.379 -21.8797 136.562 -5.6362 104.353C20.9374 51.6646 25.3345 -20.262 53.6485 -69.803C62.5942 -85.459 72.3113 -98.6146 83.1886 -110.695C98.5092 -127.703 118.695 -143.287 136.277 -136.894M-242.379 420.758C-234.086 379.867 -225.661 338.988 -216.775 298.387C-213.149 281.827 -209.035 264.693 -200.241 252.587C-192.317 241.747 -181.585 236.231 -171.248 230.808C-139.473 214.242 -107.837 196.606 -78.178 174.056C-53.6283 155.391 -30.7991 132.161 -14.4897 100.256C12.4399 47.5741 16.5337 -24.9462 45.507 -74.3026C54.5648 -89.7342 64.6313 -102.547 75.7195 -114.264C91.3104 -130.738 111.582 -145.721 129.203 -138.497M-251.055 414.999C-242.716 374.034 -234.271 333.09 -225.457 292.363C-221.89 275.883 -217.863 258.788 -209.141 246.728C-201.329 235.987 -190.722 230.524 -180.497 225.174C-148.722 208.634 -117.099 191.038 -87.3084 168.751C-62.7982 150.41 -39.7053 127.781 -23.33 96.1783C3.9556 43.5166 7.7396 -29.6305 37.3786 -78.7823C46.5486 -93.9897 56.971 -106.466 68.2636 -117.82C84.1181 -133.766 104.482 -148.142 122.143 -140.093M-259.724 409.239C-251.338 368.209 -242.88 327.192 -234.132 286.34C-230.619 269.932 -226.69 252.883 -218.041 240.863C-210.341 230.214 -199.852 224.804 -189.746 219.526C-157.978 203.013 -126.368 185.45 -96.4453 163.427C-71.9681 145.416 -48.6115 123.38 -32.1769 92.0746C-4.5287 39.4327 -1.06775 -34.3544 29.2437 -83.2884C38.5323 -98.2781 49.2975 -110.411 60.8011 -121.403C76.9259 -136.814 97.3753 -150.597 115.076 -141.71M-268.399 403.479C-259.968 362.383 -251.437 321.313 -242.821 280.309C-239.347 263.987 -235.53 246.979 -226.947 234.997C-219.359 224.441 -208.996 219.084 -199.002 213.885C-167.234 197.391 -135.637 179.875 -105.589 158.116C-81.1512 140.422 -57.5309 118.993 -41.0238 87.9907C-13.013 35.3686 -9.87508 -39.0716 21.1088 -87.7748C30.5094 -102.553 41.6307 -114.337 53.3386 -124.965C69.7337 -139.849 90.2688 -153.025 108.009 -143.313M-277.068 397.713C-268.59 356.544 -260.067 315.395 -251.497 274.279C-248.088 258.03 -244.357 241.067 -235.846 229.132C-228.371 218.669 -218.126 213.364 -208.258 208.244C-176.489 191.777 -144.932 174.234 -114.726 152.805C-90.3409 135.388 -66.4371 114.612 -49.8706 83.9069C-21.4973 31.3111 -18.6824 -43.8021 12.9739 -92.2611C22.4932 -106.829 33.9507 -118.282 45.8761 -128.528C62.5217 -142.917 83.1623 -155.453 100.942 -144.91M93.8748 -146.513C76.0558 -157.88 55.3427 -145.926 38.4136 -132.091C26.2904 -122.188 14.4769 -111.117 4.83897 -96.7475C-27.4963 -48.5457 -29.9816 27.2602 -58.7175 79.823C-75.3499 110.238 -99.4976 130.453 -123.863 147.501C-154.181 168.718 -185.738 186.176 -217.507 202.617C-227.263 207.664 -237.382 212.915 -244.746 223.287C-253.191 235.176 -256.836 252.092 -260.179 268.269C-268.703 309.504 -277.22 350.738 -285.744 391.973" stroke="url(#paint0_linear_642_801)" stroke-miterlimit="10"/>
</g>
</g>
</g>
</g>
</g>
</g>
<defs>
<linearGradient id="paint0_linear_642_801" x1="165.504" y1="-151.047" x2="165.504" y2="615" gradientUnits="userSpaceOnUse">
<stop/>
<stop offset="1" stop-color="white" stop-opacity="0"/>
</linearGradient>
</defs>
</svg>
