<svg width="241" height="206" viewBox="0 0 241 206" fill="none" xmlns="http://www.w3.org/2000/svg">
<g clip-path="url(#clip0_847_173)">
<g opacity="0.6" clip-path="url(#clip1_847_173)">
<path d="M370.02 17.7198C370.02 17.7198 240.814 27.9234 240.814 -99.8517" stroke="url(#paint0_linear_847_173)" stroke-miterlimit="10"/>
<path d="M368.588 22.3706C368.588 22.3706 235.717 32.8634 235.717 -98.5372" stroke="url(#paint1_linear_847_173)" stroke-miterlimit="10"/>
<path d="M367.157 27.0194C367.157 27.0194 230.617 37.8012 230.617 -97.2266" stroke="url(#paint2_linear_847_173)" stroke-miterlimit="10"/>
<path d="M365.727 31.6702C365.727 31.6702 225.521 42.7412 225.521 -95.9122" stroke="url(#paint3_linear_847_173)" stroke-miterlimit="10"/>
<path d="M364.296 36.3188C364.296 36.3188 220.421 47.6807 220.421 -94.6017" stroke="url(#paint4_linear_847_173)" stroke-miterlimit="10"/>
<path d="M362.865 40.9676C362.865 40.9676 215.323 52.6186 215.323 -93.2892" stroke="url(#paint5_linear_847_173)" stroke-miterlimit="10"/>
<path d="M361.434 45.6184C361.434 45.6184 210.225 57.5585 210.225 -91.9765" stroke="url(#paint6_linear_847_173)" stroke-miterlimit="10"/>
<path d="M360.004 50.267C360.004 50.267 205.128 62.498 205.128 -90.6643" stroke="url(#paint7_linear_847_173)" stroke-miterlimit="10"/>
<path d="M358.575 54.9179C358.575 54.9179 200.03 67.438 200.03 -89.3515" stroke="url(#paint8_linear_847_173)" stroke-miterlimit="10"/>
<path d="M357.145 59.5666C357.145 59.5666 194.934 72.3759 194.934 -88.0391" stroke="url(#paint9_linear_847_173)" stroke-miterlimit="10"/>
<path d="M355.714 64.2169C355.714 64.2169 189.834 77.3153 189.834 -86.727" stroke="url(#paint10_linear_847_173)" stroke-miterlimit="10"/>
<path d="M354.283 68.8661C354.283 68.8661 184.736 82.2553 184.736 -85.4142" stroke="url(#paint11_linear_847_173)" stroke-miterlimit="10"/>
<path d="M352.851 73.5148C352.851 73.5148 179.637 87.1932 179.637 -84.1035" stroke="url(#paint12_linear_847_173)" stroke-miterlimit="10"/>
<path d="M351.421 78.1651C351.421 78.1651 174.54 92.1326 174.54 -82.7896" stroke="url(#paint13_linear_847_173)" stroke-miterlimit="10"/>
<path d="M349.99 82.8139C349.99 82.8139 169.44 97.0705 169.44 -81.479" stroke="url(#paint14_linear_847_173)" stroke-miterlimit="10"/>
<path d="M348.559 87.4646C348.559 87.4646 164.343 102.012 164.343 -80.1646" stroke="url(#paint15_linear_847_173)" stroke-miterlimit="10"/>
<path d="M347.13 92.1133C347.13 92.1133 159.246 106.95 159.246 -78.854" stroke="url(#paint16_linear_847_173)" stroke-miterlimit="10"/>
<path d="M345.699 96.7641C345.699 96.7641 154.148 111.89 154.148 -77.5395" stroke="url(#paint17_linear_847_173)" stroke-miterlimit="10"/>
<path d="M344.269 101.413C344.269 101.413 149.05 116.829 149.05 -76.229" stroke="url(#paint18_linear_847_173)" stroke-miterlimit="10"/>
<path d="M342.839 106.062C342.839 106.062 143.953 121.767 143.953 -74.9166" stroke="url(#paint19_linear_847_173)" stroke-miterlimit="10"/>
<path d="M341.408 110.712C341.408 110.712 138.854 126.707 138.854 -73.6039" stroke="url(#paint20_linear_847_173)" stroke-miterlimit="10"/>
<path d="M339.977 115.361C339.977 115.361 133.756 131.647 133.756 -72.2915" stroke="url(#paint21_linear_847_173)" stroke-miterlimit="10"/>
<path d="M338.545 120.012C338.545 120.012 128.656 136.585 128.656 -70.9788" stroke="url(#paint22_linear_847_173)" stroke-miterlimit="10"/>
<path d="M337.117 124.661C337.117 124.661 123.56 141.525 123.56 -69.6665" stroke="url(#paint23_linear_847_173)" stroke-miterlimit="10"/>
<path d="M335.686 129.311C335.686 129.311 118.462 146.464 118.462 -68.3543" stroke="url(#paint24_linear_847_173)" stroke-miterlimit="10"/>
<path d="M334.256 133.96C334.256 133.96 113.363 151.404 113.363 -67.0415" stroke="url(#paint25_linear_847_173)" stroke-miterlimit="10"/>
<path d="M332.825 138.61C332.825 138.61 108.267 156.342 108.267 -65.731" stroke="url(#paint26_linear_847_173)" stroke-miterlimit="10"/>
<path d="M331.394 143.26C331.394 143.26 103.169 161.282 103.169 -64.4182" stroke="url(#paint27_linear_847_173)" stroke-miterlimit="10"/>
<path d="M329.963 147.908C329.963 147.908 98.0693 166.221 98.0693 -63.1059" stroke="url(#paint28_linear_847_173)" stroke-miterlimit="10"/>
<path d="M328.533 152.559C328.533 152.559 92.9727 171.159 92.9726 -61.7936" stroke="url(#paint29_linear_847_173)" stroke-miterlimit="10"/>
<path d="M327.102 157.208C327.102 157.208 87.873 176.099 87.873 -60.4808" stroke="url(#paint30_linear_847_173)" stroke-miterlimit="10"/>
<path d="M325.672 161.858C325.672 161.858 82.7754 181.039 82.7754 -59.1686" stroke="url(#paint31_linear_847_173)" stroke-miterlimit="10"/>
<path d="M324.242 166.507C324.242 166.507 77.6787 185.978 77.6787 -57.8563" stroke="url(#paint32_linear_847_173)" stroke-miterlimit="10"/>
<path d="M322.811 171.158C322.811 171.158 72.5791 190.916 72.5791 -56.5435" stroke="url(#paint33_linear_847_173)" stroke-miterlimit="10"/>
<path d="M321.38 175.806C321.38 175.806 67.4814 195.856 67.4814 -55.2313" stroke="url(#paint34_linear_847_173)" stroke-miterlimit="10"/>
<path d="M319.95 180.455C319.95 180.455 62.3828 200.795 62.3828 -53.9189" stroke="url(#paint35_linear_847_173)" stroke-miterlimit="10"/>
<path d="M318.52 185.106C318.52 185.106 57.2861 205.734 57.2861 -52.6061" stroke="url(#paint36_linear_847_173)" stroke-miterlimit="10"/>
<path d="M317.088 189.754C317.088 189.754 52.1885 210.673 52.1885 -51.2939" stroke="url(#paint37_linear_847_173)" stroke-miterlimit="10"/>
<path d="M315.657 194.405C315.657 194.405 47.0889 215.613 47.0889 -49.9812" stroke="url(#paint38_linear_847_173)" stroke-miterlimit="10"/>
<path d="M314.229 199.054C314.229 199.054 41.9922 220.553 41.9922 -48.6688" stroke="url(#paint39_linear_847_173)" stroke-miterlimit="10"/>
<path d="M312.798 203.704C312.798 203.704 36.8945 225.491 36.8945 -47.3583" stroke="url(#paint40_linear_847_173)" stroke-miterlimit="10"/>
</g>
</g>
<defs>
<linearGradient id="paint0_linear_847_173" x1="240.814" y1="-40.9692" x2="370.02" y2="-40.9692" gradientUnits="userSpaceOnUse">
<stop stop-color="#121212"/>
<stop offset="1" stop-color="white"/>
</linearGradient>
<linearGradient id="paint1_linear_847_173" x1="235.717" y1="-37.9838" x2="368.588" y2="-37.9838" gradientUnits="userSpaceOnUse">
<stop stop-color="#121212"/>
<stop offset="1" stop-color="white"/>
</linearGradient>
<linearGradient id="paint2_linear_847_173" x1="230.617" y1="-35.0014" x2="367.157" y2="-35.0014" gradientUnits="userSpaceOnUse">
<stop stop-color="#121212"/>
<stop offset="1" stop-color="white"/>
</linearGradient>
<linearGradient id="paint3_linear_847_173" x1="225.521" y1="-32.016" x2="365.727" y2="-32.016" gradientUnits="userSpaceOnUse">
<stop stop-color="#121212"/>
<stop offset="1" stop-color="white"/>
</linearGradient>
<linearGradient id="paint4_linear_847_173" x1="220.421" y1="-29.0337" x2="364.296" y2="-29.0337" gradientUnits="userSpaceOnUse">
<stop stop-color="#121212"/>
<stop offset="1" stop-color="white"/>
</linearGradient>
<linearGradient id="paint5_linear_847_173" x1="215.323" y1="-26.0503" x2="362.865" y2="-26.0504" gradientUnits="userSpaceOnUse">
<stop stop-color="#121212"/>
<stop offset="1" stop-color="white"/>
</linearGradient>
<linearGradient id="paint6_linear_847_173" x1="210.225" y1="-23.0659" x2="361.434" y2="-23.0659" gradientUnits="userSpaceOnUse">
<stop stop-color="#121212"/>
<stop offset="1" stop-color="white"/>
</linearGradient>
<linearGradient id="paint7_linear_847_173" x1="205.128" y1="-20.0826" x2="360.004" y2="-20.0826" gradientUnits="userSpaceOnUse">
<stop stop-color="#121212"/>
<stop offset="1" stop-color="white"/>
</linearGradient>
<linearGradient id="paint8_linear_847_173" x1="200.03" y1="-17.0981" x2="358.575" y2="-17.0981" gradientUnits="userSpaceOnUse">
<stop stop-color="#121212"/>
<stop offset="1" stop-color="white"/>
</linearGradient>
<linearGradient id="paint9_linear_847_173" x1="194.934" y1="-14.1148" x2="357.145" y2="-14.1148" gradientUnits="userSpaceOnUse">
<stop stop-color="#121212"/>
<stop offset="1" stop-color="white"/>
</linearGradient>
<linearGradient id="paint10_linear_847_173" x1="189.834" y1="-11.1308" x2="355.714" y2="-11.1308" gradientUnits="userSpaceOnUse">
<stop stop-color="#121212"/>
<stop offset="1" stop-color="white"/>
</linearGradient>
<linearGradient id="paint11_linear_847_173" x1="184.736" y1="-8.14706" x2="354.282" y2="-8.14707" gradientUnits="userSpaceOnUse">
<stop stop-color="#121212"/>
<stop offset="1" stop-color="white"/>
</linearGradient>
<linearGradient id="paint12_linear_847_173" x1="179.637" y1="-5.16465" x2="352.851" y2="-5.16466" gradientUnits="userSpaceOnUse">
<stop stop-color="#121212"/>
<stop offset="1" stop-color="white"/>
</linearGradient>
<linearGradient id="paint13_linear_847_173" x1="174.54" y1="-2.17984" x2="351.421" y2="-2.17985" gradientUnits="userSpaceOnUse">
<stop stop-color="#121212"/>
<stop offset="1" stop-color="white"/>
</linearGradient>
<linearGradient id="paint14_linear_847_173" x1="169.44" y1="0.802612" x2="349.99" y2="0.802604" gradientUnits="userSpaceOnUse">
<stop stop-color="#121212"/>
<stop offset="1" stop-color="white"/>
</linearGradient>
<linearGradient id="paint15_linear_847_173" x1="164.343" y1="3.78793" x2="348.559" y2="3.78792" gradientUnits="userSpaceOnUse">
<stop stop-color="#121212"/>
<stop offset="1" stop-color="white"/>
</linearGradient>
<linearGradient id="paint16_linear_847_173" x1="159.246" y1="6.77036" x2="347.13" y2="6.77035" gradientUnits="userSpaceOnUse">
<stop stop-color="#121212"/>
<stop offset="1" stop-color="white"/>
</linearGradient>
<linearGradient id="paint17_linear_847_173" x1="154.148" y1="9.75573" x2="345.699" y2="9.75572" gradientUnits="userSpaceOnUse">
<stop stop-color="#121212"/>
<stop offset="1" stop-color="white"/>
</linearGradient>
<linearGradient id="paint18_linear_847_173" x1="149.05" y1="12.7381" x2="344.269" y2="12.7381" gradientUnits="userSpaceOnUse">
<stop stop-color="#121212"/>
<stop offset="1" stop-color="white"/>
</linearGradient>
<linearGradient id="paint19_linear_847_173" x1="143.953" y1="15.7214" x2="342.839" y2="15.7214" gradientUnits="userSpaceOnUse">
<stop stop-color="#121212"/>
<stop offset="1" stop-color="white"/>
</linearGradient>
<linearGradient id="paint20_linear_847_173" x1="138.854" y1="18.7059" x2="341.408" y2="18.7059" gradientUnits="userSpaceOnUse">
<stop stop-color="#121212"/>
<stop offset="1" stop-color="white"/>
</linearGradient>
<linearGradient id="paint21_linear_847_173" x1="133.756" y1="21.6892" x2="339.977" y2="21.6892" gradientUnits="userSpaceOnUse">
<stop stop-color="#121212"/>
<stop offset="1" stop-color="white"/>
</linearGradient>
<linearGradient id="paint22_linear_847_173" x1="128.656" y1="24.6737" x2="338.545" y2="24.6737" gradientUnits="userSpaceOnUse">
<stop stop-color="#121212"/>
<stop offset="1" stop-color="white"/>
</linearGradient>
<linearGradient id="paint23_linear_847_173" x1="123.56" y1="27.657" x2="337.117" y2="27.6569" gradientUnits="userSpaceOnUse">
<stop stop-color="#121212"/>
<stop offset="1" stop-color="white"/>
</linearGradient>
<linearGradient id="paint24_linear_847_173" x1="118.462" y1="30.6409" x2="335.686" y2="30.6409" gradientUnits="userSpaceOnUse">
<stop stop-color="#121212"/>
<stop offset="1" stop-color="white"/>
</linearGradient>
<linearGradient id="paint25_linear_847_173" x1="113.363" y1="33.6247" x2="334.256" y2="33.6247" gradientUnits="userSpaceOnUse">
<stop stop-color="#121212"/>
<stop offset="1" stop-color="white"/>
</linearGradient>
<linearGradient id="paint26_linear_847_173" x1="108.267" y1="36.6078" x2="332.825" y2="36.6078" gradientUnits="userSpaceOnUse">
<stop stop-color="#121212"/>
<stop offset="1" stop-color="white"/>
</linearGradient>
<linearGradient id="paint27_linear_847_173" x1="103.169" y1="39.5916" x2="331.394" y2="39.5916" gradientUnits="userSpaceOnUse">
<stop stop-color="#121212"/>
<stop offset="1" stop-color="white"/>
</linearGradient>
<linearGradient id="paint28_linear_847_173" x1="98.0693" y1="42.5749" x2="329.963" y2="42.5748" gradientUnits="userSpaceOnUse">
<stop stop-color="#121212"/>
<stop offset="1" stop-color="white"/>
</linearGradient>
<linearGradient id="paint29_linear_847_173" x1="92.9727" y1="45.5589" x2="328.533" y2="45.5588" gradientUnits="userSpaceOnUse">
<stop stop-color="#121212"/>
<stop offset="1" stop-color="white"/>
</linearGradient>
<linearGradient id="paint30_linear_847_173" x1="87.873" y1="48.5426" x2="327.102" y2="48.5426" gradientUnits="userSpaceOnUse">
<stop stop-color="#121212"/>
<stop offset="1" stop-color="white"/>
</linearGradient>
<linearGradient id="paint31_linear_847_173" x1="82.7754" y1="51.5266" x2="325.672" y2="51.5266" gradientUnits="userSpaceOnUse">
<stop stop-color="#121212"/>
<stop offset="1" stop-color="white"/>
</linearGradient>
<linearGradient id="paint32_linear_847_173" x1="77.6787" y1="54.5098" x2="324.242" y2="54.5098" gradientUnits="userSpaceOnUse">
<stop stop-color="#121212"/>
<stop offset="1" stop-color="white"/>
</linearGradient>
<linearGradient id="paint33_linear_847_173" x1="72.5791" y1="57.4944" x2="322.811" y2="57.4944" gradientUnits="userSpaceOnUse">
<stop stop-color="#121212"/>
<stop offset="1" stop-color="white"/>
</linearGradient>
<linearGradient id="paint34_linear_847_173" x1="67.4814" y1="60.4776" x2="321.38" y2="60.4776" gradientUnits="userSpaceOnUse">
<stop stop-color="#121212"/>
<stop offset="1" stop-color="white"/>
</linearGradient>
<linearGradient id="paint35_linear_847_173" x1="62.3828" y1="63.4609" x2="319.95" y2="63.4609" gradientUnits="userSpaceOnUse">
<stop stop-color="#121212"/>
<stop offset="1" stop-color="white"/>
</linearGradient>
<linearGradient id="paint36_linear_847_173" x1="57.2861" y1="66.4454" x2="318.52" y2="66.4454" gradientUnits="userSpaceOnUse">
<stop stop-color="#121212"/>
<stop offset="1" stop-color="white"/>
</linearGradient>
<linearGradient id="paint37_linear_847_173" x1="52.1885" y1="69.4287" x2="317.088" y2="69.4287" gradientUnits="userSpaceOnUse">
<stop stop-color="#121212"/>
<stop offset="1" stop-color="white"/>
</linearGradient>
<linearGradient id="paint38_linear_847_173" x1="47.0889" y1="72.4132" x2="315.657" y2="72.4131" gradientUnits="userSpaceOnUse">
<stop stop-color="#121212"/>
<stop offset="1" stop-color="white"/>
</linearGradient>
<linearGradient id="paint39_linear_847_173" x1="41.9922" y1="75.3964" x2="314.229" y2="75.3964" gradientUnits="userSpaceOnUse">
<stop stop-color="#121212"/>
<stop offset="1" stop-color="white"/>
</linearGradient>
<linearGradient id="paint40_linear_847_173" x1="36.8945" y1="78.3796" x2="312.798" y2="78.3796" gradientUnits="userSpaceOnUse">
<stop stop-color="#121212"/>
<stop offset="1" stop-color="white"/>
</linearGradient>
<clipPath id="clip0_847_173">
<rect width="240.467" height="206" fill="white" transform="translate(0.533203)"/>
</clipPath>
<clipPath id="clip1_847_173">
<rect width="295" height="323.299" fill="white" transform="translate(36.3838 206) rotate(-90)"/>
</clipPath>
</defs>
</svg>
