<svg width="150" height="500" viewBox="0 0 320 546" fill="none" xmlns="http://www.w3.org/2000/svg">
<g opacity="0.6" clip-path="url(#clip0_840_189)">
<path d="M313.789 649.41C313.789 649.41 293.231 389.667 550.687 389.667" stroke="url(#paint0_linear_840_189)" stroke-miterlimit="10"/>
<path d="M304.681 646.613C304.681 646.613 283.556 379.698 548.119 379.698" stroke="url(#paint1_linear_840_189)" stroke-miterlimit="10"/>
<path d="M295.569 643.816C295.569 643.816 273.877 369.734 545.544 369.734" stroke="url(#paint2_linear_840_189)" stroke-miterlimit="10"/>
<path d="M286.46 641.019C286.46 641.019 264.199 359.766 542.976 359.766" stroke="url(#paint3_linear_840_189)" stroke-miterlimit="10"/>
<path d="M277.352 638.222C277.352 638.222 254.524 349.802 540.404 349.802" stroke="url(#paint4_linear_840_189)" stroke-miterlimit="10"/>
<path d="M268.24 635.425C268.24 635.425 244.845 339.833 537.832 339.833" stroke="url(#paint5_linear_840_189)" stroke-miterlimit="10"/>
<path d="M259.131 632.628C259.131 632.628 235.167 329.869 535.261 329.869" stroke="url(#paint6_linear_840_189)" stroke-miterlimit="10"/>
<path d="M250.019 629.835C250.019 629.835 225.488 319.905 532.689 319.905" stroke="url(#paint7_linear_840_189)" stroke-miterlimit="10"/>
<path d="M240.911 627.038C240.911 627.038 215.813 309.94 530.118 309.94" stroke="url(#paint8_linear_840_189)" stroke-miterlimit="10"/>
<path d="M231.799 624.241C231.799 624.241 206.135 299.972 527.547 299.972" stroke="url(#paint9_linear_840_189)" stroke-miterlimit="10"/>
<path d="M222.689 621.444C222.689 621.444 196.455 290.008 524.974 290.008" stroke="url(#paint10_linear_840_189)" stroke-miterlimit="10"/>
<path d="M213.581 618.647C213.581 618.647 186.781 280.04 522.407 280.04" stroke="url(#paint11_linear_840_189)" stroke-miterlimit="10"/>
<path d="M204.47 615.85C204.47 615.85 177.103 270.075 519.832 270.075" stroke="url(#paint12_linear_840_189)" stroke-miterlimit="10"/>
<path d="M195.362 613.053C195.362 613.053 167.428 260.107 517.264 260.107" stroke="url(#paint13_linear_840_189)" stroke-miterlimit="10"/>
<path d="M186.249 610.256C186.249 610.256 157.745 250.143 514.688 250.143" stroke="url(#paint14_linear_840_189)" stroke-miterlimit="10"/>
<path d="M177.14 607.463C177.14 607.463 148.07 240.178 512.12 240.178" stroke="url(#paint15_linear_840_189)" stroke-miterlimit="10"/>
<path d="M168.028 604.666C168.028 604.666 138.392 230.214 509.545 230.214" stroke="url(#paint16_linear_840_189)" stroke-miterlimit="10"/>
<path d="M158.92 601.869C158.92 601.869 128.713 220.246 506.977 220.246" stroke="url(#paint17_linear_840_189)" stroke-miterlimit="10"/>
<path d="M149.811 599.072C149.811 599.072 119.038 210.282 504.406 210.282" stroke="url(#paint18_linear_840_189)" stroke-miterlimit="10"/>
<path d="M140.699 596.275C140.699 596.275 109.36 200.314 501.834 200.314" stroke="url(#paint19_linear_840_189)" stroke-miterlimit="10"/>
<path d="M131.591 593.478C131.591 593.478 99.6815 190.349 499.262 190.349" stroke="url(#paint20_linear_840_189)" stroke-miterlimit="10"/>
<path d="M122.478 590.682C122.478 590.682 90.0059 180.381 496.69 180.381" stroke="url(#paint21_linear_840_189)" stroke-miterlimit="10"/>
<path d="M113.37 587.888C113.37 587.888 80.3277 170.417 494.119 170.417" stroke="url(#paint22_linear_840_189)" stroke-miterlimit="10"/>
<path d="M104.258 585.091C104.258 585.091 70.6499 160.452 491.548 160.452" stroke="url(#paint23_linear_840_189)" stroke-miterlimit="10"/>
<path d="M95.1492 582.294C95.1492 582.294 60.9707 150.484 488.976 150.484" stroke="url(#paint24_linear_840_189)" stroke-miterlimit="10"/>
<path d="M86.0377 579.497C86.0377 579.497 51.2961 140.52 486.408 140.52" stroke="url(#paint25_linear_840_189)" stroke-miterlimit="10"/>
<path d="M76.9284 576.701C76.9284 576.701 41.617 130.555 483.836 130.555" stroke="url(#paint26_linear_840_189)" stroke-miterlimit="10"/>
<path d="M67.8202 573.904C67.8202 573.904 31.9387 120.587 481.265 120.587" stroke="url(#paint27_linear_840_189)" stroke-miterlimit="10"/>
<path d="M58.7086 571.107C58.7086 571.107 22.2642 110.623 478.694 110.623" stroke="url(#paint28_linear_840_189)" stroke-miterlimit="10"/>
<path d="M49.5994 568.31C49.5994 568.31 12.585 100.655 476.121 100.655" stroke="url(#paint29_linear_840_189)" stroke-miterlimit="10"/>
<path d="M40.4881 565.517C40.4881 565.517 2.90717 90.6905 473.55 90.6905" stroke="url(#paint30_linear_840_189)" stroke-miterlimit="10"/>
<path d="M31.3798 562.72C31.3798 562.72 -6.77101 80.7262 470.979 80.7262" stroke="url(#paint31_linear_840_189)" stroke-miterlimit="10"/>
<path d="M22.2673 559.923C22.2673 559.923 -16.4466 70.758 468.407 70.758" stroke="url(#paint32_linear_840_189)" stroke-miterlimit="10"/>
<path d="M13.159 557.126C13.159 557.126 -26.1247 60.7937 465.836 60.7937" stroke="url(#paint33_linear_840_189)" stroke-miterlimit="10"/>
<path d="M4.05079 554.329C4.05079 554.329 -35.8029 50.8256 463.265 50.8256" stroke="url(#paint34_linear_840_189)" stroke-miterlimit="10"/>
<path d="M-5.06171 551.532C-5.06171 551.532 -45.4785 40.8612 460.693 40.8612" stroke="url(#paint35_linear_840_189)" stroke-miterlimit="10"/>
<path d="M-14.17 548.735C-14.17 548.735 -55.1567 30.8968 458.121 30.8968" stroke="url(#paint36_linear_840_189)" stroke-miterlimit="10"/>
<path d="M-23.2823 545.938C-23.2823 545.938 -64.8355 20.9287 455.549 20.9287" stroke="url(#paint37_linear_840_189)" stroke-miterlimit="10"/>
<path d="M-32.3906 543.145C-32.3906 543.145 -74.5137 10.9644 452.978 10.9644" stroke="url(#paint38_linear_840_189)" stroke-miterlimit="10"/>
<path d="M-41.5021 540.348C-41.5021 540.348 -84.1883 1 450.41 1" stroke="url(#paint39_linear_840_189)" stroke-miterlimit="10"/>
</g>
<defs>
<linearGradient id="paint0_linear_840_189" x1="432.043" y1="389.667" x2="432.043" y2="649.41" gradientUnits="userSpaceOnUse">
<stop stop-color="#121212"/>
<stop offset="1" stop-color="white"/>
</linearGradient>
<linearGradient id="paint1_linear_840_189" x1="426.2" y1="379.698" x2="426.2" y2="646.613" gradientUnits="userSpaceOnUse">
<stop stop-color="#121212"/>
<stop offset="1" stop-color="white"/>
</linearGradient>
<linearGradient id="paint2_linear_840_189" x1="420.35" y1="369.734" x2="420.35" y2="643.816" gradientUnits="userSpaceOnUse">
<stop stop-color="#121212"/>
<stop offset="1" stop-color="white"/>
</linearGradient>
<linearGradient id="paint3_linear_840_189" x1="414.507" y1="359.766" x2="414.507" y2="641.019" gradientUnits="userSpaceOnUse">
<stop stop-color="#121212"/>
<stop offset="1" stop-color="white"/>
</linearGradient>
<linearGradient id="paint4_linear_840_189" x1="408.662" y1="349.802" x2="408.662" y2="638.222" gradientUnits="userSpaceOnUse">
<stop stop-color="#121212"/>
<stop offset="1" stop-color="white"/>
</linearGradient>
<linearGradient id="paint5_linear_840_189" x1="402.814" y1="339.833" x2="402.814" y2="635.425" gradientUnits="userSpaceOnUse">
<stop stop-color="#121212"/>
<stop offset="1" stop-color="white"/>
</linearGradient>
<linearGradient id="paint6_linear_840_189" x1="396.969" y1="329.869" x2="396.969" y2="632.628" gradientUnits="userSpaceOnUse">
<stop stop-color="#121212"/>
<stop offset="1" stop-color="white"/>
</linearGradient>
<linearGradient id="paint7_linear_840_189" x1="391.121" y1="319.905" x2="391.121" y2="629.835" gradientUnits="userSpaceOnUse">
<stop stop-color="#121212"/>
<stop offset="1" stop-color="white"/>
</linearGradient>
<linearGradient id="paint8_linear_840_189" x1="385.276" y1="309.94" x2="385.276" y2="627.038" gradientUnits="userSpaceOnUse">
<stop stop-color="#121212"/>
<stop offset="1" stop-color="white"/>
</linearGradient>
<linearGradient id="paint9_linear_840_189" x1="379.43" y1="299.972" x2="379.43" y2="624.241" gradientUnits="userSpaceOnUse">
<stop stop-color="#121212"/>
<stop offset="1" stop-color="white"/>
</linearGradient>
<linearGradient id="paint10_linear_840_189" x1="373.583" y1="290.008" x2="373.583" y2="621.444" gradientUnits="userSpaceOnUse">
<stop stop-color="#121212"/>
<stop offset="1" stop-color="white"/>
</linearGradient>
<linearGradient id="paint11_linear_840_189" x1="367.74" y1="280.04" x2="367.74" y2="618.647" gradientUnits="userSpaceOnUse">
<stop stop-color="#121212"/>
<stop offset="1" stop-color="white"/>
</linearGradient>
<linearGradient id="paint12_linear_840_189" x1="361.892" y1="270.075" x2="361.892" y2="615.85" gradientUnits="userSpaceOnUse">
<stop stop-color="#121212"/>
<stop offset="1" stop-color="white"/>
</linearGradient>
<linearGradient id="paint13_linear_840_189" x1="356.048" y1="260.107" x2="356.048" y2="613.053" gradientUnits="userSpaceOnUse">
<stop stop-color="#121212"/>
<stop offset="1" stop-color="white"/>
</linearGradient>
<linearGradient id="paint14_linear_840_189" x1="350.198" y1="250.143" x2="350.198" y2="610.256" gradientUnits="userSpaceOnUse">
<stop stop-color="#121212"/>
<stop offset="1" stop-color="white"/>
</linearGradient>
<linearGradient id="paint15_linear_840_189" x1="344.355" y1="240.178" x2="344.355" y2="607.463" gradientUnits="userSpaceOnUse">
<stop stop-color="#121212"/>
<stop offset="1" stop-color="white"/>
</linearGradient>
<linearGradient id="paint16_linear_840_189" x1="338.505" y1="230.214" x2="338.505" y2="604.666" gradientUnits="userSpaceOnUse">
<stop stop-color="#121212"/>
<stop offset="1" stop-color="white"/>
</linearGradient>
<linearGradient id="paint17_linear_840_189" x1="332.662" y1="220.246" x2="332.662" y2="601.869" gradientUnits="userSpaceOnUse">
<stop stop-color="#121212"/>
<stop offset="1" stop-color="white"/>
</linearGradient>
<linearGradient id="paint18_linear_840_189" x1="326.817" y1="210.282" x2="326.817" y2="599.072" gradientUnits="userSpaceOnUse">
<stop stop-color="#121212"/>
<stop offset="1" stop-color="white"/>
</linearGradient>
<linearGradient id="paint19_linear_840_189" x1="320.969" y1="200.314" x2="320.969" y2="596.275" gradientUnits="userSpaceOnUse">
<stop stop-color="#121212"/>
<stop offset="1" stop-color="white"/>
</linearGradient>
<linearGradient id="paint20_linear_840_189" x1="315.124" y1="190.349" x2="315.124" y2="593.478" gradientUnits="userSpaceOnUse">
<stop stop-color="#121212"/>
<stop offset="1" stop-color="white"/>
</linearGradient>
<linearGradient id="paint21_linear_840_189" x1="309.276" y1="180.381" x2="309.276" y2="590.682" gradientUnits="userSpaceOnUse">
<stop stop-color="#121212"/>
<stop offset="1" stop-color="white"/>
</linearGradient>
<linearGradient id="paint22_linear_840_189" x1="303.431" y1="170.417" x2="303.431" y2="587.888" gradientUnits="userSpaceOnUse">
<stop stop-color="#121212"/>
<stop offset="1" stop-color="white"/>
</linearGradient>
<linearGradient id="paint23_linear_840_189" x1="297.585" y1="160.452" x2="297.585" y2="585.091" gradientUnits="userSpaceOnUse">
<stop stop-color="#121212"/>
<stop offset="1" stop-color="white"/>
</linearGradient>
<linearGradient id="paint24_linear_840_189" x1="291.738" y1="150.484" x2="291.738" y2="582.294" gradientUnits="userSpaceOnUse">
<stop stop-color="#121212"/>
<stop offset="1" stop-color="white"/>
</linearGradient>
<linearGradient id="paint25_linear_840_189" x1="285.894" y1="140.52" x2="285.894" y2="579.497" gradientUnits="userSpaceOnUse">
<stop stop-color="#121212"/>
<stop offset="1" stop-color="white"/>
</linearGradient>
<linearGradient id="paint26_linear_840_189" x1="280.047" y1="130.555" x2="280.047" y2="576.701" gradientUnits="userSpaceOnUse">
<stop stop-color="#121212"/>
<stop offset="1" stop-color="white"/>
</linearGradient>
<linearGradient id="paint27_linear_840_189" x1="274.202" y1="120.587" x2="274.202" y2="573.904" gradientUnits="userSpaceOnUse">
<stop stop-color="#121212"/>
<stop offset="1" stop-color="white"/>
</linearGradient>
<linearGradient id="paint28_linear_840_189" x1="268.356" y1="110.623" x2="268.356" y2="571.107" gradientUnits="userSpaceOnUse">
<stop stop-color="#121212"/>
<stop offset="1" stop-color="white"/>
</linearGradient>
<linearGradient id="paint29_linear_840_189" x1="262.509" y1="100.655" x2="262.509" y2="568.31" gradientUnits="userSpaceOnUse">
<stop stop-color="#121212"/>
<stop offset="1" stop-color="white"/>
</linearGradient>
<linearGradient id="paint30_linear_840_189" x1="256.663" y1="90.6905" x2="256.663" y2="565.517" gradientUnits="userSpaceOnUse">
<stop stop-color="#121212"/>
<stop offset="1" stop-color="white"/>
</linearGradient>
<linearGradient id="paint31_linear_840_189" x1="250.818" y1="80.7262" x2="250.818" y2="562.72" gradientUnits="userSpaceOnUse">
<stop stop-color="#121212"/>
<stop offset="1" stop-color="white"/>
</linearGradient>
<linearGradient id="paint32_linear_840_189" x1="244.97" y1="70.758" x2="244.97" y2="559.923" gradientUnits="userSpaceOnUse">
<stop stop-color="#121212"/>
<stop offset="1" stop-color="white"/>
</linearGradient>
<linearGradient id="paint33_linear_840_189" x1="239.125" y1="60.7937" x2="239.125" y2="557.126" gradientUnits="userSpaceOnUse">
<stop stop-color="#121212"/>
<stop offset="1" stop-color="white"/>
</linearGradient>
<linearGradient id="paint34_linear_840_189" x1="233.28" y1="50.8256" x2="233.28" y2="554.329" gradientUnits="userSpaceOnUse">
<stop stop-color="#121212"/>
<stop offset="1" stop-color="white"/>
</linearGradient>
<linearGradient id="paint35_linear_840_189" x1="227.432" y1="40.8612" x2="227.432" y2="551.532" gradientUnits="userSpaceOnUse">
<stop stop-color="#121212"/>
<stop offset="1" stop-color="white"/>
</linearGradient>
<linearGradient id="paint36_linear_840_189" x1="221.587" y1="30.8968" x2="221.587" y2="548.735" gradientUnits="userSpaceOnUse">
<stop stop-color="#121212"/>
<stop offset="1" stop-color="white"/>
</linearGradient>
<linearGradient id="paint37_linear_840_189" x1="215.74" y1="20.9287" x2="215.74" y2="545.938" gradientUnits="userSpaceOnUse">
<stop stop-color="#121212"/>
<stop offset="1" stop-color="white"/>
</linearGradient>
<linearGradient id="paint38_linear_840_189" x1="209.894" y1="10.9644" x2="209.894" y2="543.145" gradientUnits="userSpaceOnUse">
<stop stop-color="#121212"/>
<stop offset="1" stop-color="white"/>
</linearGradient>
<linearGradient id="paint39_linear_840_189" x1="204.049" y1="1" x2="204.049" y2="540.348" gradientUnits="userSpaceOnUse">
<stop stop-color="#121212"/>
<stop offset="1" stop-color="white"/>
</linearGradient>
<clipPath id="clip0_840_189">
<rect width="578" height="632" fill="white" transform="translate(-46)"/>
</clipPath>
</defs>
</svg>
