<svg width="744" height="1039" viewBox="0 0 744 1039" fill="none" xmlns="http://www.w3.org/2000/svg">
<g opacity="0.6">
<mask id="mask0_702_131" style="mask-type:luminance" maskUnits="userSpaceOnUse" x="-299" y="-214" width="1165" height="1253">
<path d="M865.355 -213.041H-298.355V1038.15H865.355V-213.041Z" fill="white"/>
</mask>
<g mask="url(#mask0_702_131)">
<mask id="mask1_702_131" style="mask-type:luminance" maskUnits="userSpaceOnUse" x="-299" y="-214" width="1165" height="1253">
<path d="M865.355 -213.041H-298.355V1038.15H865.355V-213.041Z" fill="white"/>
</mask>
<g mask="url(#mask1_702_131)">
<g opacity="0.2">
<mask id="mask2_702_131" style="mask-type:luminance" maskUnits="userSpaceOnUse" x="-306" y="-219" width="1179" height="1258">
<path d="M873 -219H-306V1039H873V-219Z" fill="white"/>
</mask>
<g mask="url(#mask2_702_131)">
<mask id="mask3_702_131" style="mask-type:luminance" maskUnits="userSpaceOnUse" x="-306" y="-219" width="1179" height="1258">
<path d="M873 -219H-306V1039H873V-219Z" fill="white"/>
</mask>
<g mask="url(#mask3_702_131)">
<path d="M528.987 1038.09C535.647 991.381 546.944 945.873 562.769 903.923C573.243 876.155 586.197 849.681 603.67 830.17C623.767 807.817 648.528 796.001 672.185 782.296C713.23 758.623 753.672 727.705 781.864 679.899C815.426 623.001 826.808 548.022 838.055 475.674C847.713 413.516 856.912 347.535 852.011 286.279C848.341 240.345 834.41 197.919 831.166 152.394C826.103 81.399 845.767 10.8726 864.948 -53.6525M517.817 1030.65C524.536 983.856 535.808 938.229 551.591 896.143C561.971 868.46 574.823 842.062 592.211 822.603C612.164 800.368 636.764 788.621 660.276 775.009C701.321 751.37 741.788 720.597 770.108 673.038C803.678 616.65 815.196 542.259 826.672 470.388C836.61 408.119 846.005 341.738 841.546 280.473C838.224 234.897 824.566 192.862 821.567 147.788C816.887 77.5172 836.628 7.72291 855.859 -55.721M506.656 1023.22C513.426 976.331 524.681 930.593 540.412 888.371C550.699 860.773 563.449 834.444 580.744 815.044C600.552 792.928 624.999 781.249 648.359 767.74C689.403 744.134 729.904 713.515 758.335 666.185C791.905 610.317 803.568 536.505 815.273 465.119C825.5 402.739 835.09 335.966 831.064 274.685C828.099 229.475 814.712 187.823 811.951 143.191C807.645 73.6355 827.471 4.59031 846.753 -57.7896M495.477 1015.79C502.307 968.814 513.536 922.957 529.225 880.59C539.418 853.078 552.067 826.816 569.276 807.476C588.941 785.48 613.226 773.869 636.432 760.461C677.477 736.89 718.004 706.424 746.562 659.332C780.132 603.975 791.947 530.75 803.873 459.841C814.389 397.35 824.166 330.195 820.59 268.888C817.965 224.035 804.859 182.783 802.344 138.586C798.42 69.7453 818.322 1.44917 837.655 -59.8581M484.307 1008.35C491.196 961.298 502.4 915.321 518.047 872.818C528.138 845.391 540.693 819.198 557.809 799.917C577.329 778.048 601.461 766.505 624.515 753.183C665.551 729.646 706.112 699.324 734.789 652.48C768.367 597.633 780.327 524.996 792.474 454.572C803.27 391.97 813.243 324.432 810.108 263.099C807.832 218.621 794.997 177.744 792.729 133.989C789.187 65.8636 809.165 -1.68344 828.549 -61.9182M473.137 1000.92C480.085 953.773 491.264 907.686 506.86 865.046C516.857 837.704 529.31 811.588 546.341 792.358C565.725 770.608 589.688 759.133 612.597 745.913C653.634 722.41 694.228 692.242 723.024 645.627C756.602 591.292 768.715 519.241 781.083 449.294C792.177 386.573 802.336 318.669 799.635 257.302C797.698 213.19 785.152 172.696 783.122 129.384C779.962 61.9819 800.017 -4.82457 819.452 -63.9952M461.967 993.484C468.975 946.247 480.136 900.041 495.681 857.257C505.585 830 517.936 803.952 534.882 784.782C554.122 763.151 577.923 751.744 600.688 738.627C641.724 715.157 682.344 685.134 711.259 638.766C744.829 584.941 757.112 513.478 769.7 444.016C781.083 381.177 791.421 312.914 789.17 251.505C787.564 207.768 775.307 167.648 773.523 124.779C770.745 58.0916 790.877 -7.96569 810.354 -66.0638M450.797 986.052C457.864 938.731 469 892.406 484.502 849.485C494.313 822.313 506.562 796.333 523.415 777.222C542.51 755.711 566.159 744.373 588.771 731.348C629.807 707.913 670.452 678.034 699.495 631.913C733.064 578.599 745.509 507.715 758.31 438.747C769.989 375.797 780.497 307.169 778.696 245.716C777.422 202.362 765.453 162.609 763.916 120.182C761.52 54.2184 781.729 -11.0983 801.257 -68.1323M439.635 978.621C446.762 931.206 457.873 884.77 473.324 841.705C483.041 814.618 495.188 788.714 511.956 769.655C530.907 748.271 554.402 737.001 576.862 724.07C617.898 700.669 658.569 670.943 687.73 625.052C721.3 572.24 733.914 501.961 746.919 433.461C758.887 370.391 769.582 301.423 768.222 239.911C767.28 196.931 755.608 157.561 754.309 115.577C752.287 50.3282 772.58 -14.2479 792.16 -70.2009M428.465 971.189C435.651 923.689 446.745 877.134 462.145 833.933C471.769 806.931 483.814 781.096 500.489 762.096C519.295 740.831 542.629 729.629 564.944 716.8C605.98 693.433 646.668 663.852 675.965 618.208C709.526 565.907 722.319 496.215 735.528 428.2C747.802 365.02 758.649 295.702 757.749 234.131C757.12 191.534 745.755 152.53 744.702 110.989C743.062 46.4635 763.423 -17.372 783.062 -72.2609M417.295 963.766C424.532 916.181 435.609 869.515 450.967 826.161C460.497 799.253 472.415 773.434 489.03 754.537C507.658 733.34 530.873 722.257 553.026 709.522C594.054 686.181 634.776 656.753 664.192 611.356C697.745 559.565 710.716 490.461 724.128 422.922C736.7 359.623 747.717 289.965 747.267 228.334C746.961 186.129 735.893 147.482 735.086 106.383C733.829 42.5818 754.266 -20.5132 773.956 -74.3295M406.116 956.335C413.413 908.656 424.464 861.88 439.771 818.389C449.208 791.566 461.024 765.816 477.546 746.977C496.029 725.9 519.083 714.885 541.092 702.253C582.12 678.945 622.867 649.662 652.41 604.503C685.963 553.215 699.112 484.706 712.72 417.653C725.598 354.234 736.768 284.244 736.776 222.545C736.785 180.723 726.023 142.451 725.462 101.786C724.587 38.7001 745.101 -23.6458 764.842 -76.398M394.938 948.895C402.294 901.131 413.328 854.235 428.584 810.609C437.936 783.871 449.642 758.188 466.078 739.401C484.417 718.443 507.31 707.505 529.174 694.966C570.202 671.693 610.966 642.554 640.637 597.642C674.181 546.856 687.518 478.943 701.321 412.375C714.496 348.837 725.819 278.524 726.294 216.748C726.617 175.318 716.161 137.403 715.838 97.1812C715.337 34.8183 735.935 -26.7869 755.727 -78.4666M383.751 941.463C391.166 893.614 402.175 846.608 417.388 802.828C426.647 776.175 438.251 750.561 454.594 731.834C472.789 710.995 495.511 700.065 517.24 687.688C558.233 664.338 599.057 635.455 628.847 590.789C662.383 540.514 675.906 473.189 689.913 407.097C703.393 343.44 714.869 272.803 715.804 210.951C716.424 169.921 706.299 132.355 706.214 92.5759C706.095 30.9281 726.77 -29.9366 746.613 -80.5351M372.564 934.032C380.039 886.098 391.03 838.972 406.184 795.056C415.35 768.497 426.851 742.942 443.109 724.274C461.16 703.555 483.721 692.693 505.305 680.409C546.299 657.085 587.14 628.364 617.065 583.928C650.584 534.155 664.311 467.426 678.505 401.819C692.3 338.043 703.903 267.092 705.313 205.154C706.239 164.515 696.428 127.316 696.598 87.9706C696.853 27.0464 717.613 -33.0777 737.507 -82.6122M361.394 926.592C368.928 878.564 379.903 831.328 395.006 787.267C404.078 760.793 415.477 735.307 431.651 716.698C449.557 696.098 471.965 685.304 493.396 673.123C534.381 649.824 575.256 621.256 605.301 577.067C638.811 527.797 652.733 461.663 667.114 396.533C681.215 332.638 692.962 261.38 694.84 199.349C696.063 159.11 686.575 122.259 686.991 83.3654C687.628 23.1647 708.465 -36.2188 728.409 -84.6807M350.224 919.161C357.818 871.048 368.767 823.701 383.827 779.495C392.814 753.115 404.103 727.688 420.183 709.139C437.945 688.658 460.192 677.932 481.47 665.853C522.455 642.588 563.347 614.156 593.527 570.223C627.029 521.455 641.155 455.925 655.715 391.272C670.13 327.258 682.005 255.685 684.366 193.569C685.878 153.73 676.721 117.237 677.375 78.7771C678.395 19.3 699.308 -39.3429 719.303 -86.7407M339.045 911.729C346.69 863.531 357.631 816.065 372.632 771.723C381.525 745.428 392.712 720.069 408.707 701.58C426.325 681.218 448.41 670.56 469.544 658.575C510.521 635.335 551.438 607.057 581.746 563.362C615.231 515.096 629.569 450.162 644.307 385.995C659.036 321.861 671.03 249.99 673.876 187.772C675.676 148.333 666.851 112.197 667.751 74.1718C669.144 15.4183 690.142 -42.484 710.189 -88.8093M327.858 904.298C335.562 856.006 346.486 808.438 361.436 763.943C370.245 737.741 381.313 712.442 397.223 694.012C414.696 673.77 436.628 663.18 457.609 651.296C498.586 628.083 539.52 599.957 569.964 556.509C603.432 508.737 617.983 444.416 632.899 380.717C647.942 316.473 660.055 244.295 663.385 181.975C665.466 142.945 656.98 107.149 658.127 69.5665C659.902 11.5365 680.977 -45.6252 701.075 -90.8863M316.679 896.858C324.443 848.481 335.35 800.802 350.249 756.162C358.964 730.046 369.93 704.815 385.755 686.445C403.084 666.321 424.855 655.8 445.692 644.018C486.668 620.839 527.62 592.849 558.191 549.657C591.65 502.387 606.413 438.662 621.499 375.448C636.866 311.084 649.081 238.609 652.903 176.186C655.264 137.556 647.118 102.118 648.511 64.9698C650.66 7.66334 671.82 -48.7578 691.969 -92.9464M305.501 889.435C313.324 840.973 324.214 793.183 339.053 748.399C347.684 722.376 358.54 697.213 374.28 678.894C391.464 658.89 413.082 648.436 433.766 636.749C474.742 613.594 515.711 585.758 546.418 542.804C579.86 496.028 594.844 432.916 610.108 370.17C625.798 305.687 638.114 232.922 642.43 170.389C645.063 132.168 637.273 97.0705 638.904 60.3645C641.436 3.78162 662.672 -51.9074 682.871 -95.0234M294.331 881.995C302.213 833.439 313.078 785.539 327.875 740.61C336.412 714.681 347.166 689.577 362.812 671.318C379.852 651.433 401.309 641.047 421.848 629.462C462.816 606.342 503.802 578.642 534.645 535.943C568.07 489.669 583.275 427.161 598.709 364.892C614.721 300.29 627.131 227.236 631.947 164.592C634.852 126.779 627.411 92.0311 629.297 55.7677C632.202 -0.0915845 653.523 -55.04 673.774 -97.0835M283.169 874.563C291.111 825.923 301.959 777.912 316.705 732.838C325.157 706.994 335.8 681.959 351.353 663.759C368.249 643.993 389.552 633.675 409.939 622.192C450.907 599.098 491.909 571.551 522.888 529.099C556.297 483.319 571.723 421.424 587.327 359.623C603.661 294.902 616.165 221.566 621.482 158.803C624.651 121.399 617.558 87.0002 619.69 51.1709C622.969 -3.95627 644.375 -58.1727 664.676 -99.1435M271.999 867.14C280.001 818.415 290.831 770.293 305.518 725.066C313.876 699.316 324.418 674.34 339.886 656.2C356.637 636.553 377.779 626.312 398.013 614.914C438.981 591.853 480 564.443 511.107 522.238C544.49 476.951 560.153 415.661 575.919 354.345C592.585 289.514 605.165 215.889 610.992 153.006C614.424 116.011 607.688 81.9608 610.066 46.5657C613.719 -7.83799 635.201 -61.3138 655.562 -101.221M260.812 859.7C268.873 810.89 279.686 762.658 294.322 717.286C302.596 691.629 313.027 666.713 328.41 648.632C345.017 629.104 365.998 618.932 386.087 607.636C427.047 584.601 468.083 557.335 499.334 515.385C532.699 470.592 548.601 409.923 564.519 349.076C581.516 284.125 594.165 210.219 600.51 147.218C604.196 110.64 597.826 76.9299 600.45 41.9689C604.477 -11.7112 626.044 -64.4464 646.456 -103.281M249.642 852.277C257.754 803.373 268.567 755.039 283.135 709.522C291.324 683.951 301.644 659.102 316.934 641.081C333.396 621.673 354.224 611.568 374.161 600.366C415.12 577.365 456.165 550.236 487.552 508.541C520.892 464.242 537.032 404.186 553.111 343.807C570.44 278.745 583.156 204.55 590.019 141.429C593.952 105.26 587.955 71.8905 590.826 37.3721C595.235 -15.5759 616.879 -67.579 637.341 -105.349M238.455 844.846C246.626 795.856 257.423 747.412 271.94 701.742C280.035 676.264 290.253 651.484 305.458 633.514C321.776 614.224 342.443 604.188 362.235 593.088C403.194 570.112 444.256 543.128 475.779 501.68C509.102 457.875 525.479 398.431 541.72 338.529C559.38 273.348 572.156 198.881 579.546 135.632C583.725 99.8712 578.102 66.851 581.219 32.7668C586.001 -19.4576 607.73 -70.7201 628.235 -107.418M227.276 837.406C235.507 788.331 246.287 739.776 260.753 693.961C268.763 668.577 278.871 643.857 293.982 625.946C310.156 606.784 330.67 596.808 350.309 585.809C391.268 562.868 432.339 536.02 463.997 494.827C497.295 451.507 513.927 392.685 530.312 333.251C548.312 267.96 561.13 193.203 569.055 129.835C573.481 94.4913 568.231 61.8116 571.595 28.1615C576.751 -23.3308 598.565 -73.8698 619.121 -109.495M216.089 829.966C224.38 780.798 235.151 732.14 249.548 686.172C257.474 660.882 267.472 636.221 282.498 618.37C298.527 599.327 318.879 589.419 338.374 578.514C379.325 555.598 420.412 528.895 452.215 487.958C485.488 445.123 502.366 386.931 518.905 327.965C537.244 262.563 550.096 187.525 558.573 124.03C563.237 89.0943 558.369 56.7637 561.979 23.5477C567.509 -27.2211 589.408 -77.0194 610.015 -111.572M204.919 822.526C213.269 773.273 224.023 724.504 238.37 678.392C246.21 653.195 256.098 628.594 271.039 610.802C286.932 591.879 307.123 582.038 326.456 571.236C367.408 548.354 408.503 521.778 440.442 481.097C473.689 438.755 490.822 381.185 507.505 322.687C526.193 257.174 539.07 181.855 548.091 118.233C552.984 83.7059 548.499 51.7242 552.364 18.951C558.267 -31.0857 580.251 -80.152 600.909 -113.64M193.741 815.095C202.15 765.756 212.895 716.877 227.183 670.62C234.938 645.516 244.715 620.975 259.563 603.243C275.312 584.439 295.342 574.675 314.53 563.966C355.482 541.119 396.577 514.679 428.669 474.253C461.89 432.397 479.278 375.448 496.106 317.418C515.142 251.794 528.036 176.195 537.609 112.444C542.731 78.3344 538.637 46.6933 542.748 14.3542C549.017 -34.9589 571.094 -83.2846 591.803 -115.7M182.562 807.672C191.031 758.239 201.759 709.267 215.987 662.848C223.658 637.83 233.324 613.356 248.087 595.676C263.692 576.991 283.568 567.295 302.604 556.688C343.555 533.866 384.66 507.562 416.887 467.4C450.083 426.029 467.726 369.71 484.698 312.148C504.073 246.415 516.985 170.525 527.119 106.656C532.462 72.9545 528.766 41.6624 533.124 9.75744C539.767 -38.8236 561.928 -86.4173 582.689 -117.76M171.375 800.249C179.903 750.731 190.623 701.648 204.792 655.084C212.377 630.16 221.933 605.754 236.603 588.125C252.063 569.559 271.778 559.931 290.67 549.418C331.621 526.63 372.734 500.454 405.106 460.547C438.268 419.662 456.182 363.973 473.29 306.871C493.022 241.026 505.934 164.856 516.628 100.859C522.192 67.5661 518.888 36.623 523.5 5.15214C530.516 -42.6968 552.763 -89.5669 573.574 -119.837M160.196 792.8C168.784 743.198 179.487 694.004 193.605 647.296C201.105 622.464 210.551 598.119 225.136 580.549C240.451 562.111 260.014 552.542 278.752 542.132C319.695 519.378 360.816 493.338 393.332 453.686C426.469 413.277 444.647 358.235 461.899 301.593C481.98 235.646 494.882 159.187 506.154 95.0616C511.931 62.1862 509.034 31.5921 513.893 0.546849C521.274 -46.5786 543.615 -92.708 564.477 -121.906M149.026 785.369C157.665 735.673 168.368 686.377 182.418 639.515C189.833 614.786 199.168 590.491 213.66 572.981C228.831 554.662 248.232 545.171 266.826 534.853C307.769 512.125 348.898 486.213 381.551 446.834C414.653 406.91 433.103 352.498 450.491 296.315C470.928 230.266 483.814 153.509 495.664 89.2646C501.653 56.7977 499.155 26.5527 504.269 -4.05844C512.024 -50.4518 534.449 -95.8492 555.362 -123.983M137.839 777.929C146.537 728.148 157.232 678.749 171.222 631.735C178.553 607.091 187.777 582.864 202.184 565.413C217.21 547.214 236.459 537.79 254.891 527.567C295.834 504.872 336.964 479.088 369.769 439.964C402.846 400.517 421.568 346.752 439.083 291.029C459.877 224.878 472.738 147.822 485.173 83.459C491.366 51.3923 489.285 21.5047 494.645 -8.66372C502.765 -54.325 525.275 -98.9903 546.248 -126.052M126.661 770.498C135.418 720.631 146.104 671.131 160.035 623.954C167.281 599.413 176.395 575.245 190.708 557.846C205.59 539.765 224.677 530.41 242.965 520.288C283.908 497.628 325.038 471.971 357.987 433.112C391.03 394.141 410.032 341.023 427.675 285.76C448.835 219.506 461.653 142.153 474.683 77.6705C481.079 46.0123 479.406 16.4738 485.021 -13.2605C493.506 -58.1897 516.11 -102.123 537.133 -128.12M115.473 763.066C124.291 713.106 134.968 663.503 148.831 616.182C155.992 591.734 164.996 567.627 179.224 550.287C193.961 532.334 212.895 523.038 231.031 513.019C271.965 490.392 313.103 464.855 346.206 426.267C379.215 387.774 398.497 335.302 416.267 280.49C437.792 214.135 450.559 136.484 464.192 71.8819C470.793 40.6324 469.527 11.4429 475.396 -17.8573C484.248 -62.0544 506.944 -105.256 528.019 -130.18M104.286 755.635C113.163 705.589 123.832 655.885 137.635 608.402C144.72 584.047 153.605 559.999 167.748 542.719C182.341 524.885 201.114 515.666 219.105 505.732C260.039 483.14 301.186 457.73 334.424 419.398C367.399 381.381 386.962 329.556 404.859 275.204C426.749 208.755 439.457 130.789 453.702 66.0764C460.497 35.227 459.656 6.39496 465.772 -22.4711C474.989 -65.9361 497.779 -108.405 518.905 -132.266M93.1078 748.186C102.044 698.056 112.704 648.24 126.448 600.613C133.448 576.352 142.222 552.372 156.272 535.143C170.721 517.428 189.34 508.277 207.179 498.445C248.113 475.879 289.251 450.596 322.651 412.537C355.592 374.996 375.435 323.819 393.46 269.926C415.715 203.375 428.355 125.102 443.228 60.2793C450.211 29.83 449.794 1.36406 456.165 -27.0763C465.747 -69.8178 488.631 -111.555 509.807 -134.334M81.9378 740.755C90.9333 690.539 101.594 640.622 115.261 592.841C122.176 568.674 130.84 544.753 144.805 527.584C159.118 509.988 177.567 500.905 195.261 491.167C236.195 468.634 277.333 443.471 310.878 405.684C343.785 368.612 363.916 318.09 382.069 264.648C404.698 198.004 417.253 119.407 432.755 54.4823C439.924 24.433 439.933 -3.67537 446.558 -31.6816C456.505 -73.691 479.482 -114.696 500.71 -136.403M70.7677 733.323C79.8226 683.014 90.4746 632.994 104.083 585.06C110.92 560.987 119.466 537.126 133.337 520.016C147.506 502.548 165.803 493.534 183.335 483.889C224.269 461.39 265.407 436.338 299.105 398.823C331.978 362.228 352.398 312.361 370.669 259.371C393.672 192.641 406.142 113.713 422.273 48.6853C429.629 19.0361 430.062 -8.7148 436.942 -36.2869C447.255 -77.5642 470.325 -117.837 491.604 -138.48M59.5891 725.883C68.6951 675.489 79.347 625.367 92.8955 577.28C99.6485 553.3 108.083 529.508 121.87 512.448C135.894 495.1 154.029 486.153 171.417 476.611C212.343 454.146 253.49 429.213 287.331 391.97C320.162 355.843 340.88 306.641 359.27 254.093C382.655 187.269 395.014 108.009 411.791 42.8882C419.325 13.6391 420.192 -13.7542 427.327 -40.8837C437.996 -81.4289 461.168 -120.97 482.498 -140.54M48.419 718.46C57.5844 667.981 68.2363 617.757 81.7084 569.516C88.3765 545.63 96.701 521.897 110.394 504.898C124.274 487.668 142.256 478.79 159.491 469.341C200.417 446.91 241.555 422.088 275.558 385.126C308.355 349.467 329.37 300.929 347.871 248.832C371.629 181.924 383.878 102.314 401.309 37.1082C409.022 8.25069 410.313 -18.7766 417.711 -45.4719C428.745 -85.2936 452.011 -124.094 473.392 -142.6M37.2404 711.029C46.4653 660.456 57.1087 610.138 70.5213 561.736C77.113 537.952 85.3185 514.27 98.9265 497.33C112.662 480.228 130.483 471.418 147.574 462.063C188.499 439.666 229.638 414.963 263.785 378.265C296.548 343.074 317.86 295.2 336.471 243.546C360.621 176.552 372.734 96.5939 390.827 31.3027C398.718 2.83674 400.442 -23.8246 408.096 -50.0857C419.487 -89.1753 442.855 -127.243 464.286 -144.677M26.0619 703.589C35.3462 652.931 45.9896 602.503 59.3343 553.956C65.8409 530.265 73.9361 506.651 87.4591 489.762C101.05 472.78 118.718 464.038 135.656 454.784C176.582 432.422 217.712 407.829 252.02 371.413C284.741 336.682 306.359 289.488 325.089 238.277C349.62 171.206 361.598 90.8734 380.362 25.5141C388.423 -2.56874 390.589 -28.847 398.497 -54.6825C410.245 -93.04 433.715 -130.385 455.188 -146.746M14.9003 696.157C24.2441 645.414 34.8875 594.884 48.1557 546.175C54.5859 522.578 62.5621 499.024 75.9917 482.195C89.4383 465.331 106.945 456.666 123.738 447.498C164.664 425.169 205.786 400.687 240.247 364.552C272.925 330.28 294.849 283.759 313.689 232.999C338.612 165.843 350.444 85.1445 369.88 19.7171C378.111 -7.98271 380.71 -33.8864 388.881 -59.2878C400.986 -96.9132 424.558 -133.526 446.082 -148.814M3.72169 688.726C13.1249 637.898 23.7684 587.265 36.9686 538.403C43.3224 514.909 51.1797 491.414 64.5243 474.636C77.835 457.9 95.1805 449.294 111.821 440.228C152.747 417.934 193.859 393.554 228.482 357.699C261.126 323.896 283.347 278.047 302.298 227.721C327.612 160.489 339.283 79.407 359.406 13.9201C367.798 -13.3967 370.848 -38.9258 379.274 -63.8931C391.735 -100.795 415.409 -136.667 436.985 -150.891M-7.44839 681.286C2.01433 630.364 12.6493 579.638 25.79 530.623C32.0589 507.222 39.8057 483.787 53.0569 467.068C66.2232 450.452 83.4073 441.914 99.8948 432.95C140.821 410.69 181.933 386.412 216.701 350.846C249.302 317.503 271.838 272.335 290.89 222.452C316.603 155.152 328.096 73.6696 348.915 8.13154C357.478 -18.8021 360.96 -43.9567 369.65 -68.4899C382.468 -104.66 406.235 -139.799 427.871 -152.951M-18.6355 673.855C-9.1133 622.848 1.52165 572.019 14.586 522.842C20.7784 499.535 28.4063 476.168 41.5725 459.5C54.5944 443.012 71.6256 434.542 87.9603 425.672C128.878 403.454 169.982 379.27 204.911 343.994C237.469 311.11 260.311 266.632 279.474 217.174C305.577 149.806 316.892 67.9151 338.416 2.33449C347.14 -24.2246 351.065 -49.0046 360.018 -73.0866C373.192 -108.533 397.061 -142.932 418.748 -155.011M-29.8225 666.432C-20.2494 615.34 -9.59745 564.409 3.39042 515.079C9.49786 491.865 17.0154 468.558 30.0882 451.941C42.9656 435.572 59.8354 427.17 76.0257 418.393C116.951 396.21 158.039 372.128 193.129 337.133C225.645 304.7 248.801 260.911 268.066 211.896C294.577 144.46 305.688 62.1436 327.926 -3.46256C336.802 -29.6556 341.186 -54.0441 350.393 -77.6919C363.916 -112.415 387.896 -146.073 409.633 -157.088M-41.0096 658.992C-31.377 607.806 -20.7251 556.79 -7.81364 507.29C-1.78265 484.178 5.62444 460.931 18.6038 444.374C31.3369 428.123 48.0538 419.798 64.0911 411.115C105.008 388.965 146.096 364.986 181.339 330.28C213.813 298.307 237.283 255.208 256.65 206.627C283.56 139.122 294.467 56.3806 317.427 -9.25109C326.465 -35.0696 331.29 -59.075 340.761 -82.2887C354.632 -116.288 378.722 -149.206 400.51 -159.148M-52.0947 651.543C-42.4027 600.272 -31.7507 549.154 -18.9073 499.501C-12.9527 476.483 -5.66458 453.295 7.22986 436.789C19.827 420.666 36.3825 412.401 52.2669 403.82C93.1843 381.704 134.263 357.827 169.667 323.41C202.099 291.889 225.883 249.488 245.352 201.332C272.67 133.768 283.356 50.575 307.055 -15.0651C316.246 -40.5262 321.521 -64.1399 331.256 -86.911C345.484 -120.187 369.676 -152.372 391.515 -161.242M-63.2733 644.103C-53.5218 592.747 -42.8699 541.527 -30.0944 491.72C-24.2163 468.805 -17.047 445.676 -4.24603 429.221C8.2067 413.218 24.6008 405.029 40.3409 396.533C81.2582 374.46 122.32 350.668 157.886 316.541C190.275 285.47 214.382 243.767 233.953 196.046C261.678 128.431 272.135 44.7695 296.573 -20.8707C305.917 -45.9657 311.642 -69.1879 321.64 -91.5248C336.216 -124.077 360.519 -155.522 382.409 -163.32M-74.4434 636.672C-64.6324 585.222 -53.972 533.909 -41.2814 483.94C-35.4798 461.118 -28.4295 438.049 -15.7134 421.654C-3.40508 405.778 12.8361 397.648 28.4148 389.255C69.3321 367.216 110.385 343.509 146.113 309.688C178.451 279.069 202.88 238.072 222.553 190.768C250.695 123.093 260.905 38.9554 286.091 -26.6677C295.588 -51.4052 301.763 -74.2358 312.024 -96.1301C326.949 -127.958 351.362 -158.663 373.303 -165.397M-85.622 629.24C-75.7515 577.706 -65.0826 526.29 -52.4685 476.168C-46.7433 453.44 -39.8119 430.439 -27.1893 414.095C-15.0253 398.338 1.05446 390.285 16.4887 381.985C57.406 359.98 98.4423 336.367 134.331 302.844C166.627 272.676 191.379 232.377 211.145 185.507C239.703 117.782 249.659 33.1499 275.601 -32.4478C285.242 -56.8362 291.867 -79.2582 302.4 -100.71C317.673 -131.823 342.196 -161.779 364.188 -167.44M-96.7921 621.809C-86.8622 570.189 -76.1932 518.68 -63.6471 468.388C-58.0068 445.761 -51.1859 422.811 -38.6482 406.527C-26.6202 390.898 -10.7017 382.905 4.57963 374.699C45.4969 352.736 86.5247 329.208 122.575 295.975C154.828 266.249 179.903 226.674 199.763 180.221C228.737 112.453 238.429 27.3103 265.136 -38.2533C274.93 -62.2927 282.005 -84.3147 292.802 -105.324C308.423 -135.713 333.056 -164.928 355.099 -169.525M-107.971 614.369C-97.9813 562.655 -87.3039 511.052 -74.8426 460.607C-69.2788 438.074 -62.5683 415.193 -50.1325 398.959C-38.2489 383.458 -22.4919 375.533 -7.35496 367.42C33.5624 345.492 74.5731 322.048 110.785 289.122C142.987 259.839 168.393 220.979 188.347 174.943C217.746 107.132 227.157 21.4622 254.637 -44.0503C264.575 -67.7407 272.109 -89.3626 283.169 -109.929C299.13 -139.604 323.883 -168.07 345.976 -171.594M-119.141 606.938C-109.092 555.139 -98.406 503.434 -86.0212 452.835C-80.5339 430.396 -73.9422 407.574 -61.5914 391.4C-49.8522 376.018 -34.2481 368.161 -19.264 360.142C21.6533 338.256 62.6471 314.889 99.0284 282.269C131.188 253.429 156.917 215.284 176.964 169.674C206.788 101.829 215.911 15.6055 244.172 -49.8389C254.254 -73.1888 262.239 -94.402 273.57 -114.526C289.88 -143.494 314.743 -171.211 336.887 -173.654M-130.319 599.506C-120.22 547.622 -109.517 495.823 -97.2083 445.055C-91.7974 422.718 -85.3247 399.955 -73.0673 383.832C-61.464 368.578 -46.0298 360.789 -31.1901 352.864C9.72719 331.012 50.7125 307.722 87.2467 275.408C119.355 247.01 145.416 209.589 165.565 164.388C195.813 96.5087 204.639 9.71485 233.689 -55.6444C243.917 -78.6623 252.36 -99.467 263.955 -119.139C280.612 -147.393 305.586 -174.36 327.781 -175.739M-141.489 592.075C-131.33 540.097 -120.619 488.205 -108.395 437.283C-103.061 415.039 -96.7071 392.345 -84.5347 376.273C-73.0758 361.138 -57.7945 353.417 -43.1077 345.594C-2.19039 323.785 38.7779 300.563 75.482 268.564C107.548 240.609 133.94 203.911 154.174 159.127C184.855 91.2139 193.367 3.8412 223.216 -61.4244C233.596 -84.1104 242.481 -104.498 254.348 -123.728C271.345 -151.266 296.437 -177.484 318.684 -177.791M-152.668 584.635C-142.449 532.572 -131.721 480.586 -119.582 429.494C-114.316 407.353 -108.081 384.709 -96.0021 368.697C-84.6876 353.69 -69.5676 346.037 -55.0338 338.299C-14.1165 316.524 26.8348 293.378 63.7004 261.695C95.7156 234.173 122.439 198.208 142.766 153.832C173.881 85.8936 182.069 -2.08353 212.725 -67.2385C223.241 -89.5924 232.594 -109.571 244.724 -128.35C262.069 -155.182 287.272 -180.643 309.57 -179.885M-163.847 577.203C-153.568 525.056 -142.831 472.967 -130.77 421.722C-125.579 399.674 -119.464 377.099 -107.478 361.138C-96.2994 346.258 -81.3408 338.665 -66.9599 331.029C-26.0425 309.297 14.8918 286.219 51.9272 254.842C83.8999 227.764 110.954 192.53 131.366 148.563C162.914 80.6073 170.78 -7.99975 202.243 -73.027C212.904 -95.066 222.706 -114.619 235.108 -132.947C252.793 -159.072 278.106 -183.775 300.464 -181.945M-175.017 569.772C-164.679 517.539 -153.925 465.357 -141.957 413.95C-136.843 392.004 -130.846 369.489 -118.945 353.579C-107.911 338.818 -93.097 331.344 -78.8774 323.759C-37.9261 302.18 2.94871 279.052 40.154 247.998C72.0758 221.354 99.4701 186.852 119.967 143.302C151.957 75.3295 159.474 -13.9245 191.77 -78.807C202.575 -100.523 212.827 -119.659 225.501 -137.527C243.526 -162.954 268.958 -186.891 291.366 -183.997M-186.195 562.34C-175.798 510.014 -165.036 457.738 -153.144 406.169C-148.106 384.318 -142.22 361.87 -130.421 346.011C-119.523 331.378 -104.879 323.964 -90.8035 316.473C-49.8522 294.927 -8.99437 271.867 28.3808 241.137C60.2516 214.918 87.9857 181.174 108.568 138.016C140.999 70.0262 148.168 -19.8833 181.288 -84.6126C192.237 -106.013 202.948 -124.724 215.885 -142.14C234.259 -166.869 259.801 -190.049 282.26 -186.074M-197.365 554.9C-186.909 502.489 -176.129 450.12 -164.322 398.389C-159.362 376.639 -153.594 354.243 -141.88 338.444C-131.126 323.938 -116.635 316.583 -102.713 309.194C-61.7698 287.683 -20.9205 264.691 16.6161 234.276C48.4445 208.491 76.5098 175.488 97.1851 132.738C130.067 64.7484 136.871 -25.8591 170.823 -90.4096C181.916 -111.504 193.078 -129.789 206.287 -146.746C225 -170.768 250.661 -193.19 273.163 -188.151M-208.544 547.469C-198.028 494.972 -187.232 442.509 -175.518 390.608C-170.625 368.953 -164.985 346.624 -153.364 330.876C-142.755 316.49 -128.425 309.212 -114.647 301.916C-73.7044 280.439 -32.872 257.506 4.82597 227.423C36.6034 202.064 65.0085 169.819 85.7687 127.46C119.101 59.4707 125.539 -31.8434 160.324 -96.2067C171.562 -117.003 183.174 -134.845 196.654 -151.351C215.707 -174.684 241.487 -196.331 264.04 -190.219M-219.714 540.038C-209.147 487.447 -198.325 434.891 -186.696 382.836C-181.88 361.274 -176.35 339.014 -164.823 323.317C-154.35 309.058 -140.181 301.84 -126.565 294.647C-85.622 273.204 -44.8151 250.339 -6.93872 220.579C24.7962 195.646 53.5326 164.149 74.3778 122.2C108.16 54.2099 114.216 -37.8362 149.85 -101.987C161.233 -122.476 173.303 -139.893 187.047 -155.939C206.448 -178.574 232.339 -199.455 254.942 -192.279M-230.893 532.606C-220.266 479.931 -209.427 427.28 -197.883 375.065C-193.144 353.604 -187.707 331.429 -176.291 315.758C-165.945 301.652 -151.954 294.468 -138.482 287.368C-97.5396 265.959 -56.7496 243.146 -18.7034 213.718C12.9805 189.21 42.0567 158.48 62.9868 116.922C97.2276 48.9406 102.893 -43.8631 139.377 -107.784C150.903 -127.984 163.424 -144.958 177.44 -160.544C197.181 -182.49 223.19 -202.596 245.845 -194.348M-242.063 525.166C-231.377 472.405 -220.521 419.662 -209.07 367.276C-204.399 345.909 -199.098 323.802 -187.767 308.182C-177.556 294.195 -163.728 287.079 -150.408 280.082C-109.466 258.707 -68.7012 235.953 -30.4851 206.857C1.14791 182.775 30.5639 152.802 51.5789 111.636C86.2784 43.6629 91.5534 -49.907 128.886 -113.589C140.557 -133.5 153.528 -150.031 167.816 -165.15C187.905 -186.406 214.025 -205.738 236.73 -196.416M-253.241 517.735C-242.496 464.88 -231.615 412.052 -220.258 359.504C-215.662 338.239 -210.472 316.183 -199.234 300.622C-189.168 286.764 -175.501 279.716 -162.326 272.812C-121.383 251.471 -80.6358 228.768 -42.2498 200.013C-10.6678 176.348 19.088 147.15 40.188 106.375C75.3461 38.4277 80.2219 -55.9509 118.413 -119.369C130.228 -138.991 143.658 -155.088 158.209 -169.738C178.638 -190.313 204.877 -208.862 227.633 -198.476M-264.411 510.303C-253.606 457.364 -242.708 404.441 -231.436 351.732C-226.909 330.561 -221.846 308.565 -210.701 293.055C-200.78 279.316 -187.265 272.335 -174.244 265.525C-133.309 244.218 -92.5788 221.558 -54.0229 193.143C-22.4834 169.904 7.61211 141.472 28.7885 101.08C64.4139 33.1584 68.8734 -62.0459 107.93 -125.183C119.899 -144.524 133.77 -160.178 148.593 -174.36C169.37 -194.246 195.72 -212.028 218.527 -200.562M-275.59 502.872C-264.726 449.847 -253.734 396.857 -242.632 343.951C-238.155 322.891 -233.237 300.946 -222.177 285.487C-212.4 271.867 -199.047 264.955 -186.17 258.247C-145.235 236.966 -104.522 214.365 -65.8046 186.29C-34.3161 163.46 -3.88077 135.811 17.3891 95.8107C53.4816 27.9147 57.525 -68.1323 97.4484 -130.972C109.561 -150.04 123.891 -165.243 138.977 -178.957C160.103 -198.161 186.563 -215.161 209.421 -202.63M-286.76 495.432C-275.836 442.314 -264.853 389.221 -253.81 336.171C-249.419 315.204 -244.611 293.319 -233.645 277.919C-224.012 264.419 -210.812 257.574 -198.096 250.969C-157.161 229.721 -116.499 207.087 -77.5778 179.438C-46.1572 156.965 -15.3566 130.159 5.98969 90.5414C42.5494 22.6795 46.1765 -74.2358 86.9664 -136.76C99.2323 -155.556 113.995 -170.334 129.362 -183.554C150.81 -202.12 177.406 -218.294 200.315 -204.69M191.209 -206.759C168.249 -221.426 141.56 -206.001 119.746 -188.151C104.125 -175.373 88.9031 -161.089 76.4844 -142.549C34.8195 -80.3563 31.6172 17.4528 -5.40975 85.2722C-26.841 124.515 -57.9559 150.597 -89.351 172.594C-128.417 199.97 -169.079 222.494 -210.013 243.708C-222.585 250.22 -235.624 256.996 -245.112 270.377C-255.993 285.717 -260.691 307.543 -264.997 328.416C-275.981 381.619 -286.955 434.823 -297.938 488.026" stroke="url(#paint0_linear_702_131)" stroke-miterlimit="10"/>
</g>
</g>
</g>
</g>
</g>
</g>
<defs>
<linearGradient id="paint0_linear_702_131" x1="283.505" y1="-212.609" x2="283.505" y2="775.788" gradientUnits="userSpaceOnUse">
<stop stop-color="white"/>
<stop offset="1" stop-color="white" stop-opacity="0"/>
</linearGradient>
</defs>
</svg>
