<svg width="915" height="989" viewBox="0 0 915 989" fill="none" xmlns="http://www.w3.org/2000/svg">
<g opacity="0.6">
<mask id="mask0_604_35" style="mask-type:luminance" maskUnits="userSpaceOnUse" x="5" y="0" width="905" height="985">
<path d="M5.93304 984.316L909.067 984.315L909.067 0.66925L5.93296 0.669329L5.93304 984.316Z" fill="white"/>
</mask>
<g mask="url(#mask0_604_35)">
<mask id="mask1_604_35" style="mask-type:luminance" maskUnits="userSpaceOnUse" x="5" y="0" width="905" height="985">
<path d="M5.93304 984.316L909.067 984.315L909.067 0.66925L5.93296 0.669329L5.93304 984.316Z" fill="white"/>
</mask>
<g mask="url(#mask1_604_35)">
<g opacity="0.2">
<mask id="mask2_604_35" style="mask-type:luminance" maskUnits="userSpaceOnUse" x="0" y="-1" width="915" height="991">
<path d="M6.10352e-05 989L915 989L915 -0.00012207L-2.5426e-05 -4.20785e-05L6.10352e-05 989Z" fill="white"/>
</mask>
<g mask="url(#mask2_604_35)">
<mask id="mask3_604_35" style="mask-type:luminance" maskUnits="userSpaceOnUse" x="0" y="-1" width="915" height="991">
<path d="M6.10352e-05 989L915 989L915 -0.00012207L-2.5426e-05 -4.20785e-05L6.10352e-05 989Z" fill="white"/>
</mask>
<g mask="url(#mask3_604_35)">
<path d="M266.982 0.715982C261.814 37.4366 253.046 73.2136 240.764 106.193C232.636 128.023 222.583 148.836 209.022 164.175C193.425 181.749 174.208 191.038 155.849 201.813C123.995 220.424 92.6088 244.73 70.7289 282.314C44.6827 327.046 35.8489 385.991 27.1207 442.869C19.6253 491.736 12.4858 543.608 16.2895 591.766C19.1374 627.877 29.9488 661.232 32.4671 697.022C36.3961 752.836 21.1349 808.281 6.24947 859.009M275.651 6.56504C270.436 43.3526 261.688 79.2233 249.44 112.31C241.384 134.073 231.41 154.826 217.915 170.125C202.43 187.605 183.339 196.84 165.091 207.541C133.237 226.126 101.831 250.318 79.8526 287.708C53.7998 332.038 44.8606 390.522 35.9544 447.025C28.2414 495.979 20.9503 548.166 24.4113 596.33C26.9889 632.16 37.5893 665.207 39.9164 700.643C43.5487 755.888 28.2282 810.758 13.3032 860.635M284.313 12.4074C279.059 49.2685 270.324 85.2262 258.115 118.42C250.132 140.116 240.237 160.816 226.815 176.067C211.442 193.454 192.469 202.636 174.34 213.256C142.486 231.814 111.054 255.886 88.9896 293.096C62.9367 337.017 53.8855 395.046 44.8013 451.167C36.8641 500.209 29.4214 552.703 32.5462 600.881C34.8469 636.423 45.2364 669.169 47.3789 704.257C50.7212 758.939 35.3348 813.22 20.3702 862.262M292.989 18.2498C287.688 55.1778 278.973 91.2292 266.797 124.537C258.887 146.166 249.071 166.812 235.715 182.017C220.453 199.31 201.606 208.438 183.596 218.978C151.742 237.509 120.29 261.461 98.1265 298.483C72.0737 342.003 62.9038 399.57 53.6482 455.317C45.4869 504.445 37.8991 557.24 40.6745 605.438C42.7115 640.7 52.8834 673.131 54.8348 707.877C57.8804 761.998 42.4347 815.69 27.4306 863.888M301.658 24.0922C296.311 61.0872 287.616 97.2322 275.473 130.647C267.641 152.209 257.898 172.802 244.614 187.96C229.465 205.152 210.736 214.227 192.845 224.7C160.997 243.204 129.519 267.042 107.263 303.87C81.204 346.989 71.922 404.094 62.495 459.459C54.1162 508.674 46.3769 561.771 48.8095 609.989C50.5762 644.956 60.5372 677.092 62.2973 711.491C65.0463 765.049 49.5412 818.153 34.4975 865.507M310.326 29.9345C304.934 67.0031 296.258 103.235 284.155 136.757C276.396 158.253 266.732 178.785 253.514 193.902C238.47 211.001 219.873 220.022 202.094 230.415C170.246 248.893 138.742 272.61 116.394 309.257C90.3344 351.974 80.9337 408.618 71.3353 463.608C62.7258 512.917 54.8414 566.302 56.9378 614.546C58.4408 649.226 68.1776 681.061 69.7532 715.111C72.2055 768.101 56.6412 820.622 41.5579 867.14M318.995 35.7836C313.557 72.9191 304.894 109.245 292.83 142.88C285.144 164.309 275.559 184.787 262.407 199.858C247.475 216.864 229.004 225.831 211.336 236.144C179.489 254.595 147.964 278.198 125.524 314.651C99.4714 356.967 89.9389 413.149 80.1691 467.758C71.3354 517.16 63.3125 570.826 65.0595 619.104C66.3054 653.489 75.8181 685.03 77.2025 718.732C79.3582 771.159 63.7345 823.092 48.6183 868.766M327.664 41.626C322.179 78.8284 313.537 115.248 301.506 148.99C293.892 170.352 284.386 190.777 271.307 205.801C256.487 222.713 238.134 231.627 220.585 241.866C188.738 260.29 157.194 283.78 134.655 320.039C108.602 361.953 98.944 417.679 89.0094 471.9C79.9449 521.39 71.7903 575.343 73.1878 623.655C74.1767 657.738 83.4652 688.991 84.6584 722.346C86.5174 774.204 70.8344 825.554 55.6786 870.393M336.327 47.4683C330.796 84.7444 322.173 121.251 310.181 155.107C302.64 176.402 293.213 196.767 280.2 211.751C265.492 228.562 247.258 237.422 229.828 247.588C197.98 265.985 166.416 289.355 143.785 325.433C117.732 366.952 107.942 422.203 97.8496 476.056C88.561 525.639 80.2614 579.86 81.3161 628.219C82.0479 662.008 91.1057 692.96 92.1143 725.966C93.6833 777.263 77.9343 828.03 62.739 872.019M344.995 53.3107C339.418 90.6537 330.809 127.254 318.857 161.217C311.388 182.445 302.04 202.756 289.099 217.693C274.504 234.411 256.395 243.218 239.077 253.303C207.229 271.674 175.652 294.929 152.915 330.813C126.869 371.931 116.941 426.721 106.69 480.192C97.164 529.862 88.7456 584.357 89.4444 632.763C89.9323 666.251 98.7528 696.915 99.5703 729.573C100.843 780.301 85.0408 830.487 69.7994 873.638M353.664 59.1464C348.048 96.5563 339.451 133.243 327.532 167.327C320.136 188.482 310.887 208.779 297.992 223.636C283.535 240.3 265.519 249.013 248.326 259.025C216.485 277.375 184.881 300.511 162.052 336.201C136.013 376.916 125.946 431.244 115.537 484.341C105.78 534.105 97.23 588.868 97.5794 637.32C97.8167 670.501 106.406 700.884 107.033 733.194C108.008 783.353 92.1473 832.956 76.8663 875.265M362.34 64.9888C356.677 102.472 348.1 139.246 336.221 173.437C328.897 194.525 319.727 214.769 306.905 229.579C292.56 246.149 274.669 254.809 257.588 264.74C225.747 283.064 194.124 306.085 171.196 341.588C145.156 381.909 134.951 435.768 124.39 488.484C114.396 538.341 105.727 593.365 105.721 641.871C105.714 674.75 114.067 704.839 114.502 736.808C115.181 786.404 99.2604 835.419 83.9399 876.891M371.015 70.8378C365.306 108.388 356.743 145.256 344.903 179.554C337.645 200.575 328.561 220.765 315.805 235.535C301.572 252.012 283.806 260.611 266.837 270.469C234.996 288.766 203.36 311.673 180.333 346.982C154.3 386.908 143.95 440.299 133.237 492.633C123.013 542.584 114.225 597.862 113.856 646.428C113.605 679 121.72 708.807 121.971 740.428C122.36 789.456 106.374 837.888 91.0134 878.517M379.697 76.6802C373.942 114.298 365.399 151.252 353.592 185.671C346.406 206.624 337.401 226.762 324.718 241.485C310.597 257.867 292.962 266.46 276.099 276.191C244.285 294.548 212.602 317.255 189.483 352.369C163.456 391.894 152.961 444.823 142.091 496.782C131.629 546.827 122.722 602.36 121.997 650.986C121.516 683.243 129.374 712.776 129.44 744.049C129.532 792.514 113.487 840.364 98.087 880.143M388.379 82.5225C382.578 120.207 374.048 157.255 362.287 191.781C355.174 212.661 346.248 232.751 333.63 247.427C319.622 263.716 302.112 272.256 285.361 281.913C253.547 300.25 221.851 322.829 198.626 357.763C172.613 396.893 161.96 449.354 150.944 500.931C140.238 551.07 131.233 606.85 130.139 655.543C129.42 687.492 137.034 716.738 136.902 747.669C136.705 795.566 120.593 842.834 105.154 881.776M397.048 88.3716C391.201 126.129 382.684 163.265 370.963 197.904C363.922 218.717 355.075 238.754 342.523 253.383C328.627 269.579 311.236 278.065 294.604 287.641C262.796 305.958 231.074 328.417 207.757 363.157C181.75 401.892 170.945 453.884 159.784 505.087C148.841 555.32 139.724 611.341 138.267 660.107C137.318 691.742 144.681 720.713 144.358 751.29C143.864 798.618 127.693 845.303 112.214 883.402M405.717 94.2139C399.824 132.039 391.326 169.261 379.638 204.014C372.663 224.754 363.902 244.744 351.423 259.326C337.638 275.428 320.373 283.86 303.859 293.357C272.052 311.647 240.316 333.999 216.894 368.538C190.894 406.878 179.931 458.395 168.631 509.223C157.444 559.549 148.228 615.818 146.395 664.652C145.222 695.971 152.329 724.661 151.821 754.897C151.03 801.656 134.8 847.759 119.281 885.022M414.393 100.056C408.46 137.948 399.969 175.264 388.327 210.124C381.425 230.797 372.743 250.733 360.329 265.269C346.657 281.277 329.517 289.656 313.115 299.078C281.314 317.348 249.559 339.58 226.037 373.932C200.05 411.877 188.922 462.926 177.485 513.372C166.054 563.792 156.745 620.295 154.537 669.209C153.139 700.214 159.989 728.623 159.29 758.518C158.209 804.708 141.913 850.229 126.355 886.648M423.075 105.899C417.096 143.864 408.618 181.261 397.015 216.241C390.179 236.84 381.589 256.73 369.242 271.218C355.682 287.133 338.66 295.458 322.377 304.8C290.576 323.05 258.808 345.162 235.181 379.319C209.207 416.876 197.914 467.443 186.338 517.522C174.663 568.028 165.263 624.772 162.679 673.766C161.063 704.451 167.649 732.592 166.759 762.138C165.381 807.759 149.026 852.698 133.428 888.281M431.75 111.748C425.725 149.78 417.26 187.264 405.698 222.358C398.934 242.89 390.423 262.726 378.142 277.168C364.693 292.988 347.797 301.26 331.626 310.522C299.825 328.745 268.043 350.75 244.318 384.706C218.351 421.869 206.893 471.967 195.185 521.664C183.26 572.264 173.78 629.243 170.813 678.317C168.981 708.687 175.303 736.547 174.222 765.752C172.554 810.804 156.132 855.161 140.495 889.901M440.426 117.583C434.354 155.683 425.903 193.253 414.386 228.461C407.688 248.92 399.263 268.702 387.048 283.104C373.712 298.831 356.934 307.049 340.882 316.237C309.081 334.44 277.286 356.324 253.455 390.094C227.501 426.868 215.872 476.484 204.025 525.813C191.849 576.507 182.291 633.713 178.942 682.875C176.898 712.923 182.943 740.515 181.678 769.372C179.713 813.856 163.232 857.637 147.556 891.534M449.095 123.433C442.977 161.605 434.545 199.263 423.062 234.585C416.436 254.969 408.091 274.705 395.947 289.06C382.723 304.693 366.071 312.858 350.131 321.966C318.336 340.142 286.528 361.919 262.592 395.488C236.651 431.867 224.851 481.008 212.872 529.962C200.446 580.75 190.815 638.184 187.077 687.432C184.822 717.159 190.597 744.477 189.133 772.986C186.879 816.901 170.332 860.1 154.616 893.153M457.757 129.275C451.593 167.515 443.175 205.259 431.731 240.695C425.171 261.013 416.911 280.695 404.841 295.003C391.728 310.542 375.195 318.653 359.373 327.681C327.579 345.837 295.757 367.494 271.715 400.868C245.788 436.859 233.816 485.519 221.706 534.105C209.029 584.987 199.325 642.641 195.198 691.983C192.739 721.389 198.244 748.432 196.589 776.6C194.045 819.939 177.432 862.563 161.676 894.773M466.426 135.111C460.216 173.417 451.811 211.249 440.413 246.805C433.926 267.049 425.745 286.684 413.74 300.946C400.74 316.391 384.332 324.442 368.629 333.403C336.834 351.533 305 373.082 280.859 406.262C254.951 441.865 242.795 490.05 230.56 538.254C217.625 589.223 207.862 647.104 203.34 696.54C200.677 725.625 205.904 752.394 204.058 780.221C201.224 822.991 184.552 865.032 168.75 896.406M475.108 140.96C468.852 179.333 460.46 217.252 449.101 252.922C442.68 273.092 434.585 292.681 422.646 306.895C409.758 322.247 393.475 330.244 377.885 339.125C346.096 357.234 314.249 378.67 289.996 411.649C264.101 446.864 251.76 494.56 239.406 542.397C226.215 593.459 216.399 651.561 211.475 701.091C208.614 729.848 213.558 756.349 211.521 783.835C208.396 826.036 191.658 867.495 175.817 898.025M483.777 146.795C477.481 185.243 469.089 223.241 457.783 259.025C451.428 279.129 443.419 298.663 431.553 312.831C418.777 328.089 402.612 336.033 387.14 344.84C355.352 362.923 323.498 384.251 299.139 417.03C273.265 451.857 260.739 499.071 248.26 546.539C234.812 597.688 224.943 656.018 219.616 705.642C216.564 734.077 221.218 760.311 218.99 787.448C215.569 829.074 198.771 869.958 182.89 899.651M492.459 152.638C486.117 191.152 477.738 229.238 466.472 265.142C460.19 285.172 452.259 304.653 440.459 318.781C427.795 333.945 411.756 341.835 396.396 350.562C364.608 368.625 332.74 389.839 308.276 422.424C282.415 456.863 269.705 503.595 257.1 550.688C243.395 601.931 233.48 660.476 227.745 710.199C224.501 738.314 228.865 764.273 226.446 791.069C222.734 832.126 205.871 872.427 189.958 901.278M501.134 158.487C494.746 197.068 486.381 235.241 475.154 271.259C468.938 291.215 461.093 310.649 449.365 324.73C436.813 339.794 420.893 347.638 405.651 356.284C373.863 374.32 341.989 395.427 317.42 427.811C291.578 461.868 278.67 508.112 265.954 554.838C251.985 606.168 242.037 664.939 235.886 714.757C232.452 742.543 236.526 768.235 233.915 794.689C229.913 835.171 212.984 874.903 197.031 902.91M509.817 164.336C503.382 202.99 495.023 241.244 483.849 277.382C477.699 297.265 469.94 316.652 458.278 330.686C445.838 345.657 430.043 353.447 414.914 362.019C383.132 380.035 351.245 401.029 326.563 433.212C300.741 466.888 287.642 512.636 274.807 558.994C260.574 610.411 250.6 669.403 244.021 719.321C240.402 746.786 244.179 772.203 241.378 798.317C237.086 838.229 220.091 877.379 204.098 904.543M518.485 170.185C512.005 208.906 503.659 247.247 492.525 283.499C486.44 303.308 478.767 322.649 467.171 336.636C454.837 351.513 439.167 359.249 424.163 367.741C392.381 385.73 360.487 406.624 335.7 438.606C309.898 471.893 296.601 517.153 283.654 563.143C269.151 614.647 259.157 673.86 252.156 723.878C248.359 751.022 251.84 776.165 248.84 801.93C244.258 841.268 227.197 879.842 211.165 906.17M527.161 176.027C520.635 214.816 512.295 253.243 501.207 289.609C495.188 309.344 487.6 328.638 476.077 342.578C463.855 357.362 448.31 365.038 433.418 373.457C401.637 391.419 369.743 412.205 344.837 443.987C319.055 476.893 305.56 521.664 292.501 567.285C277.728 618.876 267.72 678.31 260.291 728.429C256.316 755.245 259.493 780.12 256.303 805.544C251.437 844.313 234.304 882.305 218.232 907.789M535.836 181.863C529.264 220.725 520.938 259.226 509.896 295.719C503.943 315.388 496.441 334.628 484.983 348.528C472.873 363.217 457.447 370.84 442.674 379.178C410.892 397.12 378.992 417.8 353.981 449.374C328.218 481.898 314.526 526.175 301.354 571.428C286.317 623.106 276.297 682.768 268.432 732.98C264.286 759.475 267.153 784.075 263.772 809.158C258.616 847.351 241.417 884.768 225.306 909.409M544.518 187.699C537.9 226.628 529.58 265.215 518.584 301.822C512.697 321.417 505.281 340.604 493.896 354.464C481.898 369.06 466.597 376.629 451.936 384.894C420.154 402.809 388.248 423.388 363.124 454.761C337.388 486.904 323.485 530.685 310.208 575.577C294.894 627.342 284.874 687.225 276.574 737.537C272.256 763.711 274.82 788.037 271.241 812.779C265.795 850.396 248.53 887.244 232.379 911.042M553.194 193.554C546.529 232.55 538.223 271.225 527.266 307.946C521.445 327.467 514.115 346.607 502.796 360.42C490.91 374.915 475.728 382.438 461.185 390.622C429.41 408.511 397.497 428.982 372.261 460.155C346.545 491.923 332.437 535.196 319.048 579.726C303.464 631.572 293.45 691.682 284.702 742.095C280.219 767.94 282.467 791.992 278.697 816.399C272.968 853.448 255.63 889.713 239.439 912.668M561.863 199.397C555.158 238.466 546.852 277.221 535.948 314.062C530.193 333.504 522.948 352.603 511.702 366.369C499.928 380.771 484.871 388.233 470.441 396.344C438.666 414.213 406.746 434.584 381.405 465.542C355.715 496.929 341.396 539.706 327.902 583.876C312.041 635.801 302.04 696.145 292.844 746.652C288.196 772.177 290.134 795.954 286.166 820.02C280.147 856.493 262.743 892.183 246.513 914.301M570.545 205.246C563.794 244.382 555.495 283.218 544.637 320.179C538.948 339.553 531.789 358.6 520.608 372.319C508.946 386.627 494.008 394.035 479.703 402.073C447.928 419.914 416.008 440.185 390.548 470.943C364.878 501.955 350.348 544.224 336.755 588.031C320.617 640.037 310.636 700.616 300.985 751.216C296.179 776.426 297.795 799.923 293.635 823.64C287.333 859.538 269.863 894.652 253.587 915.927M579.22 211.088C572.424 250.292 564.131 289.207 553.319 326.296C547.696 345.59 540.622 364.589 529.514 378.268C517.965 392.483 503.152 399.838 488.958 407.795C457.183 425.61 425.264 445.78 399.692 476.33C374.048 506.968 359.301 548.728 345.609 592.174C329.187 644.26 319.239 705.073 309.127 755.767C304.163 780.656 305.461 803.878 301.104 827.254C294.518 862.576 276.976 897.115 260.66 917.553M587.902 216.93C581.06 256.208 572.773 295.204 562.014 332.406C556.457 351.626 549.469 370.579 538.427 384.211C526.99 398.325 512.295 405.633 498.221 413.51C466.452 431.298 434.526 451.375 408.835 481.711C383.218 511.974 368.253 553.225 354.462 596.317C337.757 648.483 327.849 709.53 317.268 760.318C312.146 784.885 313.128 807.833 308.573 830.868C301.704 865.614 284.089 899.578 267.734 919.173M596.585 222.773C589.696 262.117 581.416 301.193 570.703 338.523C565.205 357.669 558.31 376.575 547.333 390.16C536.008 404.181 521.439 411.429 507.476 419.238C475.708 437 443.775 456.976 417.979 487.112C392.388 516.999 377.206 557.742 363.316 600.472C346.327 652.712 336.465 714.007 325.41 764.882C320.136 789.135 320.789 811.802 316.042 834.495C308.889 868.666 291.202 902.054 274.807 920.812M605.26 228.629C598.325 268.04 590.052 307.203 579.385 344.646C573.953 363.719 567.143 382.571 556.24 396.117C545.026 410.043 530.576 417.237 516.732 424.967C484.964 442.708 453.037 462.584 427.116 492.506C401.551 522.019 386.151 562.253 372.162 604.622C354.891 656.942 345.081 718.478 333.538 769.439C328.119 793.378 328.442 815.757 323.498 838.116C316.062 871.718 298.302 904.53 281.868 922.439M613.929 234.471C606.948 273.949 598.674 313.192 588.067 350.756C582.701 369.756 575.977 388.561 565.139 402.059C554.031 415.892 539.713 423.033 525.981 430.689C494.213 448.403 462.286 468.186 436.253 497.893C410.714 527.038 395.09 566.757 381.003 608.771C363.441 661.165 353.697 722.955 341.666 773.997C336.102 797.621 336.096 819.719 330.954 841.736C323.234 874.763 305.402 906.999 288.928 924.065M622.598 240.313C615.57 279.865 607.304 319.189 596.743 356.873C591.436 375.799 584.804 394.557 574.039 408.009C563.043 421.741 548.843 428.829 535.236 436.411C503.468 454.099 471.542 473.794 445.39 503.287C419.878 532.057 404.03 571.261 389.85 612.92C371.998 665.381 362.32 727.432 349.801 778.554C344.092 801.864 343.756 823.68 338.416 845.357C330.413 877.808 312.509 909.469 295.995 925.698M631.273 246.162C624.206 285.781 615.94 325.185 605.425 362.99C600.184 381.842 593.638 400.547 582.938 413.958C572.055 427.597 557.98 434.631 544.486 442.133C512.724 459.794 480.791 479.396 454.527 508.674C429.048 537.076 412.969 575.758 398.697 617.069C380.548 669.604 370.956 731.916 357.936 783.112C352.089 806.106 351.416 827.642 345.879 848.971C337.599 880.846 319.615 911.932 303.062 927.317M639.942 251.998C632.829 291.683 624.562 331.168 614.107 369.093C608.932 387.872 602.472 406.53 591.845 419.894C581.073 433.44 567.117 440.42 553.741 447.848C521.979 465.482 490.053 484.997 463.664 514.055C438.211 542.089 421.901 580.248 407.543 621.205C389.105 673.807 379.599 736.393 366.071 787.656C360.085 810.343 359.083 831.591 353.341 852.578C344.778 883.884 326.722 914.388 310.129 928.937M648.618 257.84C641.458 297.599 633.198 337.158 622.789 375.21C617.673 393.908 611.305 412.526 600.744 425.844C590.085 439.289 576.254 446.215 562.99 453.57C531.228 471.177 499.302 490.598 472.801 519.449C447.374 547.115 430.834 584.752 416.39 625.361C397.648 678.029 388.248 740.89 374.206 792.22C368.082 814.599 366.744 835.559 360.804 856.205C351.964 886.936 333.828 916.864 317.196 930.57M657.293 263.69C650.088 303.515 641.828 343.16 631.471 381.327C626.421 399.951 620.139 418.516 609.644 431.793C599.096 445.144 585.384 452.017 572.239 459.292C540.477 476.872 508.557 496.207 481.931 524.836C456.537 552.141 439.76 589.243 425.224 629.504C406.185 682.232 396.89 745.387 382.328 796.771C376.072 818.849 374.391 839.508 368.253 859.819C359.136 889.974 340.921 919.333 324.256 932.196M665.955 269.532C658.704 309.425 650.444 349.15 640.147 387.443C635.156 405.994 628.966 424.512 618.544 437.743C608.108 451 594.521 457.813 581.488 465.02C549.726 482.574 517.813 501.821 491.068 530.23C465.707 557.173 448.693 593.747 434.071 633.653C414.729 686.448 405.546 749.891 390.463 801.328C384.075 823.105 382.058 843.47 375.716 863.439C366.322 893.019 348.028 921.803 331.323 933.822M674.631 275.374C667.333 315.334 659.073 355.14 648.829 393.553C643.898 412.024 637.8 430.495 627.443 443.685C617.113 456.842 603.652 463.608 590.737 470.736C558.975 488.263 527.069 507.43 500.198 535.617C474.864 562.193 457.619 598.237 442.911 637.802C423.266 690.658 414.208 754.402 398.591 805.886C392.078 827.361 389.711 847.431 383.172 867.06C373.501 896.071 355.128 924.272 338.383 935.455M683.3 281.223C675.956 321.257 667.702 361.136 657.504 399.67C652.639 418.067 646.627 436.491 636.343 449.635C626.125 462.698 612.788 469.411 599.993 476.458C568.231 493.958 536.324 513.044 509.342 541.005C484.041 567.218 466.551 602.728 451.765 641.945C431.81 694.854 422.89 758.912 406.733 810.436C400.088 831.611 397.385 851.387 390.641 870.674C380.693 899.109 362.248 926.735 345.457 937.075M691.982 287.066C684.592 327.166 676.338 367.126 666.199 405.787C661.394 424.11 655.474 442.481 645.256 455.584C635.15 468.547 621.932 475.206 609.255 482.179C577.5 499.646 545.6 518.659 518.492 546.392C493.224 572.244 475.497 607.212 460.625 646.094C440.367 699.057 431.586 763.436 414.881 814.994C408.11 835.874 405.065 855.355 398.116 874.288C387.892 902.154 369.367 929.198 352.537 938.694M700.664 292.901C693.234 333.069 684.968 373.109 674.888 411.89C670.148 430.14 664.314 448.464 654.168 461.527C644.174 474.396 631.082 481.002 618.517 487.901C586.755 505.341 554.868 524.274 527.636 551.786C502.4 577.284 484.43 611.709 469.478 650.243C448.904 703.259 440.281 767.974 423.022 819.551C416.133 840.143 412.732 859.317 405.586 877.908C395.091 905.206 376.48 931.667 359.611 940.327M709.346 298.75C701.87 338.991 693.604 379.098 683.583 418.014C678.903 436.183 673.154 454.46 663.081 467.477C653.199 480.252 640.226 486.797 627.779 493.623C596.024 511.037 564.137 529.889 536.786 557.173C511.583 582.31 493.369 616.193 478.338 654.386C457.454 707.455 448.989 772.504 431.17 824.102C424.156 844.4 420.412 863.272 413.061 881.522C402.296 908.251 383.6 934.13 366.691 941.947M717.949 304.606C710.427 344.914 702.16 385.101 692.193 424.137C687.572 442.233 681.915 460.463 671.908 473.439C662.132 486.115 649.284 492.613 636.956 499.359C605.201 516.745 573.32 535.517 545.844 562.574C520.674 587.356 502.216 620.69 487.106 658.548C465.905 711.665 457.612 777.069 439.219 828.673C432.087 848.69 427.993 867.254 420.438 885.156C409.396 911.316 390.621 936.62 373.672 943.593M726.625 310.455C719.057 350.83 710.79 391.097 700.875 430.254C696.313 448.27 690.749 466.453 680.815 479.389C671.15 491.97 658.427 498.408 646.212 505.087C614.456 522.44 582.589 541.145 554.987 567.975C529.851 592.402 511.142 625.187 495.953 662.704C474.436 715.861 466.32 781.633 447.354 833.237C440.103 852.966 435.66 871.222 427.9 888.783C416.588 914.374 397.727 939.096 380.739 945.226M735.293 316.298C727.679 356.746 719.406 397.087 709.557 436.371C705.055 454.313 699.583 472.449 689.714 485.338C680.162 497.819 667.557 504.211 655.467 510.809C623.712 528.135 591.851 546.773 564.124 573.362C539.027 597.434 520.068 629.664 504.8 666.853C482.959 720.057 475.036 786.204 455.489 837.794C448.119 857.242 443.326 875.191 435.363 892.404C423.78 917.426 404.834 941.565 387.806 946.859M743.969 322.14C736.309 362.655 728.029 403.077 718.239 442.481C713.796 460.349 708.417 478.432 698.62 491.281C689.18 503.668 676.701 509.999 664.723 516.524C632.968 533.824 601.12 552.388 573.268 578.743C548.204 602.46 528.994 634.141 513.653 670.989C491.49 724.233 483.764 790.768 463.631 842.339C456.149 861.512 451.007 879.139 442.832 896.004C430.979 920.464 411.947 944.015 394.88 948.465M752.638 327.982C744.931 368.564 736.651 409.059 726.915 448.598C722.537 466.386 717.244 484.428 707.513 497.23C698.179 509.517 685.825 515.802 673.965 522.253C642.21 539.519 610.369 558.017 582.391 584.143C557.36 607.513 537.9 638.625 522.487 675.145C500.001 728.422 492.479 795.359 471.753 846.903C464.152 865.802 458.66 883.115 450.281 899.631C438.158 923.523 419.04 946.491 401.933 950.105M761.313 333.831C753.561 374.487 745.274 415.056 735.603 454.714C731.285 472.429 726.077 490.418 716.426 503.18C707.204 515.367 694.975 521.597 683.227 527.975C651.472 545.214 619.645 563.645 591.541 589.531C566.55 612.552 546.832 643.102 531.347 679.294C508.531 732.605 501.227 799.956 479.901 851.46C472.188 870.085 466.34 887.083 457.757 903.252C445.37 926.581 426.16 948.96 409.014 951.731M769.982 339.674C762.184 380.396 753.89 421.045 744.279 460.824C740.02 478.465 734.905 496.407 725.319 509.123C716.209 521.216 704.099 527.393 692.47 533.697C660.715 550.903 628.9 569.273 600.665 594.918C575.707 617.591 555.739 647.579 540.181 683.437C517.035 736.774 509.955 804.561 488.022 856.011C480.197 874.368 474.001 891.045 465.206 906.866C452.549 929.639 433.253 951.43 416.067 953.35M778.658 345.516C770.819 386.306 762.513 427.028 752.961 466.941C748.762 484.502 743.738 502.397 734.226 515.072C725.22 527.065 713.242 533.188 701.725 539.419C669.97 556.598 638.162 574.908 609.809 600.312C584.89 622.637 564.665 652.057 549.028 687.593C525.552 740.957 518.703 809.192 496.157 860.575C488.22 878.671 481.667 895.027 472.669 910.493C459.741 932.705 440.36 953.906 423.134 954.99M787.327 351.359C779.442 392.222 771.129 433.018 761.643 473.051C757.503 490.538 752.572 508.38 743.125 521.015C734.232 532.914 722.373 538.984 710.974 545.134C679.219 562.28 647.425 580.536 618.939 605.692C594.053 627.67 573.571 656.52 557.868 691.728C534.057 745.12 527.451 813.809 504.286 865.119C496.23 882.954 489.334 898.982 480.125 914.1C466.934 935.75 447.46 956.362 430.195 956.603M796.002 357.208C788.072 398.138 779.745 439.007 770.325 479.175C766.238 496.581 761.399 514.383 752.025 526.971C743.244 538.769 731.509 544.786 720.23 550.869C688.475 567.988 656.693 586.184 628.083 611.093C603.236 632.729 582.497 661.004 566.721 695.891C542.574 749.302 536.219 818.467 512.427 869.69C504.266 887.264 497.008 902.971 487.594 917.734C474.132 938.828 454.573 958.845 437.268 958.249M804.678 363.05C796.701 404.047 788.368 444.997 779.007 485.285C774.979 502.618 770.233 520.366 760.931 532.914C752.256 544.612 740.646 550.581 729.486 556.584C697.73 573.67 665.962 591.813 637.22 616.48C612.406 637.769 591.41 665.468 575.568 700.034C551.084 753.458 544.98 823.118 520.562 874.241C512.289 891.567 504.681 906.939 495.056 921.348C481.331 941.886 461.686 961.307 444.335 959.869M813.346 368.892C805.324 409.956 796.978 450.98 787.689 491.395C783.721 508.647 779.066 526.349 769.831 538.856C761.267 550.461 749.77 556.337 738.735 562.3C706.953 579.265 675.231 597.448 646.357 621.861C621.583 642.808 600.322 669.932 584.415 704.169C559.589 757.607 553.754 827.776 528.69 878.785C520.305 895.857 512.348 910.901 502.512 924.948C488.523 944.938 468.786 963.757 451.395 961.481M822.022 374.735C813.953 415.872 805.601 456.97 796.371 497.512C792.462 514.691 787.894 532.338 778.737 544.806C770.279 556.31 758.914 562.139 747.99 568.028C716.209 584.966 684.5 603.096 655.494 627.255C630.759 647.867 609.235 674.395 593.262 708.325C568.093 761.777 562.529 832.461 536.825 883.349C528.328 900.173 520.015 914.883 509.975 928.575C495.716 948.017 475.893 966.24 458.462 963.114M830.691 380.584C822.576 421.788 814.21 462.959 805.047 503.628C801.197 520.727 796.721 538.334 787.63 550.755C779.284 562.159 768.038 567.941 757.233 573.75C725.458 590.662 693.755 608.737 664.624 632.649C639.922 652.92 618.141 678.866 602.096 712.475C576.577 765.926 571.296 837.159 544.947 887.906C536.337 904.49 527.675 918.865 517.424 932.196C502.901 951.082 482.986 968.709 465.523 964.747M839.366 386.426C831.205 427.697 822.826 468.942 813.735 509.745C809.938 526.77 805.561 544.324 796.543 556.705C788.309 568.015 777.188 573.737 766.495 579.472C734.72 596.357 703.031 614.386 673.774 638.036C649.112 657.973 627.067 683.323 610.956 716.624C585.088 770.075 580.091 841.863 553.095 892.464C544.374 908.813 535.362 922.84 524.9 935.816C510.113 954.16 490.106 971.179 472.603 966.373M848.035 392.269C839.834 433.614 831.436 474.932 822.411 515.855C818.673 532.807 814.381 550.307 805.436 562.648C797.307 573.857 786.311 579.532 775.744 585.187C743.969 602.045 712.299 620.021 682.904 643.417C658.275 663.019 635.974 687.78 619.796 720.76C593.579 774.211 588.878 846.575 561.223 897.008C552.39 913.116 543.022 926.809 532.356 939.424C517.299 957.218 497.205 973.635 479.663 967.993M856.711 398.111C848.464 439.523 840.052 480.915 831.093 521.965C827.414 538.836 823.195 556.27 814.335 568.59C806.306 579.679 795.448 585.328 784.993 590.909C753.218 607.74 721.562 625.676 692.035 648.811C667.445 668.078 644.88 692.237 628.636 724.909C602.063 778.354 597.666 851.313 569.352 901.565C560.406 917.446 550.689 930.791 539.812 943.044C524.491 960.297 504.305 976.104 486.724 969.619M865.38 403.96C857.086 445.439 848.661 486.904 839.775 528.089C836.149 544.886 832.036 562.266 823.242 574.546C815.318 585.542 804.585 591.137 794.249 596.638C762.474 613.442 730.837 631.331 701.178 654.205C676.628 673.137 653.799 696.701 637.49 729.065C610.56 782.503 606.466 856.064 577.493 906.129C568.435 921.783 558.369 934.779 547.281 946.665C531.69 963.375 511.419 978.574 493.797 971.245M874.055 409.802C865.716 451.355 857.271 492.887 848.457 534.199C844.891 550.916 840.863 568.256 832.141 580.489C824.329 591.384 813.722 596.925 803.498 602.353C771.723 619.131 740.099 636.979 710.309 659.585C685.798 678.19 662.706 701.145 646.33 733.201C619.045 786.618 615.261 860.816 585.622 910.674C576.452 926.099 566.029 938.754 554.737 950.272C538.882 966.447 518.518 981.03 500.858 972.865M882.724 415.645C874.339 457.264 865.881 498.87 857.133 540.309C853.619 556.952 849.69 574.245 841.041 586.439C833.341 597.24 822.853 602.728 812.747 608.082C780.978 624.832 749.368 642.647 719.446 664.986C694.968 683.256 671.612 705.608 655.177 737.363C627.529 790.761 624.068 865.608 593.757 915.244C584.468 930.449 573.703 942.756 562.199 953.906C546.074 969.539 525.625 983.519 507.925 974.505M891.399 421.487C882.968 463.173 874.437 504.833 865.821 546.425C862.347 562.982 858.53 580.235 849.947 592.388C842.359 603.096 831.996 608.53 822.002 613.803C790.234 630.534 758.637 648.302 728.589 670.373C704.151 688.322 680.531 710.059 664.024 741.506C636.013 794.883 632.875 870.393 601.891 919.795C592.491 934.786 581.37 946.738 569.662 957.52C553.267 972.617 532.731 985.982 514.992 976.131M900.068 427.336C891.591 469.096 883.067 510.836 874.497 552.542C871.089 569.025 867.357 586.231 858.847 598.338C851.371 608.952 841.126 614.332 831.258 619.525C799.489 636.229 767.932 654.024 737.726 675.761C713.341 693.428 689.437 714.502 672.871 745.648C644.498 798.999 641.683 875.191 610.026 924.346C600.507 939.122 589.05 950.74 577.124 961.133C560.479 975.729 539.838 988.445 522.059 977.75M529.125 979.377C546.944 990.907 567.658 978.781 584.587 964.747C596.71 954.702 608.523 943.472 618.161 928.897C650.497 880.003 652.982 803.108 681.718 749.791C698.35 718.939 722.498 698.434 746.863 681.141C777.181 659.619 808.738 641.911 840.507 625.234C850.263 620.114 860.383 614.787 867.746 604.267C876.191 592.207 879.837 575.048 883.179 558.639C891.703 516.812 900.22 474.985 908.744 433.158" stroke="url(#paint0_linear_604_35)" stroke-miterlimit="10"/>
</g>
</g>
</g>
</g>
</g>
</g>
<defs>
<linearGradient id="paint0_linear_604_35" x1="457.497" y1="983.976" x2="457.497" y2="0.715982" gradientUnits="userSpaceOnUse">
<stop stop-color="white" stop-opacity="0"/>
<stop offset="0.5" stop-color="white"/>
<stop offset="1" stop-color="white" stop-opacity="0"/>
</linearGradient>
</defs>
</svg>
