<svg width="100" height="200" viewBox="0 0 212 221" fill="none" xmlns="http://www.w3.org/2000/svg">
<g opacity="0.6" clip-path="url(#clip0_840_189)">
<path d="M370.208 29.4616C370.208 29.4616 207.775 42.287 207.775 -118.323" stroke="url(#paint0_linear_840_189)" stroke-miterlimit="10"/>
<path d="M368.593 34.7092C368.593 34.7092 202.021 47.861 202.021 -116.842" stroke="url(#paint1_linear_840_189)" stroke-miterlimit="10"/>
<path d="M366.977 39.9591C366.977 39.9591 196.264 53.4372 196.264 -115.36" stroke="url(#paint2_linear_840_189)" stroke-miterlimit="10"/>
<path d="M365.363 45.2066C365.363 45.2066 190.51 59.0131 190.51 -113.879" stroke="url(#paint3_linear_840_189)" stroke-miterlimit="10"/>
<path d="M363.749 50.4564C363.749 50.4564 184.755 64.5893 184.755 -112.397" stroke="url(#paint4_linear_840_189)" stroke-miterlimit="10"/>
<path d="M362.134 55.704C362.134 55.704 179 70.1633 179 -110.915" stroke="url(#paint5_linear_840_189)" stroke-miterlimit="10"/>
<path d="M360.519 60.9533C360.519 60.9533 173.243 75.7389 173.243 -109.434" stroke="url(#paint6_linear_840_189)" stroke-miterlimit="10"/>
<path d="M358.903 66.2014C358.903 66.2014 167.488 81.3153 167.488 -107.952" stroke="url(#paint7_linear_840_189)" stroke-miterlimit="10"/>
<path d="M357.288 71.4489C357.288 71.4489 161.731 86.8893 161.731 -106.473" stroke="url(#paint8_linear_840_189)" stroke-miterlimit="10"/>
<path d="M355.673 76.6982C355.673 76.6982 155.977 92.4649 155.977 -104.99" stroke="url(#paint9_linear_840_189)" stroke-miterlimit="10"/>
<path d="M354.057 81.9458C354.057 81.9458 150.22 98.0389 150.22 -103.51" stroke="url(#paint10_linear_840_189)" stroke-miterlimit="10"/>
<path d="M352.442 87.1956C352.442 87.1956 144.465 103.617 144.465 -102.027" stroke="url(#paint11_linear_840_189)" stroke-miterlimit="10"/>
<path d="M350.828 92.4432C350.828 92.4432 138.71 109.191 138.71 -100.547" stroke="url(#paint12_linear_840_189)" stroke-miterlimit="10"/>
<path d="M349.213 97.6931C349.213 97.6931 132.955 114.767 132.955 -99.0632" stroke="url(#paint13_linear_840_189)" stroke-miterlimit="10"/>
<path d="M347.598 102.941C347.598 102.941 127.198 120.343 127.198 -97.5839" stroke="url(#paint14_linear_840_189)" stroke-miterlimit="10"/>
<path d="M345.983 108.188C345.983 108.188 121.444 125.917 121.444 -96.1024" stroke="url(#paint15_linear_840_189)" stroke-miterlimit="10"/>
<path d="M344.367 113.438C344.367 113.438 115.687 131.493 115.687 -94.6206" stroke="url(#paint16_linear_840_189)" stroke-miterlimit="10"/>
<path d="M342.753 118.685C342.753 118.685 109.933 137.069 109.933 -93.1393" stroke="url(#paint17_linear_840_189)" stroke-miterlimit="10"/>
<path d="M341.137 123.935C341.137 123.935 104.176 142.643 104.176 -91.6574" stroke="url(#paint18_linear_840_189)" stroke-miterlimit="10"/>
<path d="M339.524 129.183C339.524 129.183 98.4209 148.219 98.4209 -90.1761" stroke="url(#paint19_linear_840_189)" stroke-miterlimit="10"/>
<path d="M337.908 134.432C337.908 134.432 92.666 153.795 92.666 -88.6949" stroke="url(#paint20_linear_840_189)" stroke-miterlimit="10"/>
<path d="M336.293 139.68C336.293 139.68 86.9092 159.371 86.9092 -87.2129" stroke="url(#paint21_linear_840_189)" stroke-miterlimit="10"/>
<path d="M334.678 144.93C334.678 144.93 81.1543 164.945 81.1543 -85.7336" stroke="url(#paint22_linear_840_189)" stroke-miterlimit="10"/>
<path d="M333.062 150.178C333.062 150.178 75.3994 170.522 75.3994 -84.2517" stroke="url(#paint23_linear_840_189)" stroke-miterlimit="10"/>
<path d="M331.447 155.425C331.447 155.425 69.6426 176.097 69.6426 -82.7703" stroke="url(#paint24_linear_840_189)" stroke-miterlimit="10"/>
<path d="M329.832 160.675C329.832 160.675 63.8877 181.671 63.8877 -81.289" stroke="url(#paint25_linear_840_189)" stroke-miterlimit="10"/>
<path d="M328.216 165.923C328.216 165.923 58.1309 187.248 58.1308 -79.8071" stroke="url(#paint26_linear_840_189)" stroke-miterlimit="10"/>
<path d="M326.603 171.172C326.603 171.172 52.376 192.823 52.376 -78.3259" stroke="url(#paint27_linear_840_189)" stroke-miterlimit="10"/>
<path d="M324.988 176.419C324.988 176.419 46.6211 198.399 46.6211 -76.8446" stroke="url(#paint28_linear_840_189)" stroke-miterlimit="10"/>
<path d="M323.372 181.669C323.372 181.669 40.8643 203.973 40.8642 -75.3627" stroke="url(#paint29_linear_840_189)" stroke-miterlimit="10"/>
<path d="M321.758 186.917C321.758 186.917 35.1104 209.549 35.1103 -73.8814" stroke="url(#paint30_linear_840_189)" stroke-miterlimit="10"/>
<path d="M320.142 192.164C320.142 192.164 29.3525 215.125 29.3525 -72.4" stroke="url(#paint31_linear_840_189)" stroke-miterlimit="10"/>
<path d="M318.527 197.414C318.527 197.414 23.5986 220.699 23.5986 -70.9181" stroke="url(#paint32_linear_840_189)" stroke-miterlimit="10"/>
<path d="M316.912 202.662C316.912 202.662 17.8438 226.275 17.8437 -69.4368" stroke="url(#paint33_linear_840_189)" stroke-miterlimit="10"/>
<path d="M315.296 207.912C315.296 207.912 12.0869 231.852 12.0869 -67.955" stroke="url(#paint34_linear_840_189)" stroke-miterlimit="10"/>
<path d="M313.683 213.159C313.683 213.159 6.33203 237.427 6.33202 -66.4736" stroke="url(#paint35_linear_840_189)" stroke-miterlimit="10"/>
<path d="M312.068 218.409C312.068 218.409 0.577149 243.001 0.577136 -64.9943" stroke="url(#paint36_linear_840_189)" stroke-miterlimit="10"/>
</g>
<defs>
<linearGradient id="paint0_linear_840_189" x1="207.775" y1="-44.3092" x2="370.208" y2="-44.3092" gradientUnits="userSpaceOnUse">
<stop stop-color="#121212"/>
<stop offset="1" stop-color="white"/>
</linearGradient>
<linearGradient id="paint1_linear_840_189" x1="202.021" y1="-40.9416" x2="368.593" y2="-40.9416" gradientUnits="userSpaceOnUse">
<stop stop-color="#121212"/>
<stop offset="1" stop-color="white"/>
</linearGradient>
<linearGradient id="paint2_linear_840_189" x1="196.264" y1="-37.5726" x2="366.977" y2="-37.5727" gradientUnits="userSpaceOnUse">
<stop stop-color="#121212"/>
<stop offset="1" stop-color="white"/>
</linearGradient>
<linearGradient id="paint3_linear_840_189" x1="190.51" y1="-34.2051" x2="365.363" y2="-34.2051" gradientUnits="userSpaceOnUse">
<stop stop-color="#121212"/>
<stop offset="1" stop-color="white"/>
</linearGradient>
<linearGradient id="paint4_linear_840_189" x1="184.755" y1="-30.8362" x2="363.749" y2="-30.8362" gradientUnits="userSpaceOnUse">
<stop stop-color="#121212"/>
<stop offset="1" stop-color="white"/>
</linearGradient>
<linearGradient id="paint5_linear_840_189" x1="179" y1="-27.4686" x2="362.134" y2="-27.4686" gradientUnits="userSpaceOnUse">
<stop stop-color="#121212"/>
<stop offset="1" stop-color="white"/>
</linearGradient>
<linearGradient id="paint6_linear_840_189" x1="173.243" y1="-24.1002" x2="360.519" y2="-24.1002" gradientUnits="userSpaceOnUse">
<stop stop-color="#121212"/>
<stop offset="1" stop-color="white"/>
</linearGradient>
<linearGradient id="paint7_linear_840_189" x1="167.488" y1="-20.7321" x2="358.903" y2="-20.7321" gradientUnits="userSpaceOnUse">
<stop stop-color="#121212"/>
<stop offset="1" stop-color="white"/>
</linearGradient>
<linearGradient id="paint8_linear_840_189" x1="161.731" y1="-17.3655" x2="357.288" y2="-17.3655" gradientUnits="userSpaceOnUse">
<stop stop-color="#121212"/>
<stop offset="1" stop-color="white"/>
</linearGradient>
<linearGradient id="paint9_linear_840_189" x1="155.977" y1="-13.9962" x2="355.673" y2="-13.9962" gradientUnits="userSpaceOnUse">
<stop stop-color="#121212"/>
<stop offset="1" stop-color="white"/>
</linearGradient>
<linearGradient id="paint10_linear_840_189" x1="150.22" y1="-10.6296" x2="354.057" y2="-10.6296" gradientUnits="userSpaceOnUse">
<stop stop-color="#121212"/>
<stop offset="1" stop-color="white"/>
</linearGradient>
<linearGradient id="paint11_linear_840_189" x1="144.465" y1="-7.25973" x2="352.442" y2="-7.25974" gradientUnits="userSpaceOnUse">
<stop stop-color="#121212"/>
<stop offset="1" stop-color="white"/>
</linearGradient>
<linearGradient id="paint12_linear_840_189" x1="138.71" y1="-3.8931" x2="350.828" y2="-3.89311" gradientUnits="userSpaceOnUse">
<stop stop-color="#121212"/>
<stop offset="1" stop-color="white"/>
</linearGradient>
<linearGradient id="paint13_linear_840_189" x1="132.955" y1="-0.523193" x2="349.213" y2="-0.523203" gradientUnits="userSpaceOnUse">
<stop stop-color="#121212"/>
<stop offset="1" stop-color="white"/>
</linearGradient>
<linearGradient id="paint14_linear_840_189" x1="127.198" y1="2.84336" x2="347.598" y2="2.84335" gradientUnits="userSpaceOnUse">
<stop stop-color="#121212"/>
<stop offset="1" stop-color="white"/>
</linearGradient>
<linearGradient id="paint15_linear_840_189" x1="121.444" y1="6.21094" x2="345.983" y2="6.21093" gradientUnits="userSpaceOnUse">
<stop stop-color="#121212"/>
<stop offset="1" stop-color="white"/>
</linearGradient>
<linearGradient id="paint16_linear_840_189" x1="115.687" y1="9.57989" x2="344.367" y2="9.57988" gradientUnits="userSpaceOnUse">
<stop stop-color="#121212"/>
<stop offset="1" stop-color="white"/>
</linearGradient>
<linearGradient id="paint17_linear_840_189" x1="109.933" y1="12.9474" x2="342.753" y2="12.9474" gradientUnits="userSpaceOnUse">
<stop stop-color="#121212"/>
<stop offset="1" stop-color="white"/>
</linearGradient>
<linearGradient id="paint18_linear_840_189" x1="104.176" y1="16.3164" x2="341.137" y2="16.3164" gradientUnits="userSpaceOnUse">
<stop stop-color="#121212"/>
<stop offset="1" stop-color="white"/>
</linearGradient>
<linearGradient id="paint19_linear_840_189" x1="98.4209" y1="19.6839" x2="339.524" y2="19.6839" gradientUnits="userSpaceOnUse">
<stop stop-color="#121212"/>
<stop offset="1" stop-color="white"/>
</linearGradient>
<linearGradient id="paint20_linear_840_189" x1="92.666" y1="23.0522" x2="337.908" y2="23.0522" gradientUnits="userSpaceOnUse">
<stop stop-color="#121212"/>
<stop offset="1" stop-color="white"/>
</linearGradient>
<linearGradient id="paint21_linear_840_189" x1="86.9092" y1="26.4204" x2="336.293" y2="26.4204" gradientUnits="userSpaceOnUse">
<stop stop-color="#121212"/>
<stop offset="1" stop-color="white"/>
</linearGradient>
<linearGradient id="paint22_linear_840_189" x1="81.1543" y1="29.7878" x2="334.678" y2="29.7878" gradientUnits="userSpaceOnUse">
<stop stop-color="#121212"/>
<stop offset="1" stop-color="white"/>
</linearGradient>
<linearGradient id="paint23_linear_840_189" x1="75.3994" y1="33.1559" x2="333.062" y2="33.1559" gradientUnits="userSpaceOnUse">
<stop stop-color="#121212"/>
<stop offset="1" stop-color="white"/>
</linearGradient>
<linearGradient id="paint24_linear_840_189" x1="69.6426" y1="36.5235" x2="331.447" y2="36.5235" gradientUnits="userSpaceOnUse">
<stop stop-color="#121212"/>
<stop offset="1" stop-color="white"/>
</linearGradient>
<linearGradient id="paint25_linear_840_189" x1="63.8877" y1="39.8919" x2="329.832" y2="39.8918" gradientUnits="userSpaceOnUse">
<stop stop-color="#121212"/>
<stop offset="1" stop-color="white"/>
</linearGradient>
<linearGradient id="paint26_linear_840_189" x1="58.1309" y1="43.26" x2="328.216" y2="43.26" gradientUnits="userSpaceOnUse">
<stop stop-color="#121212"/>
<stop offset="1" stop-color="white"/>
</linearGradient>
<linearGradient id="paint27_linear_840_189" x1="52.376" y1="46.6283" x2="326.603" y2="46.6283" gradientUnits="userSpaceOnUse">
<stop stop-color="#121212"/>
<stop offset="1" stop-color="white"/>
</linearGradient>
<linearGradient id="paint28_linear_840_189" x1="46.6211" y1="49.9959" x2="324.988" y2="49.9959" gradientUnits="userSpaceOnUse">
<stop stop-color="#121212"/>
<stop offset="1" stop-color="white"/>
</linearGradient>
<linearGradient id="paint29_linear_840_189" x1="40.8643" y1="53.3648" x2="323.372" y2="53.3648" gradientUnits="userSpaceOnUse">
<stop stop-color="#121212"/>
<stop offset="1" stop-color="white"/>
</linearGradient>
<linearGradient id="paint30_linear_840_189" x1="35.1103" y1="56.7324" x2="321.758" y2="56.7324" gradientUnits="userSpaceOnUse">
<stop stop-color="#121212"/>
<stop offset="1" stop-color="white"/>
</linearGradient>
<linearGradient id="paint31_linear_840_189" x1="29.3525" y1="60.0999" x2="320.142" y2="60.0999" gradientUnits="userSpaceOnUse">
<stop stop-color="#121212"/>
<stop offset="1" stop-color="white"/>
</linearGradient>
<linearGradient id="paint32_linear_840_189" x1="23.5986" y1="63.4689" x2="318.527" y2="63.4689" gradientUnits="userSpaceOnUse">
<stop stop-color="#121212"/>
<stop offset="1" stop-color="white"/>
</linearGradient>
<linearGradient id="paint33_linear_840_189" x1="17.8437" y1="66.8364" x2="316.912" y2="66.8364" gradientUnits="userSpaceOnUse">
<stop stop-color="#121212"/>
<stop offset="1" stop-color="white"/>
</linearGradient>
<linearGradient id="paint34_linear_840_189" x1="12.0869" y1="70.2054" x2="315.296" y2="70.2053" gradientUnits="userSpaceOnUse">
<stop stop-color="#121212"/>
<stop offset="1" stop-color="white"/>
</linearGradient>
<linearGradient id="paint35_linear_840_189" x1="6.33203" y1="73.5729" x2="313.683" y2="73.5729" gradientUnits="userSpaceOnUse">
<stop stop-color="#121212"/>
<stop offset="1" stop-color="white"/>
</linearGradient>
<linearGradient id="paint36_linear_840_189" x1="0.577142" y1="76.9403" x2="312.068" y2="76.9403" gradientUnits="userSpaceOnUse">
<stop stop-color="#121212"/>
<stop offset="1" stop-color="white"/>
</linearGradient>
<clipPath id="clip0_840_189">
<rect width="333" height="365" fill="white" transform="translate(0 221) rotate(-90)"/>
</clipPath>
</defs>
</svg>
