<svg width="1440" height="1024" viewBox="0 0 1440 1024" fill="none" xmlns="http://www.w3.org/2000/svg">
<g opacity="0.5" clip-path="url(#clip0_198_38)">
<mask id="mask0_198_38" style="mask-type:luminance" maskUnits="userSpaceOnUse" x="0" y="0" width="1440" height="1024">
<path d="M1439.19 0H0V1023.3H1439.19V0Z" fill="white"/>
</mask>
<g mask="url(#mask0_198_38)">
<path d="M1051.28 1535.53C1067.78 1459.05 1095.76 1384.54 1134.95 1315.86C1160.89 1270.39 1192.97 1227.05 1236.24 1195.1C1286.02 1158.5 1347.34 1139.16 1405.93 1116.72C1507.58 1077.97 1607.73 1027.34 1677.56 949.068C1760.68 855.91 1788.87 733.148 1816.71 614.694C1840.63 512.922 1863.42 404.893 1851.29 304.599C1842.2 229.392 1807.69 159.928 1799.67 85.3896C1787.11 -30.8491 1835.82 -146.321 1883.32 -251.967M1023.62 1523.35C1040.26 1446.73 1068.18 1372.03 1107.26 1303.12C1132.97 1257.8 1164.8 1214.58 1207.86 1182.72C1257.28 1146.31 1318.2 1127.08 1376.43 1104.79C1478.08 1066.09 1578.31 1015.7 1648.44 937.834C1731.59 845.513 1760.1 723.713 1788.53 606.038C1813.14 504.086 1836.41 395.401 1825.37 295.093C1817.14 220.471 1783.32 151.648 1775.89 77.8495C1764.29 -37.2045 1813.19 -151.478 1860.81 -255.354M995.978 1511.18C1012.74 1434.41 1040.62 1359.52 1079.58 1290.4C1105.05 1245.22 1136.63 1202.1 1179.46 1170.34C1228.52 1134.13 1289.07 1115.01 1346.92 1092.89C1448.57 1054.24 1548.87 1004.11 1619.29 926.615C1702.42 835.143 1731.3 714.291 1760.29 597.411C1785.63 495.277 1809.38 385.952 1799.41 285.616C1792.06 211.593 1758.9 143.397 1752.06 70.3232C1741.41 -43.5601 1790.51 -156.608 1838.26 -258.74M968.292 1499.01C985.205 1422.1 1013.02 1347.02 1051.87 1277.66C1077.12 1232.61 1108.44 1189.61 1151.06 1157.95C1199.76 1121.93 1259.91 1102.92 1317.38 1080.97C1419.03 1042.38 1519.4 992.497 1590.13 915.395C1673.27 824.759 1702.53 704.869 1732.07 588.771C1758.11 486.455 1782.33 376.502 1773.46 276.124C1766.96 202.688 1734.51 135.147 1728.27 62.7831C1718.56 -49.9294 1767.85 -161.75 1815.72 -262.128M940.629 1486.85C957.689 1409.79 985.438 1334.53 1024.19 1264.94C1049.18 1220.03 1080.27 1177.15 1122.66 1145.57C1171.01 1109.76 1230.77 1090.87 1287.87 1069.06C1389.5 1030.52 1489.95 980.874 1560.97 904.175C1644.14 814.376 1673.75 695.447 1703.84 580.143C1730.57 477.647 1755.27 367.066 1747.5 266.647C1741.87 193.823 1710.08 126.896 1704.46 55.2568C1695.69 -56.285 1745.17 -166.879 1793.17 -265.501M912.965 1474.68C930.173 1397.48 957.858 1322.03 996.481 1252.2C1021.24 1207.44 1052.08 1164.68 1094.26 1133.2C1142.27 1097.59 1201.62 1078.8 1258.35 1057.15C1359.98 1018.67 1460.52 969.277 1531.83 892.956C1615 803.993 1645 686.026 1675.63 571.502C1703.09 468.811 1728.26 357.63 1721.57 257.155C1716.77 184.931 1685.69 118.631 1680.67 47.7165C1672.84 -62.6405 1722.51 -172.022 1770.64 -268.901M885.302 1462.49C902.657 1385.16 930.299 1309.51 968.798 1239.45C993.327 1194.83 1023.91 1152.18 1065.88 1120.79C1113.53 1085.38 1172.48 1066.7 1228.86 1045.22C1330.49 1006.8 1431.09 957.64 1502.7 881.722C1585.84 793.596 1616.26 676.59 1647.44 562.86C1675.63 459.973 1701.23 348.209 1695.64 247.663C1691.67 176.053 1661.31 110.366 1656.89 40.1764C1650.02 -69.0099 1699.89 -177.165 1748.11 -272.288M857.637 1450.33C875.141 1372.85 902.721 1297.01 941.113 1226.73C965.411 1182.25 995.746 1139.7 1037.48 1108.41C1084.77 1073.19 1143.34 1054.63 1199.34 1033.31C1300.97 994.936 1401.64 946.016 1473.56 870.503C1556.7 783.212 1587.52 667.154 1619.23 554.233C1648.15 451.165 1674.16 338.802 1669.71 238.187C1666.56 167.202 1636.91 102.115 1633.1 32.6501C1627.17 -75.3515 1677.23 -182.294 1725.59 -275.676M829.995 1438.16C847.645 1360.53 875.161 1284.5 913.427 1213.99C937.494 1169.64 967.578 1127.23 1009.11 1096.03C1056.04 1061.01 1114.23 1042.56 1169.85 1021.39C1271.48 983.076 1372.21 934.405 1444.43 859.269C1527.56 772.8 1558.8 657.732 1591.01 545.578C1620.65 442.314 1647.13 329.393 1643.77 228.68C1641.44 158.31 1612.53 93.8497 1609.31 25.11C1604.3 -81.7209 1654.56 -187.451 1703.06 -279.062M802.33 1426C820.129 1348.23 847.602 1272 885.744 1201.27C909.578 1157.06 939.408 1114.76 980.704 1083.65C1027.28 1048.83 1085.07 1030.49 1140.33 1009.49C1241.96 971.228 1342.73 922.796 1415.29 848.063C1498.41 762.431 1530.09 648.325 1562.8 536.965C1593.2 433.521 1620.07 320.027 1617.84 219.217C1616.28 149.474 1588.13 85.6126 1585.52 17.5977C1581.46 -88.0485 1631.89 -192.566 1680.53 -282.435M774.667 1413.84C792.59 1335.93 820.023 1259.53 858.058 1188.55C881.661 1144.48 911.177 1102.21 952.325 1071.27C998.461 1036.57 1055.95 1018.42 1110.82 997.57C1212.43 959.354 1313.28 911.172 1386.13 836.844C1469.23 752.048 1501.35 638.903 1534.57 528.323C1565.7 424.684 1592.99 310.633 1591.87 209.726C1591.12 140.624 1563.71 77.3476 1561.71 10.0575C1558.59 -94.404 1609.21 -197.709 1657.98 -285.822M746.982 1401.68C765.053 1323.61 792.423 1247.02 830.331 1175.82C853.703 1131.9 882.966 1089.74 923.884 1058.9C969.661 1024.39 1026.76 1006.35 1081.26 985.668C1182.87 947.507 1283.79 899.562 1356.95 825.624C1440.05 741.651 1472.61 629.481 1506.32 519.696C1538.21 415.861 1565.87 301.267 1565.89 200.249C1565.91 131.774 1539.26 69.1107 1537.87 2.53124C1535.7 -100.76 1586.51 -202.837 1635.4 -289.208M719.297 1389.49C737.516 1311.29 764.842 1234.51 802.625 1163.07C825.787 1119.3 854.776 1077.25 895.482 1046.49C940.902 1012.18 997.598 994.267 1051.75 973.738C1153.36 935.632 1254.31 887.924 1327.79 814.39C1410.87 731.238 1443.9 620.046 1478.08 511.054C1510.71 407.025 1538.76 291.901 1539.93 190.758C1540.73 122.923 1514.84 60.8457 1514.04 -5.00897C1512.8 -107.115 1563.81 -207.981 1612.83 -292.595M691.591 1377.32C709.957 1298.98 737.221 1222.02 774.899 1150.34C797.829 1106.7 826.565 1064.76 867.041 1034.1C912.102 999.981 968.377 982.086 1022.19 961.821C1123.72 923.59 1224.82 876.3 1298.6 803.171C1381.65 720.856 1415.14 610.624 1449.83 502.414C1483.22 398.188 1511.64 282.535 1513.95 181.266C1515.49 114.087 1490.41 52.5808 1490.2 -12.5491C1489.91 -113.484 1541.11 -213.138 1590.25 -295.982M663.886 1365.16C682.399 1286.67 709.62 1209.51 747.151 1137.61C769.85 1094.13 798.334 1052.29 838.598 1021.72C883.302 987.8 939.177 970.016 992.632 949.905C1094.16 911.716 1195.3 864.691 1269.42 791.936C1352.43 710.444 1386.43 601.188 1421.58 493.772C1455.74 389.352 1484.48 273.183 1487.97 171.774C1490.26 105.237 1465.97 44.3298 1466.39 -20.0894C1467.02 -119.84 1518.43 -218.281 1567.7 -299.383M636.222 1352.98C654.881 1274.34 682.063 1197 719.466 1124.86C741.933 1081.51 770.165 1039.79 810.219 1009.32C854.566 975.591 910.062 957.918 963.138 937.974C1064.64 899.827 1165.87 853.052 1240.28 780.703C1323.27 700.033 1357.75 591.753 1393.37 485.116C1428.29 380.502 1457.38 263.831 1462.03 162.269C1465.06 96.3864 1441.56 36.051 1442.59 -27.6295C1444.17 -126.196 1495.78 -223.423 1545.17 -302.769M608.559 1340.81C627.365 1262.03 654.482 1184.51 691.78 1112.14C714.037 1068.94 741.997 1027.31 781.82 996.943C825.809 963.41 880.904 945.849 933.602 926.071C1035.11 887.98 1136.38 841.429 1211.12 769.497C1294.09 689.649 1329.08 582.358 1365.14 476.503C1400.84 371.693 1430.25 254.507 1436.09 152.805C1439.84 87.5778 1417.16 27.8278 1418.78 -35.1418C1421.31 -132.523 1473.1 -228.539 1522.62 -306.142M580.873 1328.65C599.807 1249.72 626.902 1172.02 664.054 1099.41C686.079 1056.36 713.785 1014.84 753.399 984.567C797.03 951.229 851.726 933.778 904.067 914.154C1005.55 876.105 1106.88 829.805 1181.94 758.264C1264.87 679.238 1300.38 572.923 1336.88 467.863C1373.36 362.857 1403.07 245.183 1410.11 143.314C1414.57 78.7414 1392.72 19.5768 1394.95 -42.6819C1398.4 -138.879 1450.4 -233.681 1500.05 -309.529M553.167 1316.47C572.248 1237.4 599.302 1159.53 636.327 1086.68C658.142 1043.77 685.553 1002.35 724.956 972.176C768.23 939.033 822.548 921.695 874.509 902.238C975.991 864.231 1077.37 818.181 1152.77 747.044C1235.65 668.827 1271.69 563.516 1308.63 459.221C1345.89 354.035 1375.89 235.859 1384.13 133.822C1389.29 69.919 1368.27 11.3119 1371.11 -50.2222C1375.51 -145.234 1427.7 -238.824 1477.48 -312.93M525.482 1304.29C544.711 1225.08 571.721 1147.02 608.621 1073.93C630.205 1031.17 657.364 989.863 696.557 959.786C739.473 926.838 793.391 909.611 844.995 890.322C946.477 852.369 1047.9 806.544 1123.61 735.824C1206.47 658.43 1243.04 554.094 1280.4 450.594C1318.45 345.213 1348.71 226.549 1358.17 124.345C1364.02 61.0966 1343.85 3.0748 1347.3 -57.7484C1352.62 -151.575 1405.02 -243.954 1454.92 -316.303M497.798 1292.14C517.174 1212.8 544.143 1134.55 580.894 1061.22C602.268 1018.62 629.154 977.417 668.135 947.424C710.694 914.671 764.233 897.555 815.458 878.419C916.94 840.509 1018.4 794.933 1094.45 724.605C1177.28 648.018 1214.38 544.686 1252.19 441.952C1291.04 336.376 1321.55 217.238 1332.23 114.854C1338.76 52.2742 1319.46 -5.19014 1323.5 -65.2886C1329.77 -157.931 1382.37 -249.111 1432.39 -319.703M470.134 1279.96C489.656 1200.46 516.563 1122.03 553.209 1048.47C574.351 1006.02 600.984 964.915 639.735 935.019C681.935 902.461 735.075 885.457 785.943 866.489C887.405 828.635 988.909 783.282 1065.29 713.371C1148.08 637.607 1185.73 535.264 1223.96 433.311C1263.61 327.54 1294.35 207.928 1306.27 105.362C1313.47 43.4516 1295.04 -13.4412 1299.71 -72.8148C1306.91 -164.273 1359.71 -254.239 1409.86 -323.076M442.491 1267.79C462.16 1188.16 489.026 1109.54 525.546 1035.75C546.478 993.431 572.838 952.44 611.356 922.643C653.199 890.279 705.96 873.388 756.45 854.586C857.911 816.773 959.456 771.672 1036.18 702.165C1118.92 627.21 1157.12 525.871 1195.77 424.684C1236.22 318.717 1267.19 198.646 1280.36 95.8846C1288.2 34.6433 1270.64 -21.6781 1275.92 -80.3411C1284.04 -170.6 1337.05 -259.369 1387.33 -326.449M414.827 1255.64C434.644 1175.86 461.467 1097.07 497.84 1023.02C518.54 980.859 544.647 939.967 582.956 910.266C624.442 878.098 676.802 861.332 726.913 842.669C828.375 804.913 929.963 760.034 1007 690.932C1089.68 616.785 1128.47 516.434 1167.51 416.043C1208.79 309.895 1239.95 189.349 1254.38 86.3932C1262.88 25.8208 1246.19 -29.9292 1252.08 -87.8813C1261.13 -176.956 1314.33 -264.511 1364.76 -329.85M387.122 1243.45C407.086 1163.54 433.866 1084.56 470.113 1010.28C490.603 968.273 516.437 927.479 554.536 897.876C595.662 865.903 647.624 849.248 697.376 830.752C798.817 793.037 900.448 748.396 977.843 679.712C1060.48 606.373 1099.86 507.041 1139.28 407.416C1181.38 301.072 1212.7 180.067 1228.42 76.9156C1237.55 17.0262 1221.77 -38.1662 1228.27 -95.4075C1238.24 -183.297 1291.65 -269.64 1342.21 -333.223M359.458 1231.3C379.548 1151.23 406.329 1072.1 442.407 997.57C462.687 955.702 488.246 915.019 526.113 885.513C566.883 853.735 618.466 837.192 667.841 818.85C769.282 781.191 870.932 736.772 948.665 668.506C1031.24 595.976 1071.21 497.647 1111.03 398.788C1153.95 292.263 1185.44 170.784 1202.44 67.4382C1212.18 8.21778 1197.32 -46.4172 1204.43 -102.934C1215.35 -189.625 1268.95 -274.769 1319.63 -336.61M331.752 1219.13C351.99 1138.92 378.728 1059.61 414.68 984.832C434.728 943.117 460.036 902.544 497.693 873.123C538.105 841.54 589.289 825.108 638.304 806.933C739.745 769.317 841.438 725.135 919.508 657.273C1002.04 585.551 1042.6 488.225 1082.82 390.147C1126.56 283.427 1158.19 161.502 1176.5 57.9468C1186.85 -0.604682 1172.92 -54.6683 1180.64 -110.474C1192.48 -195.981 1246.3 -279.912 1297.08 -339.996M304.066 1206.96C324.451 1126.6 351.148 1047.1 386.974 972.093C406.812 930.531 431.847 890.057 469.271 860.732C509.326 829.359 560.131 813.024 608.769 795.017C710.209 757.455 811.924 713.497 890.328 646.053C972.794 575.125 1013.98 478.817 1054.56 381.506C1099.14 274.605 1130.89 152.206 1150.52 48.4553C1161.48 -9.41315 1148.48 -62.9191 1156.81 -118.014C1169.58 -202.322 1223.6 -285.069 1274.51 -343.398M276.362 1194.78C296.894 1114.27 323.568 1034.6 359.227 959.34C378.854 917.932 403.615 877.554 440.83 848.328C480.526 817.15 530.931 800.927 579.212 783.073C680.632 745.552 782.387 701.831 861.15 634.805C943.552 564.672 985.354 469.395 1026.31 372.85C1071.73 265.768 1103.56 142.909 1124.56 38.95C1136.11 -18.2495 1124.05 -71.1842 1132.99 -125.569C1146.69 -208.691 1200.92 -290.226 1251.96 -346.798M248.697 1182.59C269.377 1101.95 296.01 1022.1 331.541 946.602C350.958 905.346 375.446 865.067 412.451 835.938C451.811 804.955 501.815 788.842 549.696 771.155C651.116 733.692 752.894 690.179 831.993 623.572C914.333 554.247 956.764 459.987 998.081 364.209C1044.36 256.946 1076.25 133.628 1098.6 29.4586C1110.71 -27.0719 1099.61 -79.4351 1109.18 -133.095C1123.8 -215.019 1178.24 -295.354 1229.4 -350.185M221.012 1170.42C241.839 1089.64 268.451 1009.61 303.835 933.877C323.043 892.774 347.257 852.593 384.029 823.561C423.031 792.773 472.637 776.787 520.16 759.254C621.581 721.845 723.357 678.555 802.836 612.366C885.112 543.836 928.175 450.594 969.849 355.581C1016.99 248.137 1048.93 124.359 1072.64 19.9809C1085.32 -35.8665 1075.18 -87.6722 1085.36 -140.62C1100.89 -221.36 1155.56 -300.484 1206.85 -353.558M193.328 1158.27C214.302 1077.33 240.872 997.152 276.108 921.152C295.106 880.189 319.045 840.118 355.608 811.171C394.254 780.577 443.48 764.703 490.624 747.336C592.044 709.97 693.842 666.904 773.658 601.146C855.87 533.41 899.565 441.199 941.596 346.955C989.581 239.329 1021.56 115.077 1046.66 10.5035C1059.89 -44.6751 1050.74 -95.9093 1061.53 -148.147C1077.98 -227.688 1132.87 -305.613 1184.28 -356.93M165.622 1146.12C186.744 1065.04 213.292 984.679 248.382 908.44C267.169 867.631 290.835 827.673 327.165 798.808C365.454 768.411 414.28 752.646 461.066 735.434C562.487 698.123 664.307 655.266 744.478 589.926C826.608 522.985 870.975 431.806 913.344 338.313C962.213 230.507 994.188 105.794 1020.67 1.01207C1034.45 -53.4975 1026.27 -104.16 1037.69 -155.687C1055.07 -234.029 1110.17 -310.769 1161.71 -360.332M137.937 1133.92C159.206 1052.71 185.712 972.162 220.676 895.688C239.252 855.032 262.645 815.171 298.766 786.404C336.695 756.215 385.145 740.549 431.552 723.504C532.952 686.249 634.791 643.614 715.321 578.693C797.387 512.532 842.406 422.412 885.133 329.672C934.865 221.698 966.82 96.5117 994.735 -8.47936C1009.04 -62.3059 1001.87 -112.397 1013.9 -163.228C1032.18 -240.386 1087.51 -315.912 1139.18 -363.718M110.273 1121.76C131.668 1040.39 158.175 959.675 192.97 882.949C211.336 842.46 234.455 802.683 270.345 774.013C307.918 744.02 355.965 728.479 402.015 711.587C503.415 674.374 605.277 631.948 686.143 567.473C768.124 502.106 813.817 413.018 856.88 321.03C907.495 212.89 939.408 87.2154 968.755 -17.9708C983.587 -71.1284 977.401 -120.648 990.066 -170.767C1009.27 -246.727 1064.81 -321.056 1116.6 -367.119M82.5674 1109.57C104.109 1028.07 130.595 947.186 165.243 870.21C183.398 829.86 206.245 790.194 241.923 761.623C279.138 731.824 326.808 716.396 372.459 699.657C473.857 662.5 575.719 620.282 656.964 556.226C738.883 491.639 785.248 403.61 828.627 312.376C880.125 204.067 911.976 77.9053 942.774 -27.4762C958.11 -79.9787 952.956 -128.913 966.23 -178.308C986.343 -253.068 1042.09 -326.199 1094.03 -370.505M54.8827 1097.4C76.572 1015.76 103.037 934.713 137.538 857.471C155.482 817.289 178.055 777.721 213.503 749.232C250.359 719.629 297.63 704.312 342.923 687.74C444.322 650.638 546.183 608.631 627.786 545.007C709.62 481.201 756.681 394.231 800.374 303.748C852.778 195.273 884.522 68.6228 916.794 -36.9537C932.635 -88.7872 928.491 -137.15 942.396 -185.834C963.411 -259.396 1019.39 -331.327 1071.46 -373.893M27.1768 1085.24C49.0133 1003.44 75.4569 922.224 109.789 844.746C127.524 804.717 149.823 765.247 185.06 736.856C221.559 707.462 268.451 692.242 313.365 675.838C414.744 638.791 516.627 596.979 598.608 533.801C680.358 470.775 728.112 384.865 772.122 295.121C825.429 186.478 857.049 59.3404 890.813 -46.4312C907.159 -97.5957 904.025 -145.388 918.56 -193.361C940.481 -265.724 996.692 -336.457 1048.89 -377.266M-0.529006 1073.07C21.4547 991.132 47.8773 909.75 82.0626 832.008C99.6076 792.132 121.612 752.758 156.639 724.465C192.781 695.267 239.273 680.173 283.83 663.907C385.207 626.917 487.111 585.313 569.428 522.553C651.095 460.308 699.543 375.457 743.869 286.466C798.081 177.669 829.553 50.0163 864.832 -55.9365C881.661 -106.446 879.578 -153.653 894.726 -200.914C917.551 -272.079 973.993 -341.614 1026.31 -380.68M-28.2138 1060.87C-6.08276 978.796 20.3186 897.234 54.3567 819.254C71.6912 779.532 93.4226 740.271 128.218 712.061C164.002 683.057 210.116 668.075 254.293 651.977C355.67 615.028 457.553 573.634 540.271 511.319C621.854 449.855 670.997 366.063 715.637 277.825C770.754 168.861 802.058 40.7061 838.893 -65.4279C856.186 -115.282 855.154 -161.889 870.932 -208.455C894.663 -278.435 951.336 -346.771 1003.78 -384.066M-55.8776 1048.71C-33.5992 966.49 -7.19777 884.76 26.651 806.529C43.7752 766.961 65.2329 727.796 99.8179 699.684C135.265 670.875 180.958 656.004 224.779 640.06C326.156 603.168 428.039 561.968 511.114 500.099C592.612 439.402 642.47 356.683 687.427 269.183C743.469 160.067 774.562 31.3819 812.954 -74.9194C830.709 -124.118 830.73 -170.14 847.139 -215.994C871.774 -284.776 928.68 -351.913 981.251 -387.454M-83.5414 1036.54C-61.1158 954.17 -34.7354 872.273 -1.03396 793.79C15.9009 754.376 37.0642 715.308 71.4179 687.294C106.508 658.695 151.822 643.935 195.242 628.144C296.619 591.306 398.502 550.288 481.957 488.866C563.37 428.948 613.944 347.303 659.195 260.543C716.163 151.286 747.046 22.0576 786.994 -84.4108C805.214 -132.955 806.285 -178.391 823.326 -223.535C848.865 -291.118 906.002 -357.056 958.7 -390.854M-111.226 1024.36C-88.6745 941.848 -62.294 859.784 -28.7398 781.051C-12.0153 741.79 8.87457 702.835 43.0177 674.904C77.75 646.499 122.664 631.85 165.728 616.226C267.084 579.446 368.988 538.623 452.799 477.646C534.108 418.495 585.417 337.937 630.962 251.901C688.878 142.491 719.486 12.7195 761.034 -93.9022C779.695 -141.791 781.84 -186.642 799.512 -231.061C825.935 -297.446 883.324 -362.185 936.148 -394.227M-138.89 1012.21C-116.191 929.556 -89.8104 847.324 -56.4456 768.341C-39.9316 729.232 -19.3151 690.375 14.5966 662.541C48.9713 634.331 93.5069 619.795 136.191 604.325C237.547 567.599 339.43 526.957 423.642 466.441C504.866 408.057 556.912 328.585 602.732 243.288C661.572 133.739 691.906 3.39532 735.075 -103.366C754.177 -150.613 757.375 -194.865 775.698 -238.573C803.026 -303.773 860.646 -367.3 913.596 -397.6M-166.574 1000.04C-143.729 917.235 -117.369 834.85 -84.1515 755.601C-67.8267 716.661 -47.5048 677.886 -13.8033 650.15C20.2136 622.15 64.3494 607.725 106.676 592.407C208.033 555.739 309.916 515.292 394.485 455.207C475.624 397.59 528.407 319.205 574.499 234.632C634.308 124.944 664.307 -5.97062 709.116 -112.871C728.659 -159.478 732.93 -203.131 751.884 -246.127C780.094 -310.128 837.968 -372.457 891.044 -401M-194.26 987.856C-171.266 904.914 -144.907 822.348 -111.857 742.862C-95.743 704.075 -75.6946 665.412 -42.2035 637.76C-8.54408 609.955 35.213 595.641 77.161 580.491C178.519 543.877 280.379 503.612 365.349 443.988C446.382 387.123 499.922 309.853 546.309 226.005C607.064 116.191 636.727 -15.3366 683.198 -122.349C703.162 -168.329 708.526 -211.354 728.112 -253.654C757.206 -316.456 815.332 -377.599 868.513 -404.388M-221.902 975.688C-198.761 892.607 -172.401 809.874 -139.542 730.124C-123.617 691.489 -103.863 652.925 -70.6035 625.37C-37.3017 597.76 6.05558 583.571 47.646 568.561C149.003 532.003 250.844 491.918 336.191 432.754C417.12 376.641 471.417 300.473 518.078 217.364C579.8 107.411 609.106 -24.7166 657.238 -131.84C677.623 -177.193 684.061 -219.605 704.297 -261.194C734.276 -322.797 792.654 -382.743 845.963 -407.775M-249.587 963.521C-226.298 880.3 -199.94 797.401 -167.247 717.399C-151.512 678.931 -132.053 640.465 -99.0036 612.994C-66.0384 585.592 -23.0808 571.502 18.131 556.658C119.488 520.155 221.307 480.238 307.055 421.534C387.901 366.188 442.933 291.121 489.866 208.723C552.557 98.6442 581.462 -34.1104 631.299 -141.332C652.084 -186.057 659.636 -227.856 680.504 -268.735C711.366 -329.154 769.997 -387.886 823.431 -411.175M-277.25 951.339C-253.816 867.966 -227.477 784.912 -194.933 704.66C-179.407 666.346 -160.221 627.976 -127.404 600.603C-94.7962 573.397 -52.2382 559.418 -11.4053 544.742C89.9515 508.295 191.77 468.546 277.875 410.315C358.616 355.721 414.428 281.769 461.613 200.095C525.294 89.9055 553.756 -43.5043 605.318 -150.809C626.524 -194.907 635.148 -236.092 656.67 -276.26C688.414 -335.48 747.277 -393.014 800.858 -414.548M-304.956 939.173C-281.374 855.659 -255.036 772.438 -222.68 691.921C-207.344 653.761 -188.453 615.502 -155.846 588.212C-123.596 561.215 -81.4167 547.348 -40.9624 532.825C60.3734 496.448 162.171 456.852 248.677 399.095C329.312 345.254 385.88 272.431 433.34 191.454C497.986 81.1527 526.008 -52.9261 579.317 -160.3C600.922 -203.785 610.641 -244.357 632.814 -283.786C665.443 -341.823 724.556 -398.144 778.265 -417.921M-332.662 927.019C-308.954 843.367 -282.573 759.978 -250.407 679.21C-235.281 641.203 -216.663 603.042 -184.288 575.836C-152.396 549.034 -110.616 535.278 -70.5195 520.908C30.8372 484.587 132.594 445.158 219.499 387.861C300.029 334.759 357.375 263.065 405.087 182.813C470.744 72.3999 498.261 -62.3757 553.336 -169.792C575.319 -212.677 586.174 -252.608 608.978 -291.327C642.47 -348.178 701.857 -403.287 755.692 -421.322M-360.368 914.837C-336.512 831.031 -310.133 747.504 -278.156 666.457C-263.219 628.617 -244.875 590.554 -212.731 563.445C-181.196 536.839 -139.795 523.208 -100.076 508.991C1.25917 472.726 103.015 433.465 190.298 376.641C270.723 324.292 328.849 253.726 376.813 174.186C443.459 63.6611 470.47 -71.8114 527.333 -179.27C549.718 -221.542 561.667 -260.845 585.123 -298.853C619.476 -354.519 679.138 -408.416 733.097 -424.695M-387.822 902.642C-363.819 818.697 -337.438 735.002 -305.629 653.705C-290.883 616.017 -272.833 578.052 -240.899 551.027C-209.701 524.63 -168.7 511.096 -129.36 497.048C-28.0246 460.838 73.7108 421.743 161.393 365.394C241.713 313.783 300.617 244.36 348.834 165.516C416.49 54.8944 442.954 -81.3167 501.648 -188.789C524.41 -230.476 537.474 -269.139 561.582 -306.421C596.82 -360.903 656.733 -413.601 710.819 -428.124M-415.506 890.461C-391.356 806.376 -364.975 722.514 -333.335 640.966C-318.779 603.446 -301.022 565.578 -269.32 538.637C-238.48 512.434 -197.878 499.027 -158.896 485.116C-57.5606 448.977 44.1327 410.021 132.215 354.146C212.43 303.274 272.133 234.994 320.602 156.861C389.267 46.1556 415.163 -90.8221 475.688 -198.294C498.828 -239.382 513.008 -277.404 537.769 -313.975C573.868 -367.272 634.055 -418.757 688.267 -431.524M-443.171 878.293C-418.873 794.055 -392.471 710.041 -361.041 628.227C-346.673 590.861 -329.213 553.09 -297.72 526.246C-267.237 500.253 -227.014 486.943 -188.433 473.2C-87.0967 437.116 14.5756 398.3 103.058 342.926C183.146 292.793 243.649 225.671 292.371 148.22C362.067 37.4168 387.354 -100.341 449.728 -207.785C473.248 -248.288 488.541 -285.669 513.954 -321.516C550.917 -373.628 611.376 -423.9 665.715 -434.924M-470.856 866.126C-446.411 781.748 -419.987 697.566 -388.747 615.502C-374.569 578.289 -357.402 540.63 -326.142 513.87C-296.016 488.071 -256.192 474.887 -217.968 461.297C-116.633 425.269 -15.0026 386.607 73.8791 331.721C153.862 282.326 215.164 216.346 264.118 139.606C334.844 28.7198 359.499 -109.847 423.747 -217.249C447.625 -257.18 464.032 -293.891 490.12 -329.014C527.944 -379.956 588.678 -429.001 643.143 -438.27M-498.519 853.959C-473.927 769.442 -447.504 685.106 -416.433 602.763C-402.463 565.718 -385.571 528.142 -354.521 501.479C-324.732 475.89 -285.308 462.803 -247.463 449.367C-146.127 413.409 -44.5176 374.885 44.7639 320.473C124.642 271.803 186.744 207.009 235.927 130.952C307.685 19.995 331.69 -119.408 397.829 -226.755C422.086 -266.114 439.61 -302.17 466.348 -336.568C505.035 -386.325 566.043 -434.158 620.634 -441.685M-526.204 841.778C-501.464 757.107 -475.021 672.618 -444.159 590.025C-430.38 553.132 -413.76 515.667 -382.962 489.089C-353.532 463.708 -314.508 450.733 -277.019 437.451C-175.683 401.547 -74.1168 363.163 15.5643 309.253C95.316 261.309 158.238 197.684 207.653 122.31C280.464 11.284 303.773 -128.983 371.828 -236.246C396.442 -275.034 415.101 -310.436 442.491 -344.108C482.02 -392.694 543.322 -439.301 598.04 -445.072M-553.867 829.61C-528.981 744.801 -502.517 660.143 -471.845 577.3C-458.255 540.56 -441.93 503.194 -411.341 476.712C-382.268 451.527 -343.623 438.664 -306.514 425.534C-205.179 389.701 -103.653 351.442 -13.5509 298.034C66.0955 250.814 129.817 188.36 179.464 113.683C253.325 2.60091 275.92 -138.571 345.909 -245.723C370.881 -283.954 390.656 -318.686 418.719 -351.634C459.111 -399.063 520.687 -444.444 575.53 -448.444M-581.553 817.442C-556.54 732.494 -530.033 647.683 -499.551 564.561C-486.149 527.988 -470.119 490.72 -439.763 464.322C-411.027 439.346 -372.802 426.593 -336.049 413.618C-234.714 377.84 -133.21 339.707 -42.7295 286.8C36.7908 240.304 101.333 179.035 151.233 105.028C226.145 -6.11 248.004 -148.217 319.95 -255.228C345.279 -292.916 366.189 -326.979 394.906 -359.189C436.159 -405.447 498.009 -449.601 552.978 -451.858M-609.217 805.275C-584.056 720.173 -557.529 635.209 -527.255 551.836C-514.045 515.417 -498.309 478.26 -468.163 451.945C-439.784 427.164 -401.939 414.524 -365.565 401.715C-264.23 366.007 -162.768 327.985 -71.8657 275.594C7.54928 229.824 72.9115 169.739 123.022 96.4142C199.007 -14.7791 220.087 -157.833 294.012 -264.692C319.718 -301.836 341.723 -335.216 371.112 -366.701C413.208 -411.788 475.351 -454.716 530.448 -455.218M-636.901 793.093C-611.593 707.852 -585.024 622.736 -554.961 539.083C-541.918 502.832 -526.477 465.757 -496.562 439.541C-468.541 414.969 -431.096 402.439 -395.101 389.77C-293.765 354.118 -192.346 316.222 -101.044 264.347C-21.7555 219.287 44.4273 160.402 94.7691 87.745C171.827 -23.4901 192.108 -167.534 268.03 -274.211C294.074 -310.811 317.237 -343.522 347.278 -374.269C390.235 -418.199 452.653 -459.887 507.875 -458.646M-664.586 780.927C-639.132 695.545 -612.541 610.262 -582.667 526.358C-569.814 490.26 -554.668 453.297 -524.984 427.164C-497.299 402.802 -460.253 390.37 -424.637 377.868C-323.302 342.285 -221.924 304.501 -130.202 253.128C-51.0181 208.793 15.9852 151.104 66.5373 79.1178C144.669 -32.1452 164.149 -177.221 242.072 -283.689C268.473 -319.773 292.749 -351.787 323.463 -381.795C367.262 -424.569 429.952 -465.016 485.323 -462.019M-692.249 768.759C-666.648 683.238 -640.015 597.802 -610.373 513.633C-597.708 477.702 -582.857 440.837 -553.384 414.789C-526.056 390.62 -489.369 378.384 -454.152 365.965C-352.731 330.634 -251.501 292.766 -159.359 241.922C-80.3018 198.297 -12.4571 141.808 38.3054 70.5044C117.531 -40.7865 136.149 -186.921 216.132 -293.152C242.891 -328.707 268.283 -360.038 299.67 -389.293C344.311 -430.925 407.297 -470.117 462.792 -465.378M-719.935 756.591C-694.185 670.917 -667.532 585.327 -638.079 500.894C-625.604 465.117 -611.026 428.364 -581.805 402.398C-554.815 378.439 -518.547 366.3 -483.688 354.035C-382.268 318.759 -281.079 281.003 -188.517 230.688C-109.585 187.76 -40.8992 132.512 10.0736 61.8492C90.3932 -49.4696 108.149 -196.678 190.173 -302.658C217.289 -337.697 243.818 -368.332 275.856 -396.847C321.359 -437.336 384.619 -475.288 440.24 -468.779M-747.599 744.41C-721.702 658.597 -695.006 572.853 -665.765 488.156C-653.478 452.545 -639.194 415.875 -610.184 390.008C-583.551 366.257 -547.662 354.216 -513.182 342.118C-411.783 306.898 -310.616 269.253 -217.654 219.454C-138.827 177.238 -69.3203 123.202 -18.116 53.2079C63.3185 -58.1108 80.1692 -206.462 164.254 -312.149C191.729 -346.686 219.371 -376.624 252.085 -404.388C298.429 -443.719 361.982 -480.431 417.71 -472.18M-775.283 732.242C-749.24 646.29 -722.5 560.393 -693.492 475.417C-681.374 439.959 -667.406 403.401 -638.626 377.618C-612.351 354.062 -576.861 342.146 -542.74 330.202C-441.34 295.038 -340.215 257.49 -246.852 208.234C-168.153 166.715 -97.8045 113.92 -46.3898 44.5667C36.1597 -66.7521 52.1057 -216.259 138.253 -321.64C166.085 -355.69 194.842 -384.904 228.228 -411.928C275.415 -450.13 339.263 -485.573 395.115 -475.567M-802.948 720.075C-776.777 633.969 -749.975 547.919 -721.175 462.692C-709.249 427.388 -695.553 390.941 -667.005 365.241C-641.066 341.895 -605.977 330.076 -572.254 318.299C-470.856 283.191 -369.793 245.755 -275.989 197.029C-197.395 156.207 -126.226 104.637 -74.6007 35.9533C9.06382 -75.3654 24.0633 -226.072 112.314 -331.105C140.504 -364.652 170.397 -393.168 204.435 -419.44C252.485 -456.5 316.605 -490.689 372.585 -478.94M-830.631 707.907C-804.314 621.662 -777.471 535.459 -748.881 449.967C-737.143 414.83 -723.679 378.523 -695.405 352.864C-669.782 329.769 -635.134 318.006 -601.77 306.382C-500.37 271.329 -399.35 233.977 -305.125 185.795C-226.657 145.669 -154.647 95.3549 -102.811 27.3121C-18.0109 -83.9928 -3.97913 -235.939 86.3753 -340.596C114.923 -373.669 145.931 -401.461 180.643 -426.98C229.533 -462.911 293.948 -495.831 350.054 -482.326M-858.296 695.727C-831.83 609.341 -804.946 522.985 -776.587 437.213C-765.018 402.23 -751.89 366.035 -723.827 340.46C-698.54 317.56 -664.291 305.909 -631.305 294.452C-529.907 259.455 -428.949 222.2 -334.303 174.561C-255.961 135.132 -183.11 86.0586 -131.064 18.6569C-45.1277 -92.6339 -32.0637 -245.835 60.3944 -350.101C89.2995 -382.701 121.423 -409.768 156.807 -434.52C206.559 -469.322 271.249 -500.975 327.481 -485.713M-885.981 683.559C-859.369 597.021 -832.42 510.525 -804.293 424.489C-792.912 389.673 -780.059 353.561 -752.227 328.083C-727.297 305.393 -693.449 293.852 -660.821 282.549C-559.422 247.609 -458.507 210.437 -363.44 163.356C-285.224 124.609 -211.532 76.8042 -159.275 10.0436C-72.2024 -101.205 -60.1271 -255.731 34.4557 -359.564C63.7184 -391.691 96.9779 -418.046 133.014 -442.033C183.609 -475.72 248.592 -506.089 304.95 -489.086M-913.644 671.392C-886.885 584.715 -859.895 498.065 -831.979 411.764C-820.765 377.101 -808.228 341.087 -780.627 315.693C-756.056 293.198 -722.585 281.769 -690.336 270.619C-588.958 235.733 -488.085 198.632 -392.597 152.108C-314.486 114.059 -239.952 67.5078 -187.506 1.37444C-99.2771 -109.833 -88.2328 -265.71 8.49589 -369.084C38.1372 -400.75 72.4906 -426.381 109.2 -449.601C160.656 -482.159 225.914 -511.275 282.399 -492.501M-941.329 659.224C-914.422 572.408 -887.201 485.646 -859.706 399.025C-848.619 364.544 -836.437 328.612 -809.047 303.303C-784.833 281.003 -751.765 269.685 -719.871 258.703C-618.494 223.858 -517.663 186.855 -421.777 140.889C-343.792 103.508 -268.416 58.2394 -215.738 -7.25288C-126.352 -118.419 -116.338 -275.676 -17.4639 -378.561C12.535 -409.782 48.0245 -434.674 85.3864 -457.127C137.706 -488.57 203.236 -516.403 259.847 -495.887M-968.992 647.042C-941.939 560.073 -914.738 473.144 -887.389 386.286C-876.513 351.958 -864.608 316.125 -837.449 290.912C-813.592 268.807 -780.901 257.602 -749.408 246.786C-648.03 211.998 -547.326 174.938 -450.934 129.669C-373.116 92.8741 -296.836 48.985 -243.971 -15.8802C-153.427 -126.99 -144.444 -285.668 -43.4237 -388.039C-13.0461 -418.813 23.5165 -443.009 61.5725 -464.653C114.691 -495.051 180.558 -521.533 237.295 -499.26M214.743 -502.647C157.88 -526.661 91.7817 -501.406 37.7584 -472.18C-0.928754 -451.26 -38.6273 -427.873 -69.3835 -397.517C-172.57 -295.689 -180.501 -135.548 -272.201 -24.5074C-325.279 39.7444 -402.337 82.4488 -480.091 118.463C-576.84 163.286 -677.545 200.165 -778.922 234.897C-810.058 245.559 -842.349 256.654 -865.848 278.563C-892.797 303.678 -904.43 339.414 -915.095 373.589C-942.297 460.699 -969.477 547.807 -996.678 634.917" stroke="url(#paint0_linear_198_38)" stroke-miterlimit="10"/>
</g>
</g>
<defs>
<linearGradient id="paint0_linear_198_38" x1="443.322" y1="-512.226" x2="443.322" y2="1106.07" gradientUnits="userSpaceOnUse">
<stop stop-color="#121212"/>
<stop offset="1" stop-color="white"/>
</linearGradient>
<clipPath id="clip0_198_38">
<rect width="1440" height="1024" fill="white"/>
</clipPath>
</defs>
</svg>
