<svg width="375" height="812" viewBox="0 0 375 812" fill="none" xmlns="http://www.w3.org/2000/svg">
<g opacity="0.5">
<g clip-path="url(#clip0_179_100)">
<mask id="mask0_179_100" style="mask-type:luminance" maskUnits="userSpaceOnUse" x="0" y="0" width="1142" height="812">
<path d="M1141.36 0H0V811.448H1141.36V0Z" fill="white"/>
</mask>
<g mask="url(#mask0_179_100)">
<path d="M833.727 1217.62C846.806 1156.98 868.995 1097.9 900.077 1043.44C920.648 1007.38 946.091 973.011 980.409 947.68C1019.88 918.657 1068.51 903.321 1114.98 885.524C1195.59 854.793 1275.02 814.65 1330.4 752.581C1396.31 678.71 1418.67 581.364 1440.75 487.433C1459.72 406.731 1477.8 321.067 1468.17 241.537C1460.96 181.901 1433.6 126.818 1427.23 67.7114C1417.28 -24.4623 1455.9 -116.028 1493.58 -199.802M811.788 1207.97C824.984 1147.21 847.124 1087.98 878.122 1033.33C898.509 997.396 923.752 963.124 957.903 937.86C997.093 908.988 1045.41 893.736 1091.59 876.065C1172.2 845.376 1251.68 805.421 1307.31 743.673C1373.25 670.465 1395.86 573.882 1418.41 480.569C1437.92 399.724 1456.37 313.541 1447.62 233.999C1441.1 174.827 1414.27 120.252 1408.38 61.7323C1399.18 -29.502 1437.96 -120.117 1475.72 -202.488M789.866 1198.32C803.162 1137.44 825.268 1078.06 856.166 1023.25C876.369 987.417 901.412 953.23 935.38 928.041C974.285 899.328 1022.3 884.168 1068.18 866.63C1148.8 835.98 1228.34 796.226 1284.19 734.776C1350.11 662.242 1373.02 566.41 1396.01 473.728C1416.11 392.739 1434.94 306.048 1427.03 226.485C1421.2 167.787 1394.91 113.709 1389.48 55.7642C1381.04 -34.5417 1419.98 -124.185 1457.84 -205.173M767.91 1188.67C781.323 1127.68 803.379 1068.15 834.194 1013.14C854.214 977.422 879.056 943.327 912.856 918.222C951.48 889.659 999.178 874.583 1044.76 857.179C1125.37 826.574 1204.97 787.019 1261.06 725.88C1327 654.008 1350.2 558.939 1373.63 466.877C1394.28 385.744 1413.49 298.554 1406.46 218.958C1401.3 160.725 1375.56 107.167 1370.62 49.7851C1362.91 -39.5924 1402 -128.262 1439.97 -207.859M745.971 1179.02C759.501 1117.92 781.507 1058.24 812.238 1003.05C832.058 967.444 856.716 933.44 890.334 908.402C928.672 880.007 976.071 865.023 1021.35 847.728C1101.95 817.169 1181.61 777.802 1237.94 716.983C1303.89 645.775 1327.38 551.468 1351.24 460.035C1372.44 378.759 1392.03 291.072 1385.87 211.442C1381.4 153.696 1356.19 100.625 1351.73 43.817C1344.78 -44.6322 1384.02 -132.33 1422.09 -210.534M724.032 1169.37C737.679 1108.15 759.635 1048.33 790.265 992.959C809.902 957.465 834.361 923.554 867.811 898.591C905.883 870.355 952.948 855.455 997.944 838.286C1078.54 807.775 1158.27 768.607 1214.83 708.086C1280.79 637.542 1304.57 543.997 1328.87 453.183C1350.65 371.752 1370.6 283.59 1365.3 203.916C1361.5 146.645 1336.85 94.0707 1332.86 37.8378C1326.66 -49.6719 1366.05 -136.408 1404.22 -213.23M702.093 1159.71C715.857 1098.39 737.779 1038.4 768.311 982.847C787.764 947.462 812.021 913.642 845.305 888.755C883.094 860.67 929.841 845.861 974.552 828.829C1055.15 798.359 1134.93 759.378 1191.72 699.178C1257.66 629.297 1281.78 536.514 1306.51 446.331C1328.87 364.745 1349.17 276.119 1344.74 196.389C1341.59 139.605 1317.51 87.5169 1314.01 31.8587C1308.56 -54.7226 1348.1 -140.486 1386.35 -215.916M680.154 1150.07C694.035 1088.62 715.908 1028.49 746.355 972.76C765.624 937.484 789.682 903.748 822.783 878.936C860.286 851.01 906.734 836.289 951.146 819.379C1031.74 788.954 1111.57 750.161 1168.62 690.281C1234.55 621.063 1258.99 529.032 1284.14 439.49C1307.08 357.76 1327.7 268.659 1324.18 188.875C1321.67 132.586 1298.16 80.9737 1295.14 25.8906C1290.43 -59.7513 1330.13 -144.553 1368.49 -218.602M658.232 1140.42C672.23 1078.86 694.051 1018.57 724.398 962.655C743.485 927.488 767.343 893.862 800.276 869.116C837.497 841.349 883.644 826.718 927.756 809.93C1008.35 779.549 1088.24 740.954 1145.51 681.374C1211.44 612.807 1236.22 521.561 1261.76 432.626C1285.26 350.741 1306.27 261.199 1303.6 181.336C1301.75 125.535 1278.82 74.4199 1276.27 19.9115C1272.3 -64.802 1312.16 -148.643 1350.62 -221.288M636.292 1130.77C650.408 1069.1 672.195 1008.65 702.444 952.568C721.346 917.51 745.003 883.967 777.753 859.297C814.691 831.692 860.52 817.147 904.348 800.492C984.947 770.154 1064.86 731.749 1122.4 672.488C1188.32 604.584 1213.45 514.102 1239.39 425.796C1263.5 343.768 1284.81 253.772 1283.04 173.833C1281.8 118.529 1259.48 67.8882 1257.41 13.9545C1254.19 -69.8197 1294.18 -152.699 1332.75 -223.962M614.354 1121.13C628.568 1059.35 650.324 998.769 680.488 942.481C699.206 907.54 722.614 874.022 755.247 849.486C791.835 821.966 837.43 807.576 880.941 791.042C961.522 760.738 1041.5 722.531 1099.28 663.591C1165.18 596.351 1190.66 506.63 1217 418.944C1241.69 336.761 1263.33 246.322 1262.45 166.306C1261.84 111.51 1240.11 61.3343 1238.52 7.97531C1236.05 -74.8594 1276.19 -156.777 1314.87 -226.648M592.398 1111.49C606.73 1049.58 628.435 988.849 658.499 932.386C677.034 897.562 700.241 864.127 732.691 839.675C768.995 812.307 814.274 798.005 857.5 781.604C938.083 751.344 1018.11 713.325 1076.14 654.694C1142.04 588.106 1167.87 499.159 1194.59 412.103C1219.88 329.765 1241.82 238.896 1241.84 158.791C1241.86 104.493 1220.72 54.8027 1219.62 2.00725C1217.9 -79.8991 1258.19 -160.844 1296.96 -229.333M570.442 1101.83C584.891 1039.81 606.563 978.929 636.527 922.282C654.895 887.566 677.885 854.224 710.167 829.835C746.188 802.625 791.151 788.423 834.094 772.144C914.675 741.927 994.74 704.096 1053.02 645.786C1118.9 579.849 1145.09 491.677 1172.2 405.25C1198.08 322.758 1220.32 231.469 1221.25 151.265C1221.89 97.4744 1201.35 48.2488 1200.72 -3.9719C1199.73 -84.9385 1240.19 -164.922 1279.07 -232.018M548.47 1092.17C563.035 1030.05 584.657 969.026 614.538 912.186C632.722 877.58 655.512 844.321 687.612 820.01C723.348 792.954 767.977 778.763 810.653 762.694C891.169 732.378 971.35 694.879 1029.86 636.889C1095.73 571.616 1122.29 484.206 1149.8 398.398C1176.27 315.751 1198.81 224.042 1200.65 143.738C1201.87 90.4678 1181.98 41.695 1181.81 -9.95099C1181.58 -89.9896 1222.19 -169.011 1261.16 -234.705M526.499 1082.53C541.18 1020.29 562.768 959.106 592.532 902.09C610.534 867.61 633.123 834.432 665.055 810.195C700.508 783.295 744.819 769.193 787.212 753.245C867.728 722.962 947.942 685.673 1006.72 627.981C1072.55 563.36 1099.51 476.724 1127.39 391.546C1154.48 308.744 1177.28 216.626 1180.04 136.212C1181.86 83.4494 1162.59 35.1522 1162.93 -15.9302C1163.43 -95.029 1204.2 -173.09 1243.28 -237.401M504.559 1072.87C519.357 1010.51 540.913 949.186 570.576 891.978C588.394 857.606 610.784 824.518 642.549 800.359C677.718 773.614 721.73 759.599 763.822 743.784C844.321 713.535 924.601 676.444 983.612 619.073C1049.43 555.104 1076.77 469.242 1105.02 384.682C1132.71 301.726 1155.79 209.21 1159.47 128.675C1161.88 76.4314 1143.24 28.5874 1144.06 -21.9092C1145.31 -100.069 1186.23 -177.167 1225.41 -240.087M482.621 1063.22C497.535 1000.75 519.041 939.283 548.62 881.891C566.271 847.636 588.445 814.627 620.026 790.545C654.912 763.954 698.606 750.029 740.398 734.345C820.897 704.141 901.211 667.227 960.488 610.187C1026.29 546.871 1054.03 461.792 1082.63 377.852C1110.94 294.741 1134.27 201.816 1138.9 121.17C1141.87 69.4465 1123.89 22.0667 1125.17 -27.8663C1127.17 -105.087 1168.25 -181.224 1207.52 -242.761M460.665 1053.57C475.68 990.992 497.168 929.372 526.631 871.795C544.099 837.658 566.072 804.736 597.487 780.731C632.089 754.295 675.466 740.457 716.975 724.896C797.456 694.724 877.821 658.01 937.348 601.279C1003.11 538.615 1031.28 454.31 1060.22 371C1089.15 287.734 1112.71 194.422 1118.3 113.643C1121.84 62.4395 1104.5 15.5239 1106.27 -33.8454C1109.01 -110.126 1150.25 -185.302 1189.62 -245.447M438.692 1043.92C453.824 981.223 475.279 919.469 504.643 861.7C521.943 827.679 543.682 794.834 574.931 770.906C609.249 744.624 652.326 730.876 693.534 715.447C774.016 685.308 854.415 648.792 914.208 592.383C979.941 530.359 1008.52 446.85 1037.82 364.148C1067.36 280.739 1091.15 187.029 1097.69 106.117C1101.78 55.4436 1085.12 8.97003 1087.37 -39.8246C1090.85 -115.166 1132.25 -189.38 1171.72 -248.144M416.736 1034.26C431.986 971.454 453.407 909.549 482.67 851.596C499.788 817.689 521.326 784.93 552.408 761.08C586.443 734.954 629.203 721.293 670.128 705.997C750.609 675.902 831.041 639.564 891.085 583.486C956.801 522.114 985.798 439.379 1015.43 357.307C1045.61 273.743 1069.6 179.646 1077.11 98.602C1081.74 48.4477 1065.75 2.43828 1068.48 -45.7926C1072.7 -120.194 1114.26 -193.448 1153.83 -250.818M394.782 1024.63C410.148 961.71 431.536 899.663 460.681 841.517C477.632 807.731 498.954 775.061 529.868 751.278C563.619 725.305 606.08 711.733 646.703 696.559C727.185 666.497 807.649 630.358 867.962 574.589C933.645 513.858 963.074 431.919 993.054 350.454C1023.87 266.735 1048.06 172.263 1056.54 91.0755C1061.71 41.4519 1046.41 -4.11556 1049.61 -51.7718C1054.58 -125.235 1096.29 -197.537 1135.97 -253.515M372.842 1014.97C388.324 951.924 409.663 889.735 438.725 831.405C455.492 797.74 476.614 765.148 507.345 741.441C540.812 715.623 582.955 702.14 623.297 687.099C703.762 657.081 784.259 621.118 844.837 565.681C910.488 505.602 940.352 424.448 970.666 343.603C1002.11 259.729 1026.49 164.88 1035.95 83.5489C1041.65 34.4558 1027.04 -10.6584 1030.74 -57.7398C1036.45 -130.263 1078.32 -201.604 1118.1 -256.189M350.92 1005.31C366.519 942.171 387.825 879.831 416.787 821.314C433.387 787.76 454.292 755.256 484.839 731.627C518.023 705.964 559.866 692.569 599.907 677.66C680.371 647.676 760.902 611.912 821.748 556.795C887.364 497.358 917.662 416.999 948.309 336.761C980.392 252.733 1004.95 157.52 1015.39 76.0336C1021.62 27.4711 1007.69 -17.19 1011.87 -63.7079C1018.31 -135.281 1060.36 -205.671 1100.23 -258.864M328.981 995.68C344.697 932.419 365.969 869.945 394.815 811.223C411.231 777.791 431.935 745.364 462.317 721.813C495.217 696.304 536.741 683.009 576.482 668.21C656.947 638.271 737.512 602.683 798.607 547.888C864.174 489.091 894.938 409.516 925.903 329.909C958.636 245.737 983.346 150.148 994.79 68.5071C1001.53 20.4752 988.3 -23.7328 992.971 -69.6871C1000.15 -140.32 1042.34 -209.749 1082.33 -261.561M307.01 986.019C322.842 922.65 344.08 860.025 372.826 801.122C389.075 767.811 409.563 735.462 439.778 711.988C472.393 686.634 513.602 673.427 553.058 658.761C633.506 628.854 714.105 593.455 775.484 538.991C841.018 480.835 872.249 402.067 903.514 323.068C936.898 238.741 961.74 142.787 974.202 60.9918C981.443 13.5013 968.931 -30.2646 974.086 -75.6551C981.994 -145.349 1024.35 -213.816 1064.44 -264.236M285.07 976.384C301.002 912.889 322.241 850.139 350.853 791.042C366.936 757.842 387.206 725.582 417.237 702.184C449.57 676.986 490.478 663.867 529.635 649.322C610.083 619.46 690.698 584.238 752.344 530.105C817.828 472.59 849.525 394.619 881.108 316.226C915.143 231.756 940.118 135.427 953.598 53.4764C961.322 6.51651 949.545 -36.8073 955.183 -81.6231C963.842 -150.366 1006.35 -217.883 1046.54 -266.921M263.098 966.732C279.148 903.128 300.352 840.236 328.864 780.941C344.764 747.862 364.834 715.689 394.698 692.359C426.748 667.315 467.339 654.285 506.211 639.873C586.659 610.044 667.307 575.009 729.221 521.197C794.67 464.324 826.836 387.148 858.735 309.375C893.421 224.749 918.512 128.066 933.027 45.95C941.236 -0.479433 930.191 -43.3502 936.314 -87.6022C945.706 -155.407 988.384 -221.961 1028.66 -269.607M241.142 957.08C257.308 893.359 278.48 830.321 306.892 770.839C322.624 737.882 342.479 705.787 372.158 682.534C403.924 657.656 444.215 644.703 482.788 630.424C563.235 600.638 643.901 565.781 706.08 512.3C771.48 456.056 804.146 379.687 836.329 302.522C871.681 217.753 896.857 120.694 912.423 38.4236C921.115 -7.46428 910.805 -49.8929 917.412 -93.5816C927.538 -160.435 970.381 -226.051 1010.76 -272.304M219.17 947.42C235.453 883.582 256.607 820.407 284.887 760.727C300.452 727.891 320.089 695.873 349.603 672.698C381.084 647.975 421.058 635.11 459.347 620.953C539.779 591.2 620.477 556.53 682.94 503.381C748.289 447.767 781.44 372.216 813.924 295.659C849.943 210.746 875.186 113.323 891.835 30.8862C900.995 -14.4712 891.435 -56.4468 898.525 -99.572C909.386 -165.486 952.396 -230.14 992.871 -275M197.231 937.76C213.631 873.813 234.752 810.494 262.931 750.626C278.329 717.911 297.75 685.971 327.096 662.873C358.311 638.304 397.967 625.527 435.939 611.502C516.371 581.795 597.086 547.291 659.817 494.473C725.117 439.501 758.767 364.756 791.534 288.807C828.237 203.75 853.529 105.963 871.247 23.3598C880.858 -21.4671 872.049 -62.9895 879.64 -105.54C891.234 -170.503 934.411 -234.207 974.986 -277.686M175.275 928.108C191.792 864.052 212.896 800.591 240.958 740.535C256.191 707.942 275.394 676.08 304.556 653.058C335.487 628.645 374.828 615.968 412.516 602.065C492.948 572.401 573.662 538.073 636.694 485.587C701.943 431.245 736.094 357.307 769.144 281.965C806.533 196.765 831.858 98.6129 850.66 15.8443C860.72 -28.441 852.679 -69.5212 860.754 -111.508C873.066 -175.532 916.427 -238.274 957.101 -280.36M153.32 918.473C169.953 854.291 191.025 790.711 218.969 730.444C234.035 697.963 253.021 666.188 282.017 643.233C312.665 618.974 351.704 606.386 389.092 592.615C469.524 562.984 550.256 528.834 613.554 476.69C678.753 422.978 713.405 349.857 746.738 275.124C784.793 189.78 810.152 91.2522 830.056 8.32901C840.55 -35.4259 833.293 -76.053 841.851 -117.476C854.898 -180.549 898.425 -242.342 939.2 -283.035M131.348 908.838C148.098 844.547 169.153 780.819 196.98 720.365C211.88 688.004 230.649 656.319 259.46 633.43C289.825 609.326 328.547 596.825 365.651 583.176C446.083 553.59 526.833 519.606 590.413 467.793C655.546 414.711 690.732 342.409 724.333 268.272C763.089 182.785 788.447 83.8914 809.452 0.802598C820.38 -42.4218 813.889 -82.5958 822.949 -123.455C836.729 -185.578 880.424 -246.43 921.298 -285.732M109.392 899.16C126.259 834.764 147.28 770.895 175.008 710.252C189.74 678.013 208.292 646.405 236.938 623.594C267.018 599.655 305.441 587.233 342.245 573.716C422.66 544.174 503.425 510.366 567.29 458.886C632.372 406.422 668.075 334.959 701.959 261.42C741.4 175.8 766.742 76.5309 788.88 -6.72381C800.226 -49.4066 794.537 -89.1274 804.079 -129.434C818.578 -190.618 862.455 -250.509 903.431 -288.417M87.4529 889.517C104.42 824.994 125.441 760.992 153.036 700.151C167.601 668.044 185.936 636.503 214.399 613.768C244.196 589.984 282.3 577.661 318.82 564.267C399.236 534.757 480.018 501.115 544.15 449.989C609.165 398.155 645.402 327.511 679.553 254.567C719.694 168.815 745.003 69.1592 768.276 -14.2502C780.039 -56.4025 775.133 -95.6702 785.178 -135.413C800.409 -195.647 844.454 -254.587 885.529 -291.114M65.4806 879.857C82.5646 815.224 103.569 751.089 131.047 690.05C145.445 658.053 163.564 626.6 191.859 603.943C221.372 580.314 259.177 568.08 295.381 554.806C375.795 525.342 456.577 491.865 521.009 441.07C585.975 389.855 622.745 320.05 657.147 247.705C697.988 161.819 723.248 61.7765 747.672 -21.7877C759.835 -63.4205 755.747 -102.224 766.274 -141.393C782.224 -200.675 826.436 -258.665 867.628 -293.799M43.525 870.205C60.7258 805.465 81.7138 741.198 109.075 679.948C123.306 648.085 141.207 616.708 169.32 594.118C198.549 570.644 236.037 558.497 271.957 545.356C352.372 515.936 433.153 482.625 497.869 432.173C562.768 381.577 600.09 312.613 634.741 240.863C676.301 154.845 701.475 54.4158 727.068 -29.3031C739.632 -70.4054 736.345 -108.756 747.373 -147.36C764.038 -205.693 808.435 -262.732 849.726 -296.485M21.5527 860.561C38.8703 795.695 59.8415 731.295 87.0692 669.857C101.133 638.116 118.818 606.817 146.763 584.304C175.709 560.995 212.896 548.926 248.516 535.918C328.915 506.542 409.714 473.386 474.729 423.287C539.562 373.31 577.433 305.186 612.336 234.022C654.611 147.871 679.687 47.0552 706.464 -36.8184C719.427 -77.3903 716.942 -115.288 728.469 -153.329C745.854 -210.711 790.432 -266.8 831.825 -299.16M-0.419517 850.909C17.0148 785.937 37.9694 721.404 65.0802 659.756C78.9944 628.136 96.4454 596.914 124.224 574.478C152.886 551.325 189.757 539.356 225.093 526.457C305.491 497.126 386.306 464.135 451.588 414.368C516.355 365.01 554.777 297.725 589.93 227.158C632.922 140.886 657.882 39.6615 685.86 -44.3559C699.206 -84.4086 697.555 -121.842 709.568 -159.319C727.669 -215.75 772.431 -270.889 813.924 -301.867M-22.3751 841.241C-4.82395 776.155 16.1138 711.479 43.1079 649.643C56.8551 618.145 74.0894 587.012 101.684 564.642C130.063 541.643 166.633 529.762 201.669 516.997C282.066 487.698 362.865 454.874 428.465 405.46C493.164 356.721 532.138 290.277 567.54 220.307C611.251 133.901 636.076 32.2787 665.289 -51.8823C679.003 -91.4152 678.185 -128.373 690.698 -165.298C709.517 -220.79 754.462 -274.978 796.055 -304.553M-44.314 831.592C-26.646 766.397 -5.70822 701.587 21.1357 639.552C34.7162 608.177 51.7333 577.12 79.1612 554.828C107.273 531.983 143.51 520.191 178.262 507.548C258.66 478.293 339.459 445.623 405.342 396.563C469.974 348.432 509.514 282.838 545.168 213.454C589.612 126.928 614.271 24.8849 644.718 -59.4087C658.799 -98.4218 658.815 -134.916 671.829 -171.277C691.365 -225.819 736.495 -279.056 778.186 -307.239M-66.2529 821.943C-48.4682 756.627 -27.5471 691.685 -0.819977 629.451C12.6103 598.196 29.394 567.217 56.6384 545.003C84.4665 522.325 120.403 510.62 154.838 498.099C235.236 468.887 316.034 436.361 382.218 387.656C446.784 340.143 486.892 275.4 522.778 206.602C567.957 119.965 592.449 17.4911 624.13 -66.9351C638.579 -105.429 639.429 -141.459 652.943 -177.256C673.197 -230.847 718.51 -283.134 760.303 -309.935M-88.2086 812.284C-70.3238 746.856 -49.4026 681.782 -22.7922 619.349C-9.52881 588.216 7.03804 557.326 34.1155 535.178C61.6601 512.653 97.2794 501.038 131.431 488.648C211.813 459.482 292.628 427.111 359.095 378.759C423.577 331.854 464.268 267.974 500.388 199.75C546.319 112.991 570.593 10.0862 603.543 -74.4615C618.342 -112.436 620.043 -148.002 634.058 -183.224C655.012 -235.865 700.525 -287.201 742.418 -312.61M-110.147 802.647C-92.146 737.109 -71.2246 671.902 -44.7645 609.271C-31.6679 578.258 -15.318 547.446 11.576 525.374C38.837 503.005 74.1562 491.478 108.007 479.211C188.388 450.088 269.187 417.86 335.972 369.873C400.387 323.576 441.662 260.558 478 192.92C524.664 106.051 548.72 2.69245 582.955 -81.9659C598.105 -119.432 600.64 -154.522 615.171 -189.181C636.844 -240.883 682.54 -291.258 724.533 -315.284M-132.103 792.999C-113.985 727.339 -93.0802 662.01 -66.7368 599.168C-53.7904 568.29 -37.6739 537.542 -10.9468 515.549C16.0305 493.345 51.0326 481.907 84.6 469.761C164.982 440.683 245.78 408.61 312.849 360.965C377.196 315.276 419.056 253.12 455.61 186.056C503.042 99.0767 526.833 -4.73446 562.369 -89.5032C577.867 -126.461 581.254 -161.076 596.286 -195.171C618.658 -245.922 664.556 -295.347 706.648 -317.981M-154.059 783.339C-135.823 717.569 -114.919 652.096 -88.7091 589.067C-75.9295 558.31 -60.03 527.651 -33.4697 505.724C-6.77592 483.675 27.9259 472.325 61.193 460.311C141.575 431.278 222.356 399.348 289.742 352.068C354.006 306.976 396.466 245.704 433.253 179.215C481.436 92.1362 504.96 -12.1614 541.814 -97.0188C557.646 -133.479 561.901 -167.597 577.433 -201.14C600.506 -250.94 646.603 -299.424 688.779 -320.667M-175.981 773.691C-157.629 707.81 -136.724 642.205 -110.665 578.965C-98.0352 548.33 -82.3693 517.749 -55.9925 495.899C-29.5823 474.005 4.80243 462.754 37.7859 450.851C118.167 421.862 198.933 390.076 266.618 343.161C330.799 298.665 373.86 238.266 410.865 172.363C459.814 85.1739 483.055 -19.5994 521.226 -104.545C537.393 -140.509 542.498 -174.14 558.547 -207.119C582.321 -255.968 628.619 -303.503 670.895 -323.353M-197.937 764.042C-179.467 698.051 -158.563 632.314 -132.636 568.875C-120.158 538.371 -104.725 507.869 -78.5153 486.085C-52.3721 464.356 -18.3043 453.183 14.3789 441.413C94.7604 412.467 175.509 380.814 243.512 334.264C307.627 290.376 351.271 230.85 388.491 165.511C438.208 78.2218 461.132 -27.0485 500.655 -112.072C517.139 -147.537 523.128 -180.682 539.678 -213.098C564.153 -261.009 610.65 -307.581 653.027 -326.049M-219.875 754.383C-201.29 688.27 -180.402 622.411 -154.592 558.773C-142.28 528.392 -127.064 497.965 -101.038 476.259C-75.1787 454.686 -41.4278 443.601 -9.04498 431.963C71.3365 403.062 152.085 371.542 220.371 325.367C284.402 282.076 328.665 223.434 366.085 158.669C416.587 71.2923 439.159 -34.4975 480.051 -119.587C496.869 -154.555 503.708 -187.214 520.776 -219.066C545.951 -266.025 592.632 -311.648 635.125 -328.723M-241.847 744.735C-223.145 678.511 -202.258 612.519 -176.598 548.672C-164.435 518.412 -149.454 488.074 -123.594 466.434C-98.0185 445.026 -64.5679 434.03 -32.4854 422.514C47.8795 393.668 128.611 362.269 197.214 316.47C261.163 273.776 306.024 216.029 343.662 151.817C394.931 64.3516 417.154 -41.9687 459.431 -127.113C476.564 -161.595 484.273 -193.767 501.857 -225.034C527.733 -271.055 574.613 -315.716 617.207 -331.398M-263.82 735.097C-245.018 668.763 -224.096 602.639 -198.587 538.592C-186.591 508.454 -171.826 478.194 -146.151 456.62C-120.858 435.367 -87.7248 424.458 -55.9259 413.064C24.4556 384.263 105.154 352.997 174.075 307.561C237.939 265.454 283.418 208.602 321.256 144.965C373.327 57.4109 395.149 -49.4619 438.827 -134.64C456.26 -168.646 464.869 -200.31 482.953 -231.013C509.514 -276.094 556.612 -319.794 599.306 -334.095M-285.792 725.438C-266.873 658.982 -245.952 592.748 -220.593 528.48C-208.747 498.474 -194.199 468.291 -168.707 446.794C-143.698 425.697 -110.865 414.888 -79.3662 403.614C0.998604 374.857 81.697 343.724 150.917 298.665C214.699 257.154 260.796 201.197 298.833 138.124C351.688 50.4813 373.109 -56.9441 418.205 -142.155C435.957 -175.676 445.433 -206.842 464.035 -236.981C491.279 -281.123 538.594 -323.861 581.387 -336.77M-307.565 715.767C-288.529 649.201 -267.607 582.834 -242.381 518.368C-230.687 488.483 -216.372 458.377 -191.047 436.947C-166.305 416.015 -133.789 405.284 -102.59 394.143C-22.225 365.43 58.4568 334.429 127.994 289.746C191.692 248.82 238.406 193.77 276.645 131.249C330.3 43.5296 351.287 -64.4816 397.835 -149.703C415.887 -182.76 426.247 -213.419 445.366 -242.982C473.312 -286.185 520.825 -327.973 563.719 -339.489M-329.519 706.108C-310.367 639.431 -289.446 572.931 -264.353 508.266C-252.809 478.514 -238.727 448.486 -213.586 427.122C-189.128 406.344 -156.928 395.713 -126.014 384.682C-45.6487 356.024 34.9997 325.134 104.854 280.827C168.468 240.487 215.817 186.343 254.255 124.386C308.711 36.6 329.248 -72.019 377.247 -157.241C395.599 -189.822 406.844 -219.972 426.481 -248.973C455.109 -291.235 502.841 -332.061 545.834 -342.185M-351.459 696.459C-332.189 629.661 -311.251 563.04 -286.326 498.165C-274.931 468.534 -261.084 438.583 -236.108 417.297C-211.934 396.685 -180.035 386.13 -149.438 375.233C-69.0725 346.62 11.5593 315.84 81.7304 271.93C145.245 232.176 193.227 178.95 231.866 117.534C287.139 29.6704 307.193 -79.5675 356.659 -164.767C375.312 -196.885 387.44 -226.526 407.594 -254.952C436.908 -296.275 484.856 -336.139 527.949 -344.881M-373.415 686.811C-354.029 619.902 -333.073 553.148 -308.298 488.074C-297.054 458.565 -283.44 428.703 -258.648 407.483C-234.758 387.025 -203.175 376.571 -172.861 365.794C-92.4963 337.225 -11.8979 306.567 58.5903 263.045C122.021 223.876 170.637 171.556 209.46 110.703C265.55 22.774 285.103 -87.1049 336.055 -172.272C354.991 -203.936 368.004 -233.046 388.692 -260.898C418.689 -301.293 466.854 -340.184 510.048 -347.534M-395.353 677.163C-375.851 610.144 -354.895 543.268 -330.254 477.973C-319.176 448.597 -305.779 418.8 -281.155 397.657C-257.53 377.366 -226.265 366.988 -196.252 356.334C-115.887 327.82 -35.3049 297.272 35.5002 254.125C98.8479 215.532 148.098 164.151 187.103 103.841C244.011 15.8555 263.048 -94.6866 315.501 -179.809C334.738 -211.02 348.635 -239.611 369.84 -266.888C400.521 -306.343 448.903 -344.274 492.197 -350.242M-417.309 667.504C-397.689 600.362 -376.718 533.365 -352.243 467.871C-341.315 438.617 -328.135 408.908 -303.71 387.832C-280.37 367.706 -249.423 357.417 -219.691 346.885C-139.327 318.415 -58.7788 287.977 12.3434 245.228C75.5909 207.21 125.491 156.757 164.681 96.9881C222.423 8.94791 240.909 -102.279 294.88 -187.336C314.4 -218.093 329.198 -246.166 350.92 -272.867C382.269 -311.394 430.884 -348.352 474.279 -352.928M-439.248 657.855C-419.511 590.604 -398.524 523.473 -374.199 457.781C-363.422 428.647 -350.475 399.017 -326.216 378.018C-303.16 358.047 -272.512 347.847 -243.083 337.436C-162.718 309.021 -82.2025 278.683 -10.7466 236.331C52.4174 198.887 102.952 149.364 142.325 90.1472C200.901 2.0625 218.82 -109.883 274.325 -194.851C294.129 -225.167 309.812 -252.708 332.068 -278.835C364.101 -316.445 412.934 -352.431 456.427 -355.602M-461.204 648.206C-441.367 580.845 -420.346 513.593 -396.172 447.679C-385.543 418.678 -372.831 389.126 -348.756 368.193C-325.967 348.387 -295.653 338.275 -266.506 327.986C-186.141 299.616 -105.643 269.377 -33.8868 227.424C29.1771 190.554 80.3624 141.97 119.936 83.2836C179.346 -4.84498 196.681 -117.531 253.738 -202.388C273.826 -232.273 290.408 -259.284 313.183 -284.825C345.898 -321.507 394.949 -356.52 438.542 -358.31M-483.143 638.558C-463.189 571.075 -442.151 503.701 -418.143 437.589C-407.666 408.71 -395.186 379.245 -371.279 358.378C-348.773 338.728 -318.76 328.704 -289.914 318.548C-209.549 290.232 -129.084 260.082 -56.9935 218.538C5.98702 182.243 57.8229 134.598 97.5631 76.4535C157.824 -11.7193 174.541 -125.157 233.168 -209.893C253.554 -239.347 271.006 -265.816 294.312 -290.782C327.697 -326.535 376.98 -360.576 420.675 -360.973M-505.098 628.898C-485.028 561.305 -463.957 493.81 -440.115 427.476C-429.771 398.73 -417.526 369.331 -393.802 348.542C-371.579 329.058 -341.883 319.122 -313.337 309.076C-232.972 280.805 -152.541 250.754 -80.1338 209.619C-17.2533 173.888 35.2333 127.194 75.1571 69.5791C136.269 -18.6268 152.353 -132.849 212.563 -217.441C233.217 -246.464 251.587 -272.403 275.41 -296.783C309.478 -331.619 358.979 -364.676 402.773 -363.692M-527.054 619.251C-506.867 551.546 -485.779 483.919 -462.088 417.386C-451.894 388.761 -439.882 359.451 -416.342 338.728C-394.386 319.409 -365.006 309.551 -336.761 299.637C-256.396 271.422 -175.998 241.46 -103.257 200.722C-40.4602 165.566 12.6771 119.821 52.7678 62.738C114.731 -25.4901 130.179 -140.53 191.976 -224.957C212.914 -253.57 232.166 -278.956 256.524 -302.751C291.259 -336.67 340.976 -368.743 384.888 -366.367M-548.992 609.602C-528.689 541.787 -507.568 474.038 -484.06 407.295C-474.016 378.803 -462.238 349.57 -438.864 328.915C-417.192 309.75 -388.097 300.047 -360.168 290.199C-279.736 262.182 -199.454 232.154 -126.381 191.836C-63.6838 157.244 -9.87915 112.45 30.3783 55.9078C93.2087 -32.3423 107.974 -148.223 171.405 -232.46C192.626 -260.654 212.764 -285.499 237.655 -308.697C273.058 -341.71 323.009 -372.788 367.02 -369.031M-570.948 599.953C-550.527 532.017 -529.39 464.146 -506.032 397.194C-496.139 368.823 -484.577 339.679 -461.403 319.089C-439.999 300.09 -411.236 290.464 -383.592 280.739C-303.16 252.766 -222.911 222.826 -149.505 182.929C-86.9072 148.888 -32.4353 105.078 7.98897 49.0446C71.6869 -39.2278 85.7679 -155.959 150.817 -239.999C172.322 -267.783 193.361 -292.076 218.77 -314.688C254.856 -346.793 305.024 -376.888 349.135 -371.727M-592.888 590.294C-572.349 522.247 -551.179 454.255 -527.988 387.092C-518.244 358.854 -506.916 329.776 -483.91 309.264C-462.788 290.431 -434.327 280.883 -406.982 271.289C-326.566 243.361 -246.336 213.509 -172.611 174.02C-110.098 140.544 -54.9749 97.6954 -14.367 42.1923C50.2151 -46.08 63.5786 -163.718 130.263 -247.524C152.052 -274.911 173.974 -298.651 199.917 -320.667C236.671 -351.855 287.072 -380.967 331.267 -374.424M-614.842 580.646C-594.189 512.488 -572.983 444.374 -549.977 376.991C-540.367 348.874 -529.29 319.885 -506.466 299.439C-485.628 280.76 -457.483 271.311 -430.423 261.84C-350.007 233.956 -269.809 204.181 -195.768 165.123C-133.355 132.2 -77.5644 90.3347 -36.7897 35.3401C28.6766 -52.9323 41.3227 -171.487 109.642 -255.051C131.715 -282.051 154.52 -305.216 180.998 -326.646C218.419 -356.939 269.054 -385.044 313.348 -377.109M-636.782 570.997C-616.027 502.718 -594.772 434.483 -571.932 366.9C-562.474 338.905 -551.613 310.004 -528.972 289.625C-508.401 271.112 -480.573 261.74 -453.829 252.402C-373.415 224.562 -293.266 194.876 -218.874 156.238C-156.545 123.867 -100.104 82.9742 -59.1625 28.5099C7.18813 -59.7623 19.0835 -179.268 89.0712 -262.556C111.427 -289.157 135.134 -311.77 162.129 -332.603C200.234 -361.99 251.086 -389.101 295.481 -379.784M-658.737 561.348C-637.866 492.959 -616.578 424.603 -593.905 356.81C-584.595 328.947 -573.918 300.157 -551.495 279.81C-531.174 261.497 -503.697 252.169 -477.237 242.951C-396.822 215.156 -316.707 185.536 -241.981 147.33C-179.752 115.511 -122.643 75.6135 -81.5351 21.6577C-14.2836 -66.6036 -3.15565 -187.092 68.5004 -270.082C91.1399 -296.308 115.732 -318.346 143.26 -338.582C182.032 -367.074 233.117 -393.179 277.612 -382.47M-680.676 551.69C-659.688 483.189 -638.367 414.711 -615.877 346.697C-606.702 318.956 -596.291 290.254 -574.035 269.974C-553.981 251.816 -526.82 242.576 -500.66 233.491C-420.246 205.74 -340.181 176.197 -265.121 138.422C-202.991 107.156 -145.216 68.2418 -103.941 14.7944C-35.7888 -73.4558 -25.4283 -194.939 47.8961 -277.619C70.8195 -303.47 96.2953 -324.933 124.357 -344.561C163.813 -372.158 215.116 -397.257 259.711 -385.155M-702.632 542.041C-681.527 473.419 -660.156 404.831 -637.849 336.607C-628.823 308.999 -618.63 280.363 -596.558 260.16C-576.787 242.167 -549.943 233.016 -524.068 224.053C-443.652 196.346 -363.621 166.87 -288.228 129.536C-226.198 98.8113 -167.756 60.9034 -126.314 7.9643C-57.2605 -80.2527 -47.6841 -202.786 27.3253 -285.123C50.5322 -310.598 76.9089 -331.498 105.488 -350.519C145.612 -377.231 197.147 -401.313 241.842 -387.83M-724.571 532.393C-703.349 463.661 -681.945 394.95 -659.805 326.516C-650.912 299.03 -640.969 270.472 -619.08 250.335C-599.594 232.497 -573.05 223.434 -547.475 214.592C-467.077 186.929 -387.079 157.509 -311.351 120.617C-249.405 90.4452 -190.295 53.5317 -148.703 1.08995C-78.7322 -87.094 -69.9735 -210.7 6.73773 -292.672C30.2449 -317.782 57.4891 -338.107 86.602 -356.52C127.41 -382.337 179.163 -405.425 223.958 -390.538M-746.527 522.744C-725.188 453.902 -703.6 385.102 -681.794 316.415C-673.002 289.072 -663.341 260.579 -641.619 240.51C-622.417 222.826 -596.191 213.852 -570.898 205.143C-490.5 177.513 -410.536 148.17 -334.492 111.72C-272.646 82.0789 -212.869 46.1821 -171.093 -5.75125C-100.204 -93.9023 -92.2627 -218.602 -13.8498 -300.187C9.94096 -324.944 38.0861 -344.683 67.7161 -362.488C109.208 -387.421 161.178 -409.492 206.073 -393.223M-768.465 513.085C-747.01 444.121 -725.438 375.189 -703.749 306.313C-695.124 279.092 -685.682 250.677 -664.143 230.684C-645.224 213.156 -619.298 204.27 -594.322 195.694C-513.924 168.108 -434.06 138.721 -357.615 102.824C-295.902 73.6463 -235.408 38.8436 -193.482 -12.5924C-121.676 -100.699 -114.552 -226.526 -34.4374 -307.703C-10.3463 -332.105 18.6499 -351.292 48.8304 -368.455C90.9566 -392.56 143.193 -413.559 188.188 -395.898M170.303 -398.583C125.208 -417.626 72.788 -397.6 29.9445 -374.424C-0.73654 -357.835 -30.6336 -339.29 -55.0249 -315.218C-136.858 -234.472 -143.147 -107.485 -215.871 -19.4336C-257.964 31.5161 -319.076 65.3794 -380.739 93.9376C-457.466 129.481 -537.331 158.724 -617.728 186.266C-642.421 194.721 -668.03 203.518 -686.666 220.892C-708.037 240.808 -717.263 269.145 -725.721 296.245C-747.294 365.32 -768.849 434.394 -790.421 503.47" stroke="url(#paint0_linear_179_100)" stroke-miterlimit="10"/>
</g>
</g>
</g>
<defs>
<linearGradient id="paint0_linear_179_100" x1="351.579" y1="-406.179" x2="351.579" y2="877.077" gradientUnits="userSpaceOnUse">
<stop stop-color="white"/>
<stop offset="0.550347" stop-color="#D1D1D1"/>
<stop offset="1"/>
</linearGradient>
<clipPath id="clip0_179_100">
<rect width="1142" height="812" fill="white"/>
</clipPath>
</defs>
</svg>
