<svg width="375" height="812" viewBox="0 0 375 812" fill="none" xmlns="http://www.w3.org/2000/svg">
<g opacity="0.5">
<g clip-path="url(#clip0_189_200)">
<mask id="mask0_189_200" style="mask-type:luminance" maskUnits="userSpaceOnUse" x="0" y="0" width="812" height="812">
<path d="M812 811.545L812 0L0.551758 -3.54695e-05L0.551722 811.545L812 811.545Z" fill="white"/>
</mask>
<g mask="url(#mask0_189_200)">
<path d="M-405.623 592.807C-344.983 602.107 -285.899 617.884 -231.436 639.985C-195.382 654.611 -161.01 672.702 -135.679 697.103C-106.656 725.17 -91.3204 759.75 -73.5234 792.787C-42.7929 850.106 -2.64926 906.58 59.4193 945.957C133.29 992.825 230.637 1008.72 324.567 1024.42C405.269 1037.91 490.933 1050.76 570.463 1043.92C630.1 1038.79 685.183 1019.33 744.289 1014.81C836.463 1007.73 928.028 1035.2 1011.8 1061.98M-395.971 577.208C-335.213 586.591 -275.979 602.333 -221.333 624.374C-185.395 638.869 -151.124 656.818 -125.86 681.101C-96.9877 708.966 -81.7355 743.32 -64.0641 776.155C-33.3755 833.475 6.57908 889.989 68.3271 929.538C141.535 976.423 238.119 992.501 331.431 1008.53C412.276 1022.41 498.459 1035.53 578.001 1029.31C637.173 1024.67 691.748 1005.59 750.268 1001.4C841.502 994.866 932.118 1022.44 1014.49 1049.29M-386.319 561.621C-325.444 571.075 -266.059 586.793 -211.245 608.763C-175.417 623.128 -141.229 640.934 -116.04 665.086C-87.3274 692.749 -72.1673 726.89 -54.6298 759.512C-23.9797 816.832 15.7748 873.393 77.2239 913.1C149.758 959.976 245.59 976.261 338.272 992.609C419.261 1006.9 505.952 1020.29 585.516 1014.67C644.213 1010.52 698.291 991.827 756.236 987.969C846.542 981.962 936.185 1009.65 1017.17 1036.57M-376.667 546.009C-315.684 555.546 -256.148 571.229 -201.141 593.139C-165.422 607.374 -131.326 625.038 -106.221 649.071C-77.6588 676.534 -62.5823 710.449 -45.1787 742.857C-14.5739 800.177 24.9813 856.773 86.1207 896.656C157.992 943.539 253.061 960.039 345.124 976.693C426.257 991.377 513.446 1005.04 593.042 1000.04C651.275 996.368 704.833 978.069 762.215 974.553C851.593 969.077 940.263 996.872 1019.86 1023.87M-367.024 530.41C-305.923 540.03 -246.237 555.678 -191.054 577.528C-155.443 591.621 -121.44 609.154 -96.4017 633.057C-68.0069 660.317 -53.0225 694.019 -35.7278 726.214C-5.16897 783.522 34.198 840.166 95.0176 880.214C166.226 927.11 260.532 943.808 351.965 960.777C433.241 975.848 520.928 989.777 600.558 985.397C658.304 982.223 711.376 964.293 768.183 961.127C856.632 956.182 944.33 984.085 1022.53 1011.15M-357.372 514.811C-296.154 524.514 -236.325 540.126 -180.959 561.905C-145.465 575.867 -111.553 593.258 -86.5907 617.043C-58.3549 644.113 -43.4543 677.578 -26.2851 709.571C4.22514 766.879 43.3936 823.57 103.914 863.785C174.459 910.681 268.003 927.595 358.817 944.869C440.248 960.354 528.41 974.544 608.084 970.776C665.355 968.069 717.93 950.544 774.162 947.711C861.672 943.296 948.409 971.307 1025.23 998.445M-347.711 499.212C-286.385 508.998 -226.397 524.585 -170.846 546.294C-135.461 560.126 -101.642 577.374 -76.7546 601.04C-48.6695 627.909 -33.861 661.148 -16.8283 692.939C13.6418 750.247 52.622 806.974 112.822 847.355C182.704 894.236 275.486 911.391 365.67 928.971C447.256 944.869 535.882 959.302 615.611 956.155C672.396 953.916 724.483 936.794 780.142 934.304C866.723 930.428 952.486 958.547 1027.92 985.739M-338.068 483.612C-276.624 493.482 -216.486 509.034 -160.759 530.683C-125.483 544.384 -91.7473 561.49 -66.9353 585.026C-39.0092 611.692 -24.2886 644.718 -7.37895 676.296C23.0468 733.605 61.8394 790.366 121.719 830.925C190.937 877.806 282.968 895.185 372.511 913.064C454.241 929.376 543.341 944.042 623.126 941.533C679.414 939.753 731.027 923.036 786.11 920.887C871.752 917.542 956.554 945.769 1030.6 973.042M-328.416 468.025C-266.855 477.978 -206.566 493.494 -150.655 515.071C-115.488 528.642 -81.861 545.606 -57.116 569.023C-29.3489 595.488 -14.7179 628.3 2.07046 659.665C32.4518 716.973 71.046 773.771 130.627 814.495C199.194 861.376 290.439 878.992 379.374 897.154C461.259 913.864 550.802 928.8 630.664 926.903C686.465 925.59 737.58 909.287 792.089 907.471C876.802 904.647 960.643 932.991 1033.29 960.336M-318.773 452.425C-257.102 462.461 -196.654 477.953 -140.568 499.461C-105.51 512.901 -71.9664 529.721 -47.2966 553.008C-19.6912 579.272 -5.14638 611.859 11.5088 643.021C41.8466 700.33 80.2517 757.152 139.513 798.066C207.416 844.935 297.899 862.8 386.204 881.246C468.232 898.388 558.228 913.54 638.168 912.282C693.472 911.4 744.112 895.529 798.046 894.058C881.82 891.768 964.699 920.204 1035.96 947.63M-309.129 436.826C-247.35 446.933 -186.768 462.402 -130.481 483.849C-95.5395 497.159 -62.0215 513.803 -37.4857 537.005C-9.9656 563.021 4.42441 595.44 20.9582 626.378C51.2626 683.674 89.4692 740.544 148.41 781.624C215.65 828.481 305.37 846.596 393.057 865.327C475.239 882.883 565.678 898.269 645.694 897.64C700.49 897.213 750.666 881.756 804.025 880.629C886.86 878.874 968.777 907.417 1038.65 934.915M-299.485 421.215C-237.581 431.405 -176.848 446.838 -120.385 468.215C-85.5611 481.394 -52.1268 497.894 -27.6748 520.968C-0.306172 546.781 13.995 578.976 30.3966 609.711C60.6566 667.008 98.6758 723.913 157.306 765.171C223.895 812.028 312.841 830.391 399.898 849.395C482.235 867.379 573.105 882.978 653.209 882.99C707.507 883.002 757.198 867.972 809.993 867.189C891.899 865.967 972.844 894.615 1041.33 922.182M-289.825 405.603C-227.812 415.877 -166.928 431.286 -110.281 452.591C-75.5659 465.652 -42.2238 481.999 -17.8345 504.952C9.37589 530.564 23.5775 562.534 39.8568 593.068C70.0733 650.364 107.904 707.293 166.214 748.729C232.151 795.575 320.323 814.199 406.75 833.475C489.242 851.874 580.532 867.687 660.735 868.352C714.526 868.802 763.751 854.2 815.972 853.748C896.939 853.049 976.922 881.816 1044.02 909.458M-280.173 389.98C-218.051 400.337 -157.025 415.711 -100.186 436.957C-65.5792 449.887 -32.3207 466.091 -8.00923 488.915C19.0463 514.324 33.237 546.057 49.3063 576.401C79.6223 633.65 117.122 690.662 175.111 732.264C240.384 779.097 327.795 797.983 413.602 817.544C496.249 836.37 587.958 852.396 668.262 853.702C721.532 854.567 770.305 840.427 821.951 840.308C901.99 840.142 981.012 869.015 1046.7 896.727M-270.53 374.358C-208.29 384.797 -147.106 400.147 -90.0899 421.31C-55.6092 434.11 -22.4319 450.172 1.80508 472.876C28.7057 498.084 42.8077 529.591 58.7556 559.734C89.0381 616.983 126.327 674.018 184.019 715.811C248.64 762.62 335.277 781.79 420.455 801.612C503.256 820.877 595.374 837.082 675.788 839.05C728.551 840.344 776.848 826.643 827.93 826.879C907.029 827.236 985.09 856.228 1049.4 884.01M-260.869 358.758C-198.513 369.28 -137.186 384.607 -79.9776 405.699C-45.6057 418.368 -12.5179 434.288 11.6412 456.874C38.3869 481.88 52.401 513.174 68.2166 543.103C98.4657 600.34 135.556 657.422 192.927 699.381C256.896 746.178 342.759 765.622 427.318 785.705C510.274 805.397 602.79 821.802 683.326 824.425C735.569 826.132 783.413 812.882 833.91 813.463C912.07 814.353 989.168 843.452 1052.09 871.305M-251.217 343.159C-188.752 353.764 -127.283 369.055 -69.8903 390.087C-35.6356 402.638 -2.62659 418.404 21.4555 440.859C48.0464 465.664 61.9718 496.732 77.6551 526.448C107.86 583.685 144.773 640.791 201.813 682.939C265.13 729.725 350.208 749.453 434.148 769.785C517.259 789.916 610.184 806.5 690.831 809.798C742.554 811.909 789.934 799.121 839.867 800.035C917.087 801.458 993.224 830.664 1054.76 858.589M-241.574 327.548C-178.991 338.224 -117.371 353.503 -59.7948 374.452C-25.6573 386.872 7.26474 402.496 31.2698 424.833C57.7058 449.436 71.5433 480.279 87.1044 509.793C117.276 567.018 153.991 624.16 210.721 666.486C273.386 713.248 357.69 733.272 441 753.853C524.266 774.423 617.578 791.174 698.357 795.148C749.561 797.663 796.476 785.337 845.846 786.594C922.127 788.54 997.302 817.865 1057.45 845.86M-231.922 311.925C-169.222 322.684 -107.468 337.939 -49.6991 358.818C-15.6789 371.119 17.1669 386.576 41.0949 408.795C67.3761 433.196 81.1249 463.825 96.5537 493.126C126.692 550.351 163.208 607.517 219.618 650.032C281.641 696.771 365.15 717.091 447.853 737.922C531.262 758.93 624.971 775.847 705.883 780.497C756.557 783.404 803.03 771.553 851.825 773.154C927.166 775.634 1001.38 805.064 1060.14 833.132M-222.262 296.313C-159.453 307.156 -97.5486 322.387 -39.5952 343.194C-5.68879 355.365 27.07 370.68 50.9202 392.78C77.0465 416.98 90.7074 447.384 106.003 476.483C136.098 533.708 172.436 590.898 228.515 633.591C289.886 680.317 372.621 700.935 454.693 722.003C538.257 743.462 632.354 760.52 713.398 765.859C763.553 769.156 809.562 757.78 857.793 759.725C932.195 762.727 1005.45 792.276 1062.82 820.415M-212.627 280.703C-149.709 291.628 -87.6622 306.836 -29.5164 327.56C4.26954 339.612 36.9395 354.773 60.7228 376.754C86.695 400.752 100.267 430.943 115.441 459.827C145.503 517.052 181.643 574.266 237.411 617.15C298.142 663.853 380.082 684.778 461.546 706.095C545.265 728.005 639.737 745.206 720.925 751.232C770.548 754.91 816.116 744.031 863.772 746.309C937.235 749.844 1009.54 779.501 1065.51 807.71M-202.966 265.103C-139.923 276.111 -77.7341 291.284 -19.4041 311.948C14.2605 323.87 46.8526 338.888 70.5597 360.739C96.3771 384.535 109.86 414.5 124.902 443.185C154.919 500.398 190.882 557.634 246.319 600.707C306.398 647.387 387.553 668.621 468.398 690.176C552.272 712.536 647.12 729.868 728.451 736.594C777.544 740.651 822.659 730.259 869.74 732.892C942.263 736.95 1013.6 766.725 1068.19 795.005M-193.314 249.516C-130.171 260.607 -67.831 275.756 -9.31343 296.349C24.2406 308.153 56.7448 323.017 80.3732 344.737C106.037 368.331 119.431 398.083 134.34 426.553C164.325 483.767 200.089 541.027 255.205 584.29C314.643 630.946 395.001 652.488 475.24 674.279C559.267 697.092 654.481 714.553 735.967 721.979C784.529 726.404 829.19 716.499 875.708 719.476C947.281 724.055 1017.67 753.949 1070.86 782.3M-183.679 233.916C-120.419 245.091 -57.9447 260.216 0.777095 280.726C34.2097 292.399 66.6361 307.12 90.1875 328.722C115.696 352.116 128.991 381.641 143.79 409.898C173.73 467.111 209.317 524.395 264.113 567.836C322.909 614.456 402.484 636.331 482.091 658.348C566.263 681.622 661.852 699.191 743.493 707.328C791.525 712.121 835.733 702.714 881.687 706.035C952.32 711.137 1021.75 741.137 1073.56 769.572M-174.019 218.294C-110.649 229.551 -48.0249 244.652 10.8786 265.091C44.1898 276.645 76.5384 291.213 100.013 312.696C125.366 335.887 138.574 365.188 153.24 393.243C183.146 450.444 218.545 507.753 273.01 551.395C331.166 597.992 409.933 620.198 488.932 642.429C573.26 666.166 669.213 683.829 751.009 692.69C798.499 697.839 842.265 688.942 887.655 692.607C957.349 698.23 1025.82 728.35 1076.24 756.855M-164.384 202.694C-100.889 214.023 -38.1386 229.124 20.9583 249.468C54.1582 260.904 86.4188 275.316 109.816 296.669C135.015 319.659 148.133 348.746 162.678 376.588C192.54 433.79 227.763 491.109 281.896 534.942C339.41 581.503 417.382 604.041 495.774 626.497C580.245 650.697 676.574 668.455 758.524 678.04C805.484 683.532 848.808 675.158 893.623 679.167C962.367 685.323 1029.88 715.549 1078.92 744.127M-154.732 187.071C-91.1278 198.483 -28.2355 213.56 31.0597 233.833C64.1382 245.138 96.311 259.409 119.641 280.643C144.685 303.432 157.716 332.293 172.128 359.933C201.956 417.134 236.991 474.478 290.803 518.5C347.677 565.037 424.853 587.908 502.626 610.589C587.251 635.252 683.934 653.093 766.05 663.413C812.48 669.25 855.35 661.397 899.602 665.75C967.407 672.429 1033.96 702.774 1081.61 731.41M-145.08 171.46C-81.3588 182.954 -18.3209 198.008 41.1611 218.21C74.1182 229.397 106.213 243.514 129.467 264.617C154.345 287.203 167.297 315.852 181.577 343.278C211.362 400.479 246.22 457.835 299.7 502.046C355.944 548.548 432.313 571.775 509.478 594.657C594.247 619.794 691.306 637.695 773.577 648.763C819.465 654.943 861.893 647.613 905.582 652.31C972.435 659.51 1038.05 689.973 1084.3 718.681M-135.42 155.837C-71.5813 167.415 -8.40685 182.456 51.2735 202.564C84.1092 213.631 116.127 227.594 139.303 248.579C164.026 270.963 176.891 299.386 191.048 326.611C220.801 383.801 255.471 441.179 308.62 485.593C364.233 532.059 439.784 555.63 516.342 578.727C601.254 604.337 698.678 622.286 781.114 634.124C826.471 640.637 868.447 633.84 911.572 638.881C977.486 646.604 1042.14 677.186 1087 705.964M-125.759 140.238C-61.8122 151.899 1.50626 166.917 61.3749 186.952C94.0893 197.901 126.029 211.71 149.128 232.576C173.696 254.771 186.473 282.968 200.498 309.967C230.206 367.157 264.71 424.548 317.527 469.152C372.5 515.582 447.245 539.509 523.194 562.807C608.25 588.904 706.038 606.888 788.641 619.486C833.467 626.319 874.99 620.056 917.54 625.453C982.503 633.697 1046.21 664.398 1089.69 693.247M-116.107 124.626C-52.0514 136.37 11.4093 151.376 71.4655 171.329C104.058 182.16 135.921 195.814 158.942 216.549C183.356 238.543 196.033 266.515 209.936 293.313C239.6 350.502 273.927 407.893 326.413 452.71C380.755 499.105 454.693 523.387 530.035 546.887C615.235 573.472 713.387 591.479 796.156 604.847C840.441 612.001 881.522 606.283 923.508 612.025C987.532 620.779 1050.27 651.61 1092.36 680.531M-106.472 109.016C-42.2906 120.842 21.2897 135.825 81.556 155.694C114.038 166.407 145.813 179.906 168.767 200.523C193.027 222.315 205.615 250.073 219.386 276.657C249.016 333.847 283.166 391.25 335.31 436.257C389.023 482.616 462.143 507.254 536.876 530.955C622.22 558.014 720.748 576.045 803.671 590.197C847.426 597.659 888.053 592.499 929.476 598.584C992.55 607.861 1054.34 638.81 1095.03 667.802M-96.837 93.3925C-32.5467 105.303 31.181 120.273 91.6357 140.06C123.996 150.653 155.682 163.999 178.571 184.485C202.675 206.075 215.175 233.608 228.824 259.99C258.41 317.18 292.395 374.595 344.207 419.803C397.289 466.115 469.592 491.133 543.729 515.025C629.216 542.581 728.109 560.612 811.198 575.547C854.422 583.317 894.596 578.702 935.455 585.144C997.578 594.942 1058.43 626.011 1097.73 655.074M-87.16 77.7811C-22.7633 89.7743 41.1059 104.721 101.748 124.436C133.987 134.912 165.596 148.102 188.407 168.471C212.346 189.859 224.768 217.179 238.285 243.347C267.826 300.525 301.635 357.952 353.115 403.362C405.578 449.638 477.041 475.024 550.581 499.116C636.201 527.16 735.469 545.179 818.724 560.92C861.407 568.987 901.128 564.942 941.435 571.727C1002.62 582.036 1062.51 613.234 1100.42 642.369M-77.5164 62.1818C-12.9934 74.2461 51.008 89.1929 111.849 108.813C143.956 119.17 175.498 132.207 198.232 152.445C222.016 173.631 234.339 200.725 247.734 226.692C277.243 283.87 310.885 341.309 362.012 386.909C413.846 433.137 484.49 458.902 557.433 483.185C643.185 511.726 742.841 529.722 826.251 546.27C868.403 554.634 907.671 551.146 947.413 558.287C1007.65 569.118 1066.59 600.435 1103.11 629.641M-67.8562 46.5587C-3.22349 58.706 60.9111 73.6411 121.951 93.1784C153.947 103.416 185.401 116.299 208.057 136.418C231.686 157.403 243.921 184.283 257.194 210.026C286.659 267.203 320.136 324.642 370.93 370.454C422.146 416.648 491.95 442.793 564.296 467.253C650.181 496.293 750.224 514.253 833.788 531.62C875.421 540.268 914.224 537.361 953.393 544.847C1012.68 556.188 1070.67 587.624 1105.8 616.912M-58.2042 30.9476C6.5356 43.178 70.8024 58.1011 132.052 77.5558C163.915 87.6746 195.292 100.403 217.882 120.392C241.357 141.175 253.503 167.83 266.644 193.37C296.065 250.548 329.375 307.986 379.827 354.001C430.423 400.147 499.388 426.684 571.138 451.322C657.155 480.872 757.584 498.772 841.303 516.97C882.406 525.903 920.756 523.565 959.361 531.407C1017.69 543.257 1074.73 574.824 1108.49 604.184M-48.5607 15.3246C16.3056 27.6379 80.7056 42.5492 142.143 61.909C173.885 71.9092 205.183 84.4835 227.697 104.353C251.005 124.935 263.074 151.376 276.082 176.703C305.459 233.869 338.614 291.32 388.713 337.548C438.69 383.646 506.815 410.574 577.978 435.391C664.129 465.45 764.945 483.28 848.819 502.32C889.391 511.537 927.288 509.77 965.329 517.966C1022.71 530.327 1078.8 562.024 1111.16 591.455M-38.9087 -0.298428C26.0638 12.098 90.5968 26.9974 152.244 46.2741C183.865 56.1675 215.087 68.5758 237.522 88.327C260.676 108.707 272.645 134.923 285.543 160.048C314.875 217.214 347.865 274.676 397.632 321.094C446.99 367.145 514.275 394.465 584.842 419.46C671.114 450.029 772.339 467.776 856.356 487.669C896.409 497.159 933.842 495.984 971.319 504.526C1027.75 517.397 1082.89 549.224 1113.87 578.727M-29.2401 -15.9096C35.8454 -3.43013 100.522 11.4573 162.358 30.651C193.856 40.4258 224.989 52.6799 247.358 72.3006C270.358 92.4788 282.238 118.482 295.003 143.393C324.302 200.559 357.126 258.009 406.54 304.653C455.279 350.656 521.724 378.368 591.694 403.54C678.099 434.62 779.722 452.271 863.883 473.043C903.415 482.794 940.373 482.212 977.298 491.109C1032.79 504.49 1086.98 536.448 1116.55 566.022M-19.5916 -31.5089C45.6037 -18.9464 110.413 -4.05886 172.448 15.0281C203.824 24.6842 234.881 36.784 257.172 56.2861C280.017 76.2745 291.81 102.04 304.453 126.75C333.707 183.916 366.377 241.366 415.437 288.211C463.569 334.167 529.162 362.281 598.546 387.632C685.072 419.234 787.115 436.767 871.409 458.416C910.422 468.428 946.916 468.439 983.277 477.692C1037.82 491.584 1091.06 523.672 1119.24 553.316M-9.94299 -47.1082C55.3736 -34.4626 120.315 -19.587 182.55 -0.583158C213.804 8.96623 244.783 20.9 266.998 40.2716C289.676 60.0584 301.38 85.6104 313.902 110.095C343.113 167.26 375.639 224.711 424.345 271.77C471.858 317.678 536.6 346.196 605.398 371.712C692.035 403.836 794.509 421.251 878.935 443.777C917.43 454.051 953.459 454.655 989.256 464.264C1042.85 478.665 1095.13 510.885 1121.94 540.6M-0.283485 -62.7194C65.1445 -50.0027 130.218 -35.127 192.651 -16.2061C223.784 -6.77543 254.674 5.00416 276.823 24.2571C299.347 43.8422 310.963 69.1688 323.352 93.4518C352.518 150.606 384.889 208.068 433.242 255.328C480.147 301.177 544.027 330.11 612.251 355.793C699.009 388.451 801.914 405.71 886.462 429.139C924.436 439.661 960.002 440.871 995.224 450.836C1047.87 465.735 1099.2 498.097 1124.61 527.884M9.35333 -78.3186C74.8918 -65.519 140.099 -50.6432 202.73 -31.8292C233.742 -22.5171 264.555 -10.8917 286.626 8.23078C308.996 27.6143 320.523 52.7274 332.79 76.7966C361.912 133.95 394.14 191.401 442.128 238.887C488.424 284.688 551.443 314.036 619.081 339.874C705.95 373.053 809.308 390.158 893.966 414.5C931.432 425.272 966.522 427.075 1001.18 437.407C1052.88 452.817 1103.26 485.309 1127.28 515.167M19.0019 -93.9296C84.6617 -81.0471 149.99 -66.1833 212.832 -47.4522C243.711 -38.2469 274.458 -26.7876 296.451 -7.78365C318.655 11.3981 330.093 36.2858 342.24 60.1533C371.317 117.307 403.39 174.758 451.035 222.446C496.724 268.199 558.881 297.963 625.944 323.954C712.924 357.679 816.735 374.595 901.504 399.863C938.461 410.883 973.077 413.291 1007.17 423.979C1057.92 439.886 1107.35 472.521 1129.98 502.45M28.6613 -109.541C94.4316 -96.5751 159.904 -81.7114 222.934 -63.0753C253.691 -53.9885 284.349 -42.6834 306.277 -23.7982C328.325 -4.81803 339.676 19.8561 351.689 43.5102C380.723 100.665 412.652 158.103 459.932 206.016C505.024 251.71 566.297 281.901 632.785 308.057C719.864 342.317 824.162 359.043 909.019 385.248C945.48 396.505 979.597 399.53 1013.14 410.574C1062.94 426.98 1111.42 459.757 1132.67 489.745M38.3099 -125.128C104.191 -112.08 169.795 -97.2153 233.035 -78.6864C263.671 -69.7064 294.251 -58.5674 316.102 -39.8127C337.996 -21.0341 349.246 3.41457 361.149 26.8669C390.139 84.0208 421.925 141.448 468.84 189.574C513.336 235.209 573.734 265.827 639.638 292.138C726.826 326.943 831.6 343.468 916.546 370.609C952.509 382.104 986.14 385.734 1019.12 397.145C1067.97 414.05 1115.5 446.969 1135.35 477.029M47.9584 -140.74C113.95 -127.607 179.687 -112.744 243.126 -94.309C273.629 -85.4362 304.132 -74.4633 325.915 -55.8271C347.644 -37.2385 358.817 -13.0151 370.588 10.2237C399.534 67.3777 431.186 124.793 477.737 173.145C521.625 218.733 581.15 249.765 646.489 276.23C733.778 311.58 839.049 327.88 924.072 355.982C959.537 367.703 992.683 371.962 1025.1 383.729C1073.01 401.132 1119.58 434.192 1138.05 464.324M57.6179 -156.338C123.731 -143.124 189.59 -128.272 253.227 -109.92C283.608 -101.166 314.035 -90.3471 335.741 -71.8417C357.315 -53.4546 368.4 -29.4567 380.037 -6.4314C408.938 50.7225 440.458 108.137 486.634 156.691C529.925 202.219 588.566 233.691 653.331 260.298C740.708 296.207 846.498 312.257 931.587 341.332C966.556 353.29 999.214 358.153 1031.07 370.289C1078.03 388.189 1123.65 421.381 1140.72 451.595M67.2657 -171.962C133.49 -158.664 199.481 -143.812 263.329 -125.567C293.589 -116.919 323.926 -106.267 345.567 -87.8799C366.974 -69.6945 377.97 -45.9101 389.487 -23.0983C418.333 34.0438 449.731 91.4465 495.53 140.226C538.225 185.695 595.971 217.593 660.183 244.355C747.649 280.809 853.969 296.61 939.113 326.67C973.596 338.853 1005.77 344.334 1037.03 356.837C1083.05 375.236 1127.72 408.569 1143.4 438.855M76.9033 -187.585C143.237 -174.216 209.361 -159.34 273.408 -141.202C303.547 -132.673 333.807 -122.174 355.38 -103.918C376.634 -85.9344 387.542 -62.3754 398.937 -39.7653C427.738 17.3886 459.004 74.768 504.439 123.773C546.547 169.183 603.398 201.52 667.036 228.424C754.589 265.447 861.462 280.964 946.64 312.02C980.647 324.416 1012.31 330.537 1043.01 343.396C1088.09 362.281 1131.79 395.769 1146.1 426.126M86.5628 -203.208C153.019 -189.755 219.253 -174.88 283.521 -156.849C313.527 -148.426 343.71 -138.082 365.206 -119.957C386.304 -102.175 397.113 -78.8288 408.386 -56.4321C437.143 0.709924 468.276 58.0892 513.336 107.307C554.847 152.658 610.803 185.434 673.876 212.48C761.519 250.062 868.944 265.293 954.155 297.357C987.676 309.98 1018.84 316.718 1048.98 329.944C1093.12 349.316 1135.86 382.958 1148.77 413.385M96.2332 -218.689C162.8 -205.154 229.167 -190.278 293.633 -172.341C323.518 -164.026 353.623 -153.848 375.053 -135.841C395.985 -118.248 406.717 -95.1282 417.857 -72.9449C446.57 -15.8028 477.571 41.5646 522.254 91.0078C563.18 136.299 618.23 169.515 680.751 196.704C768.471 234.854 876.482 249.777 961.704 282.874C994.76 295.709 1025.42 303.076 1054.98 316.67C1098.18 336.54 1139.97 370.324 1151.49 400.823M105.893 -234.299C172.569 -220.682 239.069 -205.806 303.734 -187.964C333.486 -179.756 363.514 -169.743 384.878 -151.867C405.656 -134.476 416.288 -111.581 427.318 -89.5999C455.976 -32.4579 486.866 24.8859 531.174 74.5545C571.513 119.787 625.657 153.453 687.614 180.784C775.4 219.503 884.019 234.106 969.241 268.235C1001.82 281.284 1031.97 289.28 1060.97 303.242C1103.24 323.598 1144.06 357.536 1154.19 388.106M115.541 -249.899C182.339 -236.198 248.96 -221.31 313.836 -203.587C343.466 -195.485 373.417 -185.64 394.703 -167.881C415.316 -150.692 425.87 -128.011 436.767 -106.255C465.381 -49.113 496.161 8.21893 540.071 58.113C579.824 103.274 633.05 137.391 694.466 164.865C782.33 204.165 891.568 218.424 976.768 253.597C1008.89 266.859 1038.53 275.483 1066.95 289.813C1108.28 310.656 1148.14 344.748 1156.88 375.389M125.19 -265.511C192.099 -251.726 258.852 -236.826 323.926 -219.21C353.435 -211.215 383.298 -201.535 404.518 -183.908C424.975 -166.921 435.43 -144.464 446.206 -122.91C474.775 -65.7681 505.433 -8.4599 548.956 41.6595C588.124 86.7611 640.445 121.329 701.297 148.933C789.226 188.815 899.105 202.718 984.272 238.946C1015.94 252.411 1045.05 261.663 1072.9 276.373C1113.29 297.702 1152.18 331.949 1159.53 362.661M134.837 -281.11C201.857 -267.243 268.733 -252.342 334.028 -234.822C363.404 -226.945 393.2 -217.419 414.343 -199.91C434.635 -183.113 445.012 -160.882 455.666 -139.542C484.18 -82.3994 514.728 -25.1031 557.875 25.2417C596.469 70.284 647.849 105.303 708.16 133.037C796.145 173.5 906.687 187.036 991.81 224.331C1023.02 238.009 1051.61 247.891 1078.89 262.968C1118.34 284.784 1156.27 319.185 1162.24 349.968M144.497 -296.721C211.638 -282.77 278.635 -267.859 344.129 -250.457C373.384 -242.687 403.092 -233.315 424.168 -215.948C444.294 -199.353 454.583 -177.348 465.116 -156.208C493.586 -99.0659 524.023 -41.7938 566.772 8.77645C604.79 53.7475 655.243 89.2285 715.012 117.093C803.052 158.15 914.28 171.294 999.336 209.669C1030.09 223.549 1058.17 234.071 1084.87 249.516C1123.39 271.806 1160.35 306.373 1164.93 337.228M154.145 -312.32C221.397 -298.287 288.527 -283.364 354.22 -266.068C383.353 -258.405 412.983 -249.2 433.982 -231.951C453.953 -215.557 464.154 -193.765 474.565 -172.84C502.98 -115.698 533.318 -58.4488 575.669 -7.64132C613.113 37.2704 662.637 73.2022 721.853 101.198C809.938 142.847 921.883 155.588 1006.85 195.054C1037.17 209.135 1064.71 220.287 1090.84 236.111C1128.44 258.888 1164.43 293.609 1167.6 324.535M163.794 -327.931C231.156 -313.827 298.408 -298.88 364.321 -281.691C393.322 -274.134 422.875 -265.095 443.808 -247.978C463.613 -231.774 473.725 -210.219 484.014 -189.495C512.385 -132.353 542.623 -75.1158 584.577 -24.0948C621.446 20.7458 670.031 57.1403 728.717 85.2784C816.845 127.521 929.532 139.846 1014.39 180.416C1044.27 194.699 1071.28 206.49 1096.83 222.683C1133.51 245.945 1168.52 280.822 1170.31 311.818M173.443 -343.531C240.926 -329.343 308.299 -314.384 374.412 -297.314C403.291 -289.864 432.755 -280.991 453.622 -263.992C473.272 -247.989 483.296 -226.649 493.453 -206.138C521.768 -148.996 551.918 -91.7831 593.463 -40.5244C629.757 4.25686 677.402 41.1139 735.547 69.3705C823.72 112.218 937.157 124.105 1021.89 165.79C1051.35 180.286 1077.82 192.694 1102.78 209.266C1138.54 233.003 1172.58 268.045 1172.97 299.114M183.102 -359.142C250.696 -344.871 318.19 -329.889 384.524 -312.937C413.271 -305.582 442.669 -296.875 463.458 -280.006C482.943 -264.205 492.878 -243.09 502.925 -222.793C531.196 -165.651 561.246 -108.462 602.381 -56.9779C638.113 -12.2678 684.807 25.0519 742.421 53.4391C830.627 96.8914 944.849 108.328 1029.44 151.139C1058.46 165.825 1084.4 178.886 1108.78 195.826C1143.62 220.049 1176.68 255.246 1175.69 286.385M192.75 -374.753C260.455 -360.4 328.082 -345.405 394.615 -328.56C423.24 -321.312 452.55 -312.771 473.272 -296.033C492.591 -280.422 502.449 -259.532 512.363 -239.448C540.579 -182.306 570.541 -125.141 611.278 -73.4194C646.434 -28.7686 692.179 9.01375 749.262 37.5195C837.49 81.5772 952.531 92.5616 1036.96 136.501C1065.57 151.389 1090.96 165.078 1114.75 182.397C1148.67 207.095 1180.74 242.445 1178.37 273.668M202.398 -390.352C270.214 -375.916 337.962 -360.898 404.705 -344.183C433.197 -337.041 462.43 -328.667 483.086 -312.047C502.251 -296.637 511.954 -275.95 521.801 -256.091C549.818 -198.901 579.846 -141.819 620.164 -89.8609C654.757 -45.2814 699.551 -7.02451 756.092 21.5999C844.343 66.2744 960.223 76.7729 1044.46 121.875C1072.65 136.964 1097.5 151.282 1120.7 168.98C1153.71 194.153 1184.79 229.67 1181.03 260.963M212.047 -405.963C279.984 -391.444 347.854 -376.414 414.807 -359.806C443.177 -352.771 472.321 -344.551 492.911 -328.073C511.91 -312.854 521.536 -292.403 531.262 -272.747C559.235 -215.557 589.174 -158.497 629.072 -106.303C663.112 -61.794 706.922 -23.0627 762.956 5.68032C851.228 50.9717 967.959 60.9838 1052 107.236C1079.78 122.527 1104.08 137.486 1126.69 155.552C1158.79 181.211 1188.89 216.882 1183.73 248.246M221.706 -421.563C289.754 -406.96 357.746 -391.907 424.908 -375.417C453.146 -368.489 482.224 -360.435 502.736 -344.076C521.57 -329.058 531.118 -308.821 540.711 -289.378C568.64 -232.2 598.491 -175.153 637.98 -122.733C671.456 -78.2831 714.305 -39.0891 769.808 -10.2155C858.08 35.7045 975.718 45.2064 1059.52 92.621C1086.91 108.114 1110.65 123.701 1132.67 142.148C1163.86 168.281 1192.97 204.118 1186.42 235.542M231.355 -437.174C299.513 -422.488 367.626 -407.41 435.01 -391.052C463.127 -384.219 492.116 -376.343 512.561 -360.114C531.24 -345.298 540.689 -325.286 550.16 -306.045C578.045 -248.867 607.819 -191.843 646.877 -139.197C679.801 -94.8198 721.666 -55.151 776.66 -26.1588C864.933 20.3899 983.487 29.3817 1067.05 77.959C1094.05 93.6533 1117.22 109.869 1138.65 128.695C1168.94 155.303 1197.04 191.306 1189.11 222.801M241.004 -452.773C309.283 -438.016 377.517 -422.903 445.1 -406.663C473.095 -399.938 501.996 -392.215 522.376 -376.117C540.888 -361.49 550.26 -341.704 559.599 -322.688C587.439 -265.511 617.124 -208.522 655.762 -155.627C688.133 -111.309 729.026 -71.1774 783.49 -42.0666C871.763 5.1109 991.268 13.5689 1074.56 63.3325C1101.16 79.2284 1123.77 96.0848 1144.6 115.279C1173.99 142.373 1201.1 178.53 1191.78 210.097M250.652 -468.384C319.042 -453.544 387.398 -438.407 455.191 -422.286C483.053 -415.667 511.843 -408.075 532.19 -392.131C550.504 -377.683 559.832 -358.145 569.049 -339.332C596.844 -282.153 626.464 -225.189 664.671 -172.057C696.489 -127.81 736.387 -87.2037 790.343 -57.9743C878.604 -10.1562 999.093 -2.24387 1082.08 48.706C1108.31 64.8034 1130.35 82.289 1150.58 101.862C1179.07 129.431 1205.18 165.754 1194.47 197.391M260.311 -483.984C328.812 -469.06 397.289 -453.9 465.304 -437.909C493.044 -431.385 521.746 -423.983 542.026 -408.158C560.185 -393.899 569.424 -374.587 578.509 -355.986C606.26 -298.809 635.803 -241.88 673.578 -188.51C704.845 -144.334 743.758 -103.254 797.206 -73.9058C885.456 -25.4471 1006.94 -18.0804 1089.62 34.0556C1115.47 50.3549 1136.93 68.4691 1156.56 88.4219C1184.16 116.477 1209.26 152.955 1197.16 184.663M269.959 -499.595C338.582 -484.589 407.17 -469.393 475.394 -453.532C503.002 -447.115 531.638 -439.867 551.84 -424.173C569.833 -410.115 578.985 -391.028 587.948 -372.63C615.654 -315.452 645.13 -258.547 682.464 -204.94C713.189 -160.835 751.097 -119.28 804.036 -89.8135C892.253 -40.7142 1014.79 -33.9051 1097.12 19.4291C1122.6 35.93 1143.5 54.6847 1162.52 75.0053C1189.23 103.535 1213.31 140.178 1199.83 171.958M279.608 -515.194C348.34 -500.105 417.05 -484.886 485.484 -469.144C512.971 -462.82 541.529 -455.751 561.666 -440.187C579.504 -426.332 588.566 -407.458 597.408 -389.273C625.071 -332.107 654.491 -275.226 691.383 -221.381C721.555 -177.335 758.469 -135.306 810.91 -105.733C899.094 -55.9813 1022.7 -49.7536 1104.67 4.79066C1129.78 21.5051 1150.11 40.8766 1168.52 61.5768C1194.34 90.5923 1217.43 127.39 1202.54 159.242M289.256 -530.805C358.099 -515.633 426.898 -500.283 495.586 -484.779C522.928 -478.527 551.421 -471.658 571.491 -456.213C589.174 -442.559 598.149 -423.912 606.857 -405.927C634.488 -348.762 663.83 -291.905 700.28 -237.835C729.921 -193.86 765.818 -151.357 817.752 -121.653C905.903 -71.2486 1030.6 -65.602 1112.19 -9.84776C1136.94 7.06827 1156.68 27.0804 1174.49 48.1484C1199.42 77.6507 1221.49 114.603 1205.22 146.525M298.916 -546.404C367.88 -531.149 436.812 -515.811 505.688 -500.389C532.908 -494.256 561.323 -487.543 581.316 -472.228C598.844 -458.776 607.73 -440.342 616.307 -422.583C643.893 -365.417 673.28 -308.631 709.177 -254.277C738.354 -210.396 773.157 -167.383 824.593 -137.572C912.699 -86.5157 1038.53 -81.4503 1119.7 -24.4862C1144.11 -7.35663 1163.29 13.2606 1180.46 34.72C1204.56 64.6731 1225.56 101.815 1207.9 133.808M1210.58 121.091C1229.63 89.027 1209.6 51.7546 1186.42 21.2915C1169.84 -0.523788 1151.29 -21.7816 1127.22 -39.1247C1046.47 -97.3106 919.486 -101.782 831.434 -153.491C780.484 -183.421 746.621 -226.874 718.063 -270.718C682.52 -325.274 653.276 -382.06 625.734 -439.226C617.279 -456.783 608.482 -474.991 591.109 -488.242C571.193 -503.438 542.856 -509.998 515.756 -516.012C446.681 -531.351 377.606 -546.678 308.531 -562.016" stroke="url(#paint0_linear_189_200)" stroke-miterlimit="10"/>
</g>
</g>
</g>
<defs>
<linearGradient id="paint0_linear_189_200" x1="1218.18" y1="249.984" x2="-65.0769" y2="249.984" gradientUnits="userSpaceOnUse">
<stop stop-color="white"/>
<stop offset="1" stop-color="#121212"/>
</linearGradient>
<clipPath id="clip0_189_200">
<rect width="812" height="812" fill="white" transform="translate(812) rotate(90)"/>
</clipPath>
</defs>
</svg>
