<svg width="1440" height="1024" viewBox="0 0 1440 1024" fill="none" xmlns="http://www.w3.org/2000/svg">
<g opacity="0.2">
<g clip-path="url(#clip0_189_130)">
<mask id="mask0_189_130" style="mask-type:luminance" maskUnits="userSpaceOnUse" x="0" y="-208" width="1440" height="1440">
<path d="M1440 1231.19L1440 -208L0.978394 -208L0.978331 1231.19L1440 1231.19Z" fill="white"/>
</mask>
<g mask="url(#mask0_189_130)">
<path d="M-719.332 843.284C-611.792 859.777 -507.014 887.756 -410.43 926.948C-346.491 952.887 -285.536 984.969 -240.614 1028.24C-189.145 1078.02 -161.948 1139.34 -130.387 1197.93C-75.8895 1299.58 -4.6987 1399.73 105.374 1469.56C236.377 1552.68 409.01 1580.87 575.587 1608.71C718.704 1632.63 870.619 1655.42 1011.66 1643.29C1117.42 1634.2 1215.1 1599.69 1319.92 1591.67C1483.38 1579.12 1645.76 1627.82 1794.33 1675.32M-702.215 815.62C-594.468 832.261 -489.422 860.177 -392.511 899.264C-328.78 924.971 -268.003 956.801 -223.2 999.863C-171.998 1049.28 -144.95 1110.2 -113.612 1168.43C-59.1886 1270.08 11.6668 1370.31 121.171 1440.44C250.998 1523.59 422.279 1552.1 587.759 1580.53C731.129 1605.14 883.967 1628.41 1025.03 1617.37C1129.96 1609.14 1226.74 1575.32 1330.52 1567.89C1492.32 1556.3 1653.02 1605.19 1799.09 1652.81M-685.099 787.978C-577.143 804.744 -471.83 832.618 -374.623 871.579C-311.085 897.054 -250.456 928.632 -205.786 971.464C-154.867 1020.52 -127.982 1081.07 -96.8809 1138.92C-42.5261 1240.57 27.9745 1340.87 136.948 1411.29C265.58 1494.42 435.529 1523.3 599.891 1552.29C743.516 1577.63 897.255 1601.38 1038.35 1591.41C1142.45 1584.06 1238.35 1550.91 1341.11 1544.06C1501.26 1533.41 1660.23 1582.51 1803.85 1630.26M-667.982 760.292C-559.833 777.206 -454.253 805.017 -356.704 843.873C-293.359 869.117 -232.894 900.441 -188.373 943.062C-137.72 991.764 -110.984 1051.91 -80.1204 1109.38C-25.8458 1211.03 44.3013 1311.4 152.726 1382.13C280.182 1465.27 448.778 1494.53 612.041 1524.07C755.923 1550.11 910.545 1574.33 1051.7 1565.46C1154.97 1558.96 1249.95 1526.51 1351.71 1520.27C1510.21 1510.56 1667.46 1559.85 1808.62 1607.72M-650.88 732.629C-542.524 749.689 -436.676 777.438 -338.816 816.188C-275.663 841.18 -215.362 872.273 -170.959 914.663C-120.604 963.005 -94.0306 1022.77 -63.3601 1079.87C-9.16715 1181.5 60.6462 1281.95 168.504 1352.97C294.784 1436.14 462.027 1465.75 624.174 1495.84C768.31 1522.57 923.813 1547.27 1065.03 1539.5C1167.44 1533.87 1261.55 1502.08 1362.29 1496.46C1519.15 1487.69 1674.67 1537.17 1813.36 1585.17M-633.763 704.965C-525.199 722.173 -419.099 749.858 -320.912 788.482C-257.968 813.242 -197.829 844.083 -153.56 886.263C-103.487 934.269 -77.0624 993.616 -46.6145 1050.35C7.49235 1151.98 76.9537 1252.52 184.281 1323.83C309.385 1407 475.276 1437 636.325 1467.63C780.735 1495.09 937.082 1520.26 1078.38 1513.57C1179.94 1508.77 1273.18 1477.69 1372.9 1472.67C1528.09 1464.84 1681.91 1514.51 1818.14 1562.64M-616.632 677.302C-507.875 694.657 -401.493 722.299 -302.979 760.798C-240.228 785.327 -180.252 815.915 -136.117 857.884C-86.3109 905.533 -60.0496 964.479 -29.8437 1020.86C24.1919 1122.49 93.3194 1223.09 200.078 1294.7C324.006 1377.84 488.546 1408.26 648.478 1439.44C793.162 1467.63 950.331 1493.23 1091.72 1487.64C1192.43 1483.67 1284.8 1453.31 1383.5 1448.89C1537.04 1442.02 1689.14 1491.89 1822.9 1540.11M-599.53 649.637C-490.565 667.141 -383.916 694.721 -285.09 733.113C-222.532 757.411 -162.705 787.746 -118.703 829.484C-69.1794 876.775 -43.074 935.343 -13.0863 991.343C40.8706 1092.97 109.666 1193.64 215.856 1265.56C338.608 1348.7 501.815 1379.52 660.61 1411.23C805.549 1440.15 963.56 1466.16 1105.05 1461.71C1204.87 1458.56 1296.4 1428.91 1394.09 1425.1C1545.96 1419.17 1696.35 1469.23 1827.67 1517.59M-582.413 621.995C-473.24 639.645 -366.324 667.161 -267.172 705.427C-204.807 729.494 -145.173 759.578 -101.29 801.105C-52.0479 848.038 -26.1011 906.227 3.67123 961.849C57.5495 1063.48 125.992 1164.21 231.653 1236.43C353.25 1319.56 515.064 1350.8 672.781 1383.01C817.996 1412.65 976.79 1439.13 1118.42 1435.77C1217.38 1433.44 1308.02 1404.53 1404.69 1401.31C1554.92 1396.3 1703.6 1446.56 1832.43 1495.06M-565.311 594.33C-455.946 612.129 -348.747 639.602 -249.283 677.744C-187.111 701.578 -127.626 731.408 -83.8763 772.704C-34.9208 819.281 -9.12709 877.07 20.4092 932.333C74.2103 1033.96 142.318 1134.73 247.411 1207.29C367.831 1290.41 528.293 1322.09 684.894 1354.8C830.362 1385.2 989.961 1412.07 1131.73 1409.84C1229.8 1408.28 1319.61 1380.13 1415.25 1377.52C1563.82 1373.46 1710.8 1423.89 1837.17 1472.53M-548.21 566.667C-438.651 584.59 -331.215 612.023 -231.395 650.058C-169.43 673.661 -109.989 703.177 -66.4776 744.325C-17.6735 790.461 7.84574 847.954 37.1668 902.819C90.9085 1004.43 158.664 1105.28 263.189 1178.13C382.433 1261.23 541.542 1293.35 697.046 1326.57C842.789 1357.7 1003.17 1384.99 1145.07 1383.87C1242.25 1383.12 1331.23 1355.71 1425.86 1353.71C1572.76 1350.59 1718.03 1401.21 1841.94 1449.98M-531.108 538.982C-421.326 557.053 -313.623 584.423 -213.491 622.331C-151.735 645.703 -92.4422 674.966 -49.0789 715.884C-0.543476 761.661 24.8183 818.755 53.9048 873.261C107.568 974.872 174.991 1075.79 278.966 1148.95C397.054 1232.05 554.792 1264.61 709.178 1298.32C855.195 1330.21 1016.34 1357.87 1158.4 1357.89C1254.69 1357.91 1342.81 1331.26 1436.44 1329.87C1581.69 1327.71 1725.24 1378.51 1846.7 1427.4M-513.976 511.297C-404.002 529.516 -296.031 556.843 -195.573 594.625C-134.009 617.787 -74.8801 646.776 -31.6282 687.482C16.6267 732.902 41.8118 789.598 70.6816 843.747C124.267 945.355 191.357 1046.31 294.763 1119.79C411.696 1202.87 568.061 1235.9 721.33 1270.08C867.621 1302.71 1029.51 1330.76 1171.75 1331.93C1267.14 1332.73 1354.44 1306.84 1447.04 1306.04C1590.63 1304.8 1732.47 1355.81 1851.46 1404.83M-496.859 483.591C-386.692 501.957 -278.469 529.221 -177.669 566.899C-116.299 589.829 -57.318 618.565 -14.2041 659.041C33.7761 704.102 58.942 760.377 87.4392 814.19C141.202 915.715 207.703 1016.82 310.541 1090.6C426.296 1173.65 581.31 1207.14 733.481 1241.83C880.048 1275.22 1042.68 1303.64 1185.09 1305.95C1279.56 1307.49 1366.06 1282.41 1457.65 1282.2C1599.59 1281.91 1739.72 1333.11 1856.23 1382.25M-479.758 455.886C-369.382 474.399 -260.878 501.62 -159.766 539.151C-98.6178 561.85 -39.7811 590.334 3.20062 630.598C50.9062 675.302 75.9146 731.177 104.197 784.632C157.9 886.158 224.028 987.304 326.339 1061.42C440.938 1144.43 594.579 1178.43 745.633 1213.58C892.473 1247.74 1055.84 1276.48 1198.44 1279.97C1292.01 1282.26 1377.66 1257.97 1468.25 1258.39C1608.52 1259.02 1746.96 1310.43 1861.01 1359.7M-462.626 428.222C-352.043 446.881 -243.286 474.063 -141.833 511.466C-80.8776 533.933 -22.1998 562.166 20.6439 602.219C68.0748 646.566 92.9274 702.063 120.975 755.138C174.618 856.643 240.395 957.872 342.136 1032.28C455.579 1115.27 607.848 1149.75 757.805 1185.37C904.92 1220.29 1068.99 1249.38 1211.81 1254.03C1304.46 1257.06 1389.3 1233.56 1478.85 1234.59C1617.46 1236.17 1754.19 1287.78 1865.77 1337.17M-445.509 400.559C-334.733 419.365 -225.724 446.482 -123.944 483.78C-63.1967 506.037 -4.65851 533.997 38.0486 573.82C85.2049 617.809 109.9 672.904 137.713 725.602C191.278 827.107 256.74 928.378 357.895 1003.12C470.181 1086.09 621.059 1121.08 769.917 1157.14C917.307 1192.84 1082.1 1222.25 1225.12 1228.09C1316.84 1231.84 1400.87 1209.16 1489.42 1210.78C1626.36 1213.31 1761.38 1265.1 1870.51 1314.62M-428.407 372.873C-317.423 391.807 -208.147 418.902 -106.041 456.054C-45.5011 478.079 12.8828 505.785 55.4533 545.399C102.335 589.03 126.874 643.726 154.47 696.067C207.977 797.549 273.086 898.885 373.692 973.945C484.821 1056.87 634.327 1092.38 782.068 1128.88C929.732 1165.36 1095.21 1195.07 1238.47 1202.11C1329.27 1206.57 1412.47 1184.72 1500.02 1186.95C1635.3 1190.4 1768.61 1242.4 1875.27 1292.05M-411.291 345.167C-300.099 364.248 -190.585 391.302 -88.1369 428.327C-27.8054 450.142 30.4433 477.553 72.8772 516.956C119.484 560.23 143.866 614.548 171.228 666.509C224.675 767.992 289.432 869.37 389.469 944.767C499.462 1027.65 647.556 1063.69 794.221 1100.63C942.138 1137.89 1108.32 1167.89 1251.81 1176.13C1341.68 1181.29 1424.09 1160.27 1510.62 1163.11C1644.23 1167.51 1775.85 1219.7 1880.06 1269.48M-394.159 317.482C-282.774 336.711 -172.993 363.721 -70.2187 400.621C-10.089 422.205 48.0054 449.364 90.3013 488.557C136.634 531.473 160.86 585.391 187.985 636.995C241.356 738.477 305.798 839.897 405.247 915.61C514.083 998.474 660.805 1035.04 806.352 1072.4C954.545 1110.45 1121.42 1140.71 1265.14 1150.17C1354.08 1156.02 1435.68 1135.85 1521.21 1139.3C1653.15 1144.62 1783.06 1197.02 1884.8 1246.92M-377.072 289.798C-265.494 309.174 -155.461 336.143 -52.3448 372.894C7.57109 394.268 65.508 421.154 107.685 460.135C153.744 502.694 177.813 556.233 204.723 607.458C258.034 708.94 322.125 810.402 421.025 886.453C528.725 969.276 674.036 1006.38 818.505 1044.19C966.972 1083.04 1134.51 1113.55 1278.49 1124.23C1366.49 1130.76 1447.3 1111.46 1531.81 1115.5C1662.09 1121.77 1790.31 1174.37 1889.58 1224.39M-359.941 262.134C-248.14 281.656 -137.854 308.563 -34.4117 345.209C25.289 366.351 83.0879 392.984 125.13 431.735C170.914 473.935 194.826 527.075 221.5 577.943C274.733 679.405 338.51 780.909 436.822 857.294C543.365 940.076 687.285 977.732 830.656 1015.96C979.397 1055.61 1147.6 1086.35 1291.83 1098.27C1378.9 1105.47 1458.9 1087.04 1542.4 1091.71C1671.01 1098.91 1797.52 1151.71 1894.33 1201.86M-342.824 234.491C-230.845 254.16 -120.292 281.026 -16.5169 317.546C42.9877 338.478 100.631 364.838 142.533 403.356C188.045 445.199 211.799 497.96 238.238 548.45C291.413 649.911 354.837 751.456 452.58 828.18C557.986 910.918 700.495 949.122 842.789 987.766C991.804 1028.22 1160.65 1059.19 1305.16 1072.36C1391.28 1080.2 1470.48 1062.64 1552.98 1067.92C1679.91 1076.04 1804.74 1129.05 1899.07 1179.33M-325.737 206.827C-213.551 226.644 -102.76 253.467 1.37759 289.84C60.667 310.54 118.172 336.647 159.938 374.956C205.175 416.442 228.752 468.802 254.997 518.913C308.092 620.375 371.202 721.963 468.377 799C572.646 881.677 713.765 920.469 854.94 959.513C1004.21 1000.79 1173.73 1031.95 1318.51 1046.38C1403.69 1054.88 1482.09 1038.19 1563.58 1044.08C1688.84 1053.13 1811.97 1106.33 1903.85 1156.76M-308.605 179.122C-196.226 199.086 -85.1679 225.866 19.2915 262.113C78.3656 282.603 135.733 308.437 177.362 346.536C222.324 387.662 245.746 439.624 271.755 489.376C324.791 590.817 387.568 692.448 484.155 769.843C587.288 852.478 726.974 891.859 867.071 931.283C1016.62 973.377 1186.78 1004.7 1331.84 1020.42C1416.06 1029.55 1493.67 1013.77 1574.17 1020.27C1697.76 1030.24 1819.18 1083.65 1908.6 1134.21M-291.518 151.458C-178.916 171.548 -67.6355 198.329 37.1668 234.407C96.0435 254.687 153.254 280.246 194.747 318.113C239.435 358.883 262.699 410.466 288.493 459.841C341.451 561.282 403.914 662.932 499.913 740.665C601.909 823.236 740.184 863.205 879.204 903.029C1029 945.946 1199.83 977.437 1345.16 994.435C1428.44 1004.18 1505.27 989.324 1584.75 996.433C1706.66 1007.35 1826.39 1060.95 1913.36 1111.63M-274.402 123.752C-161.607 143.99 -50.0734 170.728 55.0808 206.68C113.742 226.729 170.797 252.036 212.171 289.693C256.584 330.105 279.692 381.289 305.25 430.304C358.149 531.745 420.279 633.438 515.71 711.508C616.569 794.036 753.433 834.595 891.355 874.818C1041.43 918.555 1212.89 950.194 1358.51 968.496C1440.85 978.847 1516.88 964.921 1595.35 972.641C1715.6 984.484 1833.63 1038.3 1918.12 1089.08M-257.285 96.0664C-144.282 116.451 -32.4907 143.148 72.9945 178.974C131.441 198.812 188.358 223.847 229.595 261.271C273.714 301.326 296.684 352.131 322.008 400.769C374.829 502.209 436.645 603.924 531.488 682.328C631.231 764.794 766.663 805.985 903.508 846.565C1053.84 891.143 1225.96 922.888 1371.86 942.515C1453.24 953.476 1528.48 940.476 1605.96 948.807C1724.52 961.575 1840.88 1015.6 1922.9 1066.51M-240.153 68.362C-126.943 88.8935 -14.9092 115.568 90.9278 151.227C149.159 170.854 205.939 195.615 247.039 232.83C290.883 272.526 313.697 322.931 338.804 371.212C391.567 472.632 453.051 574.387 547.305 653.15C645.93 735.552 779.913 777.354 915.68 818.313C1066.26 863.732 1239.03 895.561 1385.23 916.555C1465.66 928.106 1540.1 916.052 1616.58 924.991C1733.47 938.687 1848.13 992.92 1927.68 1043.96M-223.022 40.6974C-109.618 61.3772 2.67069 88.0101 108.842 123.541C166.857 142.958 223.5 167.446 264.463 204.451C308.032 243.811 330.691 293.815 355.563 341.696C408.246 443.116 469.435 544.894 563.102 623.993C660.59 706.333 793.143 748.764 927.83 790.081C1078.67 836.362 1252.09 868.254 1398.57 890.596C1478.07 902.714 1551.71 891.607 1627.16 901.178C1742.37 915.798 1855.34 970.242 1932.45 1021.4M-205.905 13.0121C-92.3084 33.8387 20.2327 60.4508 126.736 95.8353C184.537 115.043 241.041 139.257 281.867 176.029C325.162 215.031 347.644 264.637 372.299 312.16C424.905 413.581 485.782 515.357 578.861 594.836C675.231 677.112 806.352 720.175 939.964 761.849C1091.06 808.994 1265.12 840.928 1411.9 864.636C1490.44 877.322 1563.29 867.183 1637.75 877.365C1751.29 892.889 1862.56 947.564 1937.19 998.852M-188.818 -14.6716C-74.9987 6.3017 37.7546 32.8723 144.631 68.1084C202.234 87.1059 258.584 111.045 299.291 147.608C342.313 186.254 364.636 235.48 389.058 282.624C441.605 384.044 502.166 485.842 594.638 565.658C689.892 647.87 819.563 691.565 952.095 733.596C1103.44 781.581 1278.17 813.558 1425.23 838.655C1502.82 851.888 1574.87 842.738 1648.33 853.529C1760.19 869.98 1869.77 924.866 1941.93 976.28M-171.731 -42.3777C-57.7188 -21.2561 55.2959 5.29218 162.506 40.3816C219.894 59.1686 276.085 82.8354 316.677 119.166C359.422 157.454 381.591 206.28 405.796 253.066C458.264 354.487 518.532 456.307 610.416 536.478C704.552 618.608 832.773 662.975 964.248 705.344C1115.85 754.213 1291.23 786.188 1438.58 812.675C1515.23 826.454 1586.48 818.27 1658.93 829.695C1769.1 847.07 1877.02 902.167 1946.72 953.707M-154.57 -70.0628C-40.369 -48.7942 72.8967 -22.2878 180.439 12.6756C237.612 31.2521 293.666 54.6445 334.12 90.7657C376.573 128.695 398.602 177.145 422.573 223.552C474.962 324.952 534.918 426.791 626.213 507.321C719.252 589.387 845.984 634.406 976.399 677.133C1128.24 726.865 1304.28 758.821 1451.92 786.735C1527.62 801.041 1598.06 793.869 1669.54 805.901C1778.04 824.182 1884.25 879.51 1951.48 931.177M-137.468 -97.7267C-23.0429 -76.3319 90.4571 -49.8252 198.353 -15.0304C255.291 3.33554 311.227 26.4553 351.544 62.3452C393.723 99.9176 415.576 147.965 439.331 194.015C491.662 295.415 551.323 397.277 641.991 478.143C733.913 560.125 859.193 605.817 988.551 648.88C1140.62 699.495 1317.35 731.408 1465.27 760.755C1540.02 775.587 1609.66 769.401 1680.14 782.066C1786.96 801.273 1891.48 856.811 1956.26 908.604M-120.337 -125.433C-5.71705 -103.891 108.019 -77.4048 216.267 -42.7573C273.009 -24.6018 328.789 -1.75469 368.968 33.9232C410.872 71.1383 432.569 118.808 456.107 164.459C508.36 265.857 567.728 367.719 657.807 448.964C748.632 530.883 872.423 577.248 1000.72 620.627C1153.03 672.125 1330.45 703.976 1478.64 734.774C1552.47 750.11 1621.28 744.956 1690.75 758.231C1795.88 778.343 1898.72 834.091 1961.02 886.032M-103.22 -153.117C11.5897 -131.428 125.56 -104.963 234.181 -70.4625C290.687 -52.5178 346.33 -29.9455 386.392 5.50278C428.021 42.3591 449.562 89.6303 472.866 134.923C525.04 236.322 584.113 338.183 673.584 419.786C763.311 501.62 885.613 548.681 1012.85 592.374C1165.4 644.778 1343.5 676.522 1491.97 708.794C1564.86 724.635 1632.87 720.491 1701.33 734.396C1804.78 755.411 1905.93 811.393 1965.79 863.459M-86.118 -180.823C28.9158 -158.987 143.123 -132.543 252.076 -98.2105C308.366 -80.4762 363.872 -58.1769 403.797 -22.9401C445.132 13.559 466.535 60.4507 489.603 105.365C541.7 206.744 600.498 308.627 689.343 390.608C777.973 472.358 898.784 520.112 1024.99 564.122C1177.77 617.43 1356.55 649.049 1505.29 682.813C1577.24 699.159 1644.45 696.025 1711.91 710.561C1813.67 732.481 1913.14 788.692 1970.53 840.886M-69.0012 -208.529C46.221 -186.545 160.664 -160.123 269.989 -125.937C326.065 -108.392 381.434 -86.3876 421.221 -51.3608C462.282 -15.2186 483.507 31.2728 506.381 75.8299C558.398 177.207 616.903 279.111 705.16 361.428C792.692 443.095 912.014 491.543 1037.16 535.869C1190.15 590.081 1369.66 621.553 1518.66 656.833C1589.69 673.661 1656.07 671.579 1722.54 686.726C1822.61 709.551 1920.39 765.993 1975.33 818.313M-51.8549 -236.214C63.5677 -214.083 178.265 -187.681 287.924 -153.643C343.783 -136.309 398.994 -114.577 438.664 -79.782C479.452 -43.9979 500.52 2.11564 523.158 46.2932C575.117 147.67 633.327 249.553 720.957 332.271C807.391 413.854 925.224 462.997 1049.31 507.637C1202.54 562.754 1382.76 594.058 1532.01 630.893C1602.12 648.186 1667.66 647.154 1733.14 662.932C1831.55 686.663 1927.65 743.336 1980.09 795.782M-34.7442 -263.878C80.873 -241.599 195.806 -215.198 305.819 -181.349C361.461 -164.225 416.537 -142.767 456.069 -108.182C496.582 -72.7346 517.494 -27.0416 539.915 16.7788C591.795 118.156 649.732 220.039 736.735 303.114C822.091 384.612 938.415 434.47 1061.46 479.427C1214.91 535.469 1395.87 566.562 1545.36 604.954C1614.54 622.71 1679.26 622.73 1743.74 639.14C1840.47 663.774 1934.88 720.68 1984.86 773.251M-17.6334 -291.541C98.199 -269.116 213.366 -242.735 323.733 -209.034C379.159 -192.099 434.098 -170.936 473.493 -136.582C513.71 -101.492 534.467 -56.1784 556.673 -12.758C608.476 88.6193 666.157 190.502 752.532 273.957C836.791 355.37 951.605 405.944 1073.61 451.195C1227.25 508.163 1408.98 539.046 1558.7 578.994C1626.97 597.214 1690.86 598.285 1754.35 615.326C1849.38 640.865 1942.11 698.003 1989.64 750.701M-0.503243 -319.226C115.527 -296.675 230.928 -270.294 341.647 -236.74C396.858 -220.015 451.639 -199.125 490.917 -164.982C530.861 -130.25 551.461 -85.3359 573.432 -42.2724C625.154 59.0841 682.561 160.988 768.31 244.799C851.491 326.108 964.776 377.417 1085.76 422.962C1239.62 480.878 1422.11 511.486 1572.05 553.034C1639.39 571.695 1702.47 573.84 1764.93 591.513C1858.28 617.935 1949.32 675.324 1994.38 728.148M16.5867 -346.89C132.812 -324.191 248.45 -297.81 359.52 -264.446C414.518 -247.932 469.161 -227.315 508.302 -193.403C547.972 -159.029 568.414 -114.493 590.168 -71.8088C641.814 29.5474 698.967 131.43 784.068 215.642C866.17 296.866 977.928 348.912 1097.88 394.732C1251.93 453.572 1435.23 483.907 1585.36 527.075C1651.8 546.177 1714.03 549.375 1775.49 567.698C1867.18 595.026 1956.52 652.646 1999.13 705.596M33.6974 -374.574C150.138 -351.729 265.992 -325.369 377.436 -292.152C432.196 -275.827 486.723 -255.505 525.726 -221.803C565.102 -187.786 585.387 -143.651 606.927 -101.324C658.493 0.0329924 715.371 101.916 799.865 186.485C880.889 267.624 991.118 320.407 1110.05 366.5C1264.3 426.308 1448.4 456.307 1598.72 501.116C1664.27 520.659 1725.65 524.93 1786.12 543.884C1876.12 572.094 1963.77 629.969 2003.91 683.044M50.8274 -402.26C167.464 -379.266 283.573 -352.907 395.35 -319.857C449.895 -303.743 504.264 -283.695 543.15 -250.203C582.251 -216.544 602.38 -172.787 623.685 -130.839C675.173 -29.4814 731.796 72.379 815.643 157.349C895.609 238.383 1004.27 291.922 1122.18 338.309C1276.61 399.065 1461.57 428.727 1612.05 475.198C1676.71 495.162 1737.22 500.526 1796.7 520.112C1885.02 549.206 1971 607.332 2008.67 660.513M67.9382 -429.902C184.771 -406.761 301.114 -380.401 413.264 -347.542C467.593 -331.617 521.825 -311.863 560.574 -278.604C599.401 -245.302 619.353 -201.944 640.461 -160.354C691.871 -58.9973 748.24 42.8439 831.439 128.191C910.349 209.12 1017.46 263.417 1134.33 310.078C1288.95 371.8 1474.76 401.106 1625.4 449.238C1689.18 469.623 1748.82 476.061 1807.3 496.297C1893.93 526.276 1978.23 584.654 2013.43 637.963M85.0489 -457.587C202.078 -434.298 318.656 -407.94 431.158 -375.247C485.253 -359.512 539.347 -340.053 577.977 -307.004C616.511 -274.038 636.326 -231.081 657.2 -189.869C708.532 -88.5123 764.665 13.3071 847.217 99.0549C925.048 179.901 1030.61 234.933 1146.48 281.866C1301.28 344.557 1487.97 373.462 1638.75 423.299C1701.64 444.084 1760.42 451.637 1817.91 472.505C1902.87 503.367 1985.46 561.997 2018.21 615.431M102.179 -485.25C219.423 -461.816 336.218 -435.477 449.072 -402.933C502.95 -387.407 556.909 -368.221 595.403 -335.404C633.661 -302.796 653.319 -260.238 673.957 -219.405C725.211 -118.048 781.108 -16.2297 862.995 69.8753C939.768 150.616 1043.76 206.428 1158.62 253.613C1313.57 317.294 1501.18 345.756 1652.07 397.318C1714.09 418.524 1772 427.149 1828.49 448.67C1911.77 480.414 1992.68 539.277 2022.96 592.859M119.288 -512.956C236.73 -489.374 353.759 -463.036 466.986 -430.68C520.649 -415.344 574.45 -396.453 612.827 -363.846C650.791 -331.596 670.292 -289.417 690.714 -248.962C741.87 -147.627 797.552 -45.8286 878.772 40.6767C954.487 121.312 1056.89 177.88 1170.77 225.34C1325.88 289.986 1514.43 318.008 1665.42 371.317C1726.57 392.922 1783.63 402.641 1839.07 424.814C1920.69 457.443 1999.89 516.556 2027.7 570.265M136.38 -540.662C254.016 -516.954 371.281 -490.573 484.861 -458.407C538.309 -443.281 591.972 -424.663 630.23 -392.288C667.921 -360.396 687.266 -318.616 707.473 -278.52C758.549 -177.163 813.996 -75.4063 894.571 11.4987C969.245 92.0287 1070.07 149.375 1182.92 197.087C1338.19 262.745 1527.72 290.261 1678.77 345.336C1739.08 367.319 1795.23 378.174 1849.68 400.978C1929.62 434.47 2007.12 493.857 2032.48 547.692M153.51 -568.368C271.363 -544.512 388.822 -518.133 502.794 -486.156C556.008 -471.219 609.534 -452.875 647.656 -420.731C685.07 -389.196 704.239 -347.795 724.231 -308.076C775.229 -206.741 830.44 -104.984 910.349 -17.7015C983.964 62.7232 1083.2 120.849 1195.05 168.813C1350.48 235.459 1540.98 262.47 1692.1 319.334C1751.54 341.718 1806.81 353.667 1860.26 377.123C1938.54 411.476 2014.33 471.138 2037.23 525.097M170.659 -595.823C288.708 -571.819 406.404 -545.438 520.728 -513.629C573.726 -498.883 627.114 -480.833 665.118 -448.899C702.239 -417.701 721.271 -376.7 741.027 -337.36C791.946 -236.025 846.923 -134.289 926.165 -46.6067C998.742 33.7128 1096.37 92.6172 1207.24 140.834C1362.8 208.49 1554.35 234.954 1705.48 293.648C1764.11 316.41 1818.48 329.474 1870.9 353.583C1947.52 388.82 2021.63 448.733 2042.05 502.82M187.789 -623.506C306.034 -599.356 423.964 -572.975 538.642 -541.335C591.403 -526.779 644.655 -509.022 682.542 -477.32C719.39 -446.48 738.243 -405.878 757.805 -366.896C808.627 -265.561 863.408 -163.867 941.983 -75.7848C1013.52 4.42955 1109.54 64.1329 1219.41 112.602C1375.09 181.267 1567.72 207.163 1718.85 267.688C1776.63 290.829 1830.1 305.008 1881.53 329.769C1956.48 365.868 2028.88 426.055 2046.83 480.268M204.9 -651.171C323.36 -626.873 441.505 -600.471 556.555 -569.041C609.102 -554.673 662.217 -537.213 699.966 -505.72C736.52 -475.237 755.237 -435.014 774.563 -396.433C825.305 -295.097 879.89 -193.424 957.76 -104.942C1028.26 -24.8536 1122.65 35.6487 1231.57 84.3711C1387.38 154.067 1581.1 179.354 1732.2 241.728C1789.16 265.248 1841.72 280.541 1892.13 305.954C1965.41 342.917 2036.11 403.377 2051.61 457.715M222.011 -678.856C340.667 -654.411 459.048 -627.987 574.45 -596.747C626.781 -582.569 679.739 -565.402 717.371 -534.142C753.65 -504.016 772.19 -464.192 791.301 -425.968C841.965 -324.633 896.335 -223.003 973.517 -134.121C1042.98 -54.1377 1135.76 7.16446 1243.68 56.1181C1399.61 126.844 1594.47 151.499 1745.51 215.748C1801.66 239.625 1853.28 256.033 1902.68 282.12C1974.31 319.944 2043.28 380.678 2056.32 435.143M239.12 -706.519C357.972 -681.927 476.57 -655.504 592.364 -624.433C644.459 -610.463 697.3 -593.571 734.795 -562.521C770.78 -532.732 789.184 -493.308 808.077 -455.463C858.644 -354.127 912.817 -252.518 989.335 -163.236C1057.78 -83.3582 1148.89 -21.2561 1255.85 27.9272C1411.88 99.6848 1607.92 123.69 1758.87 189.829C1814.22 214.086 1864.93 231.61 1913.3 258.348C1983.27 297.035 2050.53 358.043 2061.12 412.634M256.25 -734.204C375.319 -709.464 494.131 -683.021 610.278 -652.159C662.158 -638.38 714.843 -621.76 752.219 -590.962C787.91 -561.532 806.156 -522.508 824.835 -485.019C875.324 -383.683 929.302 -282.117 1005.11 -192.436C1072.53 -112.684 1162.01 -49.7621 1268 -0.346532C1424.13 72.4636 1621.38 95.7731 1772.22 163.828C1826.77 188.442 1876.55 207.101 1923.9 234.492C1992.23 274.021 2057.77 335.322 2065.88 390.04M273.361 -761.867C392.624 -736.981 511.673 -710.517 628.172 -679.845C679.837 -666.255 732.384 -649.93 769.624 -619.341C805.04 -590.268 823.129 -551.623 841.592 -514.514C891.983 -413.179 945.784 -311.653 1020.89 -221.551C1087.29 -141.904 1175.12 -78.1831 1280.13 -28.5358C1436.34 45.3252 1634.87 67.9203 1785.55 137.909C1839.31 162.881 1888.15 182.656 1934.49 210.72C2001.18 251.111 2065 312.687 2070.62 367.53M290.472 -789.553C409.931 -764.54 529.196 -738.033 646.086 -707.551C697.517 -694.149 749.925 -678.119 787.048 -647.763C822.17 -619.027 840.103 -580.802 858.35 -544.049C908.662 -442.714 962.287 -341.21 1036.69 -250.729C1102.07 -171.209 1188.23 -106.667 1292.31 -56.7673C1448.59 18.1454 1648.43 40.0038 1798.91 111.95C1851.91 137.28 1899.81 158.189 1945.11 186.906C2010.16 228.159 2072.25 290.009 2075.43 344.978M307.582 -817.217C427.257 -792.056 546.737 -765.529 663.981 -735.255C715.195 -722.045 767.447 -706.309 804.452 -676.163C839.3 -647.784 857.076 -609.939 875.088 -573.565C925.302 -472.23 978.771 -370.768 1052.45 -279.866C1116.81 -200.451 1201.3 -135.088 1304.42 -84.9782C1460.78 -8.99291 1661.95 12.0872 1812.22 86.012C1864.46 111.718 1911.4 133.723 1955.67 163.112C2019.08 205.208 2079.44 267.352 2080.15 322.448M324.713 -844.901C444.583 -819.593 564.278 -793.024 681.914 -762.961C732.893 -749.918 785.029 -734.477 821.896 -704.562C856.45 -676.541 874.07 -639.096 891.885 -603.101C942.021 -501.765 995.313 -400.346 1068.26 -309.044C1131.63 -229.755 1214.44 -163.573 1316.61 -113.231C1473.03 -36.1727 1675.59 -15.8915 1825.61 60.0299C1877.08 86.0743 1923.08 109.237 1966.32 139.278C2028.09 182.235 2086.72 244.653 2084.97 299.875M341.822 -872.586C461.89 -847.132 581.819 -820.541 699.809 -790.667C750.572 -777.814 802.551 -762.668 839.3 -732.984C873.56 -705.299 891.042 -668.253 908.624 -632.637C958.661 -531.302 1011.8 -429.924 1084.04 -338.202C1146.39 -259.018 1227.51 -192.015 1328.74 -141.463C1485.2 -63.3309 1689.22 -43.8511 1838.94 34.0716C1889.68 60.4732 1934.7 84.7491 1976.9 115.463C2037.05 159.262 2093.93 221.953 2089.71 277.323M358.933 -900.249C479.196 -874.648 599.341 -848.015 717.703 -818.373C768.231 -805.708 820.072 -790.857 856.703 -761.384C890.69 -734.056 907.898 -697.369 925.362 -662.152C975.046 -560.731 1028.3 -459.501 1099.8 -367.359C1161.14 -288.302 1240.58 -220.457 1340.85 -169.695C1497.36 -90.4689 1702.86 -71.8509 1852.25 8.13246C1902.24 34.8913 1946.3 60.2833 1987.44 91.6699C2045.99 136.312 2101.1 199.297 2094.44 254.792M376.043 -927.935C496.522 -902.185 616.884 -875.532 735.617 -846.079C785.93 -833.604 837.614 -819.026 874.127 -789.805C907.82 -762.815 924.891 -726.547 942.138 -691.689C991.746 -590.268 1044.84 -489.079 1115.59 -396.517C1175.96 -317.585 1253.65 -248.899 1353.02 -197.926C1509.57 -117.607 1716.58 -99.8513 1865.61 -17.8274C1914.89 9.28862 1957.97 35.8177 1998.07 67.8565C2055 113.359 2108.37 176.619 2099.22 232.24M393.173 -955.599C513.848 -929.702 634.425 -903.007 753.531 -873.765C803.609 -861.478 855.176 -847.194 891.551 -818.184C924.95 -791.551 941.883 -755.662 958.896 -721.182C1008.42 -619.783 1061.36 -518.616 1131.39 -425.654C1190.76 -346.827 1266.75 -277.32 1365.18 -226.116C1521.72 -144.681 1730.34 -127.831 1878.96 -43.7459C1927.53 -16.2711 1969.63 11.3712 2008.67 44.0846C2063.98 90.4293 2115.61 153.982 2104 209.71M410.284 -983.283C531.155 -957.24 651.947 -930.501 771.445 -901.492C821.308 -889.374 872.717 -875.406 908.975 -846.626C942.1 -820.351 958.857 -784.861 975.653 -750.74C1025.1 -649.34 1077.91 -548.215 1147.17 -454.852C1205.56 -376.153 1279.8 -305.804 1377.33 -254.39C1533.87 -171.84 1744.11 -155.894 1892.31 -69.7473C1940.19 -41.9151 1981.27 -13.1582 2019.27 20.2281C2073 67.4148 2122.84 131.263 2108.77 187.115M427.395 -1010.95C548.481 -984.777 669.489 -957.975 789.34 -929.175C838.986 -917.249 890.239 -903.554 926.38 -875.005C959.211 -849.066 975.83 -813.977 992.391 -780.254C1041.76 -678.856 1094.41 -577.793 1162.93 -483.989C1220.33 -405.395 1292.85 -334.226 1389.44 -282.601C1545.98 -198.936 1757.91 -183.937 1905.62 -95.686C1952.79 -67.4963 1992.89 -37.6031 2029.84 -3.56458C2081.95 44.4849 2130.03 108.605 2113.51 164.585M444.506 -1038.63C565.788 -1012.31 687.011 -985.471 807.234 -956.881C856.645 -945.143 907.702 -931.679 943.785 -903.405C976.262 -877.782 992.804 -843.134 1009.15 -809.77C1058.44 -708.37 1110.97 -607.35 1178.73 -513.125C1235.15 -434.657 1305.91 -362.647 1401.59 -310.811C1558.11 -226.011 1771.79 -211.979 1918.96 -121.625C1965.47 -93.0774 2004.55 -62.0686 2040.44 -27.3572C2090.97 21.5326 2137.26 85.9483 2118.27 142.054M461.634 -1066.3C583.114 -1039.83 704.552 -1012.95 825.169 -984.587C874.363 -973.018 925.264 -959.891 961.228 -931.827C993.431 -906.54 1009.82 -872.291 1025.93 -839.305C1075.14 -737.907 1127.53 -636.949 1194.52 -542.303C1249.97 -463.961 1318.98 -391.11 1413.76 -339.064C1570.27 -253.128 1785.71 -240.064 1932.33 -147.606C1978.17 -118.7 2016.24 -86.5768 2051.04 -51.1925C2099.98 -1.44046 2144.5 63.2496 2123.03 119.481M478.745 -1093.98C600.44 -1067.37 722.074 -1040.42 843.062 -1012.29C892.022 -1000.91 942.805 -988.059 978.633 -960.227C1010.54 -935.297 1026.77 -901.449 1042.67 -868.821C1091.8 -767.422 1144.07 -666.507 1210.28 -571.44C1264.77 -493.224 1331.99 -419.532 1425.88 -367.275C1582.32 -280.202 1799.62 -268.127 1945.64 -173.544C1990.81 -144.282 2027.88 -111.022 2061.61 -74.9855C2108.98 -24.3911 2151.69 40.5922 2127.78 96.95M495.856 -1121.64C617.745 -1094.89 739.596 -1067.9 860.957 -1039.98C909.701 -1028.76 960.346 -1016.23 996.057 -988.627C1027.69 -964.056 1043.76 -930.585 1059.44 -898.336C1108.5 -796.958 1160.67 -696.085 1226.1 -600.597C1279.6 -522.486 1345.07 -447.952 1438.07 -395.506C1594.45 -307.277 1813.65 -296.233 1959.02 -199.504C2003.55 -169.863 2039.6 -135.509 2072.25 -98.7995C2118.04 -47.3435 2158.98 17.9143 2132.58 74.3996M512.966 -1149.33C635.052 -1122.42 757.06 -1095.2 878.87 -1067.71C927.36 -1056.62 977.889 -1044.44 1013.48 -1017.05C1044.84 -992.834 1060.76 -959.765 1076.2 -927.871C1125.2 -826.494 1177.24 -725.663 1241.88 -629.776C1294.44 -551.792 1358.1 -476.416 1450.2 -423.738C1606.53 -334.352 1827.67 -324.338 1972.35 -225.464C2016.26 -195.465 2051.26 -159.975 2082.84 -122.614C2127.05 -70.2942 2166.19 -4.7638 2137.34 51.8475M530.097 -1176.99C652.397 -1149.94 774.641 -1122.74 896.786 -1095.39C945.059 -1084.51 995.45 -1072.61 1030.9 -1045.45C1061.99 -1021.59 1077.75 -988.901 1092.96 -957.408C1141.88 -856.03 1193.99 -755.326 1257.65 -658.934C1309.4 -581.116 1371.11 -504.836 1462.33 -451.971C1618.58 -361.427 1841.72 -352.444 1985.68 -251.424C2028.96 -221.046 2062.98 -184.483 2093.42 -146.427C2136.17 -93.3087 2173.41 -27.4418 2142.08 29.2955M2146.85 6.74345C2180.62 -50.1195 2145.1 -116.218 2104 -170.242C2074.58 -208.929 2041.7 -246.627 1999.01 -277.383C1855.81 -380.57 1630.61 -388.501 1474.46 -480.201C1384.11 -533.279 1324.06 -610.337 1273.41 -688.091C1210.38 -784.84 1158.52 -885.545 1109.68 -986.922C1094.68 -1018.06 1079.08 -1050.35 1048.27 -1073.85C1012.95 -1100.8 962.699 -1112.43 914.64 -1123.1C792.142 -1150.3 669.646 -1177.48 547.148 -1204.68" stroke="url(#paint0_linear_189_130)" stroke-miterlimit="10"/>
</g>
</g>
</g>
<defs>
<linearGradient id="paint0_linear_189_130" x1="2160.32" y1="235.322" x2="-115.408" y2="235.322" gradientUnits="userSpaceOnUse">
<stop offset="0.326389" stop-color="#121212"/>
<stop offset="0.670139" stop-color="white"/>
<stop offset="0.909722" stop-color="#121212"/>
</linearGradient>
<clipPath id="clip0_189_130">
<rect width="1440" height="1440" fill="white" transform="translate(1440 -208) rotate(90)"/>
</clipPath>
</defs>
</svg>
